<svg id="Layer_1" data-name="Layer 1" xmlns="http://www.w3.org/2000/svg" viewBox="0 0 2974 446.97"><defs><style>.cls-1{fill:#b88b2d;fill-rule:evenodd;}</style></defs><title>bismillah</title><path class="cls-1" d="M131,304.15q-2.14-2.14-9.13-9.67t-9.13-9.67c-3.59,0-5.37,3.22-5.37,9.67q2.15,0,11.81,4.84T131,304.15m742.44-29v-3.22q0-15-12.9-15.05-6.44,0-6.44,3.23,0,4.29,7.52,9.67c5,3.58,9,5.37,11.82,5.37m347-4.3h-3.22q-5.37,0-16.12,7T1190.44,288l3.22,1.08a31.37,31.37,0,0,0,7.52,1.07q18.27,0,19.34-14Zm2.15-117.11q1.08-11.82,0-15-4.31,2.15-9.67,10.75,2.14,1.06,9.67,4.29m23.64,3.23a19.69,19.69,0,0,0-14-14q-3.22,8.6-1.08,11.83c2.15,1.42,7.17,2.15,15,2.15m235.3,144c-.71-.72-3-3.23-7-7.52s-6.27-7.17-7-8.6q-5.37,0-5.37,9.67,1.08,0,9.67,3.22t9.67,3.23M163.27,366.47q-4.29,17.19-20.41,25.78-30.09,14-82.73,49.43A56.16,56.16,0,0,1,77.32,418q33.3-23.64,86-51.57M136.41,162.33q0,8.58-7.52,20.42h-2.15q2.16-11.82-5.37-11.83-8.59,0-9.67,30.09v37.6h-2.15q0-9.66-8.59-23.64T82.69,201q0,11.82-14,11.81t-14-17.19q0-15,17.2-15,25.78,0,35.46,29V172q2.15-23.64,16.11-23.64,12.9,0,12.89,14m470.61,72a50.59,50.59,0,0,1-14,24.72h-4.3a23.72,23.72,0,0,0-7.52-1.08q-35.46,0-77.36,22.56t-60.16,22.57q-19.35,0-34.39-17.19-64.45,49.42-165.46,49.41-62.33,0-91.33-12.88-2.15,0-7,9.67c-3.23,6.45-5.91,9.66-8.06,9.66q-4.31,0-17.19-7.51-16.12-7.51-19.34-7.52-10.75,24.7-32.24,36.52-29,16.13-53.72,16.12v-4.29q63.39-27.94,76.29-58,0-52.64,24.7-52.64-1.06,0,17.2,11.28A194,194,0,0,0,174,294.48q33.3,10.74,73.06,10.75,44.05,0,92.4-11.82,59.1-15,82.73-39.76c.72,0,1.8,1.08,3.23,3.22a75.09,75.09,0,0,0-2.15,8.6,32.12,32.12,0,0,0,23.63,9.67q18.27,0,67.69-27.93-33.3-11.82-45.12-11.82c-2.86,0-4.65,1.08-5.38,3.22L434,237.53v-2.14q0-30.09,35.45-30.09,10.74,0,33.31,9.67,27.93,11.82,33.3,12.9,22.57,6.45,70.92,6.44M434,353.57l-22.57-11.82q-9.68,11.82-12.9,17.2-12.88-6.45-24.71-6.45-7.51,15-7.51,18.27,0,10.74,26.85,18.26,6.45-14,9.67-16.12,12.9,6.45,23.64,6.45,7.53-15,7.53-25.79M297.58,224.64l-1.08,3.23q3.22,15-6.44,15-7.53,0-7.52-10.74,0-1.09,11.82-41.91h-2.15q-8.59,12.9-16.12,25.79-8.59,16.11-8.6,30.09,0,19.33,18.27,19.33,17.19,0,17.19-23.63a28.87,28.87,0,0,0-5.37-17.2M286.83,68.85q-3.22,44.06-76.29,63.39l-4.29-1.07Q232,121.5,258.9,93.56q0-9.66-19.34-9.67a65.76,65.76,0,0,0-34.38,9.67q10.74-25.78,18.26-31.69T249.23,56q23.63,0,37.6,12.9M559.74,337.46q-20.41,9.68-31.16,9.67-9.66,0-9.67-7.52,0-3.23,14-19.34,6.45-7.51,8.6-11.82-8.6-5.35-15-5.37-15.06,0-20.42,14A79,79,0,0,1,518.91,316a15.62,15.62,0,0,1,9.67,3.23l-9.67,8.59q-10.74,10.74-10.74,19.34,0,10.75,12.9,10.74,11.8,0,24.17-7.52t14.5-12.89m-14-264.32Q465.19,85,353.45,122.57,236.33,163.4,180.46,201q-5.37,3.21-10.74,24.71,145-87,352.42-130,0,11.82-19.34,37.61,17.19-8.59,30.08-28.48t12.89-31.7M1016.38,222.5q-10.75,7.5-26.86,17.19-24.72-5.38-36.53-5.38-37.61,0-62.32,12.9,0,58-19.34,58-15,0-35.46-14-4.29,14-14.5,22a37.86,37.86,0,0,1-24.18,8q0,54.8-61.24,89.18-47.28,26.87-125.71,43-70.92,15-135.38,15-206.3,0-291.17-115l1.07-4.29q112.82,86,296.55,86,117.1,0,211.67-33.32,91.32-31.16,91.32-66.62,0-9.65-7-19.87t-7-13.43q0-5.37,8.6-23.64,17.19,14,22.56,14,20.41,0,31.16-20.41,16.11-29,16.12-29,24.71-21.48,77.36-29-34.39-14-46.21-14-3.21,0-4.29,4.3H841.24v-5.37q0-32.24,38.68-32.24,16.13,0,44.05,16.13a678.24,678.24,0,0,0,92.41,39.75M666.11,246.14q0-14-12.35-67.7T641.4,125.8q0-3.22,3.22-10.75t4.3-10.75Q630.65,79.58,621,68.85,612.4,86,612.39,94.64q0,6.45,11.82,34.38,2.14,4.29,14,53.73,12.89,56.92,16.11,83.8-5.37,11.82-20.41,11.81a37.89,37.89,0,0,1-21.49-6.44q-6.45,20.41-6.45,25.78s3.22,3.23,9.67,9.67,9.67,12.9,9.67,19.35q0,17.19-25.25,41.9T554.37,398.7a168.33,168.33,0,0,1-43,5.37l-2.15,3.23a172.24,172.24,0,0,0,54.8,8.6q32.22,0,52.65-33.32a120.16,120.16,0,0,0,17.19-62.31q0-2.14,16.12-24.71t16.11-49.42m40.83,87-21.49-21.49-19.34,20.42,20.42,21.48ZM596.27,153.73q0,27.93-16.12,27.93-8.6,0-14-4.29-8.6,12.88-14,12.89-15,0-15-18.27a40.51,40.51,0,0,1,2.15-12.88l4.3-2.15q0,12.89,10.74,12.88,9.66,0,9.67-19.33l5.37-5.37q0,14,9.67,14,7.51,0,9.67-19.34l5.37-4.3a75.15,75.15,0,0,1,2.15,18.26m318,190.18q-52.63,27.93-85.95,51.57a56.1,56.1,0,0,0-17.19,23.64q53.72-34.39,82.73-49.43,17.19-8.6,20.41-25.78M724.13,264.4q0-7.53-20.41-98.85t-23.64-96.7q-8.6,9.68-8.6,33.31l45.13,205.21q7.51-24.69,7.52-43m91.33-39.76q0-32.23-26.86-60.16v27.93Q809,212.83,809,262.25h2.15q4.3-15,4.3-37.61m175.13,105.3q-20.42,9.68-32.24,9.67-8.58,0-8.59-7.52,0-3.22,12.9-19.34,7.51-8.6,8.59-11.82-7.51-5.39-14-5.37-15,0-20.41,14a66.39,66.39,0,0,1,12.89-1.08,15.76,15.76,0,0,1,9.67,3.22l-9.67,8.6Q938,331,937.94,339.61q0,10.74,14,10.74,11.82,0,24.18-7.52t14.5-12.89m-231-240.68A33.91,33.91,0,0,1,765,107.53q0,22.56-17.19,22.57-18.27,0-18.27-19.35,0-14,8.06-28.47t16.66-27.4h2.15q-11.82,40.83-11.82,41.91,0,10.74,7.52,10.74,9.66,0,6.44-15Zm368.53,289a29.88,29.88,0,0,1,6.44,18.26q0,23.64-17.18,23.64-19.35,0-19.35-20.41,0-14,8.6-27.93t16.12-27.94l2.14,1.07q-11.81,40.83-11.81,41.9,0,10.75,7.52,10.75,9.66,0,6.44-16.12ZM982,61.33q-141.84,21.49-238.53,87-5.37,4.32-10.74,24.72,116-66.61,225.62-89.18,0,11.82-18.26,38.68,16.13-9.66,29-29.55T982,61.33m97.77,184.81q0-14-11.82-67.7t-11.82-52.64q0-3.22,2.69-10.75t2.68-10.75q-17.19-24.72-26.86-35.45Q1026,86,1026.05,94.64q0,6.45,12.89,34.38,2.14,4.29,12.89,53.73,12.9,56.92,16.12,83.8-4.29,11.82-20.41,11.81a33.06,33.06,0,0,1-20.42-6.44q-7.51,20.41-7.52,25.78l9.67,9.67q9.68,9.69,9.67,19.35,0,17.19-25.25,41.9t-43.51,29a156.46,156.46,0,0,1-45.13,6.44L924,407.3q38.68,12.9,56.95,12.89,31.17,0,50.5-35.45a127.87,127.87,0,0,0,17.19-64.47q0-2.14,15.58-24.71a85.15,85.15,0,0,0,15.58-49.42m187,108.51q-3.23,17.19-20.41,25.79-29,14-82.74,49.42a56.17,56.17,0,0,1,17.2-23.63q33.3-23.66,86-51.58M1020.68,143a62.71,62.71,0,0,0-2.15-17.18l-4.3,4.3q-2.15,19.32-10.75,19.34t-8.59-15.05l-5.37,6.44q0,18.27-10.75,18.28T968,147.28l-3.23,2.16a34.68,34.68,0,0,0-2.14,12.89q0,17.19,14,17.19,5.39,0,15-12.9,4.3,5.37,12.9,5.37,16.13,0,16.12-29M1137.79,264.4q0,18.25-6.45,43l-46.2-205.21q0-23.64,9.67-33.31,3.23,5.37,23.11,96.7t19.87,98.85m228.85,14q0,51.58-32.23,51.58-24.71,0-34.38-21.49-7.52,35.46-39.76,35.46-17.19,0-26.86-14a53.54,53.54,0,0,1-9.66-31.16q-18.27,31.16-36.53,31.16-21.49,0-21.5-26.86,0-19.35,27.4-34.92t27.4-17.73a79.8,79.8,0,0,0,2.15-17.19l9.67-14a58.16,58.16,0,0,1,3.22,20.42,158.28,158.28,0,0,1-1.6,18.8,156.92,156.92,0,0,0-1.62,18.8q0,31.15,31.16,31.16,30.09,0,30.09-29,0-9.68-4.84-30.62t-4.84-30.62q0-10.74,9.68-30.09,7.52,31.17,15,62.32,10.74,41.9,31.15,41.9,12.9,0,12.9-9.67,0-17.19-12.9-50.49t-12.89-36.54q0-6.44,4.3-17.19t4.3-16.11q31.15,68.76,31.15,116M1252.75,154.81q-4.29,20.41-25.78,15-8.6,19.36-34.93,31.7t-52.1,12.36l-2.15-2.15q8.6,0,38.68-15,34.38-16.12,43-27.94-12.89-5.37-12.89-14a35.09,35.09,0,0,1,2.69-12.36q2.68-7,1.61-9.13-2.14-1.08-2.14-4.3,0-6.45,14-6.45,8.6,0,20.41,11.28t9.67,21M1510.62,359q-3.22,17.19-20.41,24.71-29,15-82.73,49.43a90.43,90.43,0,0,1,17.18-23.64q33.31-23.64,86-50.5M1179.69,78.52a29.92,29.92,0,0,1,6.45,18.27q0,23.64-17.19,23.63-18.27,0-18.27-20.41,0-14,8.06-28.47t16.66-27.4l1.07,1.07Q1165.73,86,1165.72,87.12q0,10.74,6.45,10.74,10.75,0,7.52-16.12Zm149.35,58a51.88,51.88,0,0,0-3.22-18.27l-4.3,5.38q-2.16,19.33-9.67,19.33-9.67,0-9.68-15l-5.36,6.45q0,18.26-9.67,18.26-10.76,0-10.75-11.82L1272.1,143a34.55,34.55,0,0,0-2.16,12.9q0,17.2,15,17.19,4.29,0,14-12.89a17.61,17.61,0,0,0,12.9,5.37q17.19,0,17.19-29m84.88,127.86q0-7.53-19.88-98.85t-23.1-96.7q-9.68,9.68-9.66,33.31l46.2,205.21q6.43-24.69,6.44-43M1304.33,81.74q0,23.64-5.38,37.6h-1.07q0-49.41-21.49-69.83l1.08-27.94q26.85,27.95,26.86,60.17m195.55,55.87q0,7.53-7.52,19.35h-2.15q2.14-10.76-5.37-10.75-8.61,0-8.61,29-1.08,19.34-1.07,37.6H1473q0-8.58-8.06-22.56t-18.81-14q0,10.76-14,10.75-12.89,0-12.89-16.12,0-15,17.2-15,24.71,0,34.37,27.94V147.28q2.16-23.62,16.12-23.63,12.9,0,12.9,14m1443.47,139c-9.29,5.4-19.49-4.37-25.21-10.1q-5.37,8.59-9.67,17.19-10.75,14-24.72,14a38.68,38.68,0,0,1-22.56-7.52q-16.12,17.19-38.68,17.19-19.35,0-44.05-18.26-110.67,35.46-289,60.17A3008.61,3008.61,0,0,1,2079,377.21q-359.92,0-571.59-51.57-2.16,0-7,8.06t-8.05,8.05q-4.3,0-18.81-7.51t-17.73-7.52q-10.74,24.7-33.3,36.52-27.93,16.13-52.65,16.12v-4.29q63.38-27.94,76.28-58,0-52.64,23.64-52.64,6.45,0,19.88,12.35t23.1,15.58q194.48,46.21,589.86,46.21,409.36,0,715.58-90.26v6.45a144.45,144.45,0,0,1-9.67,11.82q8.61,8.59,22.57,8.59,18.27,0,50.49-32.23,1.08,3.76,2.15,7.52c0,.71-1.78,4.65-5.38,11.82a17.64,17.64,0,0,0,12.9,5.37c15.76,0,18.16-12.89,25.32-38.68a18.64,18.64,0,0,1,6.71-2c1,5.77,1.68,12.93,1.13,17.44,16.47-1.46,34.27-11.74,45.36-22.64-10-17.34-31.65-38-49.35-59.12-17.21-20.56-9.66-35.84-3.52-58.85,8.73,1.7,54.67,71.28,72.08,122.48q-6.69,18.06-13.39,36.09-16.14,11.19-32.26,14.31M2797.8,331q-9.68,3.23-11.28,10.21c-1.07,4.66-3.05,7-5.91,7a14.23,14.23,0,0,1-7-2.15c-2.51-1.43-4.13-2.15-4.84-2.15q-16.12,11.82-17.2,11.82-3.21,0-8.05-3.23t-8.05-3.22q-18.28,0-59.11,27.93Q2628,409.45,2600.1,417l1.08,3.22q29-6.44,74.13-32.23,40.83-23.64,52.65-23.64,3.23,0,8.6,3.76c3.57,2.5,6.08,3.77,7.51,3.77q5.38,0,19.34-11.83,8.61,4.31,14,4.3,14,0,20.42-33.31m121.41-1.07q-52.65,26.87-85.95,50.5a66.79,66.79,0,0,0-17.2,23.63q53.71-34.38,82.74-49.42,17.19-7.53,20.41-24.71m59.09-17.19-21.48-21.49-20.42,20.41,21.49,21.49ZM2854.74,131.17q-15-12.9-37.6-12.9-18.27,0-25.79,5.91t-18.27,30.63a70,70,0,0,1,33.32-8.6q20.42,0,20.41,9.67-26.86,27.93-52.65,37.6l3.22,1.08q74.14-19.35,77.36-63.39" transform="translate(-15 -21.57)"/></svg>