<svg id="Layer_1" data-name="Layer 1" xmlns="http://www.w3.org/2000/svg" viewBox="0 0 2974 446.97"><defs><style>.cls-1{fill:#b88b2d;fill-rule:evenodd;}</style></defs><title>bismillah</title><path class="cls-1" d="m116 283-9-10-9-10c-4 0-6 3-6 10q3 0 12 5t12 5m742-29v-4q0-15-12-15-7 0-7 4t8 9c5 4 9 6 11 6m347-5h-3q-5 0-16 7t-11 10l4 2a31 31 0 0 0 7 1q18 0 20-14Zm3-117v-15q-5 2-10 11l10 4m23 3a20 20 0 0 0-14-14q-3 9-1 12c2 2 7 2 15 2m235 144-7-7-7-9q-5 0-5 10l10 3 9 3M148 345q-4 17-20 26-30 14-83 49a56 56 0 0 1 17-24q34-23 86-51m-27-204q0 8-7 20h-2q2-12-6-12t-9 30v38h-2q0-10-9-24t-18-14q0 12-14 12t-14-17q0-15 17-15 26 0 35 29v-38q2-23 16-23 13 0 13 14m471 72a51 51 0 0 1-14 25h-4a24 24 0 0 0-8-2q-35 0-77 23t-60 23q-20 0-35-18-64 50-165 50-63 0-92-13-2 0-7 10c-3 6-5 9-8 9q-4 0-17-7-16-8-19-8-11 25-32 37-29 16-54 16v-4q63-28 76-58 0-53 25-53l17 11a194 194 0 0 0 41 19q33 11 73 11 44 0 92-12 60-15 83-40l3 3a75 75 0 0 0-2 9 32 32 0 0 0 24 10q18 0 68-28-34-12-46-12c-2 0-4 1-5 3l-30-1v-2q0-30 35-30 11 0 34 9l33 13q23 7 71 7M419 332l-23-12-12 17q-13-6-25-6-8 15-8 18 0 11 27 18 7-14 10-16 13 7 23 7 8-15 8-26M283 203l-2 3q4 15-6 15-7 0-7-10l11-42h-2l-16 25q-8 17-9 31 0 19 19 19 17 0 17-24a29 29 0 0 0-5-17M272 47q-3 44-76 64l-5-1q26-10 53-38 0-10-19-10a66 66 0 0 0-35 10q11-26 18-32t26-6q24 0 38 13m273 269q-21 10-31 10t-10-8q0-3 14-19l9-12q-9-5-15-5-16 0-21 14a79 79 0 0 1 13-2 16 16 0 0 1 10 4l-10 8q-11 11-11 20 0 10 13 10 12 0 24-7t15-13M531 52q-81 11-193 49-117 41-173 78-5 4-10 25 145-87 352-130 0 12-19 38 17-9 30-29t13-31m470 149-26 17q-25-5-37-5-38 0-62 13 0 58-20 58-15 0-35-14-4 14-15 22a38 38 0 0 1-24 8q0 54-61 89-47 27-126 43-71 15-135 15-206 0-291-115l1-4q113 86 296 86 117 0 212-34 91-31 91-66 0-10-7-20t-7-14q0-5 9-23 17 14 22 14 21 0 32-21l16-29q24-21 77-29-34-14-46-14-3 0-4 5h-35v-6q0-32 39-32 16 0 44 16a678 678 0 0 0 92 40m-350 24q0-14-12-68t-13-53q0-3 4-11t4-10q-18-25-28-36-9 17-9 26 0 7 12 34l14 54q13 57 16 84-5 12-20 12a38 38 0 0 1-22-7q-6 21-6 26s3 3 10 10 9 13 9 19q0 17-25 42t-46 30a168 168 0 0 1-43 5l-2 4a172 172 0 0 0 55 8q32 0 53-33a120 120 0 0 0 17-62q0-2 16-25t16-49m41 87-22-22-19 21 21 21ZM581 132q0 28-16 28-8 0-14-4-8 13-14 13-15 0-15-19a41 41 0 0 1 2-12l5-3q0 13 10 13t10-19l5-5q0 14 10 14 8 0 10-20l5-4a75 75 0 0 1 2 18m318 190q-52 28-86 52a56 56 0 0 0-17 24q54-35 83-50 17-8 20-26m-190-79q0-8-20-99t-24-97q-9 10-9 34l46 205q7-25 7-43m91-40q0-32-26-60v28q20 20 20 70h2q4-15 4-38m176 105q-21 10-33 10-8 0-8-7 0-4 13-20 7-8 8-12-7-5-14-5-15 0-20 14a66 66 0 0 1 13-1 16 16 0 0 1 9 3l-9 9q-12 10-12 19 0 11 14 11 12 0 24-8t15-13M745 68a34 34 0 0 1 5 18q0 23-17 23-18 0-18-20 0-14 8-28t16-28h2l-11 42q0 11 7 11 10 0 7-15Zm368 289a30 30 0 0 1 7 18q0 24-18 24-19 0-19-21 0-14 9-28t16-28l2 1-12 42q0 11 8 11 9 0 6-16ZM967 40q-142 21-239 87-5 4-10 24 116-66 225-89 0 12-18 39 16-10 29-30t13-31m98 185q0-14-12-68t-12-53l3-11 3-10-27-36q-9 17-9 26 0 7 13 34l13 54q13 57 16 84-4 12-20 12a33 33 0 0 1-21-7q-7 21-7 26l9 10q10 9 10 19 0 17-25 42t-44 29a156 156 0 0 1-45 6l-1 4q39 13 57 13 31 0 50-36a128 128 0 0 0 18-64q0-2 15-25a85 85 0 0 0 16-49m187 108q-3 17-21 26-29 14-82 49a56 56 0 0 1 17-23q33-24 86-52m-246-212a63 63 0 0 0-2-17l-5 5q-2 19-11 19t-8-15l-5 6q0 19-11 19t-11-12l-3 2a35 35 0 0 0-2 13q0 17 14 17 5 0 15-13 4 5 13 5 16 0 16-29m117 122q0 18-7 43l-46-205q0-24 10-34 3 6 23 97t20 99m229 14q0 51-33 51-24 0-34-21-7 35-40 35-17 0-27-14a54 54 0 0 1-9-31q-19 31-37 31-21 0-21-26 0-20 27-35t28-18a80 80 0 0 0 2-17l9-14a58 58 0 0 1 4 20 158 158 0 0 1-2 19 157 157 0 0 0-2 19q0 31 32 31 30 0 30-29 0-10-5-31t-5-30q0-11 10-30l15 62q10 42 31 42 13 0 13-10 0-17-13-50t-13-37q0-6 4-17t4-16q32 69 32 116m-114-124q-5 21-26 15-9 20-35 32t-52 12l-2-2q8 0 38-15 35-16 43-28-12-5-12-14a35 35 0 0 1 2-12q3-7 2-9-2-1-2-5 0-6 14-6 8 0 20 11t10 21m258 204q-4 18-21 25-29 15-83 50a90 90 0 0 1 18-24q33-24 86-51M1165 57a30 30 0 0 1 6 18q0 24-17 24-18 0-18-21 0-14 8-28t16-27l1 1-10 42q0 10 6 10 11 0 8-16Zm149 58a52 52 0 0 0-3-18l-4 5q-3 19-10 19-10 0-10-15l-5 7q0 18-10 18-11 0-11-12l-4 2a35 35 0 0 0-2 13q0 18 15 18 4 0 14-13a18 18 0 0 0 13 5q17 0 17-29m85 128q0-8-20-99t-23-97q-10 10-10 34l46 205q7-25 7-43M1289 60q0 24-5 38h-1q0-50-22-70l1-28q27 28 27 60m196 56q0 8-8 19h-2q2-10-5-10-9 0-9 29l-1 37h-2q0-8-8-22t-19-14q0 10-14 10-13 0-13-16 0-15 17-15 25 0 35 28v-36q2-24 16-24 13 0 13 14m1443 139c-9 5-19-4-25-10l-10 17q-10 14-24 14a39 39 0 0 1-23-7q-16 17-39 17-19 0-44-18-110 35-289 60a3009 3009 0 0 1-410 28q-360 0-572-52-2 0-7 8t-8 8q-4 0-18-7t-18-8q-11 25-33 37-28 16-53 16v-4q63-28 76-58 0-53 24-53 6 0 20 12t23 16q194 46 590 46 409 0 715-90v6a144 144 0 0 1-9 12q8 9 22 9 18 0 51-33l2 8-6 12a18 18 0 0 0 13 5c16 0 18-13 26-39a19 19 0 0 1 6-2c1 6 2 13 1 18 17-2 35-12 46-23-10-17-32-38-50-59-17-20-9-36-3-59 9 2 55 72 72 123l-13 36q-17 11-33 14m-145 54q-10 4-11 11c-2 4-4 7-6 7a14 14 0 0 1-7-3l-5-2-17 12q-4 0-8-3t-9-3q-18 0-59 28-48 32-76 39l1 4q29-7 74-33 41-23 53-23 3 0 9 4l7 3q5 0 19-12 9 5 14 5 14 0 21-34m121-1q-52 27-86 51a67 67 0 0 0-17 24q54-35 83-50 17-7 20-25m59-17-21-21-21 20 22 22Zm-123-181q-15-13-38-13-18 0-26 6t-18 30a70 70 0 0 1 33-8q21 0 21 9-27 28-53 38l3 1q75-19 78-63"/></svg>