<?xml version="1.0" encoding="utf-8"?>
<!-- Generator: Adobe Illustrator 23.0.1, SVG Export Plug-In . SVG Version: 6.00 Build 0)  -->
<svg version="1.1" id="Layer_1" xmlns="http://www.w3.org/2000/svg" xmlns:xlink="http://www.w3.org/1999/xlink" x="0px" y="0px"
	 viewBox="0 0 145 720" style="enable-background:new 0 0 145 720;" xml:space="preserve">
<style type="text/css">
	.st0{fill:#87C1F2;}
	.st1{opacity:0.1;}
	.st2{fill:#FFFFFF;}
	.st3{fill:#B5D6F2;}
	.st4{fill:#79B6F7;}
</style>
<g>
	<path class="st0" d="M13.7,151.8c-1.9,12.6-3.6,25.6-5,38.8l13.4,2l-13.8,1.8c-1.3,11.9-2.4,24-3.3,36.1l25.7,3.4L4.4,238
		c0,0,0,0,0,0l22.8,4.9l-23.2,1.9c-1.1,17.3-1.9,34.7-2.3,52l30.7,1.3l-30.9,4.1c-0.7,38.1,0.4,75.5,3.2,109.9l14.6,0.9l-14.2,3.9
		c0.4,4.6,0.8,9.1,1.3,13.6l38.1-2l-37.4,7.8c0.9,8,1.9,15.8,3,23.4l36-0.8l-35,7.2c0,0,0,0,0,0l40.2,0.1L12.5,474
		c1.6,9.2,3.4,17.9,5.4,26.1c9.1,38,38.7,64.8,57.2,64.8c27.4,0,71.4-34.1,70.3-121.8L81.6,442l63-15.5l0,0l-63,3.6l62.2-12.2
		c-0.2-2-0.4-4-0.7-6c-1.4-11.4-3-22.9-4.9-34.4l-72.1,7.2l70.7-15.9c-7.7-44.1-18.5-88.3-28.5-129.1l-53,5.1l50.9-13.4L51.7,235
		l51.8-14.9c-6.4-26.2-12.1-50.5-16.1-71.9L55.8,146l30.2-5.9c-1.7-9.8-2.9-19-3.6-27.3C76.7,45.2,77.6,1,77.6,1
		S31.2,35.3,13.7,151.8z"/>
	<g class="st1">
		<path class="st2" d="M4.8,412.1l14.6,0.9l-14.2,3.9c0.4,4.6,0.8,9.1,1.3,13.6l38.1-2l-37.4,7.8c0.9,8,1.9,15.8,3,23.4l36-0.8
			l-35,7.2c0,0,0,0,0,0l40.2,0.1L12.5,474c0.9,4.9,1.8,9.7,2.8,14.4l46.5-10.8l79.6,10.4c2.7-13.1,4.2-28,3.9-44.9L81.6,442l63-15.5
			l-63,3.6l62.2-12.2c-0.2-2-0.4-4-0.7-6c-0.9-7.7-2-15.5-3.2-23.2l-86.4,12.4l-49.7-0.5C4.2,404.5,4.5,408.3,4.8,412.1z"/>
		<path class="st2" d="M83.7,509.1l40.6,23.1c2.4-3.7,4.7-7.8,6.8-12.3L83.7,509.1z"/>
		<path class="st2" d="M98.4,198.7l-57,17.4l0.5,12.2l-36.4-3.8c-0.2,2-0.3,4-0.5,6l25.7,3.4L4.4,238c0,0,0,0,0,0l22.8,4.9
			l-23.2,1.9c-0.9,13.7-1.5,27.5-2,41.3l43.9,1.6l71-12.9c-2.9-11.9-5.7-23.7-8.5-35.1l-53,5.1l50.9-13.4L51.7,235l51.8-14.9
			C101.7,212.8,100,205.7,98.4,198.7z"/>
		<path class="st2" d="M1.4,317.6c-0.1,13.8,0.1,27.4,0.5,40.8l49.4,0.1l-3.9-44.2L1.4,317.6z"/>
		<path class="st2" d="M25.5,96.7c-1.1,4-2.3,8.1-3.3,12.3l23.3,6.5l1.7-10.7L25.5,96.7z"/>
		<path class="st2" d="M17.7,129.3c-1.4,7.1-2.7,14.6-3.9,22.5c-0.2,1-0.3,2.1-0.5,3.2l29.3,3.6l1.2-22.7L17.7,129.3z"/>
	</g>
	<path class="st3" d="M88.2,689.2c0.5,9.6-4.5,31.4-7.2,30.8c-3.9-1.1-11.7-136.1-26.5-292C40.6,271.3,28.1,136.3,62.1,31.6
		c-1.7,8.6-31.5,101.3-9.7,286.2C71.6,485.6,86.4,641.9,88.2,689.2z"/>
	<path class="st4" d="M62.1,31.6c-35.1,137-15,237.2-1.1,393.9c4.7,49.8,8.7,97.4,12.1,139.3c0.7,0.1,1.3,0.1,1.9,0.1
		c27.4,0,71.4-34.1,70.3-121.8L81.6,442l63-15.5l-63,3.6l62.2-12.2c-0.2-2-0.4-4-0.7-6c-1.4-11.4-3-22.9-4.9-34.4l-72.1,7.2
		l70.7-15.9c-7.7-44.1-18.5-88.3-28.5-129.1l-53,5.1l50.9-13.4L51.7,235l51.8-14.9c-6.4-26.2-12.1-50.5-16.1-71.9L55.8,146l30.2-5.9
		c-1.7-9.8-2.9-19-3.6-27.3C76.7,45.2,77.6,1,77.6,1C68.6,12.8,62.2,31.3,62.1,31.6z"/>
	<g class="st1">
		<path class="st2" d="M65.8,478.2l75.6,9.9c2.7-13.1,4.2-28,3.9-44.9L81.6,442l63-15.5l-63,3.6l62.2-12.2c-0.2-2-0.4-4-0.7-6
			c-0.9-7.7-2-15.5-3.2-23.2l-81.4,11.7c0.8,8.2,1.6,16.6,2.3,25.2C62.7,443.4,64.3,461,65.8,478.2z"/>
		<path class="st2" d="M98.4,198.7L43,215.6c0.8,23.4,2.4,47.1,4.6,71.8l69.3-12.6c-2.9-11.9-5.7-23.7-8.5-35.1l-53,5.1l50.9-13.4
			L51.7,235l51.8-14.9C101.7,212.8,100,205.7,98.4,198.7z"/>
		<path class="st2" d="M83.7,509.1l40.6,23.1c2.4-3.7,4.7-7.8,6.8-12.3L83.7,509.1z"/>
	</g>
</g>
</svg>
