<?xml version="1.0" encoding="utf-8"?>
<!-- Generator: Adobe Illustrator 23.0.1, SVG Export Plug-In . SVG Version: 6.00 Build 0)  -->
<svg version="1.1" id="Layer_1" xmlns="http://www.w3.org/2000/svg" xmlns:xlink="http://www.w3.org/1999/xlink" x="0px" y="0px"
	 viewBox="0 0 176 200" style="enable-background:new 0 0 176 200;" xml:space="preserve">
<style type="text/css">
	.st0{fill:#3D6BAD;}
	.st1{fill:#D6E6FF;}
	.st2{opacity:0.5;fill:#FFFFFF;}
	.st3{opacity:0.5;fill:#8CB9FF;}
	.st4{fill:#D1D1D1;}
	.st5{fill:#161C3B;}
	.st6{fill:#2A356E;}
	.st7{opacity:0.3;}
	.st8{fill:#BFD8FF;}
</style>
<g>
	<ellipse class="st0" cx="85.9" cy="21.1" rx="36.7" ry="15.1"/>
	<path class="st1" d="M85.9,2.1c-27.4,0-49.9,8.2-51.7,18.5h16.2C50.3,13.1,66.3,7,85.9,7c19.6,0,35.6,6.1,35.6,13.6h16.2
		C135.8,10.3,113.3,2.1,85.9,2.1z"/>
	<path class="st2" d="M41.2,13.1C48.8,7.2,63.5,3,81.8,2.9c18.3-0.1-5.9,1.2-15.9,3.3c-6.1,1.3-13.1,4.4-19.1,8.9
		C39.8,20.4,33.8,18.9,41.2,13.1z"/>
</g>
<g>
	<path class="st3" d="M146.6,89.7c-18.9-19-19.3-36.5-19.3-47.9c0,0-21,6.4-41.4,6.4c-28.3,0-41.4-6.4-41.4-6.4
		c0,11.4-0.4,28.9-19.3,47.9c-23.5,23.6-29,68.1-18.2,80.6c19.7,23,70.9,22.5,79,22.5c8.1,0,59.3,0.5,79-22.5
		C175.6,157.8,170.1,113.3,146.6,89.7z"/>
	<path class="st3" d="M141.4,91.1c-17.3-18-17.6-34.6-17.6-45.3c0,0-19.2,6.1-37.9,6.1C60,51.9,48,45.8,48,45.8
		c0,10.8-0.4,27.3-17.6,45.3c-21.5,22.3-26.5,64.5-16.7,76.3c18,21.7,64.8,21.3,72.2,21.3c7.4,0,54.2,0.5,72.2-21.3
		C167.9,155.6,162.9,113.5,141.4,91.1z"/>
	<ellipse class="st4" cx="85.9" cy="160" rx="72.1" ry="27.6"/>
	<path class="st5" d="M30.4,91.1c-21.5,22.3-26.5,64.5-16.7,76.3c18,21.7,64.8,21.3,72.2,21.3c7.4,0,54.2,0.5,72.2-21.3
		c9.8-11.9,4.8-54-16.7-76.3c-2-2-3.7-4-5.2-6H35.6C34,87.1,32.3,89.1,30.4,91.1z"/>
	<path class="st6" d="M136.2,85.1c4.6,6.6-12.3,14.5-50.3,14.5c-36.5,0-55.3-8.1-50.3-14.5c3.9-5,21.9-7.9,50.3-7.9
		S132.3,79.5,136.2,85.1z"/>
	<path class="st7" d="M123.8,45.8c0,0-19.2,6.1-37.9,6.1C60,51.9,48,45.8,48,45.8c0,1.9,0,3.9-0.1,6.1c17,11,49.1,9.3,52.1,11.2
		c3.5,2.1,3.2,15.6,15.6,36.4c12.4,20.8,29.2,78.3-7.3,85.4c-12.5,2.4-26.2,3.4-39.4,3.1c8.2,0.7,14.7,0.6,17,0.6
		c7.4,0,54.2,0.5,72.2-21.3c9.8-11.9,4.8-54-16.7-76.3C124.2,73.2,123.8,56.6,123.8,45.8z"/>
	<path class="st7" d="M47.9,61.6c-1.8,9.7-4.3,16.3-15.6,30.5c-11.3,14.2-18.2,30.3-19.6,50.7c-1.4,20.4,8.5,27.6,8.5,27.6
		S16,154,19.8,134.1c3.8-19.8,10.8-33.2,19.4-45.8C47.7,75.8,47.9,61.6,47.9,61.6z"/>
	<path class="st2" d="M44,88.4c-7.5,9.2-14.6,24.1-17.1,48.6c-2.4,24.5,21.1,9.1,31.1-10.7S53.4,76.8,44,88.4z"/>
	<path class="st2" d="M55.5,80.7c2.3,1.6,6.1,5.4,7.5,9c1.4,3.6,7.6-7.9,5.5-15.3S52.3,78.4,55.5,80.7z"/>
	<path class="st8" d="M86.3,38.2C66.7,38.2,34,22,34,22c0,4.9-0.9,12.3,0,14.9c3.6,10.9,23.2,19.8,51.9,19.8
		c28.7,0,49.5-9.1,51.9-19.8c0.6-3,0.1-14.2,0-14.9C137.8,22,105.9,38.2,86.3,38.2z"/>
	<path class="st7" d="M111.8,32.8c0.2,0.1,0.4,0.2,0.6,0.3c5.7,1.5,18.8,13.5-12.9,19.8c-26.7,5.3-49.4-1.1-60.8-9
		c8.1,7.5,24.9,12.8,47.1,12.8c28.7,0,49.5-9.1,51.9-19.8c0.6-3,0.1-14.2,0-14.9C137.8,22,125.7,28.1,111.8,32.8z"/>
	<path class="st2" d="M39.9,32.2c10.2,6.6,20.3,8.4,31.7,9.6c12.8,1.4-6.2,9-18.8,5.7C38.9,43.9,35.9,29.6,39.9,32.2z"/>
	<path class="st1" d="M121.5,20.6c0,7.5-15.9,13.6-35.6,13.6c-19.6,0-35.6-6.1-35.6-13.6H34.1C34.1,21,34,21.5,34,22
		c0,11,23.2,19.8,51.9,19.8c28.7,0,51.9-8.9,51.9-19.8c0-0.5-0.1-0.9-0.1-1.4H121.5z"/>
</g>
</svg>
