<?xml version="1.0" encoding="utf-8"?>
<!-- Generator: Adobe Illustrator 23.0.1, SVG Export Plug-In . SVG Version: 6.00 Build 0)  -->
<svg version="1.1" id="Layer_1" xmlns="http://www.w3.org/2000/svg" xmlns:xlink="http://www.w3.org/1999/xlink" x="0px" y="0px"
	 viewBox="0 0 3000 937" style="enable-background:new 0 0 3000 937;" xml:space="preserve">
<style type="text/css">
	.st0{fill:#996202;}
	.st1{fill:#DDA534;}
	.st2{fill:#DFB134;}
	.st3{fill:#EEC230;}
	.st4{fill:#68270D;}
	.st5{fill:#EAC131;}
	.st6{fill:#CF8E36;}
	.st7{fill:#DBA134;}
	.st8{fill:#6E840F;}
	.st9{fill:#D37D00;}
	.st10{fill:#EFCC03;}
	.st11{fill:#DD9A2E;}
	.st12{fill:#FCD657;}
</style>
<ellipse class="st0" cx="1528.5" cy="773.5" rx="1446.5" ry="163.5"/>
<g>
	<path class="st1" d="M1791.4,648c-18.8-49.4-102.3-110.6-228.5-110.6s-177.2,53.7-221.7,110.6c0,0,68.6,68.3,232.1,68.3
		C1731.7,716.3,1791.4,648,1791.4,648z"/>
	<path class="st2" d="M1919.8,340c0,179.1-155.1,324.2-346.4,324.2c-191.3,0-346.4-145.1-346.4-324.2H1919.8z"/>
	<path class="st3" d="M1929.7,340c0,70.4-159.5,87.8-356.3,87.8c-196.8,0-356.4-13.9-356.4-87.8c0-60,159.6-87.8,356.4-87.8
		C1770.2,252.2,1929.7,274.8,1929.7,340z"/>
	<path class="st4" d="M1890.8,321.3c0,33.8-142.1,61.3-317.4,61.3c-175.3,0-317.4-27.4-317.4-61.3c0-33.9,142.1-61.3,317.4-61.3
		C1748.7,260,1890.8,287.5,1890.8,321.3z"/>
	<path class="st5" d="M1863.3,478.4c-23.6,78.2-101,135-192,133.7c-84.7-1.1-156.2-52.1-183.1-122.6c-7.7-20.1-1.2-60.7,59.5-47.8
		c60.7,13,241.7-2,278.3-11.9C1862.5,419.8,1867.9,463.1,1863.3,478.4z"/>
	<path class="st6" d="M1852.5,532c2.1-2.7,4.1-5.4,6.2-8.1c-12.9,2.3-25.7,4.4-38.6,6.4c10.2-17.7,20.1-35.4,29.6-53.2
		c8.4,7.5,16.9,14.9,25.4,22.3c2.5-4.2,4.9-8.4,7.2-12.7c-8.2-7-16.4-14.1-24.4-21.3c12.8-2.4,25.5-4.9,38.3-7.6
		c3.2-7.6,6.1-15.3,8.7-23.2c-218.4,47.8-444.6,47.6-663-0.6c11.5,35.4,29.2,68.3,52,97.4C1478.7,563.7,1667.7,563.9,1852.5,532z
		 M1837.9,468.9c-8.4,15.7-17.1,31.3-26.1,46.9c-13.2-12.2-26.1-24.6-38.7-37.2C1794.8,475.8,1816.4,472.6,1837.9,468.9z
		 M1808.1,532c-25.3,3.7-50.7,6.8-76.2,9.2c11.2-17.1,22-34.2,32.4-51.5C1778.5,504.1,1793.1,518.2,1808.1,532z M1753,481
		c-9.2,15.2-18.8,30.3-28.6,45.4c-12.5-13-24.6-26-36.5-39.3C1709.7,485.6,1731.4,483.5,1753,481z M1719.9,542.4
		c-25.5,2.3-51,4-76.5,5c12.1-16.4,23.8-33,35.1-49.6C1691.9,512.8,1705.7,527.7,1719.9,542.4z M1667.8,488.5
		c-10,14.7-20.4,29.3-31,43.7c-11.7-13.6-23.1-27.3-34.3-41.2C1624.3,490.6,1646,489.8,1667.8,488.5z M1262.1,459.7
		c21.4,4.4,42.9,8.3,64.5,11.7c-13,12.1-26.3,24.1-39.8,35.9C1278.3,491.6,1270,475.7,1262.1,459.7z M1290,523.7
		c15.4-13.4,30.4-27,45.1-40.8c9.9,17.6,20.1,35.1,30.7,52.5C1340.5,532.1,1315.2,528.2,1290,523.7z M1346.6,474.5
		c21.6,3.2,43.2,5.9,64.9,8.2c-12.3,12.8-24.9,25.5-37.8,38.1C1364.4,505.4,1355.4,490,1346.6,474.5z M1377.9,536.9
		c14.6-14.2,28.9-28.6,42.8-43.2c10.8,17,22,33.9,33.5,50.7C1428.7,542.5,1403.2,540,1377.9,536.9z M1431.7,484.7
		c21.7,2,43.4,3.5,65.2,4.6c-11.6,13.5-23.4,26.8-35.6,40.1C1451.1,514.6,1441.2,499.7,1431.7,484.7z M1466.2,545.3
		c13.8-15,27.2-30.2,40.3-45.5c11.7,16.4,23.8,32.7,36.2,48.8C1517.2,548.1,1491.7,547,1466.2,545.3z M1517,490.2
		c21.7,0.8,43.5,1.1,65.3,1c-10.8,14.1-21.9,28.1-33.3,42C1538.1,519,1527.4,504.6,1517,490.2z M1592.5,501.1
		c12.6,15.7,25.5,31.3,38.8,46.8c-25.5,0.9-51,1.2-76.5,0.9C1567.7,533.1,1580.3,517.2,1592.5,501.1z"/>
	<path class="st7" d="M1834.1,534.9c2-2.6,3.8-5.3,5.7-8c-6.6,1.1-13.1,2.3-19.7,3.3c10.2-17.7,20.1-35.4,29.6-53.2
		c3.5,3.2,7.2,6.3,10.8,9.5c1-2.7,2-5.4,2.9-8.1c0.6-2,1-4.4,1.2-7.2c-2.2-1.9-4.5-3.8-6.6-5.8c2.2-0.4,4.5-0.9,6.7-1.3
		c-0.3-6.7-1.8-14-5-20.3c-123.3,23.1-248.7,31.1-373.4,24c-1.3,7.5-0.4,15,1.7,21c3,0.2,6,0.4,8.9,0.6c-1.9,2.3-4,4.5-5.9,6.8
		c2,4.7,4.3,9.4,6.7,13.9c3-3.4,6-6.8,8.9-10.2c11.7,16.4,23.8,32.7,36.2,48.8c-6-0.1-12.1-0.4-18.1-0.6c2.3,2.5,4.7,4.8,7.1,7.2
		C1632.8,557.8,1734,551.1,1834.1,534.9z M1837.9,468.9c-8.4,15.7-17.1,31.3-26.1,46.9c-13.2-12.2-26.1-24.6-38.7-37.2
		C1794.8,475.8,1816.4,472.6,1837.9,468.9z M1808.1,532c-25.3,3.7-50.7,6.8-76.2,9.2c11.2-17.1,22-34.2,32.4-51.5
		C1778.5,504.1,1793.1,518.2,1808.1,532z M1753,481c-9.2,15.2-18.8,30.3-28.6,45.4c-12.5-13-24.6-26-36.5-39.3
		C1709.7,485.6,1731.4,483.5,1753,481z M1719.9,542.4c-25.5,2.3-51,4-76.5,5c12.1-16.4,23.8-33,35.1-49.6
		C1691.9,512.8,1705.7,527.7,1719.9,542.4z M1667.8,488.5c-10,14.7-20.4,29.3-31,43.7c-11.7-13.6-23.1-27.3-34.3-41.2
		C1624.3,490.6,1646,489.8,1667.8,488.5z M1517,490.2c21.7,0.8,43.5,1.1,65.3,1c-10.8,14.1-21.9,28.1-33.3,42
		C1538.1,519,1527.4,504.6,1517,490.2z M1592.5,501.1c12.6,15.7,25.5,31.3,38.8,46.8c-25.5,0.9-51,1.2-76.5,0.9
		C1567.7,533.1,1580.3,517.2,1592.5,501.1z"/>
	<path class="st8" d="M1860.9,346.9c-50.2,21.1-160.5,35.7-288.5,35.7c-137.2,0-254.1-16.8-298.4-40.3
		c-12.3-6.5,256-122.2,298.4-82.2C1706,330,1879.4,339.1,1860.9,346.9z"/>
</g>
<g>
	<path class="st1" d="M1127.4,727c-18.8-49.4-102.3-110.6-228.5-110.6S721.7,670.1,677.2,727c0,0,68.6,68.3,232.1,68.3
		C1067.7,795.3,1127.4,727,1127.4,727z"/>
	<path class="st2" d="M1255.8,419c0,179.1-155.1,324.2-346.4,324.2C718.1,743.2,563,598.1,563,419H1255.8z"/>
	<path class="st3" d="M1265.7,419c0,70.4-159.5,87.8-356.3,87.8C712.6,506.8,553,492.9,553,419c0-60,159.6-87.8,356.4-87.8
		C1106.2,331.2,1265.7,353.8,1265.7,419z"/>
	<path class="st4" d="M1226.8,400.3c0,33.8-142.1,61.3-317.4,61.3c-175.3,0-317.4-27.4-317.4-61.3c0-33.9,142.1-61.3,317.4-61.3
		C1084.7,339,1226.8,366.5,1226.8,400.3z"/>
	<path class="st5" d="M1199.3,557.4c-23.6,78.2-101,135-192,133.7C922.6,690,851.1,639,824.1,568.5c-7.7-20.1-1.2-60.7,59.5-47.8
		c60.7,13,241.7-2,278.3-11.9C1198.5,498.8,1203.9,542.1,1199.3,557.4z"/>
	<path class="st6" d="M1188.5,611c2.1-2.7,4.1-5.4,6.2-8.1c-12.9,2.3-25.7,4.4-38.6,6.4c10.2-17.7,20.1-35.4,29.6-53.2
		c8.4,7.5,16.9,14.9,25.4,22.3c2.5-4.2,4.9-8.4,7.2-12.7c-8.2-7-16.4-14.1-24.4-21.3c12.8-2.4,25.5-4.9,38.3-7.6
		c3.2-7.6,6.1-15.3,8.7-23.2c-218.4,47.8-444.6,47.6-663-0.6c11.5,35.4,29.2,68.3,52,97.4C814.7,642.7,1003.7,642.9,1188.5,611z
		 M1173.9,547.9c-8.4,15.7-17.1,31.3-26.1,46.9c-13.2-12.2-26.1-24.6-38.7-37.2C1130.8,554.8,1152.4,551.6,1173.9,547.9z
		 M1144.1,611c-25.3,3.7-50.7,6.8-76.2,9.2c11.2-17.1,22-34.2,32.4-51.5C1114.5,583.1,1129.1,597.2,1144.1,611z M1089,560
		c-9.2,15.2-18.8,30.3-28.6,45.4c-12.5-13-24.6-26-36.5-39.3C1045.7,564.6,1067.4,562.5,1089,560z M1055.9,621.4
		c-25.5,2.3-51,4-76.5,5c12.1-16.4,23.8-33,35.1-49.6C1027.9,591.8,1041.7,606.7,1055.9,621.4z M1003.8,567.5
		c-10,14.7-20.4,29.3-31,43.7c-11.7-13.6-23.1-27.3-34.3-41.2C960.3,569.6,982,568.8,1003.8,567.5z M598.1,538.7
		c21.4,4.4,42.9,8.3,64.5,11.7c-13,12.1-26.3,24.1-39.8,35.9C614.3,570.6,606,554.7,598.1,538.7z M626,602.7
		c15.4-13.4,30.4-27,45.1-40.8c9.9,17.6,20.1,35.1,30.7,52.5C676.5,611.1,651.2,607.2,626,602.7z M682.6,553.5
		c21.6,3.2,43.2,5.9,64.9,8.2c-12.3,12.8-24.9,25.5-37.8,38.1C700.4,584.4,691.4,569,682.6,553.5z M713.9,615.9
		c14.6-14.2,28.9-28.6,42.8-43.2c10.8,17,22,33.9,33.5,50.7C764.7,621.5,739.2,619,713.9,615.9z M767.7,563.7
		c21.7,2,43.4,3.5,65.2,4.6c-11.6,13.5-23.4,26.8-35.6,40.1C787.1,593.6,777.2,578.7,767.7,563.7z M802.2,624.3
		c13.8-15,27.2-30.2,40.3-45.5c11.7,16.4,23.8,32.7,36.2,48.8C853.2,627.1,827.7,626,802.2,624.3z M853,569.2
		c21.7,0.8,43.5,1.1,65.3,1c-10.8,14.1-21.9,28.1-33.3,42C874.1,598,863.4,583.6,853,569.2z M928.5,580.1
		c12.6,15.7,25.5,31.3,38.8,46.8c-25.5,0.9-51,1.2-76.5,0.9C903.7,612.1,916.3,596.2,928.5,580.1z"/>
	<path class="st7" d="M1170.1,613.9c2-2.6,3.8-5.3,5.7-8c-6.6,1.1-13.1,2.3-19.7,3.3c10.2-17.7,20.1-35.4,29.6-53.2
		c3.5,3.2,7.2,6.3,10.8,9.5c1-2.7,2-5.4,2.9-8.1c0.6-2,1-4.4,1.2-7.2c-2.2-1.9-4.5-3.8-6.6-5.8c2.2-0.4,4.5-0.9,6.7-1.3
		c-0.3-6.7-1.8-14-5-20.3c-123.3,23.1-248.7,31.1-373.4,24c-1.3,7.5-0.4,15,1.7,21c3,0.2,6,0.4,8.9,0.6c-1.9,2.3-4,4.5-5.9,6.8
		c2,4.7,4.3,9.4,6.7,13.9c3-3.4,6-6.8,8.9-10.2c11.7,16.4,23.8,32.7,36.2,48.8c-6-0.1-12.1-0.4-18.1-0.6c2.3,2.5,4.7,4.8,7.1,7.2
		C968.8,636.8,1070,630.1,1170.1,613.9z M1173.9,547.9c-8.4,15.7-17.1,31.3-26.1,46.9c-13.2-12.2-26.1-24.6-38.7-37.2
		C1130.8,554.8,1152.4,551.6,1173.9,547.9z M1144.1,611c-25.3,3.7-50.7,6.8-76.2,9.2c11.2-17.1,22-34.2,32.4-51.5
		C1114.5,583.1,1129.1,597.2,1144.1,611z M1089,560c-9.2,15.2-18.8,30.3-28.6,45.4c-12.5-13-24.6-26-36.5-39.3
		C1045.7,564.6,1067.4,562.5,1089,560z M1055.9,621.4c-25.5,2.3-51,4-76.5,5c12.1-16.4,23.8-33,35.1-49.6
		C1027.9,591.8,1041.7,606.7,1055.9,621.4z M1003.8,567.5c-10,14.7-20.4,29.3-31,43.7c-11.7-13.6-23.1-27.3-34.3-41.2
		C960.3,569.6,982,568.8,1003.8,567.5z M853,569.2c21.7,0.8,43.5,1.1,65.3,1c-10.8,14.1-21.9,28.1-33.3,42
		C874.1,598,863.4,583.6,853,569.2z M928.5,580.1c12.6,15.7,25.5,31.3,38.8,46.8c-25.5,0.9-51,1.2-76.5,0.9
		C903.7,612.1,916.3,596.2,928.5,580.1z"/>
	<path class="st9" d="M1198.9,426.1c-50.2,21.1-160.5,35.7-288.5,35.7c-137.2,0-254.1-16.8-298.4-40.3
		c-12.3-6.5,256-122.2,298.4-82.2C1044,409.2,1217.4,418.3,1198.9,426.1z"/>
</g>
<g>
	<path class="st1" d="M2436.4,713c-18.8-49.4-102.3-110.6-228.5-110.6s-177.2,53.7-221.7,110.6c0,0,68.6,68.3,232.1,68.3
		C2376.7,781.3,2436.4,713,2436.4,713z"/>
	<path class="st2" d="M2564.8,405c0,179.1-155.1,324.2-346.4,324.2c-191.3,0-346.4-145.1-346.4-324.2H2564.8z"/>
	<path class="st3" d="M2574.7,405c0,70.4-159.5,87.8-356.3,87.8c-196.8,0-356.4-13.9-356.4-87.8c0-60,159.6-87.8,356.4-87.8
		C2415.2,317.2,2574.7,339.8,2574.7,405z"/>
	<path class="st4" d="M2535.8,386.3c0,33.8-142.1,61.3-317.4,61.3c-175.3,0-317.4-27.4-317.4-61.3c0-33.9,142.1-61.3,317.4-61.3
		C2393.7,325,2535.8,352.5,2535.8,386.3z"/>
	<path class="st5" d="M2508.3,543.4c-23.6,78.2-101,135-192,133.7c-84.7-1.1-156.2-52.1-183.1-122.6c-7.7-20.1-1.2-60.7,59.5-47.8
		c60.7,13,241.7-2,278.3-11.9C2507.5,484.8,2512.9,528.1,2508.3,543.4z"/>
	<path class="st6" d="M2497.5,597c2.1-2.7,4.1-5.4,6.2-8.1c-12.9,2.3-25.7,4.4-38.6,6.4c10.2-17.7,20.1-35.4,29.6-53.2
		c8.4,7.5,16.9,14.9,25.4,22.3c2.5-4.2,4.9-8.4,7.2-12.7c-8.2-7-16.4-14.1-24.4-21.3c12.8-2.4,25.5-4.9,38.3-7.6
		c3.2-7.6,6.1-15.3,8.7-23.2c-218.4,47.8-444.6,47.6-663-0.6c11.5,35.4,29.2,68.3,52,97.4C2123.7,628.7,2312.7,628.9,2497.5,597z
		 M2482.9,533.9c-8.4,15.7-17.1,31.3-26.1,46.9c-13.2-12.2-26.1-24.6-38.7-37.2C2439.8,540.8,2461.4,537.6,2482.9,533.9z
		 M2453.1,597c-25.3,3.7-50.7,6.8-76.2,9.2c11.2-17.1,22-34.2,32.4-51.5C2423.5,569.1,2438.1,583.2,2453.1,597z M2398,546
		c-9.2,15.2-18.8,30.3-28.6,45.4c-12.5-13-24.6-26-36.5-39.3C2354.7,550.6,2376.4,548.5,2398,546z M2364.9,607.4
		c-25.5,2.3-51,4-76.5,5c12.1-16.4,23.8-33,35.1-49.6C2336.9,577.8,2350.7,592.7,2364.9,607.4z M2312.8,553.5
		c-10,14.7-20.4,29.3-31,43.7c-11.7-13.6-23.1-27.3-34.3-41.2C2269.3,555.6,2291,554.8,2312.8,553.5z M1907.1,524.7
		c21.4,4.4,42.9,8.3,64.5,11.7c-13,12.1-26.3,24.1-39.8,35.9C1923.3,556.6,1915,540.7,1907.1,524.7z M1935,588.7
		c15.4-13.4,30.4-27,45.1-40.8c9.9,17.6,20.1,35.1,30.7,52.5C1985.5,597.1,1960.2,593.2,1935,588.7z M1991.6,539.5
		c21.6,3.2,43.2,5.9,64.9,8.2c-12.3,12.8-24.9,25.5-37.8,38.1C2009.4,570.4,2000.4,555,1991.6,539.5z M2022.9,601.9
		c14.6-14.2,28.9-28.6,42.8-43.2c10.8,17,22,33.9,33.5,50.7C2073.7,607.5,2048.2,605,2022.9,601.9z M2076.7,549.7
		c21.7,2,43.4,3.5,65.2,4.6c-11.6,13.5-23.4,26.8-35.6,40.1C2096.1,579.6,2086.2,564.7,2076.7,549.7z M2111.2,610.3
		c13.8-15,27.2-30.2,40.3-45.5c11.7,16.4,23.8,32.7,36.2,48.8C2162.2,613.1,2136.7,612,2111.2,610.3z M2162,555.2
		c21.7,0.8,43.5,1.1,65.3,1c-10.8,14.1-21.9,28.1-33.3,42C2183.1,584,2172.4,569.6,2162,555.2z M2237.5,566.1
		c12.6,15.7,25.5,31.3,38.8,46.8c-25.5,0.9-51,1.2-76.5,0.9C2212.8,598.1,2225.3,582.2,2237.5,566.1z"/>
	<path class="st7" d="M2479.1,599.9c2-2.6,3.8-5.3,5.7-8c-6.6,1.1-13.1,2.3-19.7,3.3c10.2-17.7,20.1-35.4,29.6-53.2
		c3.5,3.2,7.2,6.3,10.8,9.5c1-2.7,2-5.4,2.9-8.1c0.6-2,1-4.4,1.2-7.2c-2.2-1.9-4.5-3.8-6.6-5.8c2.2-0.4,4.5-0.9,6.7-1.3
		c-0.3-6.7-1.8-14-5-20.3c-123.3,23.1-248.7,31.1-373.4,24c-1.3,7.5-0.4,15,1.7,21c3,0.2,6,0.4,8.9,0.6c-1.9,2.3-4,4.5-5.9,6.8
		c2,4.7,4.3,9.4,6.7,13.9c3-3.4,6-6.8,8.9-10.2c11.7,16.4,23.8,32.7,36.2,48.8c-6-0.1-12.1-0.4-18.1-0.6c2.3,2.5,4.7,4.8,7.1,7.2
		C2277.8,622.8,2379,616.1,2479.1,599.9z M2482.9,533.9c-8.4,15.7-17.1,31.3-26.1,46.9c-13.2-12.2-26.1-24.6-38.7-37.2
		C2439.8,540.8,2461.4,537.6,2482.9,533.9z M2453.1,597c-25.3,3.7-50.7,6.8-76.2,9.2c11.2-17.1,22-34.2,32.4-51.5
		C2423.5,569.1,2438.1,583.2,2453.1,597z M2398,546c-9.2,15.2-18.8,30.3-28.6,45.4c-12.5-13-24.6-26-36.5-39.3
		C2354.7,550.6,2376.4,548.5,2398,546z M2364.9,607.4c-25.5,2.3-51,4-76.5,5c12.1-16.4,23.8-33,35.1-49.6
		C2336.9,577.8,2350.7,592.7,2364.9,607.4z M2312.8,553.5c-10,14.7-20.4,29.3-31,43.7c-11.7-13.6-23.1-27.3-34.3-41.2
		C2269.3,555.6,2291,554.8,2312.8,553.5z M2162,555.2c21.7,0.8,43.5,1.1,65.3,1c-10.8,14.1-21.9,28.1-33.3,42
		C2183.1,584,2172.4,569.6,2162,555.2z M2237.5,566.1c12.6,15.7,25.5,31.3,38.8,46.8c-25.5,0.9-51,1.2-76.5,0.9
		C2212.8,598.1,2225.3,582.2,2237.5,566.1z"/>
	<path class="st10" d="M2498.9,412.9c-50.2,21.1-160.5,35.7-288.5,35.7c-137.2,0-254.1-16.8-298.4-40.3
		c-12.3-6.5,256-122.2,298.4-82.2C2344,396,2517.4,405.1,2498.9,412.9z"/>
</g>
<g>
	<path class="st11" d="M1240.1,396.8c0,61.8-138.5,102.5-334.5,102.5c-173.5,0-334.7-37.6-334.7-102.5c0-40,128.6-123.4,251.4-176.2
		c38.7-16.6,38.9-58.8,83.2-58.8c43.5,0,40.4,27.9,78.5,43.7C1107.8,256.9,1240.1,353.1,1240.1,396.8z"/>
	<path class="st3" d="M1218.4,374.8c0,61.8-149.3,90-312.8,90c-141.7,0-312.8-25.2-312.8-90c0-40,120.3-123.4,235-176.2
		c36.2-16.6,36.4-58.8,77.8-58.8c40.7,0,37.7,27.8,73.4,43.7C1094.8,234.9,1218.4,331.1,1218.4,374.8z"/>
	<path class="st3" d="M945,107.1c0,21.8-17.7,39.5-39.5,39.5c-21.8,0-39.5-17.7-39.5-39.5c0-21.8,17.7-39.5,39.5-39.5
		C927.3,67.6,945,85.3,945,107.1z"/>
	<path class="st12" d="M925.9,84.4c-6.2-7.3-18.8-10.6-27-4.8c-2.7,1.9-4.2,6.4-1.2,8.9c3.7,3,8.1,5.4,11.3,9
		c3.9,4.3,2,8.2,2.7,13.8c1.1,9.9,14.1,15.3,19.8,5.4C937.6,106.2,933.1,92.9,925.9,84.4z"/>
	<path class="st12" d="M1109.6,284.7c-28.2-21-60.6-36.3-92.1-51.7c-40.1-19.5-64.7-49.3-95.4-79.9c-2.3-2.3-5.5,0.6-4.2,3.2
		c27.2,57.3,65.1,77.2,121,104.5c64.3,31.5,105.7,70.7,139.2,133.4c2.1,4,9.6,2.4,8.9-2.4C1180.8,345.2,1145.9,311.6,1109.6,284.7z"
		/>
</g>
<g>
	<path class="st11" d="M2553.1,387.8c0,61.8-138.5,102.5-334.5,102.5c-173.5,0-334.7-37.6-334.7-102.5c0-40,128.6-123.4,251.4-176.2
		c38.7-16.6,38.9-58.8,83.2-58.8c43.5,0,40.4,27.9,78.5,43.7C2420.8,247.9,2553.1,344.1,2553.1,387.8z"/>
	<path class="st3" d="M2531.4,365.8c0,61.8-149.3,90-312.8,90c-141.7,0-312.8-25.2-312.8-90c0-40,120.3-123.4,235-176.2
		c36.2-16.6,36.4-58.8,77.8-58.8c40.7,0,37.7,27.8,73.4,43.7C2407.8,225.9,2531.4,322.1,2531.4,365.8z"/>
	<path class="st3" d="M2258,98.1c0,21.8-17.7,39.5-39.5,39.5c-21.8,0-39.5-17.7-39.5-39.5c0-21.8,17.7-39.5,39.5-39.5
		C2240.3,58.6,2258,76.3,2258,98.1z"/>
	<path class="st12" d="M2238.9,75.4c-6.2-7.3-18.8-10.6-27-4.8c-2.7,1.9-4.2,6.4-1.2,8.9c3.7,3,8.1,5.4,11.3,9
		c3.9,4.3,2,8.2,2.7,13.8c1.1,9.9,14.1,15.3,19.8,5.4C2250.6,97.2,2246.1,83.9,2238.9,75.4z"/>
	<path class="st12" d="M2422.6,275.7c-28.2-21-60.6-36.3-92.1-51.7c-40.1-19.5-64.7-49.3-95.4-79.9c-2.3-2.3-5.5,0.6-4.2,3.2
		c27.2,57.3,65.1,77.2,121,104.5c64.3,31.5,105.7,70.7,139.2,133.4c2.1,4,9.6,2.4,8.9-2.4C2493.8,336.2,2458.9,302.6,2422.6,275.7z"
		/>
</g>
<g>
	<path class="st11" d="M1906.1,328.8c0,61.8-138.5,102.5-334.5,102.5c-173.5,0-334.7-37.6-334.7-102.5c0-40,128.6-123.4,251.4-176.2
		c38.7-16.6,38.9-58.8,83.2-58.8c43.5,0,40.4,27.9,78.5,43.7C1773.8,188.9,1906.1,285.1,1906.1,328.8z"/>
	<path class="st3" d="M1884.4,306.8c0,61.8-149.3,90-312.8,90c-141.7,0-312.8-25.2-312.8-90c0-40,120.3-123.4,235-176.2
		c36.2-16.6,36.4-58.8,77.8-58.8c40.7,0,37.7,27.8,73.4,43.7C1760.8,166.9,1884.4,263.1,1884.4,306.8z"/>
	<path class="st3" d="M1611,39.1c0,21.8-17.7,39.5-39.5,39.5c-21.8,0-39.5-17.7-39.5-39.5c0-21.8,17.7-39.5,39.5-39.5
		C1593.3-0.4,1611,17.3,1611,39.1z"/>
	<path class="st12" d="M1591.9,16.4c-6.2-7.3-18.8-10.6-27-4.8c-2.7,1.9-4.2,6.4-1.2,8.9c3.7,3,8.1,5.4,11.3,9
		c3.9,4.3,2,8.2,2.7,13.8c1.1,9.9,14.1,15.3,19.8,5.4C1603.6,38.2,1599.1,24.9,1591.9,16.4z"/>
	<path class="st12" d="M1775.6,216.7c-28.2-21-60.6-36.3-92.1-51.7c-40.1-19.5-64.7-49.3-95.4-79.9c-2.3-2.3-5.5,0.6-4.2,3.2
		c27.2,57.3,65.1,77.2,121,104.5c64.3,31.5,105.7,70.7,139.2,133.4c2.1,4,9.6,2.4,8.9-2.4C1846.8,277.2,1811.9,243.6,1775.6,216.7z"
		/>
</g>
</svg>
