<?xml version="1.0" encoding="utf-8"?>
<!-- Generator: Adobe Illustrator 23.0.1, SVG Export Plug-In . SVG Version: 6.00 Build 0)  -->
<svg version="1.1" id="Layer_1" xmlns="http://www.w3.org/2000/svg" xmlns:xlink="http://www.w3.org/1999/xlink" x="0px" y="0px"
	 viewBox="0 0 3000 937" style="enable-background:new 0 0 3000 937;" xml:space="preserve">
<style type="text/css">
	.st0{fill:#996202;}
	.st1{fill:#DDA534;}
	.st2{fill:#DFB134;}
	.st3{fill:#EEC230;}
	.st4{fill:#68270D;}
	.st5{fill:#EAC131;}
	.st6{fill:#CF8E36;}
	.st7{fill:#DBA134;}
	.st8{fill:#6E840F;}
	.st9{fill:#D37D00;}
	.st10{fill:#EFCC03;}
	.st11{fill:#0B9904;stroke:#009F08;stroke-miterlimit:10;}
	.st12{fill:#6A9902;stroke:#009F08;stroke-miterlimit:10;}
</style>
<ellipse class="st0" cx="1485.5" cy="766.5" rx="1446.5" ry="163.5"/>
<g>
	<path class="st1" d="M1748.4,648c-18.8-49.4-102.3-110.6-228.5-110.6s-177.2,53.7-221.7,110.6c0,0,68.6,68.3,232.1,68.3
		C1688.7,716.3,1748.4,648,1748.4,648z"/>
	<path class="st2" d="M1876.8,340c0,179.1-155.1,324.2-346.4,324.2c-191.3,0-346.4-145.1-346.4-324.2H1876.8z"/>
	<path class="st3" d="M1886.7,340c0,70.4-159.5,87.8-356.3,87.8c-196.8,0-356.4-13.9-356.4-87.8c0-60,159.6-87.8,356.4-87.8
		C1727.2,252.2,1886.7,274.8,1886.7,340z"/>
	<path class="st4" d="M1847.8,321.3c0,33.8-142.1,61.3-317.4,61.3c-175.3,0-317.4-27.4-317.4-61.3c0-33.9,142.1-61.3,317.4-61.3
		C1705.7,260,1847.8,287.5,1847.8,321.3z"/>
	<path class="st5" d="M1820.3,478.4c-23.6,78.2-101,135-192,133.7c-84.7-1.1-156.2-52.1-183.1-122.6c-7.7-20.1-1.2-60.7,59.5-47.8
		c60.7,13,241.7-2,278.3-11.9C1819.5,419.8,1824.9,463.1,1820.3,478.4z"/>
	<path class="st6" d="M1809.5,532c2.1-2.7,4.1-5.4,6.2-8.1c-12.9,2.3-25.7,4.4-38.6,6.4c10.2-17.7,20.1-35.4,29.6-53.2
		c8.4,7.5,16.9,14.9,25.4,22.3c2.5-4.2,4.9-8.4,7.2-12.7c-8.2-7-16.4-14.1-24.4-21.3c12.8-2.4,25.5-4.9,38.3-7.6
		c3.2-7.6,6.1-15.3,8.7-23.2c-218.4,47.8-444.6,47.6-663-0.6c11.5,35.4,29.2,68.3,52,97.4C1435.7,563.7,1624.7,563.9,1809.5,532z
		 M1794.9,468.9c-8.4,15.7-17.1,31.3-26.1,46.9c-13.2-12.2-26.1-24.6-38.7-37.2C1751.8,475.8,1773.4,472.6,1794.9,468.9z
		 M1765.1,532c-25.3,3.7-50.7,6.8-76.2,9.2c11.2-17.1,22-34.2,32.4-51.5C1735.5,504.1,1750.1,518.2,1765.1,532z M1710,481
		c-9.2,15.2-18.8,30.3-28.6,45.4c-12.5-13-24.6-26-36.5-39.3C1666.7,485.6,1688.4,483.5,1710,481z M1676.9,542.4
		c-25.5,2.3-51,4-76.5,5c12.1-16.4,23.8-33,35.1-49.6C1648.9,512.8,1662.7,527.7,1676.9,542.4z M1624.8,488.5
		c-10,14.7-20.4,29.3-31,43.7c-11.7-13.6-23.1-27.3-34.3-41.2C1581.3,490.6,1603,489.8,1624.8,488.5z M1219.1,459.7
		c21.4,4.4,42.9,8.3,64.5,11.7c-13,12.1-26.3,24.1-39.8,35.9C1235.3,491.6,1227,475.7,1219.1,459.7z M1247,523.7
		c15.4-13.4,30.4-27,45.1-40.8c9.9,17.6,20.1,35.1,30.7,52.5C1297.5,532.1,1272.2,528.2,1247,523.7z M1303.6,474.5
		c21.6,3.2,43.2,5.9,64.9,8.2c-12.3,12.8-24.9,25.5-37.8,38.1C1321.4,505.4,1312.4,490,1303.6,474.5z M1334.9,536.9
		c14.6-14.2,28.9-28.6,42.8-43.2c10.8,17,22,33.9,33.5,50.7C1385.7,542.5,1360.2,540,1334.9,536.9z M1388.7,484.7
		c21.7,2,43.4,3.5,65.2,4.6c-11.6,13.5-23.4,26.8-35.6,40.1C1408.1,514.6,1398.2,499.7,1388.7,484.7z M1423.2,545.3
		c13.8-15,27.2-30.2,40.3-45.5c11.7,16.4,23.8,32.7,36.2,48.8C1474.2,548.1,1448.7,547,1423.2,545.3z M1474,490.2
		c21.7,0.8,43.5,1.1,65.3,1c-10.8,14.1-21.9,28.1-33.3,42C1495.1,519,1484.4,504.6,1474,490.2z M1549.5,501.1
		c12.6,15.7,25.5,31.3,38.8,46.8c-25.5,0.9-51,1.2-76.5,0.9C1524.7,533.1,1537.3,517.2,1549.5,501.1z"/>
	<path class="st7" d="M1791.1,534.9c2-2.6,3.8-5.3,5.7-8c-6.6,1.1-13.1,2.3-19.7,3.3c10.2-17.7,20.1-35.4,29.6-53.2
		c3.5,3.2,7.2,6.3,10.8,9.5c1-2.7,2-5.4,2.9-8.1c0.6-2,1-4.4,1.2-7.2c-2.2-1.9-4.5-3.8-6.6-5.8c2.2-0.4,4.5-0.9,6.7-1.3
		c-0.3-6.7-1.8-14-5-20.3c-123.3,23.1-248.7,31.1-373.4,24c-1.3,7.5-0.4,15,1.7,21c3,0.2,6,0.4,8.9,0.6c-1.9,2.3-4,4.5-5.9,6.8
		c2,4.7,4.3,9.4,6.7,13.9c3-3.4,6-6.8,8.9-10.2c11.7,16.4,23.8,32.7,36.2,48.8c-6-0.1-12.1-0.4-18.1-0.6c2.3,2.5,4.7,4.8,7.1,7.2
		C1589.8,557.8,1691,551.1,1791.1,534.9z M1794.9,468.9c-8.4,15.7-17.1,31.3-26.1,46.9c-13.2-12.2-26.1-24.6-38.7-37.2
		C1751.8,475.8,1773.4,472.6,1794.9,468.9z M1765.1,532c-25.3,3.7-50.7,6.8-76.2,9.2c11.2-17.1,22-34.2,32.4-51.5
		C1735.5,504.1,1750.1,518.2,1765.1,532z M1710,481c-9.2,15.2-18.8,30.3-28.6,45.4c-12.5-13-24.6-26-36.5-39.3
		C1666.7,485.6,1688.4,483.5,1710,481z M1676.9,542.4c-25.5,2.3-51,4-76.5,5c12.1-16.4,23.8-33,35.1-49.6
		C1648.9,512.8,1662.7,527.7,1676.9,542.4z M1624.8,488.5c-10,14.7-20.4,29.3-31,43.7c-11.7-13.6-23.1-27.3-34.3-41.2
		C1581.3,490.6,1603,489.8,1624.8,488.5z M1474,490.2c21.7,0.8,43.5,1.1,65.3,1c-10.8,14.1-21.9,28.1-33.3,42
		C1495.1,519,1484.4,504.6,1474,490.2z M1549.5,501.1c12.6,15.7,25.5,31.3,38.8,46.8c-25.5,0.9-51,1.2-76.5,0.9
		C1524.7,533.1,1537.3,517.2,1549.5,501.1z"/>
	<path class="st8" d="M1817.9,346.9c-50.2,21.1-160.5,35.7-288.5,35.7c-137.2,0-254.1-16.8-298.4-40.3
		c-12.3-6.5,256-122.2,298.4-82.2C1663,330,1836.4,339.1,1817.9,346.9z"/>
</g>
<g>
	<path class="st1" d="M1084.4,727c-18.8-49.4-102.3-110.6-228.5-110.6S678.7,670.1,634.2,727c0,0,68.6,68.3,232.1,68.3
		C1024.7,795.3,1084.4,727,1084.4,727z"/>
	<path class="st2" d="M1212.8,419c0,179.1-155.1,324.2-346.4,324.2C675.1,743.2,520,598.1,520,419H1212.8z"/>
	<path class="st3" d="M1222.7,419c0,70.4-159.5,87.8-356.3,87.8C669.6,506.8,510,492.9,510,419c0-60,159.6-87.8,356.4-87.8
		C1063.2,331.2,1222.7,353.8,1222.7,419z"/>
	<path class="st4" d="M1183.8,400.3c0,33.8-142.1,61.3-317.4,61.3c-175.3,0-317.4-27.4-317.4-61.3c0-33.9,142.1-61.3,317.4-61.3
		C1041.7,339,1183.8,366.5,1183.8,400.3z"/>
	<path class="st5" d="M1156.3,557.4c-23.6,78.2-101,135-192,133.7C879.6,690,808.1,639,781.1,568.5c-7.7-20.1-1.2-60.7,59.5-47.8
		c60.7,13,241.7-2,278.3-11.9C1155.5,498.8,1160.9,542.1,1156.3,557.4z"/>
	<path class="st6" d="M1145.5,611c2.1-2.7,4.1-5.4,6.2-8.1c-12.9,2.3-25.7,4.4-38.6,6.4c10.2-17.7,20.1-35.4,29.6-53.2
		c8.4,7.5,16.9,14.9,25.4,22.3c2.5-4.2,4.9-8.4,7.2-12.7c-8.2-7-16.4-14.1-24.4-21.3c12.8-2.4,25.5-4.9,38.3-7.6
		c3.2-7.6,6.1-15.3,8.7-23.2c-218.4,47.8-444.6,47.6-663-0.6c11.5,35.4,29.2,68.3,52,97.4C771.7,642.7,960.7,642.9,1145.5,611z
		 M1130.9,547.9c-8.4,15.7-17.1,31.3-26.1,46.9c-13.2-12.2-26.1-24.6-38.7-37.2C1087.8,554.8,1109.4,551.6,1130.9,547.9z
		 M1101.1,611c-25.3,3.7-50.7,6.8-76.2,9.2c11.2-17.1,22-34.2,32.4-51.5C1071.5,583.1,1086.1,597.2,1101.1,611z M1046,560
		c-9.2,15.2-18.8,30.3-28.6,45.4c-12.5-13-24.6-26-36.5-39.3C1002.7,564.6,1024.4,562.5,1046,560z M1012.9,621.4
		c-25.5,2.3-51,4-76.5,5c12.1-16.4,23.8-33,35.1-49.6C984.9,591.8,998.7,606.7,1012.9,621.4z M960.8,567.5
		c-10,14.7-20.4,29.3-31,43.7c-11.7-13.6-23.1-27.3-34.3-41.2C917.3,569.6,939,568.8,960.8,567.5z M555.1,538.7
		c21.4,4.4,42.9,8.3,64.5,11.7c-13,12.1-26.3,24.1-39.8,35.9C571.3,570.6,563,554.7,555.1,538.7z M583,602.7
		c15.4-13.4,30.4-27,45.1-40.8c9.9,17.6,20.1,35.1,30.7,52.5C633.5,611.1,608.2,607.2,583,602.7z M639.6,553.5
		c21.6,3.2,43.2,5.9,64.9,8.2c-12.3,12.8-24.9,25.5-37.8,38.1C657.4,584.4,648.4,569,639.6,553.5z M670.9,615.9
		c14.6-14.2,28.9-28.6,42.8-43.2c10.8,17,22,33.9,33.5,50.7C721.7,621.5,696.2,619,670.9,615.9z M724.7,563.7
		c21.7,2,43.4,3.5,65.2,4.6c-11.6,13.5-23.4,26.8-35.6,40.1C744.1,593.6,734.2,578.7,724.7,563.7z M759.2,624.3
		c13.8-15,27.2-30.2,40.3-45.5c11.7,16.4,23.8,32.7,36.2,48.8C810.2,627.1,784.7,626,759.2,624.3z M810,569.2
		c21.7,0.8,43.5,1.1,65.3,1c-10.8,14.1-21.9,28.1-33.3,42C831.1,598,820.4,583.6,810,569.2z M885.5,580.1
		c12.6,15.7,25.5,31.3,38.8,46.8c-25.5,0.9-51,1.2-76.5,0.9C860.7,612.1,873.3,596.2,885.5,580.1z"/>
	<path class="st7" d="M1127.1,613.9c2-2.6,3.8-5.3,5.7-8c-6.6,1.1-13.1,2.3-19.7,3.3c10.2-17.7,20.1-35.4,29.6-53.2
		c3.5,3.2,7.2,6.3,10.8,9.5c1-2.7,2-5.4,2.9-8.1c0.6-2,1-4.4,1.2-7.2c-2.2-1.9-4.5-3.8-6.6-5.8c2.2-0.4,4.5-0.9,6.7-1.3
		c-0.3-6.7-1.8-14-5-20.3c-123.3,23.1-248.7,31.1-373.4,24c-1.3,7.5-0.4,15,1.7,21c3,0.2,6,0.4,8.9,0.6c-1.9,2.3-4,4.5-5.9,6.8
		c2,4.7,4.3,9.4,6.7,13.9c3-3.4,6-6.8,8.9-10.2c11.7,16.4,23.8,32.7,36.2,48.8c-6-0.1-12.1-0.4-18.1-0.6c2.3,2.5,4.7,4.8,7.1,7.2
		C925.8,636.8,1027,630.1,1127.1,613.9z M1130.9,547.9c-8.4,15.7-17.1,31.3-26.1,46.9c-13.2-12.2-26.1-24.6-38.7-37.2
		C1087.8,554.8,1109.4,551.6,1130.9,547.9z M1101.1,611c-25.3,3.7-50.7,6.8-76.2,9.2c11.2-17.1,22-34.2,32.4-51.5
		C1071.5,583.1,1086.1,597.2,1101.1,611z M1046,560c-9.2,15.2-18.8,30.3-28.6,45.4c-12.5-13-24.6-26-36.5-39.3
		C1002.7,564.6,1024.4,562.5,1046,560z M1012.9,621.4c-25.5,2.3-51,4-76.5,5c12.1-16.4,23.8-33,35.1-49.6
		C984.9,591.8,998.7,606.7,1012.9,621.4z M960.8,567.5c-10,14.7-20.4,29.3-31,43.7c-11.7-13.6-23.1-27.3-34.3-41.2
		C917.3,569.6,939,568.8,960.8,567.5z M810,569.2c21.7,0.8,43.5,1.1,65.3,1c-10.8,14.1-21.9,28.1-33.3,42
		C831.1,598,820.4,583.6,810,569.2z M885.5,580.1c12.6,15.7,25.5,31.3,38.8,46.8c-25.5,0.9-51,1.2-76.5,0.9
		C860.7,612.1,873.3,596.2,885.5,580.1z"/>
	<path class="st9" d="M1155.9,426.1c-50.2,21.1-160.5,35.7-288.5,35.7c-137.2,0-254.1-16.8-298.4-40.3
		c-12.3-6.5,256-122.2,298.4-82.2C1001,409.2,1174.4,418.3,1155.9,426.1z"/>
</g>
<g>
	<path class="st1" d="M2393.4,713c-18.8-49.4-102.3-110.6-228.5-110.6s-177.2,53.7-221.7,110.6c0,0,68.6,68.3,232.1,68.3
		C2333.7,781.3,2393.4,713,2393.4,713z"/>
	<path class="st2" d="M2521.8,405c0,179.1-155.1,324.2-346.4,324.2c-191.3,0-346.4-145.1-346.4-324.2H2521.8z"/>
	<path class="st3" d="M2531.7,405c0,70.4-159.5,87.8-356.3,87.8c-196.8,0-356.4-13.9-356.4-87.8c0-60,159.6-87.8,356.4-87.8
		C2372.2,317.2,2531.7,339.8,2531.7,405z"/>
	<path class="st4" d="M2492.8,386.3c0,33.8-142.1,61.3-317.4,61.3c-175.3,0-317.4-27.4-317.4-61.3c0-33.9,142.1-61.3,317.4-61.3
		C2350.7,325,2492.8,352.5,2492.8,386.3z"/>
	<path class="st5" d="M2465.3,543.4c-23.6,78.2-101,135-192,133.7c-84.7-1.1-156.2-52.1-183.1-122.6c-7.7-20.1-1.2-60.7,59.5-47.8
		c60.7,13,241.7-2,278.3-11.9C2464.5,484.8,2469.9,528.1,2465.3,543.4z"/>
	<path class="st6" d="M2454.5,597c2.1-2.7,4.1-5.4,6.2-8.1c-12.9,2.3-25.7,4.4-38.6,6.4c10.2-17.7,20.1-35.4,29.6-53.2
		c8.4,7.5,16.9,14.9,25.4,22.3c2.5-4.2,4.9-8.4,7.2-12.7c-8.2-7-16.4-14.1-24.4-21.3c12.8-2.4,25.5-4.9,38.3-7.6
		c3.2-7.6,6.1-15.3,8.7-23.2c-218.4,47.8-444.6,47.6-663-0.6c11.5,35.4,29.2,68.3,52,97.4C2080.7,628.7,2269.7,628.9,2454.5,597z
		 M2439.9,533.9c-8.4,15.7-17.1,31.3-26.1,46.9c-13.2-12.2-26.1-24.6-38.7-37.2C2396.8,540.8,2418.4,537.6,2439.9,533.9z
		 M2410.1,597c-25.3,3.7-50.7,6.8-76.2,9.2c11.2-17.1,22-34.2,32.4-51.5C2380.5,569.1,2395.1,583.2,2410.1,597z M2355,546
		c-9.2,15.2-18.8,30.3-28.6,45.4c-12.5-13-24.6-26-36.5-39.3C2311.7,550.6,2333.4,548.5,2355,546z M2321.9,607.4
		c-25.5,2.3-51,4-76.5,5c12.1-16.4,23.8-33,35.1-49.6C2293.9,577.8,2307.7,592.7,2321.9,607.4z M2269.8,553.5
		c-10,14.7-20.4,29.3-31,43.7c-11.7-13.6-23.1-27.3-34.3-41.2C2226.3,555.6,2248,554.8,2269.8,553.5z M1864.1,524.7
		c21.4,4.4,42.9,8.3,64.5,11.7c-13,12.1-26.3,24.1-39.8,35.9C1880.3,556.6,1872,540.7,1864.1,524.7z M1892,588.7
		c15.4-13.4,30.4-27,45.1-40.8c9.9,17.6,20.1,35.1,30.7,52.5C1942.5,597.1,1917.2,593.2,1892,588.7z M1948.6,539.5
		c21.6,3.2,43.2,5.9,64.9,8.2c-12.3,12.8-24.9,25.5-37.8,38.1C1966.4,570.4,1957.4,555,1948.6,539.5z M1979.9,601.9
		c14.6-14.2,28.9-28.6,42.8-43.2c10.8,17,22,33.9,33.5,50.7C2030.7,607.5,2005.2,605,1979.9,601.9z M2033.7,549.7
		c21.7,2,43.4,3.5,65.2,4.6c-11.6,13.5-23.4,26.8-35.6,40.1C2053.1,579.6,2043.2,564.7,2033.7,549.7z M2068.2,610.3
		c13.8-15,27.2-30.2,40.3-45.5c11.7,16.4,23.8,32.7,36.2,48.8C2119.2,613.1,2093.7,612,2068.2,610.3z M2119,555.2
		c21.7,0.8,43.5,1.1,65.3,1c-10.8,14.1-21.9,28.1-33.3,42C2140.1,584,2129.4,569.6,2119,555.2z M2194.5,566.1
		c12.6,15.7,25.5,31.3,38.8,46.8c-25.5,0.9-51,1.2-76.5,0.9C2169.8,598.1,2182.3,582.2,2194.5,566.1z"/>
	<path class="st7" d="M2436.1,599.9c2-2.6,3.8-5.3,5.7-8c-6.6,1.1-13.1,2.3-19.7,3.3c10.2-17.7,20.1-35.4,29.6-53.2
		c3.5,3.2,7.2,6.3,10.8,9.5c1-2.7,2-5.4,2.9-8.1c0.6-2,1-4.4,1.2-7.2c-2.2-1.9-4.5-3.8-6.6-5.8c2.2-0.4,4.5-0.9,6.7-1.3
		c-0.3-6.7-1.8-14-5-20.3c-123.3,23.1-248.7,31.1-373.4,24c-1.3,7.5-0.4,15,1.7,21c3,0.2,6,0.4,8.9,0.6c-1.9,2.3-4,4.5-5.9,6.8
		c2,4.7,4.3,9.4,6.7,13.9c3-3.4,6-6.8,8.9-10.2c11.7,16.4,23.8,32.7,36.2,48.8c-6-0.1-12.1-0.4-18.1-0.6c2.3,2.5,4.7,4.8,7.1,7.2
		C2234.8,622.8,2336,616.1,2436.1,599.9z M2439.9,533.9c-8.4,15.7-17.1,31.3-26.1,46.9c-13.2-12.2-26.1-24.6-38.7-37.2
		C2396.8,540.8,2418.4,537.6,2439.9,533.9z M2410.1,597c-25.3,3.7-50.7,6.8-76.2,9.2c11.2-17.1,22-34.2,32.4-51.5
		C2380.5,569.1,2395.1,583.2,2410.1,597z M2355,546c-9.2,15.2-18.8,30.3-28.6,45.4c-12.5-13-24.6-26-36.5-39.3
		C2311.7,550.6,2333.4,548.5,2355,546z M2321.9,607.4c-25.5,2.3-51,4-76.5,5c12.1-16.4,23.8-33,35.1-49.6
		C2293.9,577.8,2307.7,592.7,2321.9,607.4z M2269.8,553.5c-10,14.7-20.4,29.3-31,43.7c-11.7-13.6-23.1-27.3-34.3-41.2
		C2226.3,555.6,2248,554.8,2269.8,553.5z M2119,555.2c21.7,0.8,43.5,1.1,65.3,1c-10.8,14.1-21.9,28.1-33.3,42
		C2140.1,584,2129.4,569.6,2119,555.2z M2194.5,566.1c12.6,15.7,25.5,31.3,38.8,46.8c-25.5,0.9-51,1.2-76.5,0.9
		C2169.8,598.1,2182.3,582.2,2194.5,566.1z"/>
	<path class="st10" d="M2455.9,412.9c-50.2,21.1-160.5,35.7-288.5,35.7c-137.2,0-254.1-16.8-298.4-40.3
		c-12.3-6.5,256-122.2,298.4-82.2C2301,396,2474.4,405.1,2455.9,412.9z"/>
</g>
<path class="st11" d="M390.9,817.7c0,0,1777.6,47.4,2204-125.4c0,0-1831.2,205.7-2186.2,89.7L390.9,817.7z"/>
<path class="st12" d="M397,806.5c0,0,1775.2,102.5,2206.9-57.1c0,0-1836.7,148.8-2188,22L397,806.5z"/>
</svg>
