<?xml version="1.0" encoding="utf-8"?>
<!-- Generator: Adobe Illustrator 23.0.1, SVG Export Plug-In . SVG Version: 6.00 Build 0)  -->
<svg version="1.1" id="Layer_1" xmlns="http://www.w3.org/2000/svg" xmlns:xlink="http://www.w3.org/1999/xlink" x="0px" y="0px"
	 viewBox="0 0 1288 498" style="enable-background:new 0 0 1288 498;" xml:space="preserve">
<style type="text/css">
	.st0{fill:#C48745;}
</style>
<g>
	<path class="st0" d="M187.4,454.1c-9.7,0-18-3.4-25-10.3c-6.9-6.9-12.4-15.5-16.4-26s-6.9-21.2-8.8-32.3c-1.9-11-2.9-20.7-2.9-29
		c3.8,0,9.4-1,16.6-3c7.3-2,14.7-5.1,22.4-9.2c7.6-4.2,14.1-9.6,19.5-16.3c5.4-6.7,8.1-14.5,8.1-23.6c0-7.6-2.6-13.6-7.8-17.9
		s-11.3-6.5-18.2-6.5c-10.8,0-20.8,3.9-30.2,11.7c-9.4,7.8-17.8,17.9-25.2,30.4c-7.5,12.5-14.1,25.8-20,39.9
		c-5.9,14-10.9,27.3-15.1,40s-7.6,23.1-10.4,31.5c-2.1,6.5-5,10.9-8.8,13.3c-3.8,2.3-7.8,3.5-12,3.5c-5.9,0-10.1-2.5-12.7-7.6
		c-2.6-5.1-4.2-11.5-4.7-19.3S35,407.6,35,399.3c0-18.8,2.9-40.5,8.8-65.1s13.8-50.2,23.7-76.7c9.9-26.6,20.7-52.3,32.5-77.3
		c11.8-24.9,23.6-47.5,35.4-67.8c11.8-20.2,22.7-36.3,32.8-48.3c10.1-11.9,18.2-17.9,24.4-17.9c4.9,0,8.8,3.4,11.7,10.3
		s4.4,15.2,4.4,24.9c0,12.3-2.6,26.1-7.8,41.5s-12.6,30.8-22.1,46.4c-9.5,15.5-20.8,30.2-33.8,43.9s-27.1,25.5-42.4,35.2
		c-11.4,29.3-20,57.8-25.7,85.4c-5.7,27.7-8.6,50.9-8.6,69.7c5.5-14.5,12.2-30.4,20-47.7s16.7-34,26.8-49.9s21-28.9,32.8-39
		s24.1-15.2,36.9-15.2c12.8,0,23.7,4.7,32.8,14.1c9,9.4,13.5,20.8,13.5,34.2c0,11.6-2.9,21.4-8.6,29.6c-5.7,8.1-12.7,14.6-20.8,19.5
		c-8.2,4.9-16.3,8.5-24.4,10.8c-8.2,2.4-14.8,3.5-20,3.5c0.3,2.9,1.4,8.1,3.1,15.7c1.7,7.6,4.2,15.5,7.5,23.9
		c3.3,8.3,7.4,15.5,12.2,21.4c4.9,6,10.7,8.9,17.7,8.9c10.1,0,19.6-4,28.6-11.9s17.6-18.5,25.7-31.7s15.7-28.1,22.6-44.7l5.2,5.4
		c-4.9,17.7-12.3,34.4-22.4,50.2c-10.1,15.7-21.2,28.6-33.5,38.5C211.7,449.1,199.5,454.1,187.4,454.1z M111.5,226.8
		c15.9-13.4,29.9-28.6,41.9-45.6s21.2-33.4,27.8-49.1s9.9-28.1,9.9-37.1c0-1.8-0.1-3.1-0.3-3.8c-0.2-0.7-0.6-1.1-1.3-1.1
		c-3.5,0-9.5,6.3-17.9,19c-8.5,12.7-18.1,29.4-28.9,50.2C131.9,180.1,121.5,202.6,111.5,226.8z"/>
	<path class="st0" d="M303.9,449.7c-11.8,0-21.2-5.5-28.3-16.5c-7.1-11-10.7-23.8-10.7-38.2c0-10.5,1.6-22.6,4.9-36.3
		c3.3-13.7,7.4-27.3,12.2-40.7c4.9-13.4,9.9-24.4,15.1-33.1s9.7-13,13.5-13c1.7,0,4.7,1,8.8,3c4.2,2,7.6,4.6,10.4,7.9
		c-3.8,6.2-8.5,15.5-14,28.2c-5.6,12.7-10.4,26.2-14.6,40.7s-6.2,27.8-6.2,40.1c0,2.9,0.3,7.3,1,13.3s2.4,11.3,5.2,16
		c2.8,4.7,6.9,7,12.5,7c6.6,0,13.3-3.5,20.3-10.6c6.9-7,14-16.2,21.1-27.4c7.1-11.2,14-23.3,20.5-36.3c6.6-13,12.7-25.5,18.5-37.4
		c5.7-11.9,10.5-21.9,14.3-29.8c2.1,0.4,5.1,1.1,9.1,2.2s7.6,2.5,10.9,4.3s4.9,4.3,4.9,7.6c0,1.4-1.7,6.2-5.2,14.4
		c-3.5,8.1-7.5,18.1-12.2,29.8c-4.7,11.8-8.8,23.6-12.2,35.5c-3.5,11.9-5.2,22.4-5.2,31.5c0,6.5,1.3,11.8,3.9,15.7c2.6,4,7,6,13.3,6
		c7.3,0,16.1-3.4,26.5-10.3s21-16.9,31.7-30.1s20.3-29,28.6-47.5l6.8,4.9c-7.3,19.5-16.8,36.8-28.6,51.8c-11.8,15-24.3,26.7-37.4,35
		c-13.2,8.3-26,12.5-38.5,12.5c-9,0-16.2-1.8-21.6-5.4s-9.2-8.5-11.4-14.6c-2.3-6.1-3.4-12.8-3.4-20.1c0-4.3,0.3-8.8,1-13.3
		s1.6-9.1,2.6-13.8c-6.2,11.9-13,23-20.3,33.4c-7.3,10.3-14.9,18.5-22.9,24.7C320.9,446.6,312.6,449.7,303.9,449.7z"/>
	<path class="st0" d="M541,473c-18,0-31.5-6.2-40.3-18.4c-8.8-12.3-13.3-28.9-13.3-49.9c0-18.1,3-39.4,8.8-64
		c5.9-24.6,13.7-50.3,23.4-77.3c9.7-26.9,20.5-53.2,32.5-78.9s24-48.9,36.1-69.7s23.6-37.4,34.3-49.9s19.6-18.7,26.5-18.7
		c5.9,0,10.1,3.8,12.7,11.4s3.9,15.2,3.9,22.8c0,10.1-2.1,22.4-6.2,36.9c-4.2,14.5-10.1,29.9-17.7,46.4
		c-7.6,16.5-16.5,32.6-26.5,48.5c-10.1,15.9-20.9,30.5-32.5,43.7c-11.6,13.2-23.5,23.6-35.6,31.2c-2.1,4-5.1,12.2-9.1,24.7
		s-7.6,26.8-10.9,42.8c-3.3,16.1-4.9,31.7-4.9,46.9c0,14.8,2.2,27,6.5,36.6s11.7,14.4,22.1,14.4c10.1,0,20.5-4.3,31.2-12.7
		c10.7-8.5,19.4-19.4,26-32.8c-12.8-6.9-22.4-16.9-28.6-30.1c-6.2-13.2-9.4-26.5-9.4-39.9c0-17.4,4.3-31.3,13-41.8
		s18.9-15.7,30.7-15.7c10.1,0,18,4.3,23.9,12.7c5.9,8.5,8.8,20.9,8.8,37.1c0,11.9-1.6,24.2-4.7,36.9c-3.1,12.7-7.6,24.9-13.5,36.9
		c2.1,0.4,4.2,0.7,6.5,1.1s4.6,0.5,7,0.5c12.5,0,22.9-3.2,31.2-9.5s15.3-14.1,21.1-23.3c5.7-9.2,10.5-18,14.3-26.3l6.2,7
		c-9.7,24.9-21.2,41.5-34.6,49.6c-13.4,8.1-26.6,12.2-39.8,12.2c-2.8,0-5.6-0.2-8.3-0.5c-2.8-0.4-5.6-0.7-8.3-1.1
		c-9.4,16.6-20.9,30.8-34.6,42.6C575.5,467.2,559.4,473,541,473z M553,265.9c9.7-7.9,19.2-18.1,28.3-30.4
		c9.2-12.3,17.8-25.4,25.7-39.3c8-13.9,15.1-27.6,21.3-40.9c6.2-13.4,11.1-25.5,14.6-36.3s5.2-19,5.2-24.4c0-1.8-0.2-3-0.5-3.5
		s-0.9-0.8-1.6-0.8c-2.8,0-8.1,5.2-15.9,15.5c-7.8,10.3-16.5,24-26,41.2s-19,36.2-28.3,56.9S558.9,245.3,553,265.9z M613.3,396
		c3.8-8.3,6.8-17.1,8.8-26.3c2.1-9.2,3.1-18.7,3.1-28.5c0-12.7-1.6-22.6-4.9-29.8c-3.3-7.2-7.4-10.8-12.2-10.8
		c-5.2,0-9.8,3.7-13.8,11.1s-6,16.7-6,27.9c0,9.8,1.9,20.1,5.7,30.9C597.9,381.4,604.3,389.9,613.3,396z"/>
	<path class="st0" d="M733.5,450.8c-14.9,0-25.5-4.8-31.7-14.4s-9.4-21.2-9.4-35c0-11.2,1.7-22.8,5.2-34.7
		c3.5-11.9,8.1-23.1,13.8-33.6s12.1-19,19.2-25.5c7.1-6.5,14.3-9.8,21.6-9.8c1.7,0,3.6,0.3,5.5,0.8s3.7,1.2,5.5,1.9
		c-3.1,2.9-6.9,8.2-11.2,16s-8.4,16.6-12.2,26.6c-3.8,9.9-7,19.8-9.6,29.6c-2.6,9.8-3.9,18.1-3.9,24.9c0,10.8,1.7,18.7,5.2,23.6
		s8,7.3,13.5,7.3c7.3,0,15.9-4.1,26-12.2s19.9-18.5,29.6-31.2c-9.7-8.3-17.3-19.3-22.6-32.8c-5.4-13.6-8.1-27.4-8.1-41.5
		c0-11.9,2-23.1,6-33.6s9.8-18.9,17.4-25.2c7.6-6.3,16.8-9.5,27.6-9.5c14.2,0,23.7,4,28.6,11.9c4.9,8,7.3,17.9,7.3,29.8
		c0,14.1-3.3,29.7-9.9,46.9c-6.6,17.2-14.9,33.7-25,49.6c6.2,3.6,12.8,5.4,19.8,5.4c5.5,0,11.8-1.2,18.7-3.5s13.8-6.4,20.5-12.2
		c6.8-5.8,12.2-13.6,16.4-23.3l6.2,5.4c-6.9,17-16.7,29-29.4,36.1c-12.7,7-24.7,10.6-36.1,10.6c-4.5,0-8.8-0.4-13-1.4
		c-4.2-0.9-8.2-2.3-12-4.1c-11.8,16.3-24.7,29.8-38.7,40.7C760.3,445.4,746.6,450.8,733.5,450.8z M809.9,371.1
		c8.7-13.4,15.9-27.4,21.6-42c5.7-14.6,8.6-28.5,8.6-41.5c0-10.5-1.5-18.2-4.4-23c-2.9-4.9-6.7-7.3-11.2-7.3
		c-6.9,0-14,5.2-21.3,15.7s-10.9,23.7-10.9,39.6c0,10.5,1.5,21.1,4.4,31.7C799.6,354.9,804,363.9,809.9,371.1z"/>
	<path class="st0" d="M923.3,450.8c-14.9,0-25.5-4.8-31.7-14.4s-9.4-21.2-9.4-35c0-11.2,1.7-22.8,5.2-34.7
		c3.5-11.9,8.1-23.1,13.8-33.6s12.1-19,19.2-25.5c7.1-6.5,14.3-9.8,21.6-9.8c1.7,0,3.6,0.3,5.5,0.8s3.7,1.2,5.5,1.9
		c-3.1,2.9-6.9,8.2-11.2,16s-8.4,16.6-12.2,26.6c-3.8,9.9-7,19.8-9.6,29.6c-2.6,9.8-3.9,18.1-3.9,24.9c0,10.8,1.7,18.7,5.2,23.6
		s8,7.3,13.5,7.3c7.3,0,15.9-4.1,26-12.2s19.9-18.5,29.6-31.2c-9.7-8.3-17.3-19.3-22.6-32.8c-5.4-13.6-8.1-27.4-8.1-41.5
		c0-11.9,2-23.1,6-33.6s9.8-18.9,17.4-25.2c7.6-6.3,16.8-9.5,27.6-9.5c14.2,0,23.7,4,28.6,11.9c4.9,8,7.3,17.9,7.3,29.8
		c0,14.1-3.3,29.7-9.9,46.9c-6.6,17.2-14.9,33.7-25,49.6c6.2,3.6,12.8,5.4,19.8,5.4c5.5,0,11.8-1.2,18.7-3.5
		c6.9-2.3,13.8-6.4,20.5-12.2c6.8-5.8,12.2-13.6,16.4-23.3l6.2,5.4c-6.9,17-16.7,29-29.4,36.1c-12.7,7-24.7,10.6-36.1,10.6
		c-4.5,0-8.8-0.4-13-1.4c-4.2-0.9-8.2-2.3-12-4.1c-11.8,16.3-24.7,29.8-38.7,40.7C950.1,445.4,936.5,450.8,923.3,450.8z
		 M999.8,371.1c8.7-13.4,15.9-27.4,21.6-42c5.7-14.6,8.6-28.5,8.6-41.5c0-10.5-1.5-18.2-4.4-23c-2.9-4.9-6.7-7.3-11.2-7.3
		c-6.9,0-14,5.2-21.3,15.7s-10.9,23.7-10.9,39.6c0,10.5,1.5,21.1,4.4,31.7C989.4,354.9,993.9,363.9,999.8,371.1z"/>
	<path class="st0" d="M1120.4,449.7c-14.9,0-25.6-5.3-32-16s-9.6-23.9-9.6-39.9c0-17.4,3.1-38,9.4-61.8c6.2-23.9,14.5-49,24.7-75.4
		s21.4-52.1,33.5-77.3c12.1-25.1,24.3-48,36.4-68.6s23.3-37.1,33.5-49.3c10.2-12.3,18.3-18.4,24.2-18.4c3.8,0,6.9,2.3,9.4,6.8
		c2.4,4.5,4.3,9.9,5.7,16.3c1.4,6.3,2.1,12,2.1,17.1c0,9.8-2.3,22.5-7,38.2s-11.3,33.3-19.8,52.6s-18.6,38.9-30.2,58.6
		s-24.3,38.6-38,56.7s-28.2,33.6-43.4,46.6c-2.1,9.8-3.7,19.3-4.9,28.5c-1.2,9.2-1.8,18-1.8,26.3c0,14.1,1.9,24.6,5.7,31.5
		c3.8,6.9,9.5,10.3,17.2,10.3c9.4,0,18.6-4.3,27.8-13c9.2-8.7,17.9-19.6,26-32.8c8.1-13.2,15.2-26.8,21.1-40.9l7.8,4.3
		c-13.9,30.7-29,55-45.2,72.9C1156.6,440.8,1139.1,449.7,1120.4,449.7z M1124.1,317.4c12.1-12.7,23.9-27.2,35.4-43.7
		c11.4-16.4,22.1-33.5,32-51.2s18.6-34.9,26.3-51.5c7.6-16.6,13.5-31.5,17.7-44.7s6.2-23.4,6.2-30.6c0-3.6-0.4-6-1.3-7
		c-0.9-1.1-1.6-1.6-2.3-1.6c-2.8,0-7.5,4.6-14.3,13.8s-14.7,21.6-23.7,37.1s-18.2,33.3-27.6,53.1c-9.4,19.9-18.3,40.7-26.8,62.4
		C1137.1,275.1,1129.9,296.4,1124.1,317.4z"/>
</g>
</svg>
