<?xml version="1.0" encoding="utf-8"?>
<!-- Generator: Adobe Illustrator 23.0.1, SVG Export Plug-In . SVG Version: 6.00 Build 0)  -->
<svg version="1.1" id="Layer_1" xmlns="http://www.w3.org/2000/svg" xmlns:xlink="http://www.w3.org/1999/xlink" x="0px" y="0px"
	 viewBox="0 0 1288 498" style="enable-background:new 0 0 1288 498;" xml:space="preserve">
<style type="text/css">
	.st0{fill:#008689;}
</style>
<g>
	<path class="st0" d="M209.1,443.5c-15.1-3-28.2-10-39.4-21c-11.1-10.9-21.6-22.7-31.4-35.2c-8.7,2.4-17.4,3.9-26,4.5
		c-8.7,0.7-17.3,0.1-25.8-1.6c-11.2-2.2-20-5.8-26.6-10.7s-11.2-10.2-14-15.9c-2.8-5.7-4.4-11.1-5-16.1c-0.5-5.1-0.5-8.9,0-11.5
		c1.1-5.6,5-10.7,11.5-15.4c6.6-4.7,16.4-5.7,29.6-3c13.5,2.7,26,8.5,37.5,17.5s23,18.9,34.6,29.7c17.4-10.2,33.8-24.3,49.2-42.4
		s29.3-38,41.7-59.8s22.9-43.5,31.5-65.2s14.7-41.2,18.1-58.7c5.4-26.9,4.7-49.8-2.2-68.6c-6.8-18.8-21.7-30.5-44.7-35.1
		c-19.1-3.8-37.9-1.7-56.6,6.4c-18.7,8-36.6,20.3-53.7,36.7s-32.8,35.4-47,57S64,179.5,53.9,203.4c-10.1,24-17.4,47.3-21.9,69.9
		c-1.4,6.9-2.4,13.9-3.2,20.9s-1.1,14.1-1.2,21.3c-10.2-2-17.3-6.9-21.4-14.5c-4-7.8-6.1-17-6.2-27.8s1.1-22.1,3.5-33.9
		c4.9-24.6,13.1-48.5,24.6-71.7s25.4-44.6,41.8-64.2s34.4-36.2,54.1-49.9s40.2-23.5,61.8-29.4c21.5-6,42.9-6.8,64.3-2.5
		c31.5,6.3,53.9,22,67.2,47s16.2,56,8.9,92.7c-4.1,20.7-11.3,41.7-21.3,63.1c-10.1,21.4-22.3,41.9-36.6,61.4
		c-14.3,19.5-30.1,37.1-47.2,52.8c-17.2,15.7-35,28.2-53.6,37.5c9.9,8.5,20.4,16.1,31.5,23c11.1,6.8,23.4,11.6,36.9,14.3
		c7.2,1.4,12.7,1.9,16.4,1.2c3.7-0.6,8.2-1.1,13.4-1.4c-5.6,10.8-11.8,18.6-18.7,23.2s-13.6,7.2-20,7.8
		C220.2,444.7,214.4,444.5,209.1,443.5z M89,377.9c6.9,1.4,13.7,1.8,20.5,1.3s13.4-1.8,20-3.9c-8.4-10.9-17-20.7-25.6-29.5
		c-8.7-8.7-18.4-14.2-29.3-16.4c-7.6-1.5-12.8-0.9-15.7,1.7c-2.9,2.7-4.6,5.3-5.2,7.9c-0.6,3-0.2,7,1.1,12.3
		c1.3,5.2,4.6,10.4,9.7,15.5C69.7,372,77.8,375.7,89,377.9z"/>
	<path class="st0" d="M349,419.3c-11.3-1.3-19.8-7.5-25.4-18.4c-5.6-11-7.7-23.1-6.1-36.4c1.1-9.6,4-20.6,8.7-32.9
		s10-24.3,16.1-36.1c6.1-11.8,12.1-21.3,18.1-28.7c5.9-7.4,10.7-10.9,14.4-10.4c1.7,0.2,4.4,1.5,8.2,3.7c3.8,2.3,6.8,5.1,9.1,8.4
		c-4.3,5.2-9.8,13.4-16.5,24.4s-12.8,23-18.4,35.8s-9,24.9-10.3,36.2c-0.3,2.7-0.5,6.8-0.4,12.3c0,5.6,1.1,10.7,3.3,15.3
		c2.2,4.6,5.9,7.3,11.2,7.9c6.3,0.7,13.2-1.7,20.6-7.4c7.4-5.7,15.2-13.3,23.2-22.8s15.9-19.9,23.7-31.1c7.7-11.2,15-22,21.8-32.3
		s12.4-18.9,17-25.8c2,0.6,4.8,1.6,8.5,3s7,3.2,10,5.2s4.3,4.6,3.9,7.5c-0.2,1.3-2.3,5.5-6.5,12.6s-9.2,15.8-15,26.1
		c-5.8,10.3-11,20.7-15.6,31.3c-4.6,10.6-7.4,20.1-8.4,28.4c-0.7,6,0,11,2,14.9c2.1,4,6.1,6.3,12.1,7c7,0.8,15.8-1.3,26.6-6.5
		c10.7-5.1,22-13.2,33.7-24.1C530.1,375.5,541,362,551,346l6,5.3c-9.1,17.1-20.1,32-33.1,44.4c-12.9,12.5-26.2,21.8-39.7,28
		s-26.3,8.5-38.3,7.1c-8.7-1-15.4-3.5-20.1-7.4c-4.8-3.9-7.9-8.9-9.4-14.8s-1.9-12.2-1.1-18.9c0.5-4,1.3-8,2.4-12.1
		c1.2-4.1,2.5-8.2,4-12.4c-7.3,10.3-15,19.7-23.1,28.4c-8.1,8.7-16.3,15.4-24.6,20.1C365.7,418.4,357.3,420.3,349,419.3z"/>
	<path class="st0" d="M588.1,466.1c-17.4-1.1-30-7.6-37.8-19.5s-11.1-27.6-9.8-47c1.1-16.7,5.2-36.3,12.3-58.6
		c7.1-22.4,16.2-45.7,27.1-70c10.9-24.3,22.9-48,36-71s26-43.7,39-62.2c12.9-18.5,24.9-33.2,36-44c11.1-10.9,20-16.1,26.7-15.7
		c5.7,0.4,9.6,4.1,11.6,11.3c2.1,7.2,2.9,14.3,2.4,21.3c-0.6,9.4-3.3,20.6-8.2,33.7c-4.9,13.1-11.5,27.1-19.8,41.8
		s-17.8,29.2-28.4,43.3c-10.6,14.1-21.9,26.9-33.9,38.4s-24,20.4-36.2,26.6c-2.2,3.6-5.7,11-10.2,22.3c-4.6,11.3-8.9,24.3-13.1,39
		c-4.1,14.7-6.6,29-7.5,43.1c-0.9,13.7,0.5,25.1,4.1,34.3c3.6,9.1,10.4,14,20.5,14.7c9.7,0.6,20-2.7,30.8-9.9
		c10.9-7.2,19.9-16.8,27-28.8c-12-7.1-20.6-17-25.8-29.6s-7.5-25.1-6.7-37.4c1-16,6-28.7,15-37.8c9-9.2,19.2-13.4,30.5-12.7
		c9.7,0.6,17.1,5,22.3,13.3c5.2,8.2,7.3,19.9,6.3,34.9c-0.7,11-2.9,22.3-6.7,33.8s-8.8,22.6-15.2,33.3c2,0.5,4,0.9,6.2,1.4
		c2.1,0.5,4.4,0.8,6.7,0.9c12,0.8,22.2-1.5,30.7-6.9c8.4-5.3,15.6-12.1,21.7-20.3c6.1-8.2,11.2-16,15.3-23.4l5.6,6.9
		c-10.8,22.5-22.9,37.1-36.3,43.8c-13.4,6.7-26.4,9.7-39.1,8.8c-2.7-0.2-5.3-0.5-8-1s-5.3-1-8-1.5c-10,14.8-22,27.2-35.9,37.2
		C621.7,462.7,605.8,467.2,588.1,466.1z M611.9,275.2c9.8-6.7,19.5-15.5,29.1-26.3s18.6-22.4,27.1-34.8c8.5-12.4,16.2-24.6,23-36.6
		s12.2-22.9,16.2-32.7s6.1-17.2,6.5-22.2c0.1-1.7,0-2.8-0.3-3.3s-0.8-0.8-1.5-0.8c-2.7-0.2-8.1,4.3-16.2,13.3s-17.3,21.2-27.5,36.5
		s-20.4,32.3-30.7,50.9S618.8,256.5,611.9,275.2z M662.4,399.3c4.2-7.5,7.5-15.4,10.1-23.8s4.1-17.1,4.7-26.1
		c0.7-11.7-0.3-21-3-27.9c-2.8-6.9-6.5-10.5-11.1-10.8c-5-0.3-9.7,2.8-13.9,9.4c-4.3,6.6-6.8,15.1-7.4,25.5
		c-0.6,9,0.7,18.7,3.7,28.9C648.4,384.8,654,393.1,662.4,399.3z"/>
	<path class="st0" d="M786.7,455.9c-14.4-0.2-24.6-4.8-30.5-13.8s-8.8-19.8-8.6-32.5c0.2-10.4,2-21.1,5.5-32.1s8.1-21.3,13.8-31
		c5.7-9.6,12-17.4,18.9-23.3c7-5.9,13.9-8.8,21-8.7c1.7,0,3.4,0.3,5.3,0.8c1.8,0.5,3.6,1.1,5.3,1.8c-3.1,2.6-6.7,7.5-11,14.7
		c-4.3,7.1-8.4,15.3-12.2,24.4c-3.8,9.2-7.1,18.3-9.7,27.3c-2.6,9-4,16.7-4.1,23.1c-0.2,10.1,1.4,17.4,4.7,21.9
		c3.3,4.6,7.6,6.9,13,7c7,0.1,15.5-3.5,25.3-10.9s19.5-16.9,29.1-28.5c-9.3-7.8-16.4-18.1-21.4-30.7s-7.4-25.5-7.2-38.6
		c0.2-11.1,2.2-21.4,6.2-31.1s9.7-17.4,17.2-23.1s16.4-8.6,26.8-8.4c13.7,0.2,22.9,4,27.5,11.5c4.6,7.4,6.8,16.7,6.6,27.7
		c-0.2,13.1-3.6,27.5-10.2,43.3c-6.6,15.8-14.9,31-24.8,45.6c6,3.4,12.3,5.2,19,5.3c5.4,0.1,11.4-0.9,18.1-3c6.7-2.1,13.4-5.7,20-11
		s12-12.4,16.1-21.4l6,5.1c-6.9,15.7-16.6,26.6-28.9,33c-12.3,6.3-24,9.4-35.1,9.3c-4.4-0.1-8.5-0.5-12.5-1.4s-7.8-2.2-11.5-3.9
		c-11.6,14.9-24.3,27.3-38,37.1C812.6,451.3,799.4,456.1,786.7,455.9z M861.6,383.1c8.6-12.3,15.7-25.2,21.4-38.6
		c5.7-13.5,8.7-26.3,8.9-38.3c0.1-9.7-1.2-16.9-4-21.4c-2.8-4.6-6.4-6.9-10.7-6.9c-6.7-0.1-13.6,4.7-20.8,14.3
		c-7.2,9.6-10.9,21.8-11.1,36.5c-0.1,9.7,1.1,19.5,3.8,29.5C851.9,368,856,376.3,861.6,383.1z"/>
	<path class="st0" d="M981.3,456.9c-14.4,0.5-24.8-3.6-31.1-12.3c-6.3-8.7-9.7-19.4-10.1-32.1c-0.3-10.4,1-21.2,3.9-32.3
		c3-11.2,7.1-21.7,12.3-31.6s11.1-18,17.8-24.2s13.5-9.5,20.5-9.7c1.7-0.1,3.4,0.1,5.3,0.6c1.9,0.4,3.6,1,5.3,1.6
		c-2.9,2.8-6.4,7.8-10.3,15.2c-3.9,7.3-7.6,15.7-11,25s-6.2,18.6-8.4,27.7s-3.2,16.9-3,23.2c0.3,10,2.2,17.3,5.8,21.7
		c3.5,4.4,7.9,6.5,13.3,6.3c7-0.2,15.3-4.3,24.7-12.1c9.4-7.8,18.7-17.8,27.7-29.8c-9.6-7.4-17.3-17.3-22.9-29.7
		c-5.6-12.4-8.6-25.1-9.1-38.2c-0.4-11.1,1.2-21.5,4.7-31.3s8.9-17.8,16-23.9c7.2-6.1,15.9-9.3,26.3-9.7c13.7-0.5,23.1,2.9,28,10.1
		s7.6,16.3,8,27.4c0.4,13.1-2.3,27.7-8.1,43.8c-5.8,16.1-13.4,31.7-22.6,46.8c6.1,3.1,12.6,4.6,19.3,4.4c5.4-0.2,11.3-1.5,18-3.9
		c6.6-2.4,13.1-6.4,19.5-12c6.3-5.6,11.4-13,15.1-22.1l6.2,4.8c-6.2,16-15.3,27.4-27.3,34.4c-12,6.9-23.5,10.6-34.6,11
		c-4.4,0.2-8.5-0.1-12.6-0.8c-4-0.7-7.9-1.8-11.7-3.4c-10.9,15.4-22.9,28.4-36.2,38.9S994,456.4,981.3,456.9z M1052.6,380.5
		c7.9-12.7,14.5-25.9,19.5-39.6c5.1-13.7,7.4-26.6,7-38.7c-0.3-9.7-2-16.8-5-21.2c-3-4.4-6.7-6.6-11-6.4
		c-6.7,0.2-13.4,5.3-20.1,15.3s-9.8,22.3-9.3,37c0.3,9.7,2.1,19.5,5.3,29.2C1042.2,365.9,1046.7,374,1052.6,380.5z"/>
	<path class="st0" d="M1181,446.6c-14.4,1.1-25-3.1-31.9-12.5s-10.9-21.4-12-36.1c-1.2-16,0.4-35.3,4.7-57.8
		c4.4-22.5,10.6-46.3,18.6-71.5c8-25.1,17-49.7,27-73.8s20.1-46.1,30.3-66c10.3-19.9,19.9-35.9,28.9-48s16.3-18.4,22-18.8
		c3.7-0.3,6.8,1.6,9.5,5.6c2.6,4,4.9,8.9,6.6,14.6c1.8,5.7,2.8,11,3.2,15.6c0.7,9-0.7,21-4.1,35.8c-3.4,14.9-8.5,31.6-15.4,50.1
		c-6.8,18.5-15.2,37.3-25,56.3s-20.7,37.4-32.7,55.1c-11.9,17.7-24.8,33.1-38.6,46.2c-1.3,9.2-2.3,18.1-2.8,26.7s-0.5,16.7,0.1,24.4
		c1,13,3.5,22.6,7.7,28.7s9.9,8.8,17.2,8.3c9-0.7,17.7-5.4,25.9-14c8.3-8.7,15.8-19.4,22.8-32.2c6.9-12.8,12.8-25.9,17.5-39.4
		l7.8,3.4c-11.2,29.4-24.1,53-38.5,70.7C1215.2,435.7,1199,445.2,1181,446.6z M1175.3,324c10.8-12.6,21.2-26.9,31.1-42.9
		s19-32.6,27.3-49.7s15.5-33.6,21.7-49.5s10.8-30.1,13.9-42.6c3.1-12.5,4.4-22.1,3.9-28.8c-0.3-3.3-0.8-5.5-1.7-6.4
		s-1.7-1.4-2.4-1.3c-2.7,0.2-7,4.8-12.8,13.8c-5.9,9-12.6,21-20.2,36s-15.2,32.1-22.9,51.1c-7.6,19.1-14.8,38.9-21.5,59.6
		C1185,284,1179.5,304.2,1175.3,324z"/>
</g>
</svg>
