<?xml version="1.0" encoding="utf-8"?>
<!-- Generator: Adobe Illustrator 23.0.1, SVG Export Plug-In . SVG Version: 6.00 Build 0)  -->
<svg version="1.1" id="Layer_1" xmlns="http://www.w3.org/2000/svg" xmlns:xlink="http://www.w3.org/1999/xlink" x="0px" y="0px"
	 viewBox="0 0 15.2 14.1" style="enable-background:new 0 0 15.2 14.1;" xml:space="preserve">
<style type="text/css">
	.st0{fill:#4A270B;}
	.st1{fill:url(#SVGID_1_);}
	.st2{fill:url(#SVGID_2_);}
	.st3{fill:url(#SVGID_3_);}
	.st4{fill:url(#SVGID_4_);}
	.st5{fill:url(#SVGID_5_);}
	.st6{fill:url(#SVGID_6_);}
	.st7{fill:url(#SVGID_7_);}
	.st8{fill:url(#SVGID_8_);}
	.st9{fill:url(#SVGID_9_);}
	.st10{fill:url(#SVGID_10_);}
	.st11{fill:url(#SVGID_11_);}
	.st12{fill:url(#SVGID_12_);}
	.st13{fill:url(#SVGID_13_);}
	.st14{fill:url(#SVGID_14_);}
	.st15{fill:url(#SVGID_15_);}
	.st16{fill:url(#SVGID_16_);}
	.st17{fill:url(#SVGID_17_);}
	.st18{fill:url(#SVGID_18_);}
	.st19{fill:url(#SVGID_19_);}
	.st20{fill:url(#SVGID_20_);}
	.st21{fill:url(#SVGID_21_);}
	.st22{opacity:0.5;}
	.st23{fill:#0B4D04;}
	.st24{fill:url(#SVGID_22_);}
	.st25{opacity:0.5;fill:#0B4D04;}
	.st26{fill:url(#SVGID_23_);}
	.st27{opacity:0.58;}
	.st28{fill:url(#SVGID_24_);}
	.st29{fill:url(#SVGID_25_);}
	.st30{fill:url(#SVGID_26_);}
	.st31{fill:url(#SVGID_27_);}
	.st32{fill:url(#SVGID_28_);}
	.st33{fill:url(#SVGID_29_);}
	.st34{fill:url(#SVGID_30_);}
	.st35{fill:url(#SVGID_31_);}
	.st36{fill:url(#SVGID_32_);}
	.st37{fill:url(#SVGID_33_);}
	.st38{fill:url(#SVGID_34_);}
	.st39{fill:url(#SVGID_35_);}
	.st40{fill:url(#SVGID_36_);}
	.st41{fill:url(#SVGID_37_);}
	.st42{fill:url(#SVGID_38_);}
	.st43{fill:url(#SVGID_39_);}
	.st44{fill:url(#SVGID_40_);}
	.st45{fill:url(#SVGID_41_);}
	.st46{fill:url(#SVGID_42_);}
	.st47{fill:url(#SVGID_43_);}
	.st48{fill:url(#SVGID_44_);}
	.st49{fill:url(#SVGID_45_);}
	.st50{fill:url(#SVGID_46_);}
</style>
<g>
	<g>
		<g>
			<g>
				<path class="st0" d="M11.2,9c-0.2,0-0.4-0.1-0.6-0.1c-0.2,0-0.4-0.1-0.6-0.1c-0.2,0-0.4,0-0.6-0.1c-0.2,0-0.4,0-0.6,0l0,0
					c0,0-0.1,0-0.1-0.1c0,0,0-0.1,0.1-0.1c0,0,0,0,0,0c0.2,0,0.4,0,0.6,0c0.2,0,0.4,0.1,0.6,0.1c0.2,0,0.4,0.1,0.6,0.1
					C10.8,8.9,11,8.9,11.2,9z"/>
				<g>
					<path class="st0" d="M5.1,5.8C5.1,5.8,5.1,5.8,5.1,5.8c0.1,0,0.1,0,0.1,0C6,6.9,7.7,7.9,7.7,7.9c0,0,0,0.1,0,0.1
						c0,0-0.1,0-0.1,0C7.6,8,5.9,7,5.1,5.8C5.1,5.9,5.1,5.8,5.1,5.8z"/>
				</g>
				<path class="st0" d="M11.9,10.2c-0.1-0.1-0.2-0.2-0.3-0.3c-0.1-0.1-0.2-0.2-0.3-0.3c-0.1-0.1-0.2-0.2-0.3-0.2
					c-0.1-0.1-0.2-0.1-0.4-0.1c0.1,0,0.3,0.1,0.4,0.1c0.1,0.1,0.2,0.1,0.3,0.2c0.1,0.1,0.2,0.2,0.3,0.2c0.1,0.1,0.2,0.2,0.3,0.3
					c0,0,0,0.1,0,0.1C12,10.3,12,10.3,11.9,10.2C11.9,10.2,11.9,10.2,11.9,10.2L11.9,10.2z"/>
				<path class="st0" d="M13.1,10.6c-0.1-0.1-0.2-0.2-0.3-0.2c-0.1-0.1-0.2-0.1-0.3-0.2c-0.1-0.1-0.2-0.1-0.3-0.2
					C12,10,11.9,10,11.7,10c0.1,0,0.3,0,0.4,0c0.1,0,0.3,0.1,0.4,0.1c0.1,0.1,0.2,0.1,0.4,0.2c0.1,0.1,0.2,0.1,0.3,0.2
					c0,0,0,0.1,0,0.1C13.2,10.7,13.2,10.7,13.1,10.6C13.1,10.6,13.1,10.6,13.1,10.6L13.1,10.6z"/>
				<path class="st0" d="M13,10c0.1,0.1,0.2,0.2,0.3,0.3c0.1,0.1,0.2,0.2,0.3,0.3c0.1,0.1,0.2,0.2,0.3,0.2c0.1,0.1,0.2,0.1,0.4,0.1
					c-0.1,0-0.3-0.1-0.4-0.1c-0.1-0.1-0.2-0.1-0.3-0.2c-0.1-0.1-0.2-0.2-0.3-0.2c-0.1-0.1-0.2-0.2-0.3-0.3c0,0,0-0.1,0-0.1
					C12.9,10,12.9,10,13,10C13,10,13,10,13,10L13,10z"/>
				<path class="st0" d="M5,4.6C5,4.6,4.9,4.5,4.8,4.5c-0.1,0-0.1-0.1-0.2-0.1c-0.1,0-0.1,0-0.2-0.1c0,0,0,0-0.1,0c0,0,0,0-0.1,0
					c0,0-0.1,0-0.1,0l0,0c0,0,0,0,0,0c0,0,0,0,0,0c0,0,0,0,0.1,0c0,0,0,0,0.1,0c0,0,0,0,0.1,0c0,0,0,0,0.1,0c0,0,0.1,0,0.1,0
					c0,0,0.1,0,0.1,0.1c0,0,0.1,0,0.1,0.1l0.1,0c0,0,0,0,0,0C4.9,4.5,5,4.6,5,4.6C5,4.6,5,4.6,5,4.6C5,4.6,5,4.6,5,4.6L5,4.6z"/>
				<path class="st0" d="M4.3,4.3c-0.1,0-0.2,0-0.2,0c0,0,0,0-0.1,0L4,4.3c0,0-0.1,0-0.1,0c0,0-0.1,0-0.1,0c0,0-0.1,0-0.1-0.1
					c0,0,0,0,0,0c0,0,0,0,0,0c0,0,0,0,0-0.1c0,0,0,0,0-0.1c0,0,0,0,0,0c0,0,0,0,0,0l0,0c0,0,0.1,0,0.1,0.1c0,0,0,0,0.1,0
					c0,0,0,0,0.1,0c0.1,0,0.1,0.1,0.2,0.1C4,4.2,4,4.2,4.1,4.2C4.2,4.2,4.3,4.3,4.3,4.3L4.3,4.3C4.3,4.3,4.3,4.3,4.3,4.3
					C4.3,4.3,4.3,4.3,4.3,4.3z"/>
				<path class="st0" d="M6.3,2.4C6.2,2.4,6.1,2.4,6,2.5c0,0-0.1,0-0.1,0.1l-0.1,0c0,0,0,0,0,0c0,0,0,0,0,0c0,0,0,0,0,0.1
					c0,0,0,0,0,0.1c0,0,0,0,0,0.1c0,0-0.1,0.1-0.1,0.1C5.5,3,5.5,3,5.4,3l0,0c0,0,0,0,0,0c0,0,0,0,0,0c0-0.1,0-0.2,0.1-0.3
					c0-0.1,0.1-0.1,0.2-0.2C5.8,2.5,5.9,2.4,6,2.4C6.1,2.4,6.2,2.3,6.3,2.4C6.3,2.3,6.3,2.3,6.3,2.4C6.3,2.3,6.3,2.3,6.3,2.4
					L6.3,2.4z"/>
				<path class="st0" d="M2.5,2.9c0,0-1.2-1-1.8-1.8L0.1,0.8C0.1,0.8,1.7,2.9,2.5,2.9z"/>
				<path class="st0" d="M0.2,0.9c0.2,0.2,0.4,0.4,0.6,0.6C0.9,1.7,1.1,1.9,1.3,2c0.1,0.1,0.2,0.2,0.3,0.3C1.7,2.4,1.8,2.4,2,2.5
					c0,0,0,0,0,0c0,0,0,0,0.1,0c0,0,0.1,0,0.1,0c0.1,0,0.1,0.1,0.2,0.1c0.1,0.1,0.2,0.1,0.3,0.2C3.1,3.2,3.5,3.6,3.9,4
					C4,4.1,4.1,4.2,4.2,4.3c0.1,0.1,0.2,0.2,0.3,0.3c0,0.1,0.1,0.1,0.1,0.2c0,0,0,0.1,0.1,0.1c0,0,0,0.1,0,0.1
					c0,0.1,0.1,0.2,0.2,0.4C5,5.5,5.2,5.8,5.3,6c0.2,0.2,0.3,0.4,0.5,0.6C6,6.8,6.2,7,6.4,7.2c0.2,0.2,0.4,0.3,0.6,0.5
					c0.1,0.1,0.2,0.1,0.4,0.2c0.1,0,0.3,0.1,0.4,0.1C7.9,8,7.9,8,8,8c0.1,0,0.1,0.1,0.2,0.1c0.1,0.1,0.2,0.2,0.3,0.3
					c0.4,0.4,0.8,0.8,1.1,1.2c0,0,0,0,0,0c0,0,0,0,0,0C9.4,9.4,9.2,9.2,9,9L8.9,8.9c-0.1,0-0.1-0.1-0.2-0.1C8.6,8.7,8.5,8.6,8.4,8.5
					C8.2,8.3,8,8.2,7.7,8.1C7.6,8,7.5,8,7.4,7.9C7.2,7.9,7.1,7.8,7,7.8C6.7,7.6,6.5,7.5,6.3,7.3C6.1,7.1,5.9,6.9,5.7,6.7
					C5.5,6.5,5.4,6.3,5.2,6C5.1,5.8,4.9,5.6,4.8,5.3C4.7,5.2,4.7,5.1,4.6,5c0,0,0-0.1,0-0.1c0,0,0-0.1,0-0.1c0-0.1-0.1-0.1-0.1-0.2
					C4.2,4.4,4.1,4.2,3.9,4.1C3.7,3.9,3.4,3.7,3.2,3.5C3,3.3,2.8,3.2,2.6,3C2.5,2.9,2.4,2.9,2.3,2.8c-0.1,0-0.1-0.1-0.2-0.1
					c0,0-0.1,0-0.1,0c0,0,0,0,0,0c0,0,0,0-0.1,0C1.8,2.5,1.7,2.5,1.6,2.4C1.5,2.3,1.4,2.2,1.3,2.1C0.9,1.7,0.5,1.3,0.2,0.9
					C0.1,0.9,0.1,0.9,0.2,0.9C0.2,0.9,0.2,0.9,0.2,0.9z"/>
				
					<linearGradient id="SVGID_1_" gradientUnits="userSpaceOnUse" x1="-3464.5537" y1="1268.5209" x2="-3465.6226" y2="1272.9319" gradientTransform="matrix(-0.5325 0.8464 -0.8464 -0.5325 -758.9531 3620.1331)">
					<stop  offset="0" style="stop-color:#B6D33D"/>
					<stop  offset="0.2784" style="stop-color:#5CA605"/>
					<stop  offset="1" style="stop-color:#265502"/>
				</linearGradient>
				<path class="st1" d="M11.8,12.2c0,0,0.3-3.4-2.2-3.3c0,0-0.3,0-0.5,0.1C9,9.2,8.8,10.7,9.9,11.3C11,11.9,11.3,11.9,11.8,12.2z"
					/>
				
					<linearGradient id="SVGID_2_" gradientUnits="userSpaceOnUse" x1="-3466.4224" y1="1266.7135" x2="-3466.3767" y2="1269.0099" gradientTransform="matrix(-0.5325 0.8464 -0.8464 -0.5325 -758.9531 3620.1331)">
					<stop  offset="0" style="stop-color:#B6D33D"/>
					<stop  offset="0.2784" style="stop-color:#5CA605"/>
					<stop  offset="1" style="stop-color:#265502"/>
				</linearGradient>
				<path class="st2" d="M14.5,11.4c0,0-0.4-0.2-0.7-0.5c-0.3-0.3-0.6-0.4-0.7-0.4C12.9,10.6,13.8,11.6,14.5,11.4z"/>
				
					<linearGradient id="SVGID_3_" gradientUnits="userSpaceOnUse" x1="-3467.0742" y1="1266.2997" x2="-3466.5171" y2="1268.1869" gradientTransform="matrix(-0.5325 0.8464 -0.8464 -0.5325 -758.9531 3620.1331)">
					<stop  offset="0" style="stop-color:#B6D33D"/>
					<stop  offset="0.2784" style="stop-color:#5CA605"/>
					<stop  offset="1" style="stop-color:#265502"/>
				</linearGradient>
				<path class="st3" d="M15.1,11.2c0,0-0.7-0.5-1.3-0.5C13.7,10.7,14.2,11.3,15.1,11.2z"/>
				
					<linearGradient id="SVGID_4_" gradientUnits="userSpaceOnUse" x1="-3467.4075" y1="1267.3822" x2="-3466.3503" y2="1270.0538" gradientTransform="matrix(-0.5325 0.8464 -0.8464 -0.5325 -758.9531 3620.1331)">
					<stop  offset="0" style="stop-color:#B6D33D"/>
					<stop  offset="0.2784" style="stop-color:#5CA605"/>
					<stop  offset="1" style="stop-color:#265502"/>
				</linearGradient>
				<path class="st4" d="M14.2,10.5c0,0-1.6-0.1-2-0.4c-0.4-0.3,0,0,0,0s0.8-0.2,1.1-0.1C13.5,10.1,13.8,10.2,14.2,10.5z"/>
				
					<linearGradient id="SVGID_5_" gradientUnits="userSpaceOnUse" x1="-3466.0818" y1="1268.2155" x2="-3466.1956" y2="1270.387" gradientTransform="matrix(-0.5325 0.8464 -0.8464 -0.5325 -758.9531 3620.1331)">
					<stop  offset="0" style="stop-color:#B6D33D"/>
					<stop  offset="0.2784" style="stop-color:#5CA605"/>
					<stop  offset="1" style="stop-color:#265502"/>
				</linearGradient>
				<path class="st5" d="M13,10.7c0,0-0.8-1.1-1.2-0.8C11.4,10.3,12.6,11,13,10.7z"/>
				
					<linearGradient id="SVGID_6_" gradientUnits="userSpaceOnUse" x1="-3463.6785" y1="1271.7374" x2="-3465.634" y2="1275.0798" gradientTransform="matrix(-0.5325 0.8464 -0.8464 -0.5325 -758.9531 3620.1331)">
					<stop  offset="0" style="stop-color:#B6D33D"/>
					<stop  offset="0.2784" style="stop-color:#5CA605"/>
					<stop  offset="1" style="stop-color:#265502"/>
				</linearGradient>
				<path class="st6" d="M7.4,7.9c0,0,0.3,0.3,0.5,0.4c0.2,0.1,0.8,0.5,0.7,1.6c0,0-0.2,0.6-0.1,0.7c0.1,0.1-1.4-0.3-0.9-2.2
					C7.6,8.4,7.7,8.3,7.4,7.9z"/>
				
					<linearGradient id="SVGID_7_" gradientUnits="userSpaceOnUse" x1="-3465.428" y1="1275.9867" x2="-3463.4102" y2="1275.9867" gradientTransform="matrix(-0.5325 0.8464 -0.8464 -0.5325 -758.9531 3620.1331)">
					<stop  offset="0" style="stop-color:#B6D33D"/>
					<stop  offset="0.2784" style="stop-color:#5CA605"/>
					<stop  offset="1" style="stop-color:#265502"/>
				</linearGradient>
				<path class="st7" d="M6.3,7.5c0,0,0.4,0.7-0.3,1.2C5.2,9.2,5,9,5,9s0.2-0.1,0.4-0.2C5.7,8.7,5.6,7.8,6.3,7.5z"/>
				
					<linearGradient id="SVGID_8_" gradientUnits="userSpaceOnUse" x1="-3614.3567" y1="-1693.3015" x2="-3613.2898" y2="-1693.3015" gradientTransform="matrix(-0.6205 0.7842 -0.7842 -0.6205 -3564.4526 1788.1644)">
					<stop  offset="0" style="stop-color:#B6D33D"/>
					<stop  offset="0.2784" style="stop-color:#5CA605"/>
					<stop  offset="1" style="stop-color:#265502"/>
				</linearGradient>
				<path class="st8" d="M7,5.1c0,0-0.3,0.1-0.7-0.4C5.9,4.3,4.8,4.4,4.8,4.4S5.3,6.1,7,5.1z"/>
				
					<linearGradient id="SVGID_9_" gradientUnits="userSpaceOnUse" x1="-3713.0068" y1="-1494.7643" x2="-3710.1001" y2="-1494.7643" gradientTransform="matrix(-0.6664 0.7456 -0.7456 -0.6664 -3580.8149 1774.8811)">
					<stop  offset="0" style="stop-color:#B6D33D"/>
					<stop  offset="0.2784" style="stop-color:#5CA605"/>
					<stop  offset="1" style="stop-color:#265502"/>
				</linearGradient>
				<path class="st9" d="M5,3.7c0,0,0.1-0.1,0.4,0.2C5.7,4.2,6.2,5.3,8,4.2c0,0,0.7-0.5,1-0.6c0.3-0.1-0.1,0-0.4-0.3
					C8.2,3,6.5,1.5,5.2,3.6C5.2,3.6,5.2,3.7,5,3.7z"/>
				
					<linearGradient id="SVGID_10_" gradientUnits="userSpaceOnUse" x1="-3618.5833" y1="-1691.9244" x2="-3615.8254" y2="-1691.9244" gradientTransform="matrix(-0.6205 0.7842 -0.7842 -0.6205 -3564.4526 1788.1644)">
					<stop  offset="0" style="stop-color:#B6D33D"/>
					<stop  offset="0.2784" style="stop-color:#5CA605"/>
					<stop  offset="1" style="stop-color:#265502"/>
				</linearGradient>
				<path class="st10" d="M7.6,0.2c0,0,0.1,2.2-1.6,2.3c0,0-0.2-1.5,1.1-2C7.1,0.5,7.4,0.5,7.6,0.2z"/>
				
					<linearGradient id="SVGID_11_" gradientUnits="userSpaceOnUse" x1="-3616.9646" y1="-1690.8843" x2="-3613.2927" y2="-1690.8843" gradientTransform="matrix(-0.6205 0.7842 -0.7842 -0.6205 -3564.4526 1788.1644)">
					<stop  offset="0" style="stop-color:#B6D33D"/>
					<stop  offset="0.2784" style="stop-color:#5CA605"/>
					<stop  offset="1" style="stop-color:#265502"/>
				</linearGradient>
				<path class="st11" d="M4.1,4.2c0,0,1.4-0.4,1.5-1.8C5.8,1.1,5,0.2,5,0.2s0.2,0.4-0.4,0.9C3.9,1.7,3.4,2.9,4.1,4.2z"/>
				
					<linearGradient id="SVGID_12_" gradientUnits="userSpaceOnUse" x1="-3461.7654" y1="1276.2567" x2="-3467.0859" y2="1278.8033" gradientTransform="matrix(-0.5325 0.8464 -0.8464 -0.5325 -758.9531 3620.1331)">
					<stop  offset="0" style="stop-color:#B6D33D"/>
					<stop  offset="0.2784" style="stop-color:#5CA605"/>
					<stop  offset="1" style="stop-color:#265502"/>
				</linearGradient>
				<path class="st12" d="M4.7,5c0,0,2.1,2.1-0.4,3.8c0,0-0.3,0.2-0.3,0.4s0,0.1-0.1-0.4C3.9,8.3,3.5,7.8,3.7,7C3.9,6.1,4.7,5,4.7,5
					z"/>
				
					<linearGradient id="SVGID_13_" gradientUnits="userSpaceOnUse" x1="-3462.5667" y1="1275.5287" x2="-3465.7195" y2="1274.6798" gradientTransform="matrix(-0.5325 0.8464 -0.8464 -0.5325 -758.9531 3620.1331)">
					<stop  offset="0" style="stop-color:#B6D33D"/>
					<stop  offset="0.2784" style="stop-color:#5CA605"/>
					<stop  offset="1" style="stop-color:#265502"/>
				</linearGradient>
				<path class="st13" d="M7.3,7.9c0,0,0.4,0.5-0.1,1.2C6.8,9.7,5.8,9.6,5.7,9.5c0,0,0,0,0.1,0c0.2,0,0.3-0.6,0.6-1
					C6.7,8.1,7.1,7.9,7.3,7.9z"/>
				
					<linearGradient id="SVGID_14_" gradientUnits="userSpaceOnUse" x1="-3611.5991" y1="-1696.7251" x2="-3609.9207" y2="-1696.7251" gradientTransform="matrix(-0.6205 0.7842 -0.7842 -0.6205 -3564.4526 1788.1644)">
					<stop  offset="0" style="stop-color:#B6D33D"/>
					<stop  offset="0.2784" style="stop-color:#5CA605"/>
					<stop  offset="1" style="stop-color:#265502"/>
				</linearGradient>
				<path class="st14" d="M7.4,9.1C7.3,9.3,7.2,9.4,7.1,9.5C7,9.5,7,9.6,6.9,9.6c-0.1,0-0.1,0.1-0.2,0.1c-0.1,0-0.1,0.1-0.2,0.1
					c-0.1,0-0.2,0-0.2,0c-0.1,0-0.2,0-0.2,0c-0.1,0-0.1-0.1-0.2-0.1c0,0,0,0,0,0c0,0,0,0,0,0l0,0c0.1,0,0.2,0,0.2,0
					c0.1,0,0.1,0,0.2,0c0.1,0,0.1,0,0.2,0c0.1,0,0.1,0,0.2-0.1c0.1,0,0.1-0.1,0.2-0.1C6.9,9.5,7,9.4,7,9.4C7.1,9.3,7.2,9.2,7.4,9.1
					L7.4,9.1C7.4,9.1,7.4,9.1,7.4,9.1C7.4,9.1,7.4,9.1,7.4,9.1z"/>
				
					<linearGradient id="SVGID_15_" gradientUnits="userSpaceOnUse" x1="-3611.5691" y1="-1697.2388" x2="-3609.9207" y2="-1697.2388" gradientTransform="matrix(-0.6205 0.7842 -0.7842 -0.6205 -3564.4526 1788.1644)">
					<stop  offset="0" style="stop-color:#B6D33D"/>
					<stop  offset="0.2784" style="stop-color:#5CA605"/>
					<stop  offset="1" style="stop-color:#265502"/>
				</linearGradient>
				<path class="st15" d="M7.4,9.2c0,0.1-0.1,0.2-0.1,0.4c0,0.1,0,0.1-0.1,0.2c0,0.1-0.1,0.1-0.1,0.2C7.1,9.9,7,10,7,10
					c0,0.1-0.1,0.1-0.2,0.1c-0.1,0-0.1,0.1-0.2,0.1c-0.1,0-0.1,0-0.2,0c0,0,0,0,0,0c0,0,0,0,0,0l0,0c0.1-0.1,0.2-0.1,0.3-0.2
					c0,0,0.1-0.1,0.1-0.1c0,0,0.1-0.1,0.1-0.1c0,0,0.1-0.1,0.1-0.1c0,0,0.1-0.1,0.1-0.1C7.2,9.4,7.3,9.3,7.4,9.2L7.4,9.2
					C7.4,9.1,7.4,9.1,7.4,9.2C7.4,9.2,7.4,9.2,7.4,9.2z"/>
				
					<linearGradient id="SVGID_16_" gradientUnits="userSpaceOnUse" x1="-3613.6975" y1="-1696.7878" x2="-3612.4368" y2="-1696.7878" gradientTransform="matrix(-0.6205 0.7842 -0.7842 -0.6205 -3564.4526 1788.1644)">
					<stop  offset="0" style="stop-color:#B6D33D"/>
					<stop  offset="0.2784" style="stop-color:#5CA605"/>
					<stop  offset="1" style="stop-color:#265502"/>
				</linearGradient>
				<path class="st16" d="M8.9,7.7C8.9,7.8,8.8,7.8,8.7,7.8c-0.1,0-0.1,0.1-0.2,0.1c-0.1,0-0.1,0-0.2,0c-0.1,0-0.2,0-0.2,0
					c-0.1,0-0.1,0-0.2,0c-0.1,0-0.1,0-0.2-0.1c-0.1,0-0.1-0.1-0.2-0.1c-0.1,0-0.1-0.1-0.2-0.1c0,0,0,0,0,0c0,0,0,0,0,0l0,0
					c0.1,0,0.1,0,0.2,0.1c0.1,0,0.1,0,0.2,0c0.1,0,0.1,0,0.2,0c0.1,0,0.1,0,0.2,0c0.1,0,0.1,0,0.2,0c0.1,0,0.1,0,0.2,0
					c0.1,0,0.1,0,0.2,0C8.8,7.6,8.8,7.7,8.9,7.7L8.9,7.7C8.9,7.7,8.9,7.7,8.9,7.7C8.9,7.7,8.9,7.7,8.9,7.7z"/>
				
					<linearGradient id="SVGID_17_" gradientUnits="userSpaceOnUse" x1="-3615.0625" y1="-1697.3069" x2="-3613.5127" y2="-1697.3069" gradientTransform="matrix(-0.6205 0.7842 -0.7842 -0.6205 -3564.4526 1788.1644)">
					<stop  offset="0" style="stop-color:#B6D33D"/>
					<stop  offset="0.2784" style="stop-color:#5CA605"/>
					<stop  offset="1" style="stop-color:#265502"/>
				</linearGradient>
				<path class="st17" d="M9.9,6.8c0,0.1-0.1,0.1-0.2,0.1C9.7,6.9,9.7,7,9.6,7C9.6,7,9.5,7,9.4,7c-0.1,0-0.1,0-0.2,0
					c-0.1,0-0.1,0-0.2,0c-0.1,0-0.1,0-0.2,0l-0.1,0c0,0-0.1,0-0.1,0c-0.1,0-0.1,0-0.2,0.1l0,0c0,0,0,0,0,0c0,0,0,0,0,0
					c0.1-0.1,0.2-0.2,0.3-0.2C8.9,7,9,7,9,7c0.1,0,0.1-0.1,0.2-0.1c0.1,0,0.1-0.1,0.2-0.1c0.1,0,0.1,0,0.2-0.1c0.1,0,0.1,0,0.2,0
					C9.8,6.7,9.9,6.7,9.9,6.8C9.9,6.7,9.9,6.7,9.9,6.8C9.9,6.8,9.9,6.8,9.9,6.8z"/>
				<path class="st0" d="M3.8,4.1C3.6,4,3.4,3.9,3.2,3.8C3,3.7,2.8,3.6,2.6,3.5C2.4,3.3,2.2,3.2,2.1,3.1C2,3,1.9,2.9,1.8,2.8
					C1.8,2.7,1.7,2.6,1.7,2.4c0,0,0-0.1,0.1-0.1c0,0,0.1,0,0.1,0.1c0,0,0,0,0,0l0,0c0,0.1,0,0.2,0.1,0.3C2,2.8,2.1,2.9,2.1,3
					c0.2,0.2,0.3,0.3,0.5,0.4C2.8,3.5,3,3.7,3.2,3.8C3.4,3.9,3.6,4,3.8,4.1z"/>
				<path class="st0" d="M4.1,4.9C4.1,4.9,4.1,4.9,4.1,4.9C4.1,4.9,4.1,4.9,4.1,4.9C4.1,4.9,4.1,4.9,4.1,4.9
					C4.1,4.9,4.1,4.9,4.1,4.9C4.1,4.9,4.1,4.9,4.1,4.9C4,4.8,4,4.8,4,4.8C3.9,4.7,3.9,4.7,3.8,4.6C3.7,4.5,3.6,4.4,3.4,4.3
					C3.2,4.1,2.9,3.9,2.7,3.7C2.6,3.6,2.5,3.5,2.3,3.4C2.3,3.4,2.2,3.3,2.1,3.3C2.1,3.2,2,3.1,2,3.1C1.9,3,1.9,2.9,1.8,2.9
					c0-0.1-0.1-0.1-0.1-0.2C1.7,2.5,1.6,2.3,1.6,2.2c0,0,0,0,0,0c0,0,0,0,0,0c0,0.2,0.1,0.3,0.2,0.4C1.9,2.8,2,2.9,2.1,3
					c0.1,0.1,0.1,0.1,0.2,0.2l0.2,0.2l0.4,0.3C3,3.8,3.2,4.1,3.5,4.3c0.1,0.1,0.2,0.2,0.4,0.3C3.9,4.6,3.9,4.7,4,4.8
					C4,4.8,4.1,4.8,4.1,4.9C4.1,4.9,4.1,4.9,4.1,4.9C4.1,4.9,4.1,4.9,4.1,4.9C4.1,4.9,4.1,4.9,4.1,4.9C4.1,4.9,4.1,4.9,4.1,4.9
					C4.1,5,4.1,5,4.1,4.9C4.1,5,4.1,5,4.1,4.9L4.1,4.9C4.1,4.9,4.1,4.9,4.1,4.9C4.1,4.9,4.1,4.9,4.1,4.9C4.1,4.9,4.1,4.9,4.1,4.9z"
					/>
				<path class="st0" d="M6.9,6.4c0,0-0.1,0-0.1,0c0,0-0.1,0-0.1-0.1c-0.1,0-0.2-0.1-0.3-0.1C6.2,6.1,6.1,6,5.9,5.9
					c-0.1,0-0.2-0.1-0.2-0.2L5.5,5.6L5.4,5.6L5,5.2C4.8,5.1,4.7,5,4.5,4.9C4.4,4.8,4.2,4.7,4.1,4.5C3.9,4.4,3.8,4.3,3.6,4.2
					C3.5,4.2,3.4,4.1,3.4,4.1c0,0-0.1,0-0.1-0.1L3.1,3.9l0,0c0,0,0,0,0,0c0,0,0,0,0,0C3.3,4,3.4,4.1,3.6,4.2
					c0.2,0.1,0.3,0.2,0.5,0.3C4.4,4.7,4.7,4.9,5,5.1l0.4,0.3c0.1,0.1,0.3,0.2,0.5,0.3C6.1,5.9,6.3,6,6.4,6.1
					C6.6,6.2,6.8,6.3,6.9,6.4C6.9,6.4,6.9,6.4,6.9,6.4C6.9,6.4,6.9,6.4,6.9,6.4L6.9,6.4z"/>
				<path class="st0" d="M6.4,6.6c-0.1,0-0.3,0-0.4-0.1c-0.1,0-0.1-0.1-0.2-0.1c-0.1,0-0.1-0.1-0.2-0.1c-0.1,0-0.1-0.1-0.1-0.2
					c0-0.1-0.1-0.1-0.1-0.2c0,0,0-0.1,0-0.1c0,0,0-0.1,0.1-0.1c0,0,0.1,0,0.1-0.1c0,0,0,0,0.1,0c0,0,0,0,0.1,0l0,0c0,0,0,0,0,0
					c0,0,0,0,0,0c0,0-0.1,0-0.1,0c0,0-0.1,0-0.1,0.1c0,0,0,0.1,0,0.1c0,0,0,0.1,0,0.1c0,0.1,0,0.1,0.1,0.2c0,0.1,0.1,0.1,0.1,0.1
					C5.8,6.3,5.9,6.4,6,6.5C6.1,6.5,6.2,6.6,6.4,6.6C6.4,6.6,6.4,6.6,6.4,6.6C6.4,6.6,6.4,6.6,6.4,6.6L6.4,6.6z"/>
				<path class="st0" d="M6.8,5.8C6.7,5.9,6.6,5.9,6.5,6C6.4,6,6.3,6,6.2,6C6.1,6,6,6,5.9,5.9c0,0-0.1-0.1-0.1-0.1c0,0,0,0-0.1-0.1
					c0,0,0,0-0.1-0.1l0,0c0,0,0,0,0,0c0,0,0,0,0,0c0.1,0,0.2,0.1,0.3,0.1c0.1,0,0.2,0,0.3,0.1c0.1,0,0.2,0,0.3,0
					C6.6,5.9,6.7,5.8,6.8,5.8C6.8,5.8,6.8,5.8,6.8,5.8C6.8,5.8,6.8,5.8,6.8,5.8L6.8,5.8z"/>
				<path class="st0" d="M3.1,3.2C3,3.1,2.9,3,2.8,2.9C2.7,2.8,2.6,2.7,2.6,2.6l0,0c0,0,0,0,0,0c0,0,0,0-0.1,0c0,0-0.1-0.1-0.1-0.1
					C2.2,2.4,2,2.4,1.9,2.4l0,0c0,0,0,0,0,0c0,0,0,0,0,0c0,0,0.1,0,0.1,0c0,0,0.1,0,0.1,0c0.1,0,0.1,0,0.2,0c0.1,0,0.3,0.1,0.4,0.2
					C2.8,2.6,2.9,2.7,3,2.8C3,2.9,3,3,3,3C3.1,3.1,3.1,3.2,3.1,3.2C3.1,3.2,3.1,3.2,3.1,3.2C3.1,3.2,3.1,3.2,3.1,3.2L3.1,3.2z"/>
				<path class="st0" d="M9.3,7.6C9.2,7.6,9.1,7.6,9,7.6c-0.1,0-0.2-0.1-0.3-0.1c-0.1,0-0.2-0.1-0.3-0.1c0,0-0.1-0.1-0.1-0.1
					c0,0-0.1-0.1-0.1-0.1c0,0,0,0,0,0c0,0,0,0,0,0l0,0c0.1,0,0.2,0.1,0.3,0.1c0.1,0,0.1,0,0.1,0.1c0,0,0.1,0,0.1,0.1
					c0.1,0,0.2,0.1,0.3,0.1C9.1,7.5,9.2,7.6,9.3,7.6C9.4,7.6,9.4,7.6,9.3,7.6C9.4,7.6,9.3,7.6,9.3,7.6z"/>
				<path class="st0" d="M9.5,7.4c-0.1,0-0.2,0-0.2,0c-0.1,0-0.2,0-0.2,0c-0.1,0-0.2,0-0.2,0c-0.1,0-0.2,0-0.2,0c0,0,0,0,0,0
					c0,0,0,0,0,0c0.1,0,0.2,0,0.2,0c0.1,0,0.2,0,0.2,0c0.1,0,0.2,0,0.2,0C9.4,7.4,9.5,7.4,9.5,7.4C9.5,7.4,9.5,7.4,9.5,7.4
					C9.5,7.4,9.5,7.4,9.5,7.4z"/>
				<g>
					<path class="st0" d="M10.4,8.1C10.4,8.1,10.4,8.1,10.4,8.1C10.4,8,10.4,8.1,10.4,8.1c0.1,0.2,1.1,0.5,1.1,0.5c0,0,0,0,0,0
						c0,0,0,0,0,0C11.4,8.6,10.5,8.3,10.4,8.1C10.4,8.1,10.4,8.1,10.4,8.1z"/>
				</g>
				<g>
					<path class="st0" d="M10.5,8.2C10.5,8.2,10.5,8.2,10.5,8.2c0.4,0.1,1.3,0,1.3,0c0,0,0,0,0,0c0,0,0,0,0,0
						C11.8,8.2,10.9,8.3,10.5,8.2C10.5,8.2,10.5,8.2,10.5,8.2C10.5,8.2,10.5,8.2,10.5,8.2z"/>
				</g>
				
					<linearGradient id="SVGID_18_" gradientUnits="userSpaceOnUse" x1="-3468.6292" y1="1272.8417" x2="-3465.7908" y2="1272.8417" gradientTransform="matrix(-0.5325 0.8464 -0.8464 -0.5325 -758.9531 3620.1331)">
					<stop  offset="0" style="stop-color:#B6D33D"/>
					<stop  offset="0.2784" style="stop-color:#5CA605"/>
					<stop  offset="1" style="stop-color:#265502"/>
				</linearGradient>
				<path class="st18" d="M8.9,8.7c0,0,2.3,0.3,2-1.8c0,0,0-0.4-0.2-0.4c0,0,0.1,0.2-0.1,0.2C10.3,6.7,8.6,7.5,8.9,8.7z"/>
				
					<linearGradient id="SVGID_19_" gradientUnits="userSpaceOnUse" x1="-3615.9373" y1="-1700.5035" x2="-3614.5815" y2="-1700.5035" gradientTransform="matrix(-0.6205 0.7842 -0.7842 -0.6205 -3564.4526 1788.1644)">
					<stop  offset="0" style="stop-color:#B6D33D"/>
					<stop  offset="0.2784" style="stop-color:#5CA605"/>
					<stop  offset="1" style="stop-color:#265502"/>
				</linearGradient>
				<path class="st19" d="M13.1,8.3l-0.8,0.1c-0.1,0-0.1,0-0.2,0c-0.1,0-0.1,0-0.2,0c-0.1,0-0.1,0-0.2,0c-0.1,0-0.1,0-0.2-0.1l0,0
					c0,0,0,0,0,0c0,0,0,0,0,0c0-0.1,0.1-0.1,0.2-0.2C11.8,8,11.9,8,11.9,8c0.1,0,0.1,0,0.2,0c0.1,0,0.1,0,0.2,0
					c0.1,0,0.3,0.1,0.4,0.1C12.9,8.1,13,8.2,13.1,8.3C13.1,8.2,13.2,8.2,13.1,8.3C13.1,8.3,13.1,8.3,13.1,8.3z"/>
				
					<linearGradient id="SVGID_20_" gradientUnits="userSpaceOnUse" x1="-3467.8745" y1="1268.2401" x2="-3466.6467" y2="1271.6166" gradientTransform="matrix(-0.5325 0.8464 -0.8464 -0.5325 -758.9531 3620.1331)">
					<stop  offset="0" style="stop-color:#B6D33D"/>
					<stop  offset="0.2784" style="stop-color:#5CA605"/>
					<stop  offset="1" style="stop-color:#265502"/>
				</linearGradient>
				<path class="st20" d="M13.9,9.7c0,0-1.4-2.3-3-0.8c0,0,0.5,1.1,1.5,0.9C13.4,9.7,13.7,9.6,13.9,9.7z"/>
				
					<linearGradient id="SVGID_21_" gradientUnits="userSpaceOnUse" x1="-3467.9509" y1="1275.5919" x2="-3465.9531" y2="1275.5919" gradientTransform="matrix(-0.5325 0.8464 -0.8464 -0.5325 -758.9531 3620.1331)">
					<stop  offset="0" style="stop-color:#B6D33D"/>
					<stop  offset="0.2784" style="stop-color:#5CA605"/>
					<stop  offset="1" style="stop-color:#265502"/>
				</linearGradient>
				<path class="st21" d="M9.5,6.5c0,0-1.6-1.3-2.9,0c0,0-0.5,0-0.8-0.2C5.6,6.1,5.6,6.4,6.5,6.8c0,0,0.7,1.5,2.6-0.1
					C9.1,6.7,9.2,6.5,9.5,6.5z"/>
				<g class="st22">
					<path class="st23" d="M7.4,0.5C7.4,0.6,7.3,0.8,7.2,1C7.1,1.2,7.1,1.3,7,1.5C6.9,1.6,6.8,1.8,6.6,1.9C6.5,2.1,6.4,2.2,6.2,2.3
						c0,0,0,0,0,0c0,0,0,0,0,0c0.1-0.1,0.3-0.2,0.4-0.4c0.1-0.1,0.2-0.3,0.3-0.5C7,1.3,7.1,1.2,7.2,1C7.3,0.8,7.4,0.6,7.4,0.5
						C7.4,0.5,7.4,0.5,7.4,0.5C7.4,0.5,7.4,0.5,7.4,0.5z"/>
					<path class="st23" d="M7.4,1.3C7.3,1.4,7.2,1.5,7.1,1.5c0,0-0.1,0.1-0.1,0.1c0,0,0,0-0.1,0c0,0-0.1,0-0.1,0c0,0,0,0,0,0
						c0,0,0,0,0,0c0.1,0,0.1,0,0.1-0.1c0,0,0.1-0.1,0.1-0.1c0,0,0.1-0.1,0.1-0.1C7.3,1.4,7.3,1.3,7.4,1.3C7.4,1.3,7.4,1.3,7.4,1.3
						C7.4,1.3,7.4,1.3,7.4,1.3z"/>
					<path class="st23" d="M7.1,1.9C7,2,6.9,2,6.8,2.1c0,0-0.1,0-0.1,0c0,0-0.1,0-0.1,0c0,0,0,0,0,0c0,0,0,0,0,0c0,0,0,0,0,0
						c0,0,0,0,0,0c0,0,0,0,0.1,0c0,0,0,0,0.1,0c0,0,0.1,0,0.1,0C6.9,2,7,2,7.1,1.9C7.1,1.9,7.1,1.9,7.1,1.9C7.1,1.9,7.1,1.9,7.1,1.9
						z"/>
					<path class="st23" d="M6.7,1.8c0-0.1,0-0.2-0.1-0.2c0-0.1,0-0.2,0-0.2c0-0.1,0-0.2,0.1-0.2c0,0,0,0,0-0.1c0,0,0,0,0,0
						c0,0,0,0,0,0l0,0c0,0,0,0,0,0c0,0,0,0,0,0c0,0,0,0,0,0l0,0c0,0,0,0,0,0l0,0c0,0,0,0,0,0c0,0,0,0,0,0c0,0,0,0,0,0.1
						c0,0.1-0.1,0.1-0.1,0.2c0,0.1,0,0.2,0,0.2C6.7,1.7,6.7,1.8,6.7,1.8C6.7,1.8,6.7,1.8,6.7,1.8C6.7,1.8,6.7,1.8,6.7,1.8z"/>
					<path class="st23" d="M7.5,0.8c0,0,0,0.1-0.1,0.1c0,0,0,0-0.1,0c0,0,0,0-0.1,0c0,0,0,0,0,0c0,0,0,0,0,0c0,0,0,0,0.1,0
						c0,0,0,0,0.1,0C7.4,0.9,7.4,0.9,7.5,0.8C7.5,0.8,7.5,0.8,7.5,0.8C7.5,0.8,7.5,0.8,7.5,0.8C7.5,0.8,7.5,0.8,7.5,0.8z"/>
				</g>
				<g class="st22">
					<path class="st23" d="M8.6,3.6C8.3,3.6,8,3.6,7.8,3.7c-0.1,0-0.3,0-0.4,0c-0.1,0-0.3,0-0.4,0c-0.1,0-0.3,0-0.4-0.1L6.3,3.5l0,0
						l-0.1,0c-0.1,0-0.1,0-0.2,0c-0.1,0-0.3,0-0.4,0.1c-0.1,0-0.1,0.1-0.2,0.1c-0.1,0-0.1,0.1-0.2,0.1c0,0,0,0,0,0c0,0,0,0,0,0
						c0.1-0.1,0.2-0.2,0.4-0.2C5.7,3.4,5.9,3.4,6,3.4c0.1,0,0.1,0,0.2,0l0.1,0l0.1,0l0.1,0.1c0.1,0.1,0.3,0.1,0.4,0.1
						c0.1,0,0.3,0,0.4,0c0.1,0,0.3,0,0.4,0C8,3.6,8.3,3.6,8.6,3.6C8.6,3.6,8.6,3.6,8.6,3.6C8.6,3.6,8.6,3.6,8.6,3.6z"/>
					<path class="st23" d="M7.3,4.3C7.1,4.2,7,4.1,6.8,4C6.7,3.9,6.6,3.9,6.6,3.8c0,0-0.1-0.1-0.1-0.1c0,0-0.1-0.1,0-0.1
						c0,0,0,0,0,0c0,0,0,0,0,0l0,0c0,0,0,0,0,0.1c0,0,0,0,0,0l0,0c0,0,0.1,0.1,0.1,0.1C6.7,3.8,6.7,3.9,6.8,4C6.9,4,7,4.1,7.1,4.2
						C7.1,4.2,7.2,4.3,7.3,4.3C7.3,4.3,7.3,4.3,7.3,4.3C7.3,4.3,7.3,4.3,7.3,4.3z"/>
					<path class="st23" d="M8,3.2c-0.1,0-0.2,0-0.3,0.1c-0.1,0-0.2,0.1-0.3,0.1c-0.1,0-0.2,0.1-0.3,0.1c0,0-0.1,0-0.1,0.1
						C7,3.6,7,3.6,7,3.6c0,0,0,0,0,0c0,0,0,0,0,0c0,0,0-0.1,0.1-0.1c0,0,0.1-0.1,0.1-0.1c0.1,0,0.2-0.1,0.3-0.1
						C7.6,3.3,7.8,3.2,8,3.2C8,3.2,8,3.2,8,3.2C8,3.2,8,3.2,8,3.2z"/>
					<path class="st23" d="M8.2,3.9c-0.2,0-0.3,0-0.5,0c-0.1,0-0.1,0-0.2-0.1c-0.1,0-0.1-0.1-0.2-0.1c0,0,0,0,0,0c0,0,0,0,0,0
						c0.1,0,0.1,0.1,0.2,0.1c0.1,0,0.1,0,0.2,0.1c0.1,0,0.1,0,0.2,0C8,3.9,8.1,3.9,8.2,3.9C8.2,3.9,8.2,3.9,8.2,3.9
						C8.2,3.9,8.2,3.9,8.2,3.9z"/>
					<path class="st23" d="M6.5,3c-0.1,0-0.1,0-0.2,0.1c-0.1,0-0.1,0.1-0.2,0.1C6.1,3.2,6,3.3,5.9,3.3c0,0-0.1,0-0.1,0.1
						c0,0-0.1,0-0.1,0.1c0,0,0,0,0,0c0,0,0,0,0,0c0,0,0-0.1,0.1-0.1c0,0,0.1,0,0.1-0.1C6,3.2,6,3.2,6.1,3.2C6.3,3.1,6.4,3.1,6.5,3
						C6.5,3,6.5,3,6.5,3C6.5,3,6.5,3,6.5,3z"/>
					<path class="st23" d="M6.5,4.3C6.3,4.2,6.1,4.1,5.9,4C5.8,3.9,5.7,3.8,5.7,3.8c0,0-0.1-0.1-0.1-0.1c0,0-0.1-0.1-0.1-0.1
						c0,0,0,0,0,0c0,0,0,0,0,0l0,0c0,0,0,0.1,0,0.1c0,0,0,0,0,0l0,0c0,0,0.1,0.1,0.1,0.1c0.1,0.1,0.2,0.1,0.3,0.2
						C6,4,6.1,4.1,6.2,4.1C6.3,4.2,6.4,4.2,6.5,4.3C6.5,4.3,6.5,4.3,6.5,4.3C6.5,4.3,6.5,4.3,6.5,4.3z"/>
				</g>
				<g class="st22">
					<path class="st23" d="M4.8,5.3c0,0.3,0.1,0.5,0.1,0.8c0,0.3,0,0.6,0,0.8c0,0.1,0,0.3-0.1,0.4c0,0.1-0.1,0.3-0.1,0.4
						c0,0.1-0.1,0.3-0.2,0.4C4.4,8.2,4.3,8.3,4.2,8.4c0,0,0,0,0,0c0,0,0,0,0,0c0.1-0.1,0.2-0.2,0.2-0.3C4.5,8,4.6,7.8,4.6,7.7
						c0.1-0.3,0.2-0.5,0.2-0.8c0-0.3,0-0.5,0-0.8C4.9,5.8,4.8,5.5,4.8,5.3C4.8,5.3,4.8,5.3,4.8,5.3C4.8,5.3,4.8,5.3,4.8,5.3z"/>
					<path class="st23" d="M5,8.2C5,8.1,5,8,5,8c0-0.1,0-0.1,0-0.2c0-0.1,0-0.1-0.1-0.2c0-0.1-0.1-0.1-0.1-0.1c0,0,0,0,0,0
						c0,0,0,0,0,0c0.1,0,0.1,0.1,0.1,0.1c0,0.1,0.1,0.1,0.1,0.2C5,7.9,5,7.9,5,8C5,8,5,8.1,5,8.2C5,8.2,5,8.2,5,8.2
						C5,8.2,5,8.2,5,8.2z"/>
					<path class="st23" d="M4.9,6.6c-0.1,0-0.2,0-0.2,0.1c-0.1,0-0.1,0.1-0.2,0.1c0,0-0.1,0.1-0.1,0.1c0,0,0,0.1-0.1,0.1
						c0,0.1-0.1,0.1-0.1,0.2c0,0,0,0,0,0c0,0,0,0,0,0c0-0.1,0-0.2,0-0.2c0,0,0-0.1,0.1-0.1c0,0,0.1-0.1,0.1-0.1
						c0.1-0.1,0.1-0.1,0.2-0.1C4.7,6.7,4.8,6.6,4.9,6.6C4.9,6.6,4.9,6.6,4.9,6.6C4.9,6.6,4.9,6.6,4.9,6.6z"/>
					<path class="st23" d="M5.3,6.7c0-0.1,0-0.2-0.1-0.2c0-0.1-0.1-0.2-0.1-0.2c0-0.1-0.1-0.1-0.1-0.2C5,6,4.9,5.9,4.9,5.9
						c0,0,0,0,0,0c0,0,0,0,0,0C4.9,5.9,5,6,5.1,6c0.1,0.1,0.1,0.1,0.1,0.2c0,0.1,0.1,0.2,0.1,0.2C5.3,6.5,5.3,6.6,5.3,6.7
						C5.3,6.7,5.3,6.7,5.3,6.7C5.3,6.7,5.3,6.7,5.3,6.7z"/>
				</g>
				<g>
					
						<linearGradient id="SVGID_22_" gradientUnits="userSpaceOnUse" x1="-3462.8811" y1="1279.0204" x2="-3468.1108" y2="1281.1349" gradientTransform="matrix(-0.5325 0.8464 -0.8464 -0.5325 -758.9531 3620.1331)">
						<stop  offset="0" style="stop-color:#B6D33D"/>
						<stop  offset="0.2784" style="stop-color:#5CA605"/>
						<stop  offset="1" style="stop-color:#265502"/>
					</linearGradient>
					<path class="st24" d="M2.5,7.5c0-0.1,0.3-0.4,0.3-0.4c0.8-0.4,1.1-1.4,1.1-1.4c0.4-1.4-0.7-2.4-0.7-2.4C2.2,4.3,2,5.2,2,5.2
						C1.8,6.8,2.4,6.9,2.4,7.3C2.4,7.7,2.5,7.6,2.5,7.5z"/>
					<g class="st22">
						<path class="st23" d="M4.4,4c0.1-0.3,0.2-0.5,0.3-0.8C4.7,3,4.8,2.7,4.9,2.4C4.9,2.3,5,2.2,5,2C5,1.9,5,1.8,5.1,1.6
							c0-0.1,0-0.3,0-0.4c0-0.1,0-0.1,0-0.2c0,0,0-0.1,0-0.1c0,0,0-0.1,0-0.1l0,0c0,0.1,0.1,0.3,0.1,0.4c0,0.1,0,0.3,0,0.4
							c0,0.1,0,0.3-0.1,0.4c0,0.1-0.1,0.3-0.1,0.4C4.8,2.7,4.8,3,4.7,3.2C4.6,3.5,4.5,3.7,4.4,4L4.4,4z"/>
						<path class="st23" d="M5.5,2.6C5.3,2.7,5.2,2.9,5.1,3.1C5,3.2,4.9,3.2,4.9,3.3C4.8,3.4,4.7,3.4,4.6,3.5l0,0
							c0.1,0,0.2-0.1,0.3-0.2C4.9,3.2,5,3.2,5.1,3.1C5.1,3,5.2,2.9,5.3,2.8C5.3,2.7,5.4,2.6,5.5,2.6L5.5,2.6z"/>
						<path class="st23" d="M4.7,3.2C4.6,3.1,4.5,3,4.5,2.9c0-0.1-0.1-0.2-0.1-0.3c0-0.1-0.1-0.2,0-0.3c0-0.1,0-0.1,0-0.2
							C4.4,2.1,4.4,2,4.5,2l0,0C4.4,2.1,4.4,2.2,4.4,2.3c0,0.1,0,0.2,0,0.3c0,0.1,0.1,0.2,0.1,0.3C4.6,3,4.6,3.1,4.7,3.2L4.7,3.2z"
							/>
						<path class="st23" d="M5.4,1.4c0,0.1,0,0.1-0.1,0.2c0,0.1-0.1,0.1-0.1,0.2c0,0.1-0.1,0.1-0.1,0.2C5.1,2.1,5,2.1,5,2.1l0,0
							C5,2.1,5.1,2,5.1,2c0-0.1,0.1-0.1,0.1-0.2c0-0.1,0.1-0.1,0.1-0.2C5.4,1.5,5.4,1.5,5.4,1.4L5.4,1.4z"/>
						<path class="st23" d="M5.1,1.7c0,0-0.1-0.1-0.1-0.1c0,0-0.1-0.1-0.1-0.1c0,0-0.1-0.1-0.1-0.1c0-0.1,0-0.1,0-0.2l0,0
							c0,0,0,0.1,0,0.1c0,0,0,0.1,0,0.1c0,0,0,0.1,0.1,0.1c0,0,0.1,0.1,0.1,0.1C5,1.7,5,1.7,5.1,1.7L5.1,1.7z"/>
					</g>
					<path class="st25" d="M3.1,3.6c0,0.3,0,0.6,0,0.9c0,0.3,0,0.6-0.1,0.9C3,5.6,3,5.7,3,5.8C3,6,2.9,6.1,2.9,6.3
						c0,0.1-0.1,0.3-0.1,0.4C2.7,6.8,2.6,7,2.5,7.1l0,0l0,0c0,0,0,0,0,0l0,0l0,0l0,0c0-0.1,0.1-0.1,0.1-0.2c0.1-0.1,0.1-0.3,0.1-0.4
						C2.9,6,3,5.7,3,5.4c0-0.3,0.1-0.6,0.1-0.9C3.1,4.2,3.1,3.9,3.1,3.6L3.1,3.6z"/>
					<path class="st25" d="M3.4,6.2c0-0.1,0-0.2,0-0.2c0-0.1,0-0.2-0.1-0.2c0-0.1-0.1-0.1-0.1-0.2c0-0.1-0.1-0.1-0.1-0.2l0,0
						c0.1,0,0.1,0.1,0.2,0.2c0,0.1,0.1,0.1,0.1,0.2C3.4,5.9,3.4,6.1,3.4,6.2L3.4,6.2z"/>
					<path class="st25" d="M3.1,4.7C3,4.8,3,4.8,2.9,4.9C2.8,5,2.8,5,2.7,5.1c0,0.1-0.1,0.2-0.1,0.3c0,0.1,0,0.2,0,0.3l0,0
						c0-0.1,0-0.2,0-0.3c0-0.1,0.1-0.2,0.1-0.3C2.8,5,2.8,5,2.9,4.9C3,4.8,3,4.8,3.1,4.7L3.1,4.7z"/>
					<path class="st25" d="M3.6,4.7c0-0.1-0.1-0.1-0.1-0.2c0-0.1-0.1-0.1-0.1-0.2c0-0.1-0.1-0.1-0.1-0.1c0,0-0.1-0.1-0.2-0.1l0,0
						c0.1,0,0.1,0.1,0.2,0.1c0.1,0,0.1,0.1,0.1,0.1C3.5,4.5,3.6,4.6,3.6,4.7L3.6,4.7z"/>
					<path class="st25" d="M3.1,3.8C3.1,3.8,3,3.8,3,3.9c0,0-0.1,0.1-0.1,0.1c0,0,0,0.1,0,0.2l0,0.1c0,0,0,0.1,0,0.1l0,0
						c0,0,0-0.1,0-0.1c0,0,0-0.1,0-0.1c0-0.1,0-0.1,0.1-0.2c0,0,0.1-0.1,0.1-0.1C3,3.8,3.1,3.8,3.1,3.8L3.1,3.8z"/>
					<path class="st25" d="M3,6.1c-0.1,0-0.1,0-0.2,0.1c0,0-0.1,0.1-0.1,0.1c0,0,0,0,0,0.1l0,0c0,0,0,0,0,0c0,0,0,0,0,0c0,0,0,0,0,0
						c0,0,0,0,0,0c0,0,0,0,0,0l0,0c0-0.1,0-0.1,0-0.2c0,0,0-0.1,0-0.1c0,0,0-0.1,0.1-0.1c0,0,0.1-0.1,0.1-0.1C2.8,6.1,2.9,6.1,3,6.1
						L3,6.1z"/>
				</g>
				<g class="st22">
					<path class="st23" d="M6.5,5.2C6.3,5.1,6.1,5,5.8,5c-0.1,0-0.2-0.1-0.4-0.1c-0.1,0-0.1-0.1-0.2-0.1c-0.1,0-0.1-0.1-0.1-0.1
						c0,0,0,0,0,0c0,0,0,0,0,0c0,0,0.1,0.1,0.2,0.1c0.1,0,0.1,0.1,0.2,0.1c0.1,0.1,0.2,0.1,0.3,0.2C5.9,5,6.1,5,6.2,5.1
						C6.3,5.1,6.4,5.1,6.5,5.2C6.5,5.2,6.5,5.2,6.5,5.2C6.5,5.2,6.5,5.2,6.5,5.2z"/>
					<path class="st23" d="M6.2,5.2C6.2,5.2,6.1,5.2,6,5.1c0,0-0.1,0-0.1-0.1c0,0,0,0,0,0c0,0,0,0,0-0.1c0,0,0,0,0,0c0,0,0,0,0,0
						l0,0c0,0,0,0.1,0.1,0.1c0,0,0.1,0,0.1,0.1C6.1,5.2,6.2,5.2,6.2,5.2C6.2,5.2,6.2,5.2,6.2,5.2C6.2,5.2,6.2,5.2,6.2,5.2z"/>
					<path class="st23" d="M5.9,5.3C5.7,5.3,5.6,5.2,5.5,5.1C5.4,5,5.4,5,5.4,4.9c0,0,0-0.1,0-0.1c0,0,0-0.1,0-0.1c0,0,0,0,0,0
						c0,0,0,0,0,0c0,0,0,0.1,0,0.1c0,0,0,0.1,0,0.1C5.4,5,5.5,5,5.5,5.1c0.1,0,0.1,0.1,0.2,0.1C5.7,5.2,5.8,5.3,5.9,5.3
						C5.9,5.3,5.9,5.3,5.9,5.3C5.9,5.3,5.9,5.3,5.9,5.3z"/>
					<path class="st23" d="M6,4.8c0,0-0.1,0-0.1,0c0,0-0.1,0-0.1,0c0,0-0.1,0-0.1,0c0,0-0.1,0-0.1,0.1c0,0,0,0,0,0c0,0,0,0,0,0
						c0,0,0.1-0.1,0.1-0.1c0,0,0.1,0,0.1,0C5.9,4.7,6,4.8,6,4.8C6,4.8,6,4.8,6,4.8C6,4.8,6,4.8,6,4.8z"/>
					<path class="st23" d="M6.5,5.1C6.5,5.1,6.5,5.1,6.5,5.1c-0.1,0-0.2,0-0.2,0c0,0-0.1,0-0.1,0c0,0-0.1,0-0.1,0c0,0,0,0,0,0
						c0,0,0,0,0,0c0,0,0,0,0,0c0,0,0,0,0,0c0,0,0.1,0,0.1,0C6.4,5,6.5,5.1,6.5,5.1C6.5,5.1,6.5,5.1,6.5,5.1C6.5,5.1,6.5,5.1,6.5,5.1
						z"/>
				</g>
				<g class="st22">
					<path class="st23" d="M9.1,6.4C8.9,6.5,8.7,6.6,8.5,6.6C8.3,6.7,8.1,6.7,7.9,6.8c-0.1,0-0.2,0-0.3,0c-0.1,0-0.2,0-0.3,0
						c-0.1,0-0.2,0-0.3,0c-0.1,0-0.2,0-0.3-0.1c0,0,0,0,0,0c0,0,0,0,0,0c0.1,0,0.2,0,0.3,0.1c0.1,0,0.2,0,0.3,0c0.1,0,0.2,0,0.3,0
						c0.1,0,0.2,0,0.3,0c0.2,0,0.4-0.1,0.6-0.1C8.7,6.6,8.9,6.5,9.1,6.4C9.1,6.4,9.1,6.4,9.1,6.4C9.1,6.4,9.1,6.4,9.1,6.4z"/>
					<path class="st23" d="M8.7,6.9c-0.1,0-0.1,0-0.2,0c-0.1,0-0.1,0-0.2,0c-0.1,0-0.1,0-0.2,0C8.1,6.9,8,6.8,8,6.8c0,0,0,0,0,0
						c0,0,0,0,0,0c0,0,0.1,0.1,0.2,0.1c0.1,0,0.1,0,0.2,0c0.1,0,0.1,0,0.2,0C8.6,6.9,8.6,6.9,8.7,6.9C8.7,6.9,8.7,6.9,8.7,6.9
						C8.7,6.9,8.7,6.9,8.7,6.9z"/>
					<path class="st23" d="M7.9,7.2c-0.1,0-0.3,0-0.4-0.1C7.4,7.1,7.4,7,7.3,7C7.3,7,7.2,6.9,7.2,6.8c0,0,0,0,0,0c0,0,0,0,0,0
						c0,0.1,0.1,0.1,0.1,0.1C7.4,7,7.4,7,7.5,7.1c0.1,0,0.1,0,0.2,0.1C7.8,7.2,7.8,7.2,7.9,7.2C7.9,7.2,7.9,7.2,7.9,7.2
						C7.9,7.2,7.9,7.2,7.9,7.2z"/>
					<path class="st23" d="M8.3,6.3c-0.1,0-0.2,0-0.2,0.1C8,6.4,8,6.4,7.9,6.5c-0.1,0-0.1,0.1-0.2,0.1C7.6,6.7,7.6,6.7,7.6,6.8
						c0,0,0,0,0,0c0,0,0,0,0,0c0,0,0-0.1,0-0.1c0,0,0-0.1,0.1-0.1c0.1-0.1,0.1-0.1,0.2-0.1c0.1,0,0.1-0.1,0.2-0.1
						C8.2,6.3,8.3,6.3,8.3,6.3C8.3,6.3,8.3,6.3,8.3,6.3C8.3,6.3,8.3,6.3,8.3,6.3z"/>
				</g>
				
					<linearGradient id="SVGID_23_" gradientUnits="userSpaceOnUse" x1="-3108.6855" y1="159.8051" x2="-3107.449" y2="159.8051" gradientTransform="matrix(-0.1841 0.9829 -0.9829 -0.1841 -407.944 3089.9053)">
					<stop  offset="0" style="stop-color:#B6D33D"/>
					<stop  offset="0.2784" style="stop-color:#5CA605"/>
					<stop  offset="1" style="stop-color:#265502"/>
				</linearGradient>
				<path class="st26" d="M8.3,5.2c0,0-1.2-0.4-1.7,0.7c0,0-0.3,0.1-0.5,0C6,5.8,6.1,6,6.7,6c0,0,0.8,0.7,1.4-0.7
					C8.1,5.3,8.2,5.2,8.3,5.2z"/>
				<g class="st22">
					<path class="st23" d="M8.1,5.2C8,5.3,7.9,5.4,7.8,5.5C7.7,5.5,7.6,5.6,7.5,5.7c-0.1,0-0.1,0.1-0.2,0.1c-0.1,0-0.1,0.1-0.2,0.1
						C7,5.9,7,5.9,6.9,5.9c-0.1,0-0.1,0-0.2,0c0,0,0,0,0,0c0,0,0,0,0,0c0.1,0,0.1,0,0.2,0c0.1,0,0.1,0,0.2-0.1c0.1,0,0.1,0,0.2-0.1
						c0.1,0,0.1-0.1,0.2-0.1c0.1-0.1,0.2-0.1,0.3-0.2C7.9,5.4,8,5.3,8.1,5.2C8.1,5.2,8.1,5.2,8.1,5.2C8.1,5.2,8.1,5.2,8.1,5.2z"/>
					<path class="st23" d="M7.9,5.6C7.9,5.6,7.9,5.6,7.9,5.6C7.8,5.6,7.8,5.7,7.7,5.7c0,0-0.1,0-0.1,0c0,0-0.1,0-0.1,0c0,0,0,0,0,0
						c0,0,0,0,0,0c0,0,0.1,0,0.1,0c0,0,0.1,0,0.1,0c0,0,0.1,0,0.1,0C7.9,5.6,7.9,5.6,7.9,5.6C7.9,5.5,7.9,5.5,7.9,5.6
						C7.9,5.6,7.9,5.6,7.9,5.6z"/>
					<path class="st23" d="M7.5,5.9c-0.1,0-0.2,0-0.2,0c0,0-0.1,0-0.1,0c0,0-0.1,0-0.1-0.1c0,0,0,0,0,0c0,0,0,0,0,0
						c0,0,0.1,0,0.1,0.1c0,0,0.1,0,0.1,0c0,0,0.1,0,0.1,0C7.5,5.9,7.5,5.9,7.5,5.9C7.5,5.9,7.5,5.9,7.5,5.9C7.5,5.9,7.5,5.9,7.5,5.9
						z"/>
					<path class="st23" d="M7.6,5.3c0,0-0.1,0.1-0.1,0.1c0,0-0.1,0.1-0.1,0.1c0,0-0.1,0.1-0.1,0.1c0,0,0,0.1,0,0.1c0,0,0,0,0,0
						c0,0,0,0,0,0c0,0,0,0,0-0.1c0,0,0-0.1,0-0.1c0,0,0-0.1,0.1-0.1c0,0,0.1-0.1,0.1-0.1C7.5,5.4,7.6,5.3,7.6,5.3
						C7.6,5.3,7.6,5.3,7.6,5.3C7.6,5.3,7.6,5.3,7.6,5.3z"/>
				</g>
				<g class="st22">
					<path class="st23" d="M7.2,8c0,0.2,0,0.3-0.1,0.5C7.1,8.7,7,8.8,6.9,8.9C6.8,9.1,6.6,9.2,6.5,9.3C6.4,9.3,6.2,9.4,6.1,9.5
						c0,0,0,0,0,0c0,0,0,0,0,0c0.1-0.1,0.3-0.2,0.4-0.2C6.6,9.1,6.8,9,6.9,8.9C7,8.8,7,8.7,7.1,8.5C7.2,8.4,7.2,8.2,7.2,8L7.2,8
						C7.2,8,7.2,8,7.2,8C7.2,8,7.2,8,7.2,8z"/>
					<path class="st23" d="M6.9,8.9c-0.1,0-0.1,0-0.2,0c0,0-0.1,0-0.1,0c0,0-0.1,0-0.1,0.1c0,0-0.1,0.1-0.1,0.1c0,0,0,0,0,0
						c0,0,0,0,0,0c0,0,0-0.1,0.1-0.1c0,0,0.1-0.1,0.1-0.1c0,0,0.1,0,0.2,0C6.8,8.9,6.8,8.9,6.9,8.9C6.9,8.9,6.9,8.9,6.9,8.9
						C6.9,8.9,6.9,8.9,6.9,8.9z"/>
					<path class="st23" d="M7.1,8.6c0,0.1,0,0.2,0,0.3c0,0,0,0.1-0.1,0.1C7,9,7,9,7,9c0,0,0,0-0.1,0c0,0,0,0,0,0c0,0,0,0,0,0
						c0,0,0,0,0-0.1C7,9,7,9,7,9c0,0,0.1-0.1,0.1-0.1c0,0,0-0.1,0-0.1C7.1,8.7,7.1,8.6,7.1,8.6L7.1,8.6C7.1,8.6,7.1,8.6,7.1,8.6
						C7.1,8.6,7.1,8.6,7.1,8.6z"/>
					<path class="st23" d="M7.2,8.2C7.2,8.2,7.2,8.2,7.2,8.2L7.2,8.2L7.2,8.2c-0.1,0-0.1,0-0.1,0c0,0-0.1,0-0.1,0
						c0,0-0.1,0.1-0.1,0.1c0,0-0.1,0.1-0.1,0.1c0,0,0,0,0,0c0,0,0,0,0,0c0,0,0-0.1,0.1-0.1c0,0,0.1-0.1,0.1-0.1c0,0,0.1,0,0.1,0
						C7.1,8.2,7.1,8.2,7.2,8.2L7.2,8.2C7.2,8.2,7.2,8.2,7.2,8.2L7.2,8.2C7.2,8.2,7.2,8.2,7.2,8.2C7.2,8.2,7.2,8.2,7.2,8.2z"/>
				</g>
				<g class="st22">
					<path class="st23" d="M7.8,8.4c0,0.2,0,0.3,0.1,0.5C7.9,9,7.9,9.2,8,9.3C8,9.4,8,9.5,8,9.6l0,0.1l0,0.1l0,0.1
						c0.1,0.1,0.1,0.3,0.2,0.4c0,0,0,0,0,0c0,0,0,0,0,0c-0.1-0.1-0.1-0.3-0.2-0.4C8.1,9.7,8,9.6,8,9.6c0-0.1,0-0.2-0.1-0.2
						c0-0.2-0.1-0.3-0.1-0.5C7.8,8.7,7.8,8.6,7.8,8.4C7.8,8.4,7.8,8.4,7.8,8.4C7.8,8.4,7.8,8.4,7.8,8.4z"/>
					<path class="st23" d="M8.5,9.9c0-0.1-0.1-0.1-0.1-0.2c0-0.1-0.1-0.1-0.1-0.1c0,0-0.1-0.1-0.1-0.1c0,0-0.1-0.1-0.2-0.1
						c0,0,0,0,0,0c0,0,0,0,0,0c0.1,0,0.1,0,0.2,0.1c0.1,0,0.1,0.1,0.1,0.1C8.3,9.7,8.4,9.8,8.5,9.9C8.5,9.9,8.5,9.9,8.5,9.9
						C8.5,9.9,8.5,9.9,8.5,9.9z"/>
					<path class="st23" d="M7.9,8.9C7.8,9,7.8,9,7.7,9.1c0,0.1-0.1,0.1-0.1,0.2c0,0,0,0,0,0c0,0,0,0,0,0l0,0c0,0,0,0,0,0l0,0
						c0,0,0,0,0,0c0,0,0,0,0,0c0,0,0,0.1,0,0.1l0,0c0,0,0,0,0,0c0,0,0,0,0,0c0,0,0-0.1-0.1-0.1c0,0,0,0,0,0c0,0,0,0,0,0l0,0
						c0,0,0,0,0-0.1l0,0c0,0,0,0,0,0c0,0,0,0,0-0.1c0-0.1,0-0.1,0.1-0.2C7.8,9,7.8,9,7.9,8.9C7.9,8.9,7.9,8.9,7.9,8.9
						C7.9,8.9,7.9,8.9,7.9,8.9z"/>
				</g>
				<g class="st22">
					<path class="st23" d="M10.7,6.6c-0.1,0.2-0.1,0.4-0.2,0.6c-0.1,0.2-0.2,0.4-0.3,0.6C10.1,7.9,10,7.9,9.9,8
						C9.9,8.1,9.8,8.2,9.7,8.2C9.6,8.3,9.5,8.3,9.4,8.4c-0.1,0-0.2,0.1-0.3,0.1c0,0,0,0,0,0c0,0,0,0,0,0c0.1,0,0.2-0.1,0.3-0.1
						c0.1,0,0.2-0.1,0.3-0.2l0.1,0l0.1-0.1c0,0,0,0,0.1-0.1c0,0,0,0,0.1-0.1c0.1-0.1,0.1-0.2,0.2-0.2c0.1-0.2,0.2-0.4,0.3-0.5
						C10.6,7,10.6,6.8,10.7,6.6C10.7,6.6,10.7,6.6,10.7,6.6C10.7,6.6,10.7,6.6,10.7,6.6z"/>
				</g>
				<g class="st22">
					<path class="st23" d="M10.3,8.1c-0.1,0.1-0.2,0.1-0.3,0.1c-0.1,0-0.1,0-0.2,0c-0.1,0-0.1,0-0.2,0c0,0,0,0,0,0c0,0,0,0,0,0
						c0.1,0,0.1,0,0.2,0c0.1,0,0.1,0,0.2,0c0.1,0,0.1,0,0.2-0.1C10.2,8.2,10.2,8.2,10.3,8.1C10.3,8.1,10.3,8.1,10.3,8.1
						C10.3,8.1,10.3,8.1,10.3,8.1z"/>
				</g>
				<g class="st22">
					<path class="st23" d="M10.2,7.2c0,0-0.1,0.1-0.1,0.1c0,0.1-0.1,0.1-0.1,0.2c0,0.1,0,0.1-0.1,0.2c0,0.1,0,0.1,0,0.2c0,0,0,0,0,0
						c0,0,0,0,0,0c0-0.1,0-0.1,0-0.2c0-0.1,0-0.1,0.1-0.2C10.1,7.4,10.1,7.3,10.2,7.2C10.2,7.2,10.2,7.2,10.2,7.2
						C10.2,7.2,10.2,7.2,10.2,7.2z"/>
				</g>
				<g class="st22">
					<path class="st23" d="M10.7,7c0,0.1,0,0.2-0.1,0.3c0,0.1-0.1,0.2-0.2,0.3c-0.1,0.1-0.1,0.2-0.2,0.2c0,0-0.1,0.1-0.1,0.1
						C10.1,7.9,10,8,10,8c0,0,0,0,0,0c0,0,0,0,0,0l0,0c0,0,0,0,0.1,0c0,0,0,0,0.1,0c0,0,0.1-0.1,0.1-0.1c0.1-0.1,0.2-0.1,0.2-0.2
						c0.1-0.1,0.1-0.2,0.2-0.3C10.7,7.2,10.7,7.1,10.7,7C10.7,7,10.7,7,10.7,7C10.7,7,10.7,7,10.7,7z"/>
				</g>
				<g class="st22">
					<path class="st23" d="M13.5,9.5c-0.2-0.1-0.4-0.2-0.6-0.2c-0.2-0.1-0.4-0.1-0.6-0.2C12.2,9,12,8.9,11.8,8.9c-0.1,0-0.2,0-0.3,0
						c-0.1,0-0.1,0-0.2,0c0,0-0.1,0-0.1,0.1c0,0,0,0,0,0c0,0,0,0,0,0c0,0,0.1-0.1,0.1-0.1c0,0,0.1,0,0.2,0c0.1,0,0.2,0,0.3,0
						C12,8.9,12.2,9,12.4,9c0.2,0.1,0.4,0.1,0.6,0.2C13.2,9.3,13.3,9.4,13.5,9.5C13.5,9.5,13.5,9.5,13.5,9.5
						C13.5,9.5,13.5,9.5,13.5,9.5z"/>
					<path class="st23" d="M13.1,9.5C13,9.5,13,9.4,12.9,9.4c0,0-0.1-0.1-0.1-0.1c0,0-0.1-0.1-0.1-0.1c0,0,0,0,0,0c0,0,0,0,0,0
						c0,0,0.1,0.1,0.1,0.1c0,0,0.1,0.1,0.1,0.1C13,9.4,13,9.5,13.1,9.5C13.1,9.5,13.1,9.5,13.1,9.5C13.1,9.5,13.1,9.5,13.1,9.5z"/>
					<path class="st23" d="M13,8.9c-0.1,0-0.1,0-0.2,0c-0.1,0-0.1,0-0.2,0c-0.1,0-0.1,0-0.2,0c-0.1,0-0.1,0-0.2,0.1c0,0,0,0,0,0
						c0,0,0,0,0,0c0,0,0-0.1,0.1-0.1c0,0,0.1,0,0.1,0c0.1,0,0.1,0,0.2,0C12.8,8.9,12.9,8.9,13,8.9C13,8.9,13,8.9,13,8.9
						C13,8.9,13,8.9,13,8.9z"/>
					<path class="st23" d="M12.5,9.6c-0.2-0.1-0.3-0.2-0.4-0.3c-0.1,0-0.1-0.1-0.2-0.2c0,0-0.1-0.1-0.1-0.1c0,0,0-0.1,0-0.1
						c0,0,0,0,0,0c0,0,0,0,0,0c0,0,0,0.1,0,0.1c0,0,0,0.1,0.1,0.1C11.9,9.2,12,9.2,12,9.3c0.1,0.1,0.1,0.1,0.2,0.1
						C12.3,9.5,12.4,9.5,12.5,9.6C12.5,9.6,12.5,9.6,12.5,9.6C12.5,9.6,12.5,9.6,12.5,9.6z"/>
					<path class="st23" d="M12.2,8.7c-0.1,0-0.1,0-0.2,0c-0.1,0-0.1,0-0.2,0c-0.1,0-0.1,0-0.2,0.1c-0.1,0-0.1,0.1-0.1,0.1
						c0,0,0,0,0,0c0,0,0,0,0,0c0,0,0-0.1,0-0.1c0,0,0.1,0,0.1-0.1c0.1,0,0.1-0.1,0.2-0.1C11.9,8.6,12.1,8.6,12.2,8.7
						C12.2,8.7,12.2,8.7,12.2,8.7C12.2,8.7,12.2,8.7,12.2,8.7z"/>
				</g>
				<g class="st27">
					<path class="st23" d="M11.5,11.8c-0.1-0.2-0.3-0.5-0.5-0.7c-0.2-0.2-0.3-0.5-0.5-0.7c-0.1-0.1-0.2-0.2-0.3-0.3
						C10.2,10,10.1,9.9,10,9.8C9.9,9.7,9.8,9.6,9.7,9.5c-0.1,0-0.1-0.1-0.2-0.1c0,0-0.1,0-0.1-0.1c0,0-0.1,0-0.1,0c0,0,0,0,0,0
						c0,0,0,0,0,0c0.1,0.1,0.2,0.1,0.4,0.2C9.8,9.6,9.9,9.7,10,9.8c0.2,0.2,0.4,0.4,0.5,0.6c0.2,0.2,0.3,0.4,0.5,0.7
						C11.2,11.3,11.4,11.6,11.5,11.8C11.5,11.8,11.5,11.8,11.5,11.8C11.5,11.8,11.5,11.8,11.5,11.8z"/>
					<path class="st23" d="M11.7,11.4c-0.1-0.1-0.1-0.1-0.2-0.2c-0.1-0.1-0.1-0.1-0.2-0.2c-0.1,0-0.1-0.1-0.2-0.1c0,0-0.1,0-0.1,0
						c0,0-0.1,0-0.1,0c0,0,0,0,0,0c0,0,0,0,0,0c0,0,0,0,0.1,0c0,0,0,0,0.1,0c0,0,0.1,0,0.1,0c0.1,0,0.1,0.1,0.2,0.1
						C11.5,11.2,11.6,11.3,11.7,11.4C11.7,11.4,11.7,11.4,11.7,11.4C11.7,11.5,11.7,11.5,11.7,11.4z"/>
					<path class="st23" d="M11.2,11.3c0,0,0,0.1-0.1,0.1c0,0,0,0.1,0,0.1c0,0,0,0.1,0,0.1c0,0,0,0,0,0.1c0,0,0,0,0,0c0,0,0,0,0,0
						l0,0c0,0,0,0,0,0c0,0,0,0,0,0c0,0,0,0-0.1,0c0,0,0,0,0-0.1c0,0,0-0.1,0-0.1c0-0.1,0-0.1,0-0.2C11.1,11.4,11.1,11.3,11.2,11.3
						C11.2,11.3,11.2,11.3,11.2,11.3C11.2,11.3,11.2,11.3,11.2,11.3z"/>
					<path class="st23" d="M11.4,10.5c-0.1,0-0.2-0.1-0.2-0.1c-0.1,0-0.2-0.1-0.3-0.1c-0.1,0-0.2-0.1-0.3-0.1c-0.1,0-0.2,0-0.3,0
						c0,0,0,0,0,0c0,0,0,0,0,0c0.1,0,0.2,0,0.3,0c0.1,0,0.2,0,0.3,0.1c0.1,0,0.2,0.1,0.3,0.1C11.2,10.4,11.3,10.4,11.4,10.5
						C11.4,10.5,11.4,10.5,11.4,10.5C11.4,10.5,11.4,10.5,11.4,10.5z"/>
					<path class="st23" d="M10.6,10.5c-0.1,0-0.1,0.1-0.1,0.2c0,0.1,0,0.1,0,0.2c0,0,0,0.1,0,0.1c0,0,0,0,0,0.1c0,0,0,0,0,0.1
						c0,0,0,0.1,0,0.1c0,0,0,0.1,0,0.1c0,0,0,0,0,0c0,0,0,0,0,0c0,0,0-0.1,0-0.1c0,0,0-0.1,0-0.1c0,0,0-0.1,0-0.1c0,0,0-0.1,0-0.1
						c0-0.1,0-0.2,0-0.2C10.4,10.6,10.5,10.5,10.6,10.5C10.6,10.5,10.6,10.5,10.6,10.5C10.6,10.5,10.6,10.5,10.6,10.5L10.6,10.5z"/>
					<path class="st23" d="M10.7,9.6c-0.1,0-0.1-0.1-0.2-0.1c-0.1,0-0.1-0.1-0.2-0.1c-0.1,0-0.1,0-0.2,0c-0.1,0-0.1,0-0.2,0.1
						c0,0,0,0,0,0c0,0,0,0,0,0c0,0,0-0.1,0.1-0.1c0,0,0.1,0,0.1,0c0.1,0,0.1,0,0.2,0c0.1,0,0.1,0.1,0.2,0.1
						C10.6,9.5,10.6,9.6,10.7,9.6C10.7,9.6,10.7,9.6,10.7,9.6C10.7,9.6,10.7,9.6,10.7,9.6z"/>
					<path class="st23" d="M9.9,9.7c0,0.1-0.1,0.1-0.1,0.2c0,0.1,0,0.1,0,0.2c0,0.1,0,0.1,0.1,0.2c0,0.1,0.1,0.1,0.1,0.2
						c0,0,0,0,0,0c0,0,0,0,0,0c-0.1-0.1-0.1-0.1-0.1-0.2c0-0.1-0.1-0.1-0.1-0.2c0-0.1,0-0.1,0-0.2C9.8,9.8,9.9,9.8,9.9,9.7
						C9.9,9.7,9.9,9.7,9.9,9.7C9.9,9.7,9.9,9.7,9.9,9.7z"/>
					<path class="st23" d="M9.8,10.7c0-0.1-0.1-0.2-0.1-0.3c0,0,0-0.1,0-0.1c0,0,0.1-0.1,0.1-0.1c0,0,0,0,0,0c0,0,0,0,0,0
						c0,0,0,0,0,0.1c0,0,0,0,0,0.1c0,0,0,0.1,0,0.1c0,0,0,0.1,0,0.1C9.8,10.6,9.8,10.7,9.8,10.7C9.8,10.7,9.8,10.7,9.8,10.7
						C9.8,10.7,9.8,10.7,9.8,10.7z"/>
					<path class="st23" d="M10.4,10.7c0,0-0.1,0-0.1,0.1c0,0-0.1,0.1-0.1,0.1c0,0-0.1,0.1-0.1,0.1c0,0,0,0.1,0,0.1c0,0,0,0,0,0
						c0,0,0,0,0,0c0,0,0-0.1,0-0.1c0,0,0.1-0.1,0.1-0.1c0,0,0.1-0.1,0.1-0.1C10.3,10.8,10.3,10.7,10.4,10.7
						C10.4,10.7,10.4,10.7,10.4,10.7C10.4,10.7,10.4,10.7,10.4,10.7z"/>
					<path class="st23" d="M10.6,9.8c-0.2-0.1-0.3-0.2-0.5-0.2c-0.1,0-0.2-0.1-0.3-0.1c-0.1,0-0.2-0.1-0.3-0.1c0,0,0,0,0,0
						c0,0,0,0,0,0c0.1,0,0.2,0,0.3,0c0.1,0,0.2,0.1,0.3,0.1C10.3,9.6,10.4,9.7,10.6,9.8C10.6,9.8,10.6,9.8,10.6,9.8
						C10.6,9.8,10.6,9.8,10.6,9.8z"/>
				</g>
				<g class="st22">
					<path class="st23" d="M12.8,10.6c-0.2,0-0.3-0.1-0.5-0.2c-0.1,0-0.2-0.1-0.2-0.1c0,0-0.1-0.1-0.1-0.1c0,0,0-0.1-0.1-0.1
						c0,0,0,0,0,0c0,0,0,0,0,0c0,0.1,0.1,0.1,0.2,0.2c0.1,0,0.1,0.1,0.2,0.1c0.1,0,0.2,0.1,0.2,0.1C12.6,10.6,12.7,10.6,12.8,10.6
						C12.8,10.6,12.8,10.6,12.8,10.6C12.8,10.6,12.8,10.6,12.8,10.6z"/>
				</g>
				<g class="st22">
					<path class="st23" d="M13.8,10.3c-0.1,0-0.2-0.1-0.3-0.1c-0.1,0-0.2-0.1-0.3-0.1c-0.1,0-0.2,0-0.3-0.1c-0.1,0-0.1,0-0.2,0
						c0,0-0.1,0-0.1,0c0,0,0,0,0,0c0,0,0,0,0,0c0,0,0.1-0.1,0.1-0.1c0.1,0,0.1,0,0.2,0c0.1,0,0.2,0,0.3,0.1
						C13.5,10.2,13.6,10.2,13.8,10.3C13.8,10.3,13.8,10.3,13.8,10.3C13.8,10.3,13.8,10.3,13.8,10.3z"/>
				</g>
				<g class="st22">
					<path class="st23" d="M14.2,11.3c-0.2-0.1-0.3-0.2-0.5-0.3c-0.1,0-0.1-0.1-0.2-0.1c0,0-0.1-0.1-0.1-0.1c0,0-0.1-0.1-0.1-0.1
						c0,0,0,0,0,0c0,0,0,0,0,0l0,0c0,0,0,0.1,0.1,0.1c0,0,0.1,0.1,0.1,0.1c0.1,0.1,0.1,0.1,0.2,0.2c0.1,0,0.1,0.1,0.2,0.1
						C14,11.2,14.1,11.3,14.2,11.3C14.2,11.3,14.2,11.3,14.2,11.3C14.2,11.3,14.2,11.3,14.2,11.3z"/>
				</g>
				<g class="st22">
					<path class="st23" d="M12.7,8.2c-0.1,0-0.1,0-0.2,0c-0.1,0-0.1,0-0.2,0c-0.1,0-0.1,0-0.2,0c0,0-0.1,0-0.1,0c0,0-0.1,0-0.1,0
						l0,0c0,0,0,0,0,0c0,0,0,0,0,0c0,0,0.1,0,0.1-0.1c0,0,0.1,0,0.1,0c0.1,0,0.1,0,0.2,0C12.4,8.1,12.6,8.2,12.7,8.2
						C12.7,8.2,12.7,8.2,12.7,8.2C12.7,8.2,12.7,8.2,12.7,8.2z"/>
				</g>
				<g>
					<path class="st23" d="M6.3,7.7c0,0.1,0,0.2-0.1,0.3c0,0.1-0.1,0.2-0.1,0.3c0,0.1-0.1,0.2-0.2,0.3c0,0-0.1,0.1-0.1,0.1
						c0,0-0.1,0.1-0.1,0.1c0,0,0,0,0,0c0,0,0,0,0,0c0,0,0.1-0.1,0.1-0.1c0,0,0.1-0.1,0.1-0.1C6,8.5,6,8.4,6.1,8.3
						C6.1,8.2,6.2,8.1,6.2,8C6.2,7.9,6.3,7.8,6.3,7.7C6.3,7.7,6.3,7.7,6.3,7.7C6.3,7.7,6.3,7.7,6.3,7.7z"/>
				</g>
			</g>
			<g>
				<path class="st0" d="M6.1,11.3C6,11.2,5.9,11.1,5.7,11c-0.1-0.1-0.3-0.2-0.4-0.2c-0.1-0.1-0.3-0.1-0.4-0.2
					c-0.1-0.1-0.3-0.1-0.4-0.2l0,0c0,0,0,0,0-0.1c0,0,0,0,0.1,0c0,0,0,0,0,0c0.1,0.1,0.3,0.1,0.4,0.2c0.1,0.1,0.3,0.2,0.4,0.2
					c0.1,0.1,0.3,0.2,0.4,0.3C5.9,11.1,6,11.2,6.1,11.3z"/>
				<g>
					<path class="st0" d="M3,7.5C3,7.5,3,7.5,3,7.5C3,7.5,3.1,7.5,3,7.5c0.2,1,1.1,2.1,1.1,2.1c0,0,0,0.1,0,0.1c0,0-0.1,0-0.1,0
						C4,9.6,3.1,8.5,3,7.5C3,7.5,3,7.5,3,7.5z"/>
				</g>
				<path class="st0" d="M6.2,12.3c0-0.1-0.1-0.2-0.1-0.3C6.1,12,6,11.9,6,11.8c0-0.1-0.1-0.2-0.1-0.2c-0.1-0.1-0.1-0.1-0.2-0.2
					c0.1,0,0.2,0.1,0.2,0.2C5.9,11.6,6,11.7,6,11.8c0.1,0.1,0.1,0.2,0.1,0.2C6.2,12.1,6.3,12.2,6.2,12.3C6.3,12.3,6.3,12.3,6.2,12.3
					C6.3,12.4,6.2,12.3,6.2,12.3C6.2,12.3,6.2,12.3,6.2,12.3L6.2,12.3z"/>
				<path class="st0" d="M6.9,12.9c0-0.1-0.1-0.2-0.1-0.2c-0.1-0.1-0.1-0.2-0.2-0.2c-0.1-0.1-0.1-0.1-0.2-0.2
					c-0.1-0.1-0.1-0.1-0.2-0.2c0.1,0,0.2,0.1,0.2,0.1c0.1,0.1,0.1,0.1,0.2,0.2c0.1,0.1,0.1,0.1,0.2,0.2C6.9,12.7,6.9,12.8,6.9,12.9
					C7,12.9,7,12.9,6.9,12.9C7,12.9,6.9,12.9,6.9,12.9C6.9,12.9,6.9,12.9,6.9,12.9L6.9,12.9z"/>
				<path class="st0" d="M7,12.4c0,0.1,0.1,0.2,0.1,0.3c0,0.1,0.1,0.2,0.1,0.3c0,0.1,0.1,0.2,0.1,0.2c0.1,0.1,0.1,0.1,0.2,0.2
					c-0.1,0-0.2-0.1-0.2-0.2c-0.1-0.1-0.1-0.1-0.2-0.2C7.1,12.9,7,12.8,7,12.7C7,12.6,6.9,12.6,7,12.4C6.9,12.5,6.9,12.4,7,12.4
					C6.9,12.4,7,12.4,7,12.4C7,12.4,7,12.4,7,12.4L7,12.4z"/>
				<path class="st0" d="M3.2,6.7c0-0.1-0.1-0.1-0.1-0.1c0,0-0.1-0.1-0.1-0.1c0,0-0.1-0.1-0.1-0.1c0,0,0,0,0,0c0,0,0,0,0,0
					c0,0,0,0-0.1-0.1l0,0c0,0,0,0,0,0c0,0,0,0,0,0c0,0,0,0,0,0c0,0,0,0,0,0c0,0,0,0,0,0c0,0,0,0,0,0c0,0,0,0,0.1,0.1
					c0,0,0,0,0.1,0.1c0,0,0,0,0.1,0.1l0,0c0,0,0,0,0,0C3.2,6.6,3.2,6.6,3.2,6.7C3.3,6.7,3.3,6.7,3.2,6.7C3.2,6.7,3.2,6.7,3.2,6.7
					L3.2,6.7z"/>
				<path class="st0" d="M2.9,6.3c-0.1,0-0.1,0-0.2-0.1c0,0,0,0,0,0l0,0c0,0,0,0-0.1-0.1c0,0,0,0-0.1-0.1c0,0,0,0-0.1-0.1
					c0,0,0,0,0,0c0,0,0,0,0,0c0,0,0,0,0,0c0,0,0,0,0,0c0,0,0,0,0,0c0,0,0,0,0,0l0,0c0,0,0,0,0.1,0.1c0,0,0,0,0,0c0,0,0,0,0,0
					C2.6,6,2.6,6,2.6,6c0,0,0.1,0.1,0.1,0.1C2.8,6.2,2.8,6.2,2.9,6.3L2.9,6.3C2.9,6.3,2.9,6.3,2.9,6.3C2.9,6.3,2.9,6.3,2.9,6.3z"/>
				<path class="st0" d="M4.7,5.5c-0.1,0-0.1,0-0.2,0c0,0-0.1,0-0.1,0l0,0c0,0,0,0,0,0c0,0,0,0,0,0c0,0,0,0,0,0c0,0,0,0,0,0
					c0,0,0,0,0,0c0,0-0.1,0-0.1,0c0,0-0.1,0-0.1,0l0,0c0,0,0,0,0,0c0,0,0,0,0,0C4,5.7,4,5.6,4.1,5.6c0.1,0,0.1-0.1,0.2-0.1
					c0.1,0,0.1,0,0.2,0C4.6,5.5,4.6,5.5,4.7,5.5C4.7,5.5,4.7,5.5,4.7,5.5C4.7,5.5,4.7,5.5,4.7,5.5L4.7,5.5z"/>
				<path class="st0" d="M2.1,4.8c0,0-0.6-1-0.7-1.7L1,2.8C1,2.8,1.5,4.6,2.1,4.8z"/>
				<path class="st0" d="M1.1,2.9C1.1,3,1.2,3.2,1.3,3.4c0.1,0.2,0.1,0.4,0.2,0.5c0,0.1,0.1,0.2,0.1,0.3c0,0.1,0.1,0.2,0.2,0.2
					c0,0,0,0,0,0c0,0,0,0,0,0c0,0,0,0,0.1,0.1C2,4.6,2,4.6,2,4.7c0.1,0.1,0.1,0.2,0.2,0.2c0.2,0.3,0.4,0.7,0.5,1
					c0,0.1,0.1,0.2,0.1,0.3c0,0.1,0.1,0.2,0.1,0.3c0,0,0,0.1,0,0.1c0,0,0,0.1,0,0.1c0,0,0,0,0,0.1C3,6.9,3,7,3,7.1
					C3,7.3,3,7.5,3.1,7.7c0,0.2,0.1,0.4,0.2,0.6c0.1,0.2,0.1,0.4,0.2,0.5c0.1,0.2,0.2,0.3,0.3,0.5c0.1,0.1,0.1,0.1,0.2,0.2
					C4,9.5,4.1,9.6,4.1,9.7c0,0,0.1,0.1,0.1,0.1c0,0,0.1,0.1,0.1,0.1c0.1,0.1,0.1,0.2,0.1,0.3c0.2,0.4,0.3,0.7,0.4,1.1c0,0,0,0,0,0
					c0,0,0,0,0,0c-0.1-0.2-0.1-0.4-0.2-0.5l-0.1-0.1c0,0,0-0.1-0.1-0.1c0-0.1-0.1-0.2-0.1-0.3C4.3,10,4.2,9.8,4.1,9.7
					C4,9.7,3.9,9.6,3.9,9.5C3.8,9.5,3.7,9.4,3.7,9.3C3.5,9.1,3.4,9,3.3,8.8C3.3,8.6,3.2,8.4,3.1,8.2C3.1,8.1,3,7.9,3,7.7
					c0-0.2-0.1-0.4-0.1-0.6c0-0.1,0-0.2,0-0.3c0,0,0,0,0-0.1c0,0,0,0,0-0.1c0,0,0-0.1,0-0.1C2.8,6.3,2.7,6.2,2.6,6
					C2.6,5.8,2.5,5.6,2.4,5.5C2.3,5.3,2.2,5.1,2.1,4.9c0-0.1-0.1-0.2-0.2-0.2c0,0-0.1-0.1-0.1-0.1c0,0,0,0,0-0.1c0,0,0,0,0,0
					c0,0,0,0,0,0C1.7,4.4,1.6,4.3,1.6,4.2c0-0.1-0.1-0.2-0.1-0.3C1.3,3.6,1.2,3.2,1.1,2.9C1.1,2.9,1.1,2.9,1.1,2.9
					C1.1,2.9,1.1,2.9,1.1,2.9z"/>
				
					<linearGradient id="SVGID_24_" gradientUnits="userSpaceOnUse" x1="-2797.8542" y1="533.1256" x2="-2798.6191" y2="536.2827" gradientTransform="matrix(-0.8204 0.5718 -0.5718 -0.8204 -1984.6416 2050.9111)">
					<stop  offset="0" style="stop-color:#B6D33D"/>
					<stop  offset="0.2784" style="stop-color:#5CA605"/>
					<stop  offset="1" style="stop-color:#265502"/>
				</linearGradient>
				<path class="st28" d="M5.6,13.6c0,0,1.2-2.2-0.5-2.8c0,0-0.2-0.1-0.3-0.1c-0.1,0-0.7,1-0.1,1.7C5.2,13.1,5.3,13.3,5.6,13.6z"/>
				
					<linearGradient id="SVGID_25_" gradientUnits="userSpaceOnUse" x1="-2799.1917" y1="531.832" x2="-2799.1589" y2="533.4756" gradientTransform="matrix(-0.8204 0.5718 -0.5718 -0.8204 -1984.6416 2050.9111)">
					<stop  offset="0" style="stop-color:#B6D33D"/>
					<stop  offset="0.2784" style="stop-color:#5CA605"/>
					<stop  offset="1" style="stop-color:#265502"/>
				</linearGradient>
				<path class="st29" d="M7.6,13.8c0,0-0.2-0.2-0.3-0.5C7.2,13,7,12.8,6.9,12.8C6.8,12.8,7.1,13.7,7.6,13.8z"/>
				
					<linearGradient id="SVGID_26_" gradientUnits="userSpaceOnUse" x1="-2799.6582" y1="531.5358" x2="-2799.2593" y2="532.8865" gradientTransform="matrix(-0.8204 0.5718 -0.5718 -0.8204 -1984.6416 2050.9111)">
					<stop  offset="0" style="stop-color:#B6D33D"/>
					<stop  offset="0.2784" style="stop-color:#5CA605"/>
					<stop  offset="1" style="stop-color:#265502"/>
				</linearGradient>
				<path class="st30" d="M8,13.8c0,0-0.3-0.5-0.7-0.7C7.3,13.1,7.4,13.7,8,13.8z"/>
				
					<linearGradient id="SVGID_27_" gradientUnits="userSpaceOnUse" x1="-2799.8967" y1="532.3106" x2="-2799.1399" y2="534.2228" gradientTransform="matrix(-0.8204 0.5718 -0.5718 -0.8204 -1984.6416 2050.9111)">
					<stop  offset="0" style="stop-color:#B6D33D"/>
					<stop  offset="0.2784" style="stop-color:#5CA605"/>
					<stop  offset="1" style="stop-color:#265502"/>
				</linearGradient>
				<path class="st31" d="M7.7,13.1c0,0-1-0.5-1.2-0.8s0,0,0,0s0.5,0.1,0.7,0.3C7.3,12.6,7.5,12.8,7.7,13.1z"/>
				
					<linearGradient id="SVGID_28_" gradientUnits="userSpaceOnUse" x1="-2798.948" y1="532.907" x2="-2799.0293" y2="534.4611" gradientTransform="matrix(-0.8204 0.5718 -0.5718 -0.8204 -1984.6416 2050.9111)">
					<stop  offset="0" style="stop-color:#B6D33D"/>
					<stop  offset="0.2784" style="stop-color:#5CA605"/>
					<stop  offset="1" style="stop-color:#265502"/>
				</linearGradient>
				<path class="st32" d="M6.8,12.9c0,0-0.2-0.9-0.6-0.8C5.9,12.2,6.5,13,6.8,12.9z"/>
				
					<linearGradient id="SVGID_29_" gradientUnits="userSpaceOnUse" x1="-2797.228" y1="535.4278" x2="-2798.6274" y2="537.82" gradientTransform="matrix(-0.8204 0.5718 -0.5718 -0.8204 -1984.6416 2050.9111)">
					<stop  offset="0" style="stop-color:#B6D33D"/>
					<stop  offset="0.2784" style="stop-color:#5CA605"/>
					<stop  offset="1" style="stop-color:#265502"/>
				</linearGradient>
				<path class="st33" d="M3.9,9.5c0,0,0.1,0.2,0.2,0.4c0.1,0.1,0.4,0.6,0,1.3c0,0-0.3,0.3-0.3,0.4c0.1,0.1-0.8-0.6,0-1.7
					C3.9,9.9,4,9.9,3.9,9.5z"/>
				
					<linearGradient id="SVGID_30_" gradientUnits="userSpaceOnUse" x1="-2798.48" y1="538.4691" x2="-2797.0359" y2="538.4691" gradientTransform="matrix(-0.8204 0.5718 -0.5718 -0.8204 -1984.6416 2050.9111)">
					<stop  offset="0" style="stop-color:#B6D33D"/>
					<stop  offset="0.2784" style="stop-color:#5CA605"/>
					<stop  offset="1" style="stop-color:#265502"/>
				</linearGradient>
				<path class="st34" d="M3.3,8.9c0,0,0.1,0.6-0.6,0.7C2.1,9.8,2,9.6,2,9.6s0.2,0,0.4,0C2.5,9.6,2.8,8.9,3.3,8.9z"/>
				
					<linearGradient id="SVGID_31_" gradientUnits="userSpaceOnUse" x1="-3029.8879" y1="-2498.9702" x2="-3029.1243" y2="-2498.9702" gradientTransform="matrix(-0.8772 0.4802 -0.4802 -0.8772 -3853.8005 -730.2457)">
					<stop  offset="0" style="stop-color:#B6D33D"/>
					<stop  offset="0.2784" style="stop-color:#5CA605"/>
					<stop  offset="1" style="stop-color:#265502"/>
				</linearGradient>
				<path class="st35" d="M4.4,7.6c0,0-0.2,0-0.3-0.4C3.9,6.7,3.2,6.5,3.2,6.5S3,7.7,4.4,7.6z"/>
				
					<linearGradient id="SVGID_32_" gradientUnits="userSpaceOnUse" x1="-3176.6689" y1="-2333.9868" x2="-3174.5886" y2="-2333.9868" gradientTransform="matrix(-0.9044 0.4267 -0.4267 -0.9044 -3863.0942 -749.2037)">
					<stop  offset="0" style="stop-color:#B6D33D"/>
					<stop  offset="0.2784" style="stop-color:#5CA605"/>
					<stop  offset="1" style="stop-color:#265502"/>
				</linearGradient>
				<path class="st36" d="M3.5,6.1c0,0,0.1,0,0.2,0.2c0.1,0.3,0.2,1.1,1.7,0.9c0,0,0.6-0.1,0.8-0.1c0.2,0-0.1,0-0.2-0.3
					C5.8,6.5,5.1,5,3.7,6C3.7,6,3.6,6.1,3.5,6.1z"/>
				
					<linearGradient id="SVGID_33_" gradientUnits="userSpaceOnUse" x1="-3032.9128" y1="-2497.9844" x2="-3030.939" y2="-2497.9844" gradientTransform="matrix(-0.8772 0.4802 -0.4802 -0.8772 -3853.8005 -730.2457)">
					<stop  offset="0" style="stop-color:#B6D33D"/>
					<stop  offset="0.2784" style="stop-color:#5CA605"/>
					<stop  offset="1" style="stop-color:#265502"/>
				</linearGradient>
				<path class="st37" d="M6.2,4.5c0,0-0.5,1.5-1.7,1c0,0,0.3-1.1,1.3-1C5.8,4.6,5.9,4.6,6.2,4.5z"/>
				
					<linearGradient id="SVGID_34_" gradientUnits="userSpaceOnUse" x1="-3031.7544" y1="-2497.24" x2="-3029.1262" y2="-2497.24" gradientTransform="matrix(-0.8772 0.4802 -0.4802 -0.8772 -3853.8005 -730.2457)">
					<stop  offset="0" style="stop-color:#B6D33D"/>
					<stop  offset="0.2784" style="stop-color:#5CA605"/>
					<stop  offset="1" style="stop-color:#265502"/>
				</linearGradient>
				<path class="st38" d="M2.8,6.2c0,0,1,0.1,1.5-0.7c0.5-0.9,0.2-1.7,0.2-1.7s0,0.3-0.6,0.5C3.3,4.4,2.6,5.1,2.8,6.2z"/>
				
					<linearGradient id="SVGID_35_" gradientUnits="userSpaceOnUse" x1="-2795.8586" y1="538.6623" x2="-2799.6667" y2="540.4849" gradientTransform="matrix(-0.8204 0.5718 -0.5718 -0.8204 -1984.6416 2050.9111)">
					<stop  offset="0" style="stop-color:#B6D33D"/>
					<stop  offset="0.2784" style="stop-color:#5CA605"/>
					<stop  offset="1" style="stop-color:#265502"/>
				</linearGradient>
				<path class="st39" d="M2.9,6.9c0,0,0.8,1.9-1.3,2.4c0,0-0.2,0.1-0.3,0.2c0,0.1,0,0,0-0.3c0.1-0.4-0.1-0.8,0.3-1.3
					C2.1,7.3,2.9,6.9,2.9,6.9z"/>
				
					<linearGradient id="SVGID_36_" gradientUnits="userSpaceOnUse" x1="-2796.4321" y1="538.1412" x2="-2798.6887" y2="537.5337" gradientTransform="matrix(-0.8204 0.5718 -0.5718 -0.8204 -1984.6416 2050.9111)">
					<stop  offset="0" style="stop-color:#B6D33D"/>
					<stop  offset="0.2784" style="stop-color:#5CA605"/>
					<stop  offset="1" style="stop-color:#265502"/>
				</linearGradient>
				<path class="st40" d="M3.8,9.5c0,0,0.1,0.4-0.4,0.8c-0.5,0.3-1.1,0-1.1-0.1c0,0,0,0,0.1,0c0.1,0.1,0.4-0.3,0.7-0.5
					C3.4,9.4,3.7,9.4,3.8,9.5z"/>
				
					<linearGradient id="SVGID_37_" gradientUnits="userSpaceOnUse" x1="-3027.9141" y1="-2501.4204" x2="-3026.7129" y2="-2501.4204" gradientTransform="matrix(-0.8772 0.4802 -0.4802 -0.8772 -3853.8005 -730.2457)">
					<stop  offset="0" style="stop-color:#B6D33D"/>
					<stop  offset="0.2784" style="stop-color:#5CA605"/>
					<stop  offset="1" style="stop-color:#265502"/>
				</linearGradient>
				<path class="st41" d="M3.5,10.3c-0.1,0.1-0.2,0.1-0.3,0.2c-0.1,0-0.1,0-0.2,0.1c-0.1,0-0.1,0-0.2,0c-0.1,0-0.1,0-0.2,0
					c-0.1,0-0.1,0-0.2,0c-0.1,0-0.1-0.1-0.1-0.1c0,0-0.1-0.1-0.1-0.1c0,0,0,0,0,0c0,0,0,0,0,0l0,0c0.1,0,0.1,0,0.2,0.1
					c0,0,0.1,0,0.1,0c0,0,0.1,0,0.1,0c0,0,0.1,0,0.1,0c0,0,0.1,0,0.2,0c0.1,0,0.1,0,0.2,0C3.3,10.4,3.4,10.3,3.5,10.3L3.5,10.3
					C3.5,10.3,3.5,10.3,3.5,10.3C3.5,10.3,3.5,10.3,3.5,10.3z"/>
				
					<linearGradient id="SVGID_38_" gradientUnits="userSpaceOnUse" x1="-3027.8926" y1="-2501.7881" x2="-3026.7129" y2="-2501.7881" gradientTransform="matrix(-0.8772 0.4802 -0.4802 -0.8772 -3853.8005 -730.2457)">
					<stop  offset="0" style="stop-color:#B6D33D"/>
					<stop  offset="0.2784" style="stop-color:#5CA605"/>
					<stop  offset="1" style="stop-color:#265502"/>
				</linearGradient>
				<path class="st42" d="M3.5,10.3c-0.1,0.1-0.1,0.1-0.2,0.2c0,0-0.1,0.1-0.1,0.1c0,0-0.1,0.1-0.1,0.1c0,0-0.1,0.1-0.1,0.1
					c0,0-0.1,0-0.1,0c-0.1,0-0.1,0-0.2,0c0,0-0.1,0-0.1-0.1c0,0,0,0,0,0c0,0,0,0,0,0l0,0c0.1,0,0.2,0,0.2-0.1c0,0,0.1,0,0.1,0
					c0,0,0.1,0,0.1,0c0,0,0.1,0,0.1-0.1c0,0,0.1,0,0.1-0.1C3.4,10.4,3.5,10.4,3.5,10.3L3.5,10.3C3.5,10.3,3.5,10.3,3.5,10.3
					C3.5,10.3,3.5,10.3,3.5,10.3z"/>
				
					<linearGradient id="SVGID_39_" gradientUnits="userSpaceOnUse" x1="-3029.416" y1="-2501.4653" x2="-3028.5137" y2="-2501.4653" gradientTransform="matrix(-0.8772 0.4802 -0.4802 -0.8772 -3853.8005 -730.2457)">
					<stop  offset="0" style="stop-color:#B6D33D"/>
					<stop  offset="0.2784" style="stop-color:#5CA605"/>
					<stop  offset="1" style="stop-color:#265502"/>
				</linearGradient>
				<path class="st43" d="M5,9.8c-0.1,0-0.1,0-0.2,0c-0.1,0-0.1,0-0.2,0c-0.1,0-0.1,0-0.2,0c0,0-0.1,0-0.1-0.1c0,0-0.1-0.1-0.1-0.1
					c0,0-0.1-0.1-0.1-0.1c0,0-0.1-0.1-0.1-0.1c0,0-0.1-0.1-0.1-0.1c0,0,0,0,0,0c0,0,0,0,0,0l0,0c0,0,0.1,0.1,0.1,0.1
					c0,0,0.1,0.1,0.1,0.1c0,0,0.1,0,0.1,0.1c0,0,0.1,0,0.1,0.1c0,0,0.1,0,0.1,0c0,0,0.1,0,0.1,0c0,0,0.1,0,0.1,0.1
					C4.9,9.7,4.9,9.7,5,9.8L5,9.8C5,9.8,5,9.8,5,9.8C5,9.8,5,9.8,5,9.8z"/>
				
					<linearGradient id="SVGID_40_" gradientUnits="userSpaceOnUse" x1="-3030.3928" y1="-2501.8367" x2="-3029.2837" y2="-2501.8367" gradientTransform="matrix(-0.8772 0.4802 -0.4802 -0.8772 -3853.8005 -730.2457)">
					<stop  offset="0" style="stop-color:#B6D33D"/>
					<stop  offset="0.2784" style="stop-color:#5CA605"/>
					<stop  offset="1" style="stop-color:#265502"/>
				</linearGradient>
				<path class="st44" d="M5.9,9.5c0,0-0.1,0-0.1,0c0,0-0.1,0-0.1,0c0,0-0.1,0-0.1,0c0,0-0.1,0-0.1,0c0,0-0.1,0-0.1,0
					c0,0-0.1,0-0.1,0L5,9.4c0,0,0,0-0.1,0c0,0-0.1,0-0.1,0l0,0c0,0,0,0,0,0c0,0,0,0,0,0c0.1,0,0.2,0,0.3-0.1c0,0,0.1,0,0.1,0
					c0,0,0.1,0,0.1,0c0,0,0.1,0,0.1,0c0,0,0.1,0,0.1,0c0,0,0.1,0,0.1,0C5.8,9.4,5.8,9.4,5.9,9.5C5.9,9.4,5.9,9.5,5.9,9.5
					C5.9,9.5,5.9,9.5,5.9,9.5z"/>
				<path class="st0" d="M2.6,6C2.5,5.9,2.4,5.8,2.3,5.6C2.2,5.5,2.1,5.4,2,5.3C1.9,5.1,1.8,5,1.7,4.8c0-0.1-0.1-0.2-0.1-0.2
					c0-0.1,0-0.2,0-0.3c0,0,0,0,0.1,0c0,0,0,0,0,0.1c0,0,0,0,0,0l0,0c0,0.1,0,0.1,0,0.2c0,0.1,0,0.2,0.1,0.2C1.9,4.9,1.9,5.1,2,5.2
					c0.1,0.1,0.2,0.3,0.3,0.4C2.4,5.8,2.5,5.9,2.6,6z"/>
				<path class="st0" d="M2.6,6.6C2.6,6.6,2.6,6.6,2.6,6.6C2.6,6.6,2.6,6.6,2.6,6.6C2.6,6.6,2.6,6.6,2.6,6.6
					C2.6,6.6,2.6,6.6,2.6,6.6C2.6,6.6,2.6,6.6,2.6,6.6c0-0.1,0-0.1-0.1-0.1c0-0.1,0-0.1-0.1-0.2C2.4,6.2,2.3,6.1,2.3,6
					C2.2,5.8,2.1,5.6,2,5.4C1.9,5.3,1.9,5.2,1.8,5.1C1.8,5.1,1.8,5,1.7,5c0-0.1,0-0.1-0.1-0.2c0-0.1,0-0.1,0-0.2c0-0.1,0-0.1,0-0.2
					c0-0.1,0-0.2,0.1-0.3c0,0,0,0,0,0c0,0,0,0,0,0c0,0.1,0,0.2,0,0.3c0,0.1,0,0.2,0.1,0.3c0,0.1,0,0.1,0.1,0.2l0.1,0.2L2,5.4
					C2.1,5.6,2.2,5.8,2.3,6c0,0.1,0.1,0.2,0.1,0.3c0,0.1,0,0.1,0.1,0.2C2.5,6.5,2.6,6.5,2.6,6.6C2.6,6.6,2.6,6.6,2.6,6.6
					C2.6,6.6,2.6,6.6,2.6,6.6C2.6,6.6,2.6,6.6,2.6,6.6C2.6,6.6,2.6,6.6,2.6,6.6C2.6,6.7,2.6,6.7,2.6,6.6C2.6,6.6,2.6,6.6,2.6,6.6
					L2.6,6.6C2.6,6.6,2.6,6.6,2.6,6.6C2.6,6.6,2.6,6.6,2.6,6.6C2.6,6.6,2.6,6.6,2.6,6.6z"/>
				<path class="st0" d="M4,8.4C4,8.3,4,8.3,4,8.4C3.9,8.3,3.9,8.2,3.9,8.2c0,0-0.1-0.1-0.1-0.1C3.6,8,3.6,7.9,3.5,7.7
					c0-0.1-0.1-0.1-0.1-0.2L3.3,7.5L3.2,7.4L3,7.1C3,6.9,2.9,6.8,2.8,6.7C2.8,6.6,2.7,6.5,2.6,6.4C2.6,6.3,2.5,6.1,2.4,6
					c0-0.1-0.1-0.1-0.1-0.2c0,0,0-0.1-0.1-0.1L2.2,5.7l0,0c0,0,0,0,0,0c0,0,0,0,0,0C2.3,5.8,2.4,5.9,2.4,6c0.1,0.1,0.2,0.2,0.2,0.3
					C2.8,6.6,3,6.8,3.1,7l0.2,0.4c0.1,0.1,0.1,0.2,0.2,0.3C3.6,7.8,3.7,7.9,3.8,8C3.8,8.2,3.9,8.3,4,8.4C4,8.4,4,8.4,4,8.4
					C4,8.4,4,8.4,4,8.4L4,8.4z"/>
				<path class="st0" d="M3.6,8.4c-0.1,0-0.2-0.1-0.2-0.2c0,0-0.1-0.1-0.1-0.1C3.2,8,3.2,8,3.2,8c0,0,0-0.1,0-0.1c0-0.1,0-0.1,0-0.2
					c0,0,0-0.1,0-0.1c0,0,0,0,0.1-0.1c0,0,0.1,0,0.1,0c0,0,0,0,0,0c0,0,0,0,0,0l0,0c0,0,0,0,0,0c0,0,0,0,0,0c0,0,0,0-0.1,0
					c0,0,0,0-0.1,0c0,0,0,0,0,0c0,0,0,0,0,0.1c0,0,0,0.1,0,0.1c0,0,0,0.1,0,0.1c0,0.1,0.1,0.2,0.1,0.2C3.4,8.2,3.5,8.3,3.6,8.4
					C3.6,8.4,3.6,8.4,3.6,8.4C3.6,8.4,3.6,8.4,3.6,8.4L3.6,8.4z"/>
				<path class="st0" d="M4.1,8C4,8,3.9,8,3.9,8C3.8,8,3.7,8,3.7,7.9c-0.1,0-0.1-0.1-0.2-0.1c0,0,0-0.1-0.1-0.1c0,0,0,0,0,0
					c0,0,0,0,0-0.1l0,0c0,0,0,0,0,0c0,0,0,0,0,0c0,0.1,0.1,0.1,0.1,0.1c0.1,0,0.1,0.1,0.2,0.1c0.1,0,0.1,0.1,0.2,0.1
					C3.9,7.9,4,8,4.1,8C4.1,8,4.1,8,4.1,8C4.1,8,4.1,8,4.1,8L4.1,8z"/>
				<path class="st0" d="M2.3,5.2c0-0.1-0.1-0.2-0.1-0.3c0-0.1-0.1-0.2-0.1-0.2l0,0c0,0,0,0,0,0c0,0,0,0,0,0c0,0,0-0.1-0.1-0.1
					C2,4.4,1.9,4.4,1.8,4.3l0,0c0,0,0,0,0,0c0,0,0,0,0,0c0,0,0.1,0,0.1,0c0,0,0.1,0,0.1,0c0.1,0,0.1,0,0.1,0.1
					c0.1,0,0.2,0.1,0.2,0.2c0,0.1,0.1,0.2,0.1,0.3c0,0.1,0,0.1,0,0.2C2.4,5.1,2.4,5.2,2.3,5.2C2.4,5.2,2.4,5.2,2.3,5.2
					C2.3,5.2,2.3,5.2,2.3,5.2L2.3,5.2z"/>
				<path class="st0" d="M5.3,9.9c-0.1,0-0.1-0.1-0.2-0.1C5,9.7,4.9,9.6,4.9,9.6C4.8,9.5,4.8,9.5,4.7,9.4c0,0,0-0.1-0.1-0.1
					c0,0,0-0.1-0.1-0.1c0,0,0,0,0,0c0,0,0,0,0,0l0,0c0.1,0.1,0.1,0.1,0.2,0.2c0,0,0.1,0.1,0.1,0.1c0,0,0.1,0.1,0.1,0.1
					C5,9.6,5,9.6,5.1,9.7C5.1,9.8,5.2,9.8,5.3,9.9C5.3,9.9,5.3,9.9,5.3,9.9C5.3,9.9,5.3,9.9,5.3,9.9z"/>
				<path class="st0" d="M5.4,9.8c-0.1,0-0.1,0-0.2-0.1c-0.1,0-0.1,0-0.2-0.1C5.1,9.6,5,9.6,5,9.6c0,0-0.1-0.1-0.1-0.1c0,0,0,0,0,0
					c0,0,0,0,0,0c0.1,0,0.1,0,0.2,0c0.1,0,0.1,0,0.1,0.1c0,0,0.1,0.1,0.1,0.1C5.4,9.7,5.4,9.7,5.4,9.8C5.5,9.8,5.5,9.8,5.4,9.8
					C5.5,9.8,5.4,9.8,5.4,9.8z"/>
				<g>
					<path class="st0" d="M5.8,10.4C5.8,10.4,5.8,10.4,5.8,10.4C5.8,10.4,5.8,10.4,5.8,10.4c0,0.2,0.6,0.7,0.6,0.7c0,0,0,0,0,0
						c0,0,0,0,0,0C6.4,11.1,5.8,10.6,5.8,10.4C5.8,10.4,5.8,10.4,5.8,10.4z"/>
				</g>
				<g>
					<path class="st0" d="M5.9,10.6C5.9,10.6,5.9,10.6,5.9,10.6c0.2,0.2,0.9,0.4,0.9,0.4c0,0,0,0,0,0c0,0,0,0,0,0
						C6.7,10.9,6.1,10.8,5.9,10.6C5.9,10.6,5.9,10.6,5.9,10.6C5.9,10.6,5.9,10.6,5.9,10.6z"/>
				</g>
				
					<linearGradient id="SVGID_41_" gradientUnits="userSpaceOnUse" x1="-2800.771" y1="536.218" x2="-2798.7397" y2="536.218" gradientTransform="matrix(-0.8204 0.5718 -0.5718 -0.8204 -1984.6416 2050.9111)">
					<stop  offset="0" style="stop-color:#B6D33D"/>
					<stop  offset="0.2784" style="stop-color:#5CA605"/>
					<stop  offset="1" style="stop-color:#265502"/>
				</linearGradient>
				<path class="st45" d="M4.7,10.4c0,0,1.5,0.9,1.8-0.6c0,0,0.1-0.3,0-0.3c0,0,0,0.2-0.2,0.1C6.1,9.6,4.8,9.6,4.7,10.4z"/>
				
					<linearGradient id="SVGID_42_" gradientUnits="userSpaceOnUse" x1="-3031.019" y1="-2504.1245" x2="-3030.0486" y2="-2504.1245" gradientTransform="matrix(-0.8772 0.4802 -0.4802 -0.8772 -3853.8005 -730.2457)">
					<stop  offset="0" style="stop-color:#B6D33D"/>
					<stop  offset="0.2784" style="stop-color:#5CA605"/>
					<stop  offset="1" style="stop-color:#265502"/>
				</linearGradient>
				<path class="st46" d="M7.6,11.3L7,11.2c0,0-0.1,0-0.1,0c0,0-0.1,0-0.1,0c0,0-0.1,0-0.1-0.1c0,0-0.1-0.1-0.1-0.1l0,0c0,0,0,0,0,0
					c0,0,0,0,0,0c0,0,0.1-0.1,0.2-0.1c0.1,0,0.1,0,0.2,0c0.1,0,0.1,0,0.1,0.1c0,0,0.1,0.1,0.1,0.1c0.1,0.1,0.2,0.1,0.2,0.2
					C7.4,11.2,7.5,11.3,7.6,11.3C7.6,11.3,7.6,11.3,7.6,11.3C7.6,11.3,7.6,11.3,7.6,11.3z"/>
				
					<linearGradient id="SVGID_43_" gradientUnits="userSpaceOnUse" x1="-2800.231" y1="532.9246" x2="-2799.3523" y2="535.3412" gradientTransform="matrix(-0.8204 0.5718 -0.5718 -0.8204 -1984.6416 2050.9111)">
					<stop  offset="0" style="stop-color:#B6D33D"/>
					<stop  offset="0.2784" style="stop-color:#5CA605"/>
					<stop  offset="1" style="stop-color:#265502"/>
				</linearGradient>
				<path class="st47" d="M7.6,12.5c0,0-0.3-1.9-1.7-1.4c0,0,0,0.8,0.7,1C7.3,12.4,7.6,12.4,7.6,12.5z"/>
				
					<linearGradient id="SVGID_44_" gradientUnits="userSpaceOnUse" x1="-2800.2856" y1="538.1865" x2="-2798.8557" y2="538.1865" gradientTransform="matrix(-0.8204 0.5718 -0.5718 -0.8204 -1984.6416 2050.9111)">
					<stop  offset="0" style="stop-color:#B6D33D"/>
					<stop  offset="0.2784" style="stop-color:#5CA605"/>
					<stop  offset="1" style="stop-color:#265502"/>
				</linearGradient>
				<path class="st48" d="M5.6,9.2c0,0-0.7-1.3-1.9-0.8c0,0-0.4-0.1-0.4-0.3C3.2,7.8,3.1,8,3.6,8.6c0,0,0.1,1.2,1.7,0.6
					C5.4,9.2,5.5,9.1,5.6,9.2z"/>
				<g class="st22">
					<path class="st23" d="M6,4.6C5.9,4.7,5.8,4.8,5.7,4.9C5.6,5,5.5,5.1,5.4,5.2C5.3,5.2,5.2,5.3,5.1,5.4C4.9,5.4,4.8,5.5,4.7,5.5
						c0,0,0,0,0,0c0,0,0,0,0,0c0.1,0,0.3-0.1,0.4-0.1c0.1-0.1,0.2-0.1,0.3-0.2C5.5,5.1,5.6,5,5.7,4.9C5.8,4.8,5.9,4.7,6,4.6
						C6,4.6,6,4.6,6,4.6C6,4.6,6,4.6,6,4.6z"/>
					<path class="st23" d="M5.7,5.1c-0.1,0-0.1,0.1-0.2,0.1c0,0-0.1,0-0.1,0c0,0,0,0-0.1,0c0,0,0,0-0.1,0c0,0,0,0,0,0c0,0,0,0,0,0
						c0,0,0.1,0,0.1,0c0,0,0.1,0,0.1,0c0,0,0.1,0,0.1,0C5.6,5.2,5.7,5.2,5.7,5.1C5.7,5.1,5.7,5.1,5.7,5.1C5.7,5.1,5.7,5.1,5.7,5.1z"
						/>
					<path class="st23" d="M5.3,5.5c-0.1,0-0.1,0-0.2,0c0,0-0.1,0-0.1,0c0,0,0,0-0.1,0c0,0,0,0,0,0c0,0,0,0,0,0c0,0,0,0,0,0
						c0,0,0,0,0,0c0,0,0,0,0,0c0,0,0,0,0.1,0c0,0,0.1,0,0.1,0C5.2,5.5,5.3,5.5,5.3,5.5C5.3,5.5,5.3,5.5,5.3,5.5
						C5.3,5.5,5.3,5.5,5.3,5.5z"/>
					<path class="st23" d="M5.1,5.3c0-0.1,0-0.1,0-0.2c0-0.1,0-0.1,0.1-0.2c0-0.1,0.1-0.1,0.1-0.1c0,0,0,0,0,0c0,0,0,0,0,0
						c0,0,0,0,0,0l0,0c0,0,0,0,0,0c0,0,0,0,0,0c0,0,0,0,0,0l0,0c0,0,0,0,0,0l0,0c0,0,0,0,0,0c0,0,0,0,0,0c0,0,0,0,0,0
						c0,0-0.1,0.1-0.1,0.1c0,0-0.1,0.1-0.1,0.2C5.2,5.2,5.1,5.3,5.1,5.3C5.1,5.3,5.1,5.3,5.1,5.3C5.1,5.3,5.1,5.3,5.1,5.3z"/>
					<path class="st23" d="M5.9,4.8C5.9,4.9,5.9,4.9,5.9,4.8C5.8,4.9,5.8,4.9,5.8,4.9c0,0,0,0-0.1,0c0,0,0,0,0,0c0,0,0,0,0,0
						c0,0,0,0,0,0C5.8,4.9,5.8,4.9,5.9,4.8C5.9,4.9,5.9,4.9,5.9,4.8C5.9,4.9,5.9,4.9,5.9,4.8C5.9,4.8,5.9,4.8,5.9,4.8
						C5.9,4.8,5.9,4.8,5.9,4.8z"/>
				</g>
				<g class="st22">
					<path class="st23" d="M5.9,7c-0.2,0-0.4-0.1-0.6-0.2C5.2,6.8,5.1,6.7,5,6.7c-0.1,0-0.2-0.1-0.3-0.1C4.6,6.5,4.6,6.4,4.5,6.4
						l0-0.1l0,0l0,0c0,0-0.1-0.1-0.1-0.1c-0.1,0-0.2-0.1-0.3-0.1c-0.1,0-0.1,0-0.2,0c-0.1,0-0.1,0-0.2,0c0,0,0,0,0,0c0,0,0,0,0,0
						c0.1,0,0.2,0,0.3,0c0.1,0,0.2,0,0.3,0.1c0,0,0.1,0.1,0.1,0.1l0,0l0,0l0,0.1c0.1,0.1,0.2,0.1,0.2,0.2C4.8,6.6,4.9,6.6,5,6.7
						c0.1,0,0.2,0.1,0.3,0.1C5.5,6.9,5.7,6.9,5.9,7C5.9,7,5.9,7,5.9,7C5.9,7,5.9,7,5.9,7z"/>
					<path class="st23" d="M4.8,7.1C4.7,7,4.7,6.9,4.6,6.8c0-0.1-0.1-0.1-0.1-0.2c0,0,0-0.1,0-0.1c0,0,0-0.1,0-0.1c0,0,0,0,0,0
						c0,0,0,0,0,0l0,0c0,0,0,0,0,0.1c0,0,0,0,0,0l0,0c0,0,0,0.1,0,0.1c0,0.1,0.1,0.1,0.1,0.2c0,0.1,0.1,0.1,0.1,0.2
						C4.7,7,4.8,7.1,4.8,7.1C4.8,7.1,4.8,7.1,4.8,7.1C4.8,7.1,4.8,7.1,4.8,7.1z"/>
					<path class="st23" d="M5.6,6.6c-0.1,0-0.1,0-0.2,0c-0.1,0-0.1,0-0.2,0c-0.1,0-0.1,0-0.2,0c0,0-0.1,0-0.1,0c0,0-0.1,0-0.1,0
						c0,0,0,0,0,0c0,0,0,0,0,0c0,0,0.1,0,0.1-0.1c0,0,0.1,0,0.1,0c0.1,0,0.1,0,0.2,0C5.4,6.5,5.5,6.5,5.6,6.6
						C5.6,6.6,5.6,6.6,5.6,6.6C5.6,6.6,5.6,6.6,5.6,6.6z"/>
					<path class="st23" d="M5.5,7.1C5.4,7,5.3,7,5.3,6.9c0,0-0.1-0.1-0.1-0.1c0,0-0.1-0.1-0.1-0.1c0,0,0,0,0,0c0,0,0,0,0,0
						c0,0,0.1,0.1,0.1,0.1c0,0,0.1,0.1,0.1,0.1c0,0,0.1,0.1,0.1,0.1C5.4,7,5.5,7.1,5.5,7.1C5.5,7.1,5.5,7.1,5.5,7.1
						C5.5,7.1,5.5,7.1,5.5,7.1z"/>
					<path class="st23" d="M4.7,6C4.6,6,4.6,6,4.5,6C4.5,6,4.4,6,4.4,6c-0.1,0-0.1,0-0.2,0c0,0-0.1,0-0.1,0c0,0,0,0-0.1,0
						c0,0,0,0,0,0c0,0,0,0,0,0c0,0,0,0,0.1,0c0,0,0.1,0,0.1,0c0.1,0,0.1,0,0.2,0C4.5,6,4.6,6,4.7,6C4.7,6,4.7,6,4.7,6
						C4.7,6,4.7,6,4.7,6z"/>
					<path class="st23" d="M4.3,6.9C4.2,6.7,4.1,6.6,4,6.5c0-0.1-0.1-0.1-0.1-0.2c0,0,0-0.1,0-0.1c0,0,0-0.1,0-0.1c0,0,0,0,0,0
						c0,0,0,0,0,0l0,0c0,0,0,0,0,0.1c0,0,0,0,0,0l0,0c0,0,0,0.1,0.1,0.1C4,6.4,4,6.4,4,6.5c0,0.1,0.1,0.1,0.1,0.2
						C4.2,6.7,4.3,6.8,4.3,6.9C4.3,6.9,4.3,6.9,4.3,6.9C4.3,6.9,4.3,6.9,4.3,6.9z"/>
				</g>
				<g class="st22">
					<path class="st23" d="M2.9,7c0,0.2-0.1,0.4-0.2,0.6C2.7,7.8,2.6,8,2.5,8.1c0,0.1-0.1,0.2-0.2,0.2C2.3,8.5,2.2,8.6,2.1,8.6
						C2.1,8.7,2,8.8,1.9,8.8C1.8,8.9,1.8,8.9,1.7,9c0,0,0,0,0,0c0,0,0,0,0,0c0.1,0,0.2-0.1,0.2-0.2C2,8.7,2.1,8.7,2.1,8.6
						c0.1-0.1,0.2-0.3,0.3-0.5C2.6,8,2.7,7.8,2.7,7.6C2.8,7.4,2.9,7.2,2.9,7C2.9,7,2.9,7,2.9,7C2.9,7,2.9,7,2.9,7z"/>
					<path class="st23" d="M2.2,9c0,0,0-0.1,0-0.1c0,0,0-0.1,0-0.1c0,0,0-0.1,0-0.1c0,0,0-0.1,0-0.1c0,0,0,0,0,0c0,0,0,0,0,0
						c0,0,0,0.1,0.1,0.1c0,0,0,0.1,0,0.1c0,0,0,0.1,0,0.1C2.3,8.9,2.2,9,2.2,9C2.2,9,2.2,9,2.2,9C2.2,9,2.2,9,2.2,9z"/>
					<path class="st23" d="M2.6,8c-0.1,0-0.1,0-0.2,0c-0.1,0-0.1,0-0.2,0c0,0-0.1,0-0.1,0c0,0,0,0-0.1,0.1C2,8.1,2,8.1,2,8.2
						c0,0,0,0,0,0c0,0,0,0,0,0C2,8.1,2,8.1,2.1,8c0,0,0,0,0.1-0.1c0,0,0.1,0,0.1,0c0.1,0,0.1,0,0.2,0C2.5,7.9,2.5,7.9,2.6,8
						C2.6,8,2.6,8,2.6,8C2.6,8,2.6,8,2.6,8z"/>
					<path class="st23" d="M2.9,8.1c0-0.1,0-0.1,0-0.2c0-0.1,0-0.1,0-0.2c0-0.1,0-0.1,0-0.2c0-0.1,0-0.1-0.1-0.1c0,0,0,0,0,0
						c0,0,0,0,0,0c0.1,0,0.1,0.1,0.1,0.1c0,0.1,0,0.1,0,0.2c0,0.1,0,0.1,0,0.2C2.9,8,2.9,8.1,2.9,8.1C2.9,8.1,2.9,8.1,2.9,8.1
						C2.9,8.1,2.9,8.1,2.9,8.1z"/>
				</g>
				<g>
					
						<linearGradient id="SVGID_45_" gradientUnits="userSpaceOnUse" x1="-2796.6572" y1="540.6402" x2="-2800.4001" y2="542.1536" gradientTransform="matrix(-0.8204 0.5718 -0.5718 -0.8204 -1984.6416 2050.9111)">
						<stop  offset="0" style="stop-color:#B6D33D"/>
						<stop  offset="0.2784" style="stop-color:#5CA605"/>
						<stop  offset="1" style="stop-color:#265502"/>
					</linearGradient>
					<path class="st49" d="M0.8,7.9C0.8,7.8,1,7.7,1,7.7c0.6,0,1.1-0.6,1.1-0.6c0.6-0.8,0.2-1.8,0.2-1.8C1.5,5.7,1.1,6.2,1.1,6.2
						c-0.6,1-0.2,1.3-0.4,1.5C0.7,7.9,0.7,8,0.8,7.9z"/>
					<g class="st22">
						<path class="st23" d="M3,6.1c0.1-0.1,0.3-0.3,0.4-0.4c0.1-0.1,0.3-0.3,0.4-0.4C3.8,5.1,3.9,5.1,3.9,5C4,4.9,4,4.8,4.1,4.7
							c0.1-0.1,0.1-0.2,0.1-0.3c0,0,0-0.1,0.1-0.1c0,0,0,0,0-0.1c0,0,0,0,0-0.1l0,0c0,0.1,0,0.2-0.1,0.3c0,0.1-0.1,0.2-0.1,0.3
							C4.1,4.8,4,4.9,4,5C3.9,5.1,3.8,5.1,3.8,5.2C3.7,5.4,3.5,5.5,3.4,5.7C3.3,5.8,3.1,5.9,3,6.1L3,6.1z"/>
						<path class="st23" d="M4.1,5.4C4,5.5,3.9,5.6,3.7,5.7c-0.1,0-0.1,0.1-0.2,0.1c-0.1,0-0.2,0-0.2,0l0,0c0.1,0,0.2,0,0.2,0
							c0.1,0,0.1-0.1,0.2-0.1c0.1,0,0.1-0.1,0.2-0.1C4,5.5,4,5.5,4.1,5.4L4.1,5.4z"/>
						<path class="st23" d="M3.4,5.7c0-0.1,0-0.2,0-0.2c0-0.1,0-0.2,0-0.2c0-0.1,0-0.2,0.1-0.2c0,0,0-0.1,0.1-0.1
							c0,0,0.1-0.1,0.1-0.1l0,0C3.6,4.8,3.5,4.9,3.5,5c0,0.1-0.1,0.1-0.1,0.2c0,0.1,0,0.2,0,0.2C3.4,5.5,3.4,5.6,3.4,5.7L3.4,5.7z"
							/>
						<path class="st23" d="M4.4,4.7c0,0-0.1,0.1-0.1,0.1c0,0-0.1,0.1-0.1,0.1c0,0-0.1,0.1-0.1,0.1C4,5,4,5,3.9,5l0,0C4,5,4,5,4.1,5
							c0,0,0.1-0.1,0.1-0.1c0,0,0.1-0.1,0.1-0.1C4.3,4.7,4.4,4.7,4.4,4.7L4.4,4.7z"/>
						<path class="st23" d="M4.1,4.8C4,4.8,4,4.7,4.1,4.8C4,4.7,4,4.6,4,4.6c0,0,0-0.1,0-0.1c0,0,0-0.1,0.1-0.1l0,0c0,0,0,0,0,0.1
							c0,0,0,0,0,0.1c0,0,0,0.1,0,0.1c0,0,0,0.1,0,0.1C4,4.7,4,4.8,4.1,4.8L4.1,4.8z"/>
					</g>
					<path class="st25" d="M2.3,5.5C2.2,5.7,2.1,5.9,2,6.1C1.9,6.3,1.8,6.5,1.7,6.6C1.7,6.7,1.6,6.8,1.6,6.9C1.5,7,1.4,7.1,1.4,7.2
						C1.3,7.3,1.2,7.3,1.2,7.4C1.1,7.5,1,7.6,0.9,7.6l0,0l0,0c0,0,0,0,0,0l0,0l0,0l0,0c0,0,0.1-0.1,0.1-0.1c0.1-0.1,0.1-0.2,0.2-0.2
						C1.5,7,1.6,6.8,1.7,6.6C1.8,6.5,1.9,6.3,2,6.1C2.1,5.9,2.2,5.7,2.3,5.5L2.3,5.5z"/>
					<path class="st25" d="M1.7,7.3c0-0.1,0-0.1,0-0.2c0-0.1,0-0.1,0-0.2c0-0.1,0-0.1,0-0.2c0-0.1,0-0.1,0-0.2l0,0
						c0,0,0.1,0.1,0.1,0.2c0,0.1,0,0.1,0,0.2C1.8,7.1,1.8,7.2,1.7,7.3L1.7,7.3z"/>
					<path class="st25" d="M2,6.2c-0.1,0-0.1,0-0.2,0.1c-0.1,0-0.1,0.1-0.2,0.1c-0.1,0-0.1,0.1-0.1,0.1c0,0-0.1,0.1-0.1,0.2l0,0
						c0-0.1,0.1-0.1,0.1-0.2c0-0.1,0.1-0.1,0.1-0.1c0.1,0,0.1-0.1,0.2-0.1C1.8,6.2,1.9,6.2,2,6.2L2,6.2z"/>
					<path class="st25" d="M2.3,6.3c0,0,0-0.1,0-0.1c0,0,0-0.1,0-0.1c0,0,0-0.1-0.1-0.1c0,0,0-0.1-0.1-0.1l0,0c0,0,0.1,0.1,0.1,0.1
						c0,0,0,0.1,0,0.1C2.3,6.2,2.3,6.2,2.3,6.3L2.3,6.3z"/>
					<path class="st25" d="M2.2,5.6c0,0-0.1,0-0.1,0c0,0-0.1,0-0.1,0.1c0,0,0,0.1-0.1,0.1l0,0c0,0,0,0,0,0.1l0,0c0,0,0,0,0-0.1
						c0,0,0,0,0-0.1c0,0,0-0.1,0.1-0.1c0,0,0.1,0,0.1-0.1C2.1,5.6,2.2,5.6,2.2,5.6L2.2,5.6z"/>
					<path class="st25" d="M1.5,7.1c0,0-0.1,0-0.1,0c0,0-0.1,0-0.1,0c0,0,0,0-0.1,0l0,0c0,0,0,0,0,0c0,0,0,0,0,0c0,0,0,0,0,0
						c0,0,0,0,0,0c0,0,0,0,0,0l0,0c0,0,0-0.1,0.1-0.1c0,0,0,0,0,0c0,0,0,0,0.1,0c0,0,0.1,0,0.1,0C1.4,7.1,1.4,7.1,1.5,7.1L1.5,7.1z"
						/>
				</g>
				<g class="st22">
					<path class="st23" d="M4.1,7.5C3.9,7.4,3.8,7.2,3.7,7.1C3.6,7.1,3.5,7,3.5,6.9c0,0-0.1-0.1-0.1-0.1c0,0,0-0.1-0.1-0.1
						c0,0,0,0,0,0c0,0,0,0,0,0c0,0,0,0.1,0.1,0.1c0,0,0.1,0.1,0.1,0.1C3.6,7,3.6,7,3.7,7.1c0.1,0.1,0.1,0.1,0.2,0.2
						C4,7.4,4,7.4,4.1,7.5C4.1,7.5,4.1,7.5,4.1,7.5C4.1,7.5,4.1,7.5,4.1,7.5z"/>
					<path class="st23" d="M3.9,7.4c0,0-0.1-0.1-0.1-0.1c0,0,0,0,0-0.1c0,0,0,0,0,0c0,0,0,0,0,0c0,0,0,0,0,0c0,0,0,0,0,0l0,0
						c0,0,0,0,0,0.1c0,0,0,0,0,0.1C3.8,7.3,3.8,7.4,3.9,7.4C3.9,7.4,3.9,7.4,3.9,7.4C3.9,7.4,3.9,7.4,3.9,7.4z"/>
					<path class="st23" d="M3.6,7.4C3.5,7.3,3.5,7.2,3.4,7.1c0,0,0-0.1-0.1-0.1c0,0,0-0.1,0-0.1c0,0,0,0,0-0.1c0,0,0,0,0,0
						c0,0,0,0,0,0c0,0,0,0,0,0.1c0,0,0,0,0,0.1c0,0,0,0.1,0,0.1c0,0,0,0.1,0.1,0.1C3.5,7.3,3.6,7.3,3.6,7.4C3.6,7.4,3.6,7.4,3.6,7.4
						C3.6,7.4,3.6,7.4,3.6,7.4z"/>
					<path class="st23" d="M3.9,7.1C3.8,7.1,3.8,7,3.9,7.1C3.8,7,3.7,7,3.7,7c0,0-0.1,0-0.1,0c0,0-0.1,0-0.1,0c0,0,0,0,0,0
						c0,0,0,0,0,0c0,0,0.1,0,0.1,0c0,0,0.1,0,0.1,0C3.8,7,3.8,7,3.9,7.1C3.9,7.1,3.9,7.1,3.9,7.1C3.9,7.1,3.9,7.1,3.9,7.1z"/>
					<path class="st23" d="M4.1,7.4C4.1,7.4,4.1,7.4,4.1,7.4C4,7.4,4,7.3,4,7.3c0,0,0,0-0.1,0c0,0,0,0-0.1,0c0,0,0,0,0,0
						c0,0,0,0,0,0c0,0,0,0,0,0c0,0,0,0,0,0C4,7.3,4,7.3,4.1,7.4C4.1,7.3,4.1,7.4,4.1,7.4C4.1,7.4,4.1,7.4,4.1,7.4
						C4.1,7.4,4.1,7.4,4.1,7.4z"/>
				</g>
				<g class="st22">
					<path class="st23" d="M5.4,9C5.3,9,5.1,9,5,9c-0.1,0-0.3,0-0.4-0.1c-0.1,0-0.1,0-0.2-0.1c-0.1,0-0.1-0.1-0.2-0.1
						C4,8.7,4,8.7,3.9,8.7c-0.1,0-0.1-0.1-0.2-0.1c0,0,0,0,0,0c0,0,0,0,0,0c0.1,0,0.1,0.1,0.2,0.1C4,8.7,4,8.7,4.1,8.7
						c0.1,0,0.1,0.1,0.2,0.1c0.1,0,0.1,0,0.2,0.1C4.7,8.9,4.8,9,5,9C5.1,9,5.3,9,5.4,9C5.4,9,5.4,9,5.4,9C5.4,9,5.4,9,5.4,9z"/>
					<path class="st23" d="M5,9.2c0,0-0.1,0-0.1,0c0,0-0.1,0-0.1,0c0,0-0.1,0-0.1-0.1c0,0-0.1-0.1-0.1-0.1c0,0,0,0,0,0c0,0,0,0,0,0
						c0,0,0,0.1,0.1,0.1c0,0,0.1,0.1,0.1,0.1c0,0,0.1,0,0.1,0.1C4.9,9.2,5,9.2,5,9.2C5,9.2,5,9.2,5,9.2C5,9.2,5,9.2,5,9.2z"/>
					<path class="st23" d="M4.4,9.2C4.3,9.1,4.3,9.1,4.2,9c0,0-0.1-0.1-0.1-0.1c0,0,0-0.1,0-0.1c0,0,0,0,0,0c0,0,0,0,0,0
						c0,0,0,0.1,0.1,0.1c0,0,0.1,0.1,0.1,0.1c0,0,0.1,0.1,0.1,0.1C4.3,9.1,4.4,9.1,4.4,9.2C4.4,9.2,4.4,9.2,4.4,9.2
						C4.4,9.2,4.4,9.2,4.4,9.2z"/>
					<path class="st23" d="M5,8.7c-0.1,0-0.1,0-0.2,0c-0.1,0-0.1,0-0.2,0c-0.1,0-0.1,0-0.2,0c-0.1,0-0.1,0.1-0.1,0.1c0,0,0,0,0,0
						c0,0,0,0,0,0c0,0,0-0.1,0-0.1c0,0,0,0,0.1-0.1c0.1,0,0.1,0,0.2,0c0.1,0,0.1,0,0.2,0C4.8,8.7,4.9,8.7,5,8.7C5,8.7,5,8.7,5,8.7
						C5,8.7,5,8.7,5,8.7z"/>
				</g>
				
					<linearGradient id="SVGID_46_" gradientUnits="userSpaceOnUse" x1="-2216.1548" y1="-280.5507" x2="-2215.2698" y2="-280.5507" gradientTransform="matrix(-0.5528 0.8333 -0.8333 -0.5528 -1454.2266 1699.1686)">
					<stop  offset="0" style="stop-color:#B6D33D"/>
					<stop  offset="0.2784" style="stop-color:#5CA605"/>
					<stop  offset="1" style="stop-color:#265502"/>
				</linearGradient>
				<path class="st50" d="M5.3,7.9c0,0-0.7-0.6-1.3,0c0,0-0.2,0-0.3-0.1C3.5,7.7,3.6,7.9,4,8.1c0,0,0.3,0.7,1.1,0
					C5.1,8,5.1,8,5.3,7.9z"/>
				<g class="st22">
					<path class="st23" d="M5.1,7.9C5,8,4.9,8,4.8,8C4.7,8,4.7,8,4.6,8.1c0,0-0.1,0-0.1,0c0,0-0.1,0-0.1,0c0,0-0.1,0-0.1,0
						C4.1,8,4,8,4,8c0,0,0,0,0,0c0,0,0,0,0,0c0,0,0.1,0,0.1,0c0,0,0.1,0,0.1,0c0,0,0.1,0,0.1,0c0,0,0.1,0,0.1,0c0.1,0,0.2,0,0.3,0
						C4.9,8,5,7.9,5.1,7.9C5.1,7.9,5.1,7.9,5.1,7.9C5.1,7.9,5.1,7.9,5.1,7.9z"/>
					<path class="st23" d="M4.9,8.1C4.9,8.1,4.9,8.1,4.9,8.1c-0.1,0-0.1,0-0.2,0c0,0-0.1,0-0.1,0c0,0,0,0-0.1-0.1c0,0,0,0,0,0
						c0,0,0,0,0,0c0,0,0,0,0.1,0c0,0,0.1,0,0.1,0C4.8,8.1,4.8,8.1,4.9,8.1C4.9,8.1,4.9,8.1,4.9,8.1C4.9,8.1,4.9,8.1,4.9,8.1
						C4.9,8.1,4.9,8.1,4.9,8.1z"/>
					<path class="st23" d="M4.5,8.2c-0.1,0-0.1,0-0.2,0c0,0-0.1,0-0.1,0c0,0,0,0-0.1-0.1c0,0,0,0,0,0c0,0,0,0,0,0c0,0,0,0,0.1,0.1
						c0,0,0,0,0.1,0C4.4,8.2,4.4,8.2,4.5,8.2C4.5,8.2,4.5,8.2,4.5,8.2C4.5,8.2,4.5,8.2,4.5,8.2C4.5,8.2,4.5,8.2,4.5,8.2z"/>
					<path class="st23" d="M4.8,7.8c0,0-0.1,0-0.1,0c0,0-0.1,0-0.1,0c0,0-0.1,0-0.1,0.1c0,0,0,0.1,0,0.1c0,0,0,0,0,0c0,0,0,0,0,0
						c0,0,0,0,0-0.1c0,0,0,0,0,0c0,0,0.1,0,0.1-0.1c0,0,0.1,0,0.1,0C4.7,7.9,4.7,7.8,4.8,7.8C4.8,7.8,4.8,7.8,4.8,7.8
						C4.8,7.8,4.8,7.8,4.8,7.8z"/>
				</g>
				<g class="st22">
					<path class="st23" d="M3.7,9.5c0,0.1-0.1,0.2-0.2,0.3C3.5,9.9,3.4,10,3.3,10c-0.1,0.1-0.2,0.1-0.3,0.1c-0.1,0-0.2,0-0.3,0
						c0,0,0,0,0,0c0,0,0,0,0,0c0.1,0,0.2,0,0.3,0c0.1,0,0.2-0.1,0.3-0.1C3.4,10,3.5,9.9,3.5,9.8C3.6,9.7,3.7,9.6,3.7,9.5L3.7,9.5
						C3.7,9.5,3.7,9.5,3.7,9.5C3.7,9.5,3.7,9.5,3.7,9.5z"/>
					<path class="st23" d="M3.3,10c0,0-0.1,0-0.1,0c0,0-0.1,0-0.1,0C3,10,3,10,3,10c0,0-0.1,0-0.1,0c0,0,0,0,0,0c0,0,0,0,0,0
						c0,0,0.1-0.1,0.1-0.1c0,0,0.1,0,0.1,0c0,0,0.1,0,0.1,0C3.2,10,3.2,10,3.3,10C3.3,10,3.3,10,3.3,10C3.3,10,3.3,10,3.3,10z"/>
					<path class="st23" d="M3.5,9.8c0,0.1,0,0.1-0.1,0.2c0,0-0.1,0.1-0.1,0.1c0,0,0,0,0,0c0,0,0,0-0.1,0c0,0,0,0,0,0c0,0,0,0,0,0
						c0,0,0,0,0,0c0,0,0,0,0,0c0,0,0.1,0,0.1-0.1C3.4,10,3.5,10,3.5,9.8C3.5,9.9,3.5,9.9,3.5,9.8L3.5,9.8C3.5,9.8,3.5,9.8,3.5,9.8
						C3.5,9.8,3.5,9.8,3.5,9.8z"/>
					<path class="st23" d="M3.7,9.7C3.7,9.7,3.7,9.7,3.7,9.7L3.7,9.7L3.7,9.7C3.6,9.6,3.6,9.6,3.7,9.7c-0.1,0-0.2,0-0.2,0
						c0,0-0.1,0-0.1,0c0,0-0.1,0-0.1,0c0,0,0,0,0,0c0,0,0,0,0,0c0,0,0,0,0.1-0.1c0,0,0.1,0,0.1,0C3.5,9.6,3.6,9.6,3.7,9.7
						C3.6,9.6,3.6,9.6,3.7,9.7L3.7,9.7C3.7,9.7,3.7,9.7,3.7,9.7L3.7,9.7C3.7,9.7,3.7,9.7,3.7,9.7C3.7,9.7,3.7,9.7,3.7,9.7z"/>
				</g>
				<g class="st22">
					<path class="st23" d="M4,10c0,0.1-0.1,0.2-0.1,0.3c0,0.1,0,0.2-0.1,0.3c0,0.1,0,0.1,0,0.2l0,0.1l0,0l0,0c0,0.1,0,0.2,0,0.3
						c0,0,0,0,0,0c0,0,0,0,0,0c0-0.1,0-0.2,0-0.3c0-0.1,0-0.1,0-0.2c0-0.1,0-0.1,0-0.2c0-0.1,0-0.2,0.1-0.3C3.9,10.2,4,10.1,4,10
						C4,10,4,10,4,10C4,10,4,10,4,10z"/>
					<path class="st23" d="M4,11.1c0,0,0-0.1,0-0.1c0,0,0-0.1,0-0.1c0,0,0-0.1-0.1-0.1c0,0,0-0.1-0.1-0.1c0,0,0,0,0,0c0,0,0,0,0,0
						c0,0,0.1,0.1,0.1,0.1c0,0,0,0.1,0,0.1C4,10.9,4,11,4,11.1C4,11.1,4,11.1,4,11.1C4,11.1,4,11.1,4,11.1z"/>
					<path class="st23" d="M3.9,10.3c0,0-0.1,0-0.1,0.1c0,0-0.1,0.1-0.1,0.1c0,0,0,0,0,0c0,0,0,0,0,0l0,0c0,0,0,0,0,0l0,0
						c0,0,0,0,0,0c0,0,0,0,0,0c0,0,0,0,0,0.1l0,0c0,0,0,0,0,0c0,0,0,0,0,0c0,0,0,0,0-0.1c0,0,0,0,0,0c0,0,0,0,0,0l0,0c0,0,0,0,0,0
						l0,0c0,0,0,0,0,0c0,0,0,0,0,0c0,0,0.1-0.1,0.1-0.1C3.8,10.3,3.9,10.3,3.9,10.3C3.9,10.3,3.9,10.3,3.9,10.3
						C3.9,10.3,3.9,10.3,3.9,10.3z"/>
				</g>
				<g class="st22">
					<path class="st23" d="M6.4,9.6C6.3,9.7,6.2,9.8,6.1,9.9C6,10,5.9,10.1,5.7,10.2c-0.1,0-0.1,0.1-0.2,0.1c-0.1,0-0.1,0.1-0.2,0.1
						c-0.1,0-0.2,0-0.2,0c-0.1,0-0.2,0-0.2,0c0,0,0,0,0,0c0,0,0,0,0,0c0.1,0,0.2,0,0.2,0c0.1,0,0.2,0,0.2,0l0.1,0l0.1,0
						c0,0,0,0,0.1,0c0,0,0,0,0.1,0c0.1,0,0.1-0.1,0.2-0.1C5.9,10.1,6,10,6.1,9.9C6.2,9.8,6.3,9.7,6.4,9.6C6.4,9.6,6.4,9.6,6.4,9.6
						C6.4,9.6,6.4,9.6,6.4,9.6z"/>
				</g>
				<g class="st22">
					<path class="st23" d="M5.7,10.5c-0.1,0-0.2,0-0.3,0c0,0-0.1,0-0.1,0c0,0-0.1,0-0.1-0.1c0,0,0,0,0,0c0,0,0,0,0,0
						c0,0,0.1,0,0.1,0.1c0,0,0.1,0,0.1,0c0,0,0.1,0,0.1,0C5.6,10.5,5.7,10.5,5.7,10.5C5.7,10.5,5.7,10.5,5.7,10.5
						C5.7,10.5,5.7,10.5,5.7,10.5z"/>
				</g>
				<g class="st22">
					<path class="st23" d="M6,9.8c0,0-0.1,0-0.1,0.1c0,0-0.1,0-0.1,0.1c0,0-0.1,0.1-0.1,0.1c0,0-0.1,0.1-0.1,0.1c0,0,0,0,0,0
						c0,0,0,0,0,0c0,0,0-0.1,0.1-0.1c0,0,0.1-0.1,0.1-0.1C5.8,9.9,5.9,9.9,6,9.8C6,9.8,6,9.8,6,9.8C6,9.8,6,9.8,6,9.8z"/>
				</g>
				<g class="st22">
					<path class="st23" d="M6.3,9.9c0,0.1-0.1,0.1-0.1,0.2c-0.1,0.1-0.1,0.1-0.2,0.1c-0.1,0-0.1,0.1-0.2,0.1c0,0-0.1,0-0.1,0
						c0,0-0.1,0-0.1,0c0,0,0,0,0,0c0,0,0,0,0,0l0,0c0,0,0,0,0.1,0c0,0,0,0,0.1,0c0,0,0.1,0,0.1,0c0.1,0,0.1,0,0.2-0.1
						c0.1,0,0.1-0.1,0.2-0.1C6.2,10,6.3,9.9,6.3,9.9C6.3,9.9,6.3,9.9,6.3,9.9C6.3,9.9,6.3,9.9,6.3,9.9z"/>
				</g>
				<g class="st22">
					<path class="st23" d="M7.5,12.3c-0.1-0.1-0.2-0.2-0.3-0.3c-0.1-0.1-0.2-0.2-0.3-0.3c-0.1-0.1-0.2-0.2-0.4-0.3
						c-0.1,0-0.1-0.1-0.2-0.1c0,0-0.1,0-0.1,0c0,0-0.1,0-0.1,0c0,0,0,0,0,0c0,0,0,0,0,0c0,0,0.1,0,0.1,0c0,0,0.1,0,0.1,0
						c0.1,0,0.1,0.1,0.2,0.1c0.1,0.1,0.2,0.2,0.4,0.3c0.1,0.1,0.2,0.2,0.3,0.3C7.3,12,7.4,12.1,7.5,12.3C7.5,12.3,7.5,12.3,7.5,12.3
						C7.5,12.3,7.5,12.3,7.5,12.3z"/>
					<path class="st23" d="M7.2,12.2c0-0.1-0.1-0.1-0.1-0.2c0,0,0-0.1,0-0.1c0,0,0-0.1,0-0.1c0,0,0,0,0,0c0,0,0,0,0,0
						c0,0,0,0.1,0,0.1c0,0,0,0.1,0,0.1C7.2,12.1,7.2,12.1,7.2,12.2C7.2,12.2,7.2,12.2,7.2,12.2C7.2,12.2,7.2,12.2,7.2,12.2z"/>
					<path class="st23" d="M7.3,11.8c0,0-0.1-0.1-0.1-0.1c0,0-0.1,0-0.1-0.1c0,0-0.1,0-0.1,0c0,0-0.1,0-0.1,0c0,0,0,0,0,0
						c0,0,0,0,0,0c0,0,0,0,0.1,0c0,0,0.1,0,0.1,0c0,0,0.1,0,0.1,0C7.2,11.6,7.2,11.7,7.3,11.8C7.3,11.8,7.3,11.8,7.3,11.8
						C7.3,11.8,7.3,11.8,7.3,11.8z"/>
					<path class="st23" d="M6.8,12c-0.1-0.1-0.2-0.2-0.2-0.3c0-0.1-0.1-0.1-0.1-0.2c0,0,0-0.1,0-0.1c0,0,0-0.1,0-0.1c0,0,0,0,0,0
						c0,0,0,0,0,0c0,0,0,0.1,0,0.1c0,0,0,0.1,0,0.1c0,0.1,0,0.1,0.1,0.2c0,0.1,0.1,0.1,0.1,0.2C6.7,11.9,6.7,12,6.8,12
						C6.8,12,6.8,12,6.8,12C6.8,12,6.8,12,6.8,12z"/>
					<path class="st23" d="M6.8,11.3c0,0-0.1,0-0.1-0.1c0,0-0.1,0-0.1,0c0,0-0.1,0-0.1,0c0,0-0.1,0-0.1,0.1c0,0,0,0,0,0c0,0,0,0,0,0
						c0,0,0,0,0.1,0c0,0,0,0,0.1,0c0.1,0,0.1,0,0.2,0C6.7,11.3,6.8,11.3,6.8,11.3C6.8,11.3,6.8,11.3,6.8,11.3
						C6.8,11.3,6.8,11.3,6.8,11.3z"/>
				</g>
				<g class="st27">
					<path class="st23" d="M5.5,13.2c0-0.2-0.1-0.4-0.1-0.6c0-0.2-0.1-0.4-0.1-0.6c0-0.1-0.1-0.2-0.1-0.3c0-0.1-0.1-0.2-0.1-0.3
						C5,11.4,5,11.3,5,11.2c0,0,0-0.1-0.1-0.1c0,0,0,0,0-0.1c0,0,0,0,0-0.1c0,0,0,0,0,0c0,0,0,0,0,0C4.9,11,4.9,11.1,5,11.2
						c0,0.1,0.1,0.2,0.1,0.3c0.1,0.2,0.1,0.4,0.2,0.6c0.1,0.2,0.1,0.4,0.1,0.6C5.5,12.8,5.5,13,5.5,13.2C5.5,13.2,5.5,13.2,5.5,13.2
						C5.5,13.2,5.5,13.2,5.5,13.2z"/>
					<path class="st23" d="M5.7,13c0-0.1,0-0.1-0.1-0.2c0-0.1,0-0.1-0.1-0.2c0,0-0.1-0.1-0.1-0.1c0,0,0,0-0.1-0.1c0,0,0,0-0.1,0
						c0,0,0,0,0,0c0,0,0,0,0,0c0,0,0,0,0,0c0,0,0,0,0,0c0,0,0,0,0.1,0.1c0,0,0.1,0.1,0.1,0.1C5.7,12.8,5.7,12.9,5.7,13
						C5.7,13,5.7,13,5.7,13C5.7,13,5.7,13,5.7,13z"/>
					<path class="st23" d="M5.4,12.8C5.4,12.8,5.4,12.8,5.4,12.8c-0.1,0.1-0.1,0.1-0.1,0.2c0,0,0,0.1,0,0.1c0,0,0,0,0,0.1
						c0,0,0,0,0,0c0,0,0,0,0,0l0,0c0,0,0,0,0,0c0,0,0,0,0,0c0,0,0,0,0,0c0,0,0,0,0-0.1c0,0,0-0.1,0-0.1C5.3,12.9,5.3,12.9,5.4,12.8
						C5.4,12.8,5.4,12.8,5.4,12.8C5.4,12.8,5.4,12.8,5.4,12.8C5.4,12.8,5.4,12.8,5.4,12.8z"/>
					<path class="st23" d="M5.8,12.3c0-0.1-0.1-0.1-0.1-0.2c0-0.1-0.1-0.1-0.1-0.1c0,0-0.1-0.1-0.2-0.1c-0.1,0-0.1-0.1-0.2-0.1
						c0,0,0,0,0,0c0,0,0,0,0,0c0.1,0,0.1,0,0.2,0.1c0.1,0,0.1,0.1,0.2,0.1c0,0,0.1,0.1,0.1,0.1C5.7,12.2,5.8,12.3,5.8,12.3
						C5.8,12.3,5.8,12.3,5.8,12.3C5.8,12.3,5.8,12.3,5.8,12.3z"/>
					<path class="st23" d="M5.3,12.1c-0.1,0-0.1,0-0.1,0.1c0,0-0.1,0.1-0.1,0.1c0,0,0,0.1,0,0.1c0,0,0,0,0,0c0,0,0,0,0,0
						c0,0,0,0.1,0,0.1c0,0,0,0.1,0,0.1c0,0,0,0,0,0c0,0,0,0,0,0c0,0,0-0.1,0-0.1c0,0,0-0.1,0-0.1c0,0,0-0.1,0-0.1c0,0,0-0.1,0-0.1
						c0-0.1,0.1-0.1,0.1-0.1C5.1,12.1,5.2,12.1,5.3,12.1C5.3,12.1,5.3,12.1,5.3,12.1C5.3,12.1,5.3,12.1,5.3,12.1L5.3,12.1z"/>
					<path class="st23" d="M5.6,11.6c0,0-0.1-0.1-0.1-0.1c0,0-0.1-0.1-0.1-0.1c0,0-0.1-0.1-0.1-0.1c0,0-0.1,0-0.1,0c0,0,0,0,0,0
						c0,0,0,0,0,0c0,0,0,0,0.1,0c0,0,0.1,0,0.1,0c0.1,0,0.1,0.1,0.1,0.1c0,0,0.1,0.1,0.1,0.1C5.5,11.5,5.6,11.5,5.6,11.6
						C5.6,11.6,5.6,11.6,5.6,11.6C5.6,11.6,5.6,11.6,5.6,11.6z"/>
					<path class="st23" d="M5,11.4c0,0-0.1,0.1-0.1,0.1c0,0-0.1,0.1-0.1,0.1c0,0,0,0.1,0,0.2c0,0.1,0,0.1,0,0.2c0,0,0,0,0,0
						c0,0,0,0,0,0c0,0,0-0.1,0-0.2c0-0.1,0-0.1,0-0.2c0-0.1,0-0.1,0.1-0.1C5,11.5,5,11.4,5,11.4C5,11.4,5,11.4,5,11.4
						C5,11.4,5,11.4,5,11.4z"/>
					<path class="st23" d="M4.7,12c0-0.1,0-0.1,0-0.2c0,0,0-0.1,0-0.1c0,0,0.1,0,0.1,0c0,0,0,0,0,0c0,0,0,0,0,0c0,0,0,0,0,0
						c0,0,0,0,0,0c0,0,0,0.1,0,0.1C4.7,11.9,4.7,11.9,4.7,12C4.7,12,4.7,12,4.7,12C4.7,12,4.7,12,4.7,12C4.7,12,4.7,12,4.7,12z"/>
					<path class="st23" d="M5.1,12.2C5,12.2,5,12.2,5.1,12.2c-0.1,0-0.2,0-0.2,0c0,0-0.1,0-0.1,0.1c0,0,0,0-0.1,0.1c0,0,0,0,0,0
						c0,0,0,0,0,0c0,0,0-0.1,0-0.1c0,0,0.1,0,0.1-0.1c0,0,0.1,0,0.1,0C5,12.2,5,12.2,5.1,12.2C5.1,12.2,5.1,12.2,5.1,12.2
						C5.1,12.2,5.1,12.2,5.1,12.2z"/>
					<path class="st23" d="M5.5,11.6c-0.1-0.1-0.2-0.2-0.3-0.3c0,0-0.1-0.1-0.1-0.1c0,0-0.1-0.1-0.2-0.1c0,0,0,0,0,0c0,0,0,0,0,0
						c0.1,0,0.1,0.1,0.2,0.1c0.1,0,0.1,0.1,0.1,0.1C5.3,11.4,5.4,11.5,5.5,11.6C5.5,11.6,5.5,11.6,5.5,11.6
						C5.5,11.6,5.5,11.6,5.5,11.6z"/>
				</g>
				<g class="st22">
					<path class="st23" d="M6.7,12.8c-0.1-0.1-0.2-0.1-0.3-0.2c0,0-0.1-0.1-0.1-0.1c0,0,0-0.1,0-0.1c0,0,0-0.1,0-0.1c0,0,0,0,0,0
						c0,0,0,0,0,0c0,0.1,0,0.1,0.1,0.2c0,0,0.1,0.1,0.1,0.1c0,0,0.1,0.1,0.1,0.1C6.6,12.7,6.6,12.8,6.7,12.8
						C6.7,12.8,6.7,12.8,6.7,12.8C6.7,12.8,6.7,12.8,6.7,12.8z"/>
				</g>
				<g class="st22">
					<path class="st23" d="M7.5,12.9c-0.1-0.1-0.1-0.1-0.2-0.1c-0.1,0-0.1-0.1-0.2-0.1c-0.1,0-0.1-0.1-0.2-0.1c0,0-0.1,0-0.1,0
						c0,0-0.1,0-0.1,0c0,0,0,0,0,0c0,0,0,0,0,0c0,0,0.1,0,0.1,0c0,0,0.1,0,0.1,0c0.1,0,0.1,0.1,0.2,0.1C7.3,12.7,7.4,12.8,7.5,12.9
						C7.5,12.9,7.5,12.9,7.5,12.9C7.5,12.9,7.5,12.9,7.5,12.9z"/>
				</g>
				<g class="st22">
					<path class="st23" d="M7.4,13.7c-0.1-0.1-0.2-0.2-0.2-0.3c0-0.1-0.1-0.1-0.1-0.2c0,0,0-0.1,0-0.1c0,0,0-0.1,0-0.1c0,0,0,0,0,0
						c0,0,0,0,0,0l0,0c0,0,0,0.1,0,0.1c0,0,0,0.1,0,0.1c0,0.1,0.1,0.1,0.1,0.2c0,0.1,0.1,0.1,0.1,0.2C7.3,13.6,7.4,13.6,7.4,13.7
						C7.4,13.7,7.4,13.7,7.4,13.7C7.4,13.7,7.4,13.7,7.4,13.7z"/>
				</g>
				<g class="st22">
					<path class="st23" d="M7.3,11.2c0,0-0.1-0.1-0.1-0.1c0,0-0.1-0.1-0.1-0.1C7,11,7,11,6.9,11c0,0,0,0-0.1,0c0,0,0,0-0.1,0l0,0
						c0,0,0,0,0,0c0,0,0,0,0,0c0,0,0,0,0.1,0c0,0,0.1,0,0.1,0C7,11,7,11,7.1,11C7.1,11.1,7.2,11.1,7.3,11.2
						C7.3,11.2,7.3,11.2,7.3,11.2C7.3,11.2,7.3,11.2,7.3,11.2z"/>
				</g>
				<g>
					<path class="st23" d="M3.2,9c0,0.1-0.1,0.1-0.1,0.2c0,0.1-0.1,0.1-0.2,0.2C2.9,9.5,2.8,9.5,2.7,9.5c0,0-0.1,0-0.1,0
						c0,0-0.1,0-0.1,0c0,0,0,0,0,0c0,0,0,0,0,0c0,0,0.1,0,0.1,0c0,0,0.1,0,0.1,0c0.1,0,0.1-0.1,0.2-0.1C3,9.3,3,9.3,3.1,9.2
						C3.1,9.2,3.2,9.1,3.2,9C3.2,9,3.2,9,3.2,9C3.2,9,3.2,9,3.2,9z"/>
				</g>
			</g>
		</g>
	</g>
</g>
</svg>
