<?xml version="1.0" encoding="utf-8"?>
<!-- Generator: Adobe Illustrator 23.0.1, SVG Export Plug-In . SVG Version: 6.00 Build 0)  -->
<svg version="1.1" id="Layer_1" xmlns="http://www.w3.org/2000/svg" xmlns:xlink="http://www.w3.org/1999/xlink" x="0px" y="0px"
	 viewBox="0 0 669 436" style="enable-background:new 0 0 669 436;" xml:space="preserve">
<style type="text/css">
	.st0{fill:#DD9A2E;}
	.st1{fill:#EEC230;}
	.st2{fill:#FCD657;}
</style>
<g>
	<path class="st0" d="M669.1,333.8c0,61.8-138.5,102.5-334.5,102.5c-173.5,0-334.7-37.6-334.7-102.5c0-40,128.6-123.4,251.4-176.2
		c38.7-16.6,38.9-58.8,83.2-58.8c43.5,0,40.4,27.9,78.5,43.7C536.8,193.9,669.1,290.1,669.1,333.8z"/>
	<path class="st1" d="M647.4,311.8c0,61.8-149.3,90-312.8,90c-141.7,0-312.8-25.2-312.8-90c0-40,120.3-123.4,235-176.2
		c36.2-16.6,36.4-58.8,77.8-58.8c40.7,0,37.7,27.8,73.4,43.7C523.8,171.9,647.4,268.1,647.4,311.8z"/>
	<path class="st1" d="M374,44.1c0,21.8-17.7,39.5-39.5,39.5c-21.8,0-39.5-17.7-39.5-39.5c0-21.8,17.7-39.5,39.5-39.5
		C356.3,4.6,374,22.3,374,44.1z"/>
	<path class="st2" d="M354.9,21.4c-6.2-7.3-18.8-10.6-27-4.8c-2.7,1.9-4.2,6.4-1.2,8.9c3.7,3,8.1,5.4,11.3,9c3.9,4.3,2,8.2,2.7,13.8
		c1.1,9.9,14.1,15.3,19.8,5.4C366.6,43.2,362.1,29.9,354.9,21.4z"/>
	<path class="st2" d="M538.6,221.7c-28.2-21-60.6-36.3-92.1-51.7c-40.1-19.5-64.7-49.3-95.4-79.9c-2.3-2.3-5.5,0.6-4.2,3.2
		c27.2,57.3,65.1,77.2,121,104.5c64.3,31.5,105.7,70.7,139.2,133.4c2.1,4,9.6,2.4,8.9-2.4C609.8,282.2,574.9,248.6,538.6,221.7z"/>
</g>
</svg>
