<svg xmlns="http://www.w3.org/2000/svg" viewBox="307 -500 1200 1500"><defs><g id="rightLeave"><style>.sta{fill:#ff9a83}.stb{fill:#603913}.stc{fill:#ff9a83}.stf{fill:#603913}</style><g id="Layer_2"><path d="M403 235v3c-1 1-3 2-4 1l-6 5 6 3c22 10 49 6 76-11h1l10-13c-4 1-8 1-11-1l-5-5-1-4c-1-3-3-3-6-4-8-3-14-13-12-21l-4 3m0 26 2-1 2 1 4 3 7 3c3 2 6 2 9 2h3l-3 1a32 32 0 0 1-24-4l-1-2 1-3zm-11 9 3-2h3l5 3 11 1h16l-16 5-13 1-7-2-2-3v-3zm-13 14c0-2 2-3 3-4l4-1h8a110 110 0 0 0 34-4l7-3-6 4a134 134 0 0 1-34 14c-5 1-10 2-11 1l-5-2v-5zm-9 5 2-2h2l1 2v2l-1 1c-1 1-3 0-3-1l-1-2zm-8-4c0-2 2-2 3-2v1c2 0 2 2 1 3 0 1-2 2-3 1s-2-2-1-3z" class="sta"/><path d="m464 249 9-9c-27 15-53 18-74 9l-7-3-9 8c9 6 19 9 30 10 18 1 36-4 51-15zm40-62-6-4c-2-3-2-5 0-8-5 0-11-3-12-8 0-3 2-5 4-7l-3-2-6 5c-3 7 5 13 12 14 1 0 2 1 1 2-1 3 0 7 2 9s7 5 10 4l3-4-5-1zM297 347l-1 6c2-2 6-4 9-4 4-4 8-7 11-12 2-3 1-8-3-11l-3-1-14 14-1 4 2 4z" class="sta"/><path d="m438 273 11-10a83 83 0 0 1-76 1l-7 6c27 12 58 10 72 3z" class="sta"/><path d="m456 257 2-2c-14 8-29 12-45 11-12-1-22-5-31-10l-8 7a81 81 0 0 0 82-6zm56-82c-1 3-3 4-5 3s-4-3-3-5l2-2-2-2c-3 3-7 8-5 12 1 2 4 3 6 4h5l4-9-2-1zm85-101c-1 1-5 0-4-2l1-2h-1l-2 1c0 2-1 3-2 2v-1h1l-5 1 6 3c4 2 10 2 14 0-3-2-5-5-6-8l-3 1c2 2 3 3 1 5zm-62 43v-1l-1 1h1z" class="sta"/><path d="M595 73h1l-2-2 1 2zm11 3 1-1c3-2 5-6 2-9l-2-1h-1v1s2-1 2 1c1 3-4 1-4-1l-3 1c1 4 2 7 5 9zM86 722c7-4 12-10 14-16 3-7 2-15-2-21-2-3-5-6-10-7-4-1-8-1-12 1l-3 4 1 6 2 1h4l-1 1c-2 2-5 1-7-1l-1-7 4-6a17 17 0 0 1 15 0c4 1 8 4 10 7 4 7 4 15 2 22-3 7-8 14-15 18-12 7-27 7-41 0h-1l-4 11c10 6 22 8 33 8 20-1 36-16 40-37 3-18-3-34-17-40-1 3-2 7-6 5l-5-5-3-6-3-4c-13 18-23 38-32 60 1-2 2-2 3-2 2 1 3 2 2 4 0 1-2 2-3 1-2 0-2-2-2-3l-2 6 1 1c13 6 28 6 39-1zm6-30 1-1h2l2 1v2l-2 2c-1 0-3 0-3-2v-2zm-1 9c0-1 1-2 3-2l2 3c0 2-2 3-3 2-2 0-3-1-2-3zm-3 7 3-1h1v4c0 1-2 2-3 1s-2-3-1-4zm-5 6 2-1 1 1v4c-1 1-3 0-4-1s0-3 1-3zm-7 3h1l2 2c0 1 0 3-2 3l-3-2c-1-2 0-3 2-3zm-8 1h1l2 2c0 2-2 3-3 3-2 0-3-1-3-3 0-1 1-2 3-2zm-11 1c0-2 1-3 3-2 1 0 2 1 2 3l-3 2c-2 0-3-2-2-3zm413-547 9-3-1-4m116-95c1 0 1 0 0 0zm-99 119c-3-3-3-7-2-10-5-1-11-4-13-8-12 2-19 11-20 14-2 10 4 18 14 17l1 1c-1 5 2 10 7 12 4 1 7 0 11-2l12-19c-4 0-8-3-10-5zm-18-7 7-3-6 5-7 3 6-5zm-7 16a79 79 0 0 1 19-16 79 79 0 0 1-19 16zm17-3c-2 2-3 4-6 5l5-6 5-5-4 6zm1-27c2 4 7 5 11 5l4-6-1-1c-1 1-3 2-4 1a4 4 0 0 1 1-8v-1c-5 0-13 5-11 10zM301 356c2 3 3 7 1 10 4-3 8-6 7-11-2-6-9-4-12-1l4 2zm206-210c-3 9 2 19 11 23l-1 2 3-8c-5-3-7-9-5-15s8-9 13-8l3-9-1 4c-9-3-19 2-23 11zm-11 7-2-1-6 4 3 2 7-2v-3h-2zm33-32c2 1 3 3 2 5v1l1 1 2-8-1-2-4 3zM194 548c6-3 11-9 13-15 2-4 1-9-1-13s-5-7-9-8c-3-1-7 1-8 5-1 2 0 4 2 4v1l-1 1-3-3-10 18h1c1 1 2 2 1 3 0 2-1 3-3 2l-1-1-4 6 1 1c7 2 15 2 22-1zm-3-9 1-1h3l1 1v2l-1 2c-2 0-3 0-4-2v-2zm-6 0h1l2 2c0 2-1 3-3 3l-2-2c-1-2 1-3 2-3zm56-106 10-15v-2l-8 1-11 19c3 0 6 0 9-3z" class="sta"/><path d="m252 422-1-1c-3 7-8 14-14 17l-7 3-17 30 3 2c5 4 12 2 17-4s8-12 10-20c-3-7 6-22 9-27zm44-9-4 2-6-2c1 3 2 7 5 9 4 5 9-1 10-5v-1c-2 0-3-2-5-3zm4-34v1l8-1c4-1 3-6 2-8l-4-3-4 2-4 2c2 3 2 5 2 7zm-16 23 1 7c3 2 5 5 8 3 2-1 3-2 3-4 0-4-2-8-5-10l-4 2-3 2zm13-32c3-2 6-8 3-12-4-6-9 1-12 5 4 1 7 4 9 7zm-5 27c2 1 4 3 5 6l6 2c3 0 6-2 5-6s-6-7-11-7l-5 5zm-6-35c1-4 3-10 0-13l-11 11c4 0 8 0 11 2zm59 23 3 2c8 1 20 3 27 2 6 0 11-5 11-12-1-6-6-11-14-11-7 0-15 1-22 3-1 10-20 10-27 11l1 1c7 0 15 0 21 4zm-33 27c6 4 12 11 14 18l1 6v1l16 17c4 4 12 4 16-1s3-12-2-17c-4-5-9-9-15-12-8 7-23-7-28-12l-1-1-1 1zm-12 11 1 2-1-3v1zm6 21-1 7c2 7 5 17 9 23 3 5 10 7 16 4 5-3 7-10 4-17-3-6-7-12-12-17-7 3-14-7-18-14 2 4 3 9 2 14zm-46 4c-2 2-6 6-9 6l-8 21c-1 6 3 12 9 14 6 1 12-3 15-10 2-7 3-14 2-22-7-5-3-23-1-29l-1-1c0 7-2 15-7 21zm2-39v3c1 1 2 3 4 2 3 0 4-3 4-5v-5l-5-2-3 7zm44-16c2-1 4-1 5-3s2-5 0-7c-2-3-7-3-11-1l-2 8 8 3zm-22-29 4 1c-4-3-9-4-15-3l-2 4c4-2 9-2 13-2z" class="sta"/><path d="m289 359 3-3v-1c2-3 4-7 1-11l-1-1-5 5c3 3 3 7 2 11zm-33 38c-2 2-5 5-5 8-1 7 6 6 10 3l2-6a19 19 0 0 1-7-5zm38-4c4-6 6-14 2-20l-2-3-2-1c-6-4-17-4-23 0l-4 9c-1 7 4 14 12 12 4-1 8-3 9-8 2-6-9-8-8-5 0 1-1 2-2 1-2-2 0-6 5-6 4 0 7 2 8 6 1 9-8 17-17 14-6-1-9-5-10-10l-6 11c8 11 29 12 38 0z" class="sta"/><path d="M272 404v7c2 3 3 6 6 5l4-3c3-4 2-7 0-11l-10 2zm11 46-4 7v24c1 6 6 10 13 9 6 0 10-6 10-14 0-7-1-14-4-20-11 0-12-21-13-28h-1c2 7 2 15-1 22zm43-111 5-1 20-15c4-4 5-12 0-16-4-5-12-5-17 0-6 4-11 10-14 16 6 8-8 22-13 27h1c4-5 11-10 18-11zm-5 59c7 2 14 5 19 11l4 7c7 4 14 8 21 10 6 2 13-1 15-7s-2-13-8-16c-7-2-13-4-20-4-5 9-25 0-31-2v1zm-50 15c-2 2-3 3-6 3-1 4-1 9 4 10 4 1 7-4 7-8-3-1-4-2-5-5z" class="sta"/><path d="M309 361c2 0 5 0 7 2v-1l14-7c4-2 5-7 2-11-2-3-7-4-11-2-5 3-9 6-12 10 2 4 2 6 0 9zm-54 34-1 2 1-2z" class="sta"/><path d="M318 364c6-3 14-6 21-5l7 2h1c7-2 15-4 22-8 5-2 8-9 5-15-3-5-10-8-16-5-7 2-13 6-18 10 3 10-17 18-23 21h1zm-57 47c-2 1-5 2-7 1-2 4-3 9 1 11 1 1 6 2 8-1v-6c-2-1-2-3-2-5zm52-21-1 1c-2 2-3 3-5 3 4 4 3 8 3 8 3 2 9 1 9-4l-1-4c0-1-2-3-5-4zm3-13h-4l-2 3 4 4-1 5 6-1c2 0 4-2 4-4 0-3-4-8-7-7zm-7 27-4 2c-3 1-5 0-7-1l-1 6c3 3 8 7 11 3 3-2 5-6 2-9l-1-1zm-24 9-4 4-4 1v5c1 5 11 4 10-1l-2-9z" class="sta"/><path d="m317 375 4 3c6 0 11 0 17-2 3-1 6-5 5-9s-5-7-10-6-10 2-14 5c2 4 1 7-2 9zm-53 49c-2 3-7 2-9 1l-2-1-7 13c-1 4 1 9 5 10 4 2 8-1 10-5 3-5 4-11 4-16l-1-2zm12 1-6 3c-2 5-3 11-3 16 0 4 3 8 8 8 4 0 7-4 8-9s0-10-1-15c-3 0-5-1-6-3zm16 0-3-2-2 4 2 16c1 4 6 7 10 6s6-6 5-11-2-10-5-14c-2 1-4 2-7 1zm-41-11 1-2-2-3-1-3-5 9c2 1 5 0 7-1zm61-9 1 4 1 1 1 1 12 9c4 3 9 2 11-2s1-9-3-12c-5-3-9-5-14-6-2 4-5 5-9 5z" class="sta"/><path d="m304 367 2-1c3 0 5 2 6 4v6c5-1 9-6 5-10-1-1-6-4-8-3l-5 4zm20 19a8 8 0 0 1-6 5l2 2 1 2c5 2 11 5 16 5 4 1 8-2 9-6s-2-8-7-10c-5-1-10-2-15-1v3zm-14 30c-3 2-5 2-8 1l-1 4 8 14c3 4 8 5 11 2 4-2 4-8 2-12l-10-11-2 2zM594 97c-3-4-7-8-11-7h-3c3 1 5 2 6 5l2 2 1-1c-1-1 0-2 1-2 1 1 1 4-1 4h-1l1 3c0 1 1 2 2 1v-2c-1 0 0-2 1-1 2 1 2 3 0 4h-3v3l2 2h1l1-1v-2l1 2-2 2h-3v-1c1 4 10 7 5 11-1 1-4 0-3-3v-1l-3-2 1 2c0 2-1 3-3 2l1-1v-2l-1-2-2-1v1c0 1-2 2-3 1v-1l1-1v-2l-2-2v1h-3l1-1 1 1v-4l-1-1c-1 1-3 0-3-1-1-1 1-2 1-1l1 1h1v-3l-1-3-1-4c-2 2-3 4-3 7 0 9 7 18 15 22 4 2 9 3 14 1-3-3-5-6-5-11 0-4 0-10-3-14zm-5 63c0-5 1-10-1-15-2-4-6-9-10-9h-3c3 1 5 3 6 6l1 2h1v-1c-1-1 0-2 1-1 2 1 1 3-1 3h-1v4l2 1 1-2c-1-1 0-2 1-2 1 2 1 4-1 5h-3v3l2 2 1-1c-1-1 0-2 1-2v2l-2 2-2-1h-1c1 4 9 8 4 11-2 1-5-1-3-3l1-2-3-2v2c0 2-2 3-3 2-1 0 0-2 1-1v-4l-2-2v1c-1 2-3 2-4 1l1-1c1 1 1 0 1-1v-2l-1-2-1 1h-3c0-1 1-2 2-1 0 0 0 1 0 0l1-3-1-1c-1 1-3 0-3-1l1-1 1 1h1v-10c-2 1-4 4-4 6-2 9 5 19 12 24 3 2 8 4 13 3-3-3-4-7-3-11zm-30 84c2-5 3-10 2-15-1-4-3-10-7-11h-3c2 1 4 3 4 6l1 3h2v-1c-1-1 0-2 1-1s0 4-2 3h-2v3l2 2c1 0 2-1 1-2s1-2 1-1c1 2 0 4-1 4-2 1-3 0-4-1v3l1 3 1-1h1c-1-1 0-2 1-1v2l-3 1-2-2c-1 4 7 10 1 12-2 0-4-2-2-4l1-1-2-2-1 1c0 2-2 3-3 2s0-2 1-1l1-2v-3l-2-2v2h-3c-1-1 0-2 1-1l1-1v-2l-1-2-1 1c-1 1-2 0-2-1l1-1v1l1-1 1-2v-2h-1c-1 1-2-1-2-2h1l1 1h1v-3l1-3 1-4c-3 1-5 3-6 5-3 9 1 19 7 26 3 3 7 6 12 6-2-3-2-7-1-11zm19-42v-15c-2-4-5-9-10-10h-2l5 6 1 3h1v-1l1-1c2 1 1 3-1 3h-2l1 3 2 2 1-2c-1-1 0-2 1-1s1 3-1 4c-1 1-3 0-4-1v3l2 3 1-1c-1-1 0-2 1-2l1 3-3 1-2-1c0 4 8 8 2 11-1 1-4-1-2-3v-2l-2-2v2c-1 2-2 3-3 2s0-2 1-1v-2l-1-3-1-1v1c-1 1-3 2-4 1l1-1 2-1-1-3-1-1v1c-1 1-3 0-3-1-1-1 1-1 1-1v1l1-1v-4c-2 1-3 0-3-1-1-1 1-2 1-1l1 1h1v-10c-2 1-4 4-4 6-2 9 3 19 10 24 4 3 8 5 13 5-2-4-3-8-2-12z" class="sta"/><path d="m583 164 1 2 1-1-2-2v1zm0-2c1 0 1 0 0 0zm-19 31c1 3 3 6 6 8l-1-6c1-5 2-14-4-16 2 1 2 4 3 6v6c-2 2-4 1-4-1l-1-11v7l1 7zm8 12v2h1l-1-2zm0-1c1 0 1 0 0 0zm2-52 7 7-1-5c0-5 1-15-5-17l3 7c1 1 2 4 0 6-1 2-3 1-4-1l-1-11v7l1 7zM375 565c-5-3-19 1-25 3h1c7 3 19 8 24 5l2-4v-1c0-2-1-3-2-3zm-28 17v1c4 6 12 16 18 17 2 0 3-1 4-3l1-1v-4c-3-5-18-8-23-10zm-14 9c0 8 1 21 6 24l5 1 1-1 2-3c0-6-10-17-14-21zm259-477v1-1zm-11-11c-2-4-1-8-3-11l1 7 2 7 8 6-1-5c-1-5-1-15-8-16l4 6c1 2 2 5 1 6-1 2-3 1-4 0zm12 15 1-1-2-1 1 2z" class="sta"/><path d="M750 10 610 64l2 3s2 12-12 12c-6 0-12-2-16-5l-14 12c-2 49-14 96-27 126-10 24-34 55-57 85l-36 50c4 2 7 9 8 14 1 6-2 12-6 17-4 6-11 12-14 19-1 5-2 13 1 18 2 4 5 6 10 8a330 330 0 0 0 19-18c-2 0-4 0-5 2l-2 1-1-2c2-4 6-6 9-4l2 1c74-76 120-186 120-186C789 114 750 10 750 10zM488 361c0 1-7 10-18 0-4-5-7-12-8-19 0-6 1-13 5-17s11-5 16-1c4 3 5 10 4 15-2 9-11 14-10 24h2c3 0 7-1 8-5 0-2-3-4-3-2 0-1 3 1 1 2-2 2-3-3-2-4 2-1 3 0 5 1v6zm30-37s-6 10-17 1c-6-4-10-11-11-17 0-6 0-13 4-18 3-4 10-6 15-3 4 3 6 10 5 15-1 9-9 15-6 24l1 1c4-1 7-2 7-6 1-2-2-4-2-2 0-1 3 0 1 2-2 3-4-2-2-4 1-1 3 0 4 1 2 1 2 4 1 6zm29-36c0 1-5 11-17 4-6-4-10-11-12-17-1-6-2-13 2-18 3-5 10-7 15-4s7 9 7 14c-1 9-8 16-5 25h2c3 0 6-2 6-6 0-3-3-4-3-2 0-1 3 0 2 2-2 3-4-2-3-3 1-2 3-1 5 0 1 1 2 4 1 5zm24-38c0 1-3 12-17 6-6-3-11-9-13-15s-4-13-1-18c2-5 9-8 14-6s8 8 9 13c1 9-6 17-1 25h1c3-1 7-3 6-7 0-2-3-3-3-1 0-1 3-1 2 2-2 2-5-2-4-4h5c2 1 3 4 2 5zm4-35c-7-2-13-7-16-13s-5-12-4-18c2-5 8-9 13-8 6 1 10 7 11 12 2 9-3 17 3 25l1-1c3-1 6-4 5-7s-4-3-4-1c0-1 3-1 3 2-1 2-5-1-4-3s3-2 4-1c2 0 4 3 3 5 1 0-1 11-15 8zm12-42c-7-2-13-7-17-12-3-5-6-12-5-18 1-5 7-9 13-9 6 1 10 7 11 12 3 8-1 17 5 25l1-1c3-1 6-4 4-8-1-2-4-2-3-1 0 0 3 0 2 2-1 3-4-1-4-3 1-1 3-2 5-1 1 1 3 3 3 5 0 0-1 12-15 9zm10-48c-7-1-14-5-18-10s-8-10-7-17c0-5 5-10 11-10s10 5 13 10c4 8 0 17 7 24l2-1c2-2 5-5 3-9-2-2-5-1-4 0 0-1 3-1 3 1-1 3-5 0-5-2 1-2 3-2 4-2l5 5s0 12-14 11z" class="sta"/><path d="M547 233c1 4 2 6 5 8v-5c2-5 4-14-2-17 2 2 2 4 2 7 0 1 1 5-1 6s-3 0-4-2c0-4 2-7 1-11l-1 7v7zm6 15h1l-1-2v2zm-51 66c0 1 0 1 0 0zm-30 40h1v-3l-1 1v2zm-2-17 2 9 2-5c3-4 9-12 4-16v7c0 1-1 4-3 5s-3-1-3-3c1-3 4-6 4-10l-3 6-3 7z" class="sta"/><path d="M430 380c4-20 28-52 54-85 22-30 46-61 56-85 13-28 24-74 27-121l-9 7c-6 72-33 134-80 185 4 0 6 3 4 7-1 3-4 4-7 4l-14 7c-1 0-2 0-1-1l4-9 2-7 3-6c4-3 5 1 7 4 54-58 75-124 80-182l-6 5a304 304 0 0 1-106 186c4 0 7 4 4 8-2 3-5 3-8 3l-15 4c-1 1-1 0-1-1l6-7 2-7 5-5c4-3 5 1 6 4 5-4 41-32 72-87 17-31 28-63 34-97l-7 6c-10 48-31 91-62 128-45 53-99 80-120 89-2 1-3 0-4-1-1-2 0-3 1-4 17-7 46-21 76-45-16 5-44 5-68-5l-50 48 2 1h1c5-8 12-17 22-21 5-2 13-5 18 0 15 13-12 32-23 38l3 2v1c8-7 17-12 27-13 6 0 15 0 18 5 10 18-23 27-34 30l1 2v2c10-4 21-5 31-2 5 1 14 5 14 11 3 21-33 16-44 15l2 4v1c9 1 20 4 27 10 5 3 11 9 9 16-5 19-34 3-45-3a5 5 0 0 1-1 3c9 4 17 10 21 19 3 5 7 13 3 18-13 16-33-10-41-19l-2 2c7 7 13 17 15 27 1 5 2 14-4 18-17 11-28-22-32-33l-2 1c3 10 5 20 3 30-1 6-4 14-11 15-20 4-17-30-17-42l-1 1-3-1c1 10-1 21-7 30-3 4-8 11-15 10-19-3-7-33-2-44l-3-2c-3 10-8 19-17 25-4 3-12 8-18 5l-2-2-16 31h6c4 1 7 4 10 9a22 22 0 0 1-14 29c-7 3-15 4-23 1h-1l-7 13c12 5 27 3 40-5 16-9 22-25 17-39-2 1-5 3-7-1-1-2 0-5 1-7l2-7 1-9h2l8 13c2 2 4 4 4 7-1 5-6 7-9 3 5 16-2 31-18 42-14 8-29 10-42 5l-7 13c17 9 40 9 58-2 20-12 32-24 30-46-3 2-6 5-8 0v-6l2-7v-10h1l10 12c2 2 4 4 4 7 0 5-4 7-7 5 2 23-14 36-31 46a62 62 0 0 1-60 3l-15 27c-22 10-40 26-56 46l10 1c3 0 6 0 8 2 3 4 1 9-4 9 15 6 22 22 19 41-4 23-21 38-42 39-12 0-23-3-33-8l-3 8c13 9 29 13 45 13 24-1 46-22 51-48 5-22 4-40-14-53 0 3 0 8-5 6-2 0-4-2-5-4l-4-6-7-6c-1-1 0-2 1-2l15 1c3 0 7 0 9 2 3 3 2 7-2 8 19 14 18 35 14 54-6 27-28 49-53 49-16 1-32-4-45-12l-2 6c5 5 12 9 18 11 16 7 39 12 63-4 23-16 36-35 40-58 3-21-3-41-10-54-12-6-32-22-22-30 15-12 23 16 23 29 8 13 14 34 10 55-3 24-17 43-40 59a64 64 0 0 1-64 5l-19-11-4 14h1v3l-2 1-1 8v2l-2 4a532 532 0 0 0-5 29l-1 5 3-1c3 0 4 2 4 5 0 2-2 4-5 4l-3-2-6 57h2l1 1v1l-4 5v15a145 145 0 0 1 14-12h2v1c0 1-1 28-10 35-2 2-5 2-7 2-1 47 2 80 2 80 102 17 217-113 217-113a996 996 0 0 0 184-451l31-22c-15-8-21-26-16-46zm24-76 1-1 2-1 2 2v2l-1 1c-2 1-3 0-4-1v-2zm-6 6 3-1h1v4h-4v-3zm-6 6 3-1 1 1v4h-4v-4zm-7 6h4v4h-4v-4zm-6 7 3-1 1 1v4h-4v-4zm-42-48 2-1h2l3 2 6 2h7l3-1-3 1a29 29 0 0 1-15 2l-4-1-1-2v-2zm-7 8 2-1 2-1 4 1h9l13-3-12 6c-3 2-7 3-10 3h-6l-2-2v-3zm-8 13 1-3 3-2 7-1a87 87 0 0 0 26-8l5-3-5 4a109 109 0 0 1-24 16l-8 2-4-1c-1-1-2-2-1-4zm18 28-1 1c-1 1-3 0-4-1v-2l2-2h2l1 1v3zM159 667h-1c-4-12-7-39 7-37 19 3 4 28-6 37zM67 772c12 4 37 15 27 26-12 15-25-12-27-25v-1zm-29 77c5 1 8 5 7 9 0 5-4 8-9 8-4-1-7-5-7-9 1-5 5-8 9-8zm-16-11c1-3 4-6 8-5 3 0 6 3 5 7 0 3-3 6-7 5-4 0-6-3-6-7zm0 43c-4-7-3-18 0-27l1-1 1 1c1 15 8 19 11 20 5 2 10 0 13-4 4-5 3-13-3-21v-1l1-1h1c9 4 15 14 15 25-1 24-31 26-40 9zm31 50c-1 4-4 6-8 7-5 0-8-1-10-3-6-7 0-24 4-35v-1l1-3 1-1v1h1c0 1 15 24 11 35zm28-8c-3 3-6 4-9 3-9-3-13-21-16-31v-2l-1-3 1-1h1c1 1 25 12 28 24 1 4 0 7-4 10zm25-29c-2 4-4 7-7 7-9 3-22-10-30-18l-1-1-2-2v-2c2 0 29-3 37 5 3 3 4 6 3 11zm0-26c-7 6-25 2-35 0l-2-1h-3v-2c1-1 22-18 34-15 3 1 6 3 7 8 1 4 1 8-1 10zm30-88c-3 19-28 3-37-7v-1c12-3 40-6 37 8zm-9-21-1-1c9-9 31-25 36-12 7 18-22 17-35 13zm25-29-1-1c5-11 18-35 28-25 14 14-14 24-27 26zm10-31-1-1c1-12 7-39 19-32 17 9-6 27-18 33zm218-185h-4v-4h4v4zm-3 14h3v3h-3v-3zm0-9h3v3h-3v-3zm2-21a4 4 0 1 1-6 5 4 4 0 1 1 6-5zm-6-12c2 2 2 5 0 7s-6 2-8 0-2-5 0-7 6-2 8 0zm-20-13a7 7 0 1 1 0 10c-3-3-3-7 0-10zm-24 82a8 8 0 1 1-15-6 8 8 0 0 1 15 6zm-5-20c-2 3-5 5-9 3-3-1-5-5-4-8 2-3 5-5 9-4 3 2 5 5 4 9zm-4-17c-1 3-3 4-6 3-2-1-3-3-2-6 1-2 3-3 6-2 2 1 3 3 2 5zm-2-11c-1 2-3 2-5 2-2-1-3-3-2-5s3-3 5-2 3 3 2 5zm-7-12c0-2 1-2 2-2l2 3c-1 1-2 2-3 1-1 0-2-1-1-2zm-49 97c-4 0-6-3-8-7-1-4-1-8 1-10 6-7 24-4 35-3l1 1h3l1 1v1c-1 1-21 19-33 17zm23 26c-3 2-7 1-10-2s-5-6-5-9c2-9 19-16 29-20l1-1 3-1h1v2c0 1-7 27-19 31zm34 10c-2 3-5 4-10 4-4 0-7-2-9-5-4-8 6-23 12-33l1-1 1-2 1-1h1v1c1 1 10 26 3 37zm-18-57c-2-7 1-18 7-26h1l1 1c-4 15 2 20 5 22 5 3 10 2 14-1 5-4 6-12 2-21l1-1h1c8 5 12 17 9 27-7 24-37 18-41-1zm47 56c-4 2-7 2-10 0-8-5-7-23-7-34v-6c0 1 0 1 0 0h1v1c1 0 22 17 22 30 0 4-2 7-6 9zm31-23c-3 4-5 6-8 6-9 0-19-16-25-25l-1-1-1-3s-1 0 0 0v-1h1c1 0 28 3 34 13 2 4 2 7 0 11zm6-25c-7 5-24-4-34-9h-1l-3-1v-2c2-1 26-12 37-7 3 2 5 5 5 9 0 5-1 8-4 10zm41-244h1v4h-4v-4h3zm-9-26 1-2h2l2 1v2l-1 2c-2 1-3 0-4-1v-2zm-1 33 3-1h1v4h-4v-3zm-14-25 2-1 2 2c1 1 0 3-1 3-1 1-3 1-4-1l1-3zm-9 8 1-4h2l2 2c1 1 0 2-1 3s-3 1-4-1zm13 84c-2 3-6 5-9 3s-4-6-3-9c2-4 6-5 10-3 3 2 4 6 2 9zm4-97h2l2 1c1 1 0 3-1 4l-4-1c-1-2 0-3 1-4zm-1 37 1-2h2l2 1v3l-1 1c-2 1-3 0-4-1v-2zm10 67c-2 3-5 4-7 2-3-1-4-4-2-7 1-2 4-3 7-2 2 1 3 5 2 7zm3 10c-2-1-3-3-2-5s4-3 6-2 2 4 1 5c-1 2-3 3-5 2zm10 8c-1 1-3 2-4 1-2-1-2-2-1-4l3-1c2 1 2 3 2 4zm41-84c1 1 1 1 0 0z" class="sta"/><path d="M501 318h1v-3l-1 1v2zm-1-24-2 7c0 4 1 7 3 10l1-5c3-5 7-13 3-18v7l-2 6c-2 1-4-1-3-2 0-4 3-7 2-11l-2 6zm40-28c0-4-2-10-6-12l-3-1c2 2 4 5 4 8v2l1 1v-1c0-1 1-2 2-1s-1 4-2 3l-2-1-1 4h1l1 2c1 0 2-1 1-2 0-1 1-2 2-1 1 2 0 4-2 4-2 1-3 0-3-1l-1 2 1 3h1l1-1 1-1-1 3h-2l-2-2c-1 4 5 11-1 12-1 0-4-3-2-4l2-1-2-3-1 2c-1 1-2 2-3 0h1l1-2v-2l-1-2v1c-1 1-3 1-4-1h1c1 1 2 0 2-1v-4l-1 1c-1 0-3 0-3-2h2s0 1 0 0l2-2v-2h-1c-1 1-2-1-2-2l1-1 1 2h1l1-3 1-3 1-3c-3 0-5 2-6 4-5 8-2 19 3 26 3 4 7 7 11 8-1-4 0-8 1-12 2-4 4-9 4-14zM315 594c-4 6-10 18-8 24l4 2h2l3-1c3-6 0-20-1-25zm239-349z" class="sta"/><path d="M525 268c0 4 2 6 4 9l1-5c2-5 6-14 1-17v6l-1 6c-2 2-4 0-4-2 0-4 3-7 2-11l-2 7-1 7zm-17 46c2-4 5-8 5-13s-1-10-5-13l-2-1 2 8 1 2 1 1v-1l1-1c1 2 0 4-2 3l-1-1-1 3v1l1 2c1 0 2-1 1-2 0-1 1-2 2-1 0 2-1 4-3 4l-2-2-2 3 1 2 1 1 1-1c-1-1 0-2 1-1v2l-3 1-2-2c-1 3 4 11-2 11-1 0-3-2-1-4l1-1-1-3-1 2c-1 1-3 2-4 0h2l1-2v-2l-1-2v1c-1 1-3 0-4-1 0-1 1-2 2-1h1l1-2-1-2-1 1-2-2h2l2-2v-2h-1c-1 0-2-1-2-3l2 1v1h1l1-2 2-3 1-4c-2 0-5 2-6 4-5 8-4 19 1 26 2 4 6 8 10 9-1-4 0-8 2-12zm22-33c1 0 1 0 0 0zm-1 3h1v-3 1l-1 2zm-50 67c3-4 6-8 6-13 1-5 1-10-3-13l-3-1c2 2 3 4 2 7l1 3h1v-1h1c1 2-1 3-2 3l-2-1-1 3 1 2 2-1c-1-1 1-2 1-1 1 2-1 4-3 4l-2-2-2 2 1 3h1c0-1 1-2 2-1l-1 2h-3l-1-2c-2 4 3 11-3 11-2 0-4-3-1-4l1-1-1-3-1 2h-4c0-1 1-2 2-1l1-1 1-3-1-2-1 1c-1 1-2 1-3-1h2l1-1 1-2v-2l-2 1-2-2h2v1-1l2-2 1-1h-1c-2 0-2-2-2-3h2v1h1l1-2 2-3 1-3c-2 0-5 1-7 3-5 7-5 19-1 27 2 4 5 8 9 9 0-4 2-7 4-11zM14 921h4c6-4 8-18 9-24h-1c-4 4-11 10-14 15v7l2 2zm92-148c3 0 17 0 15 5-1 6-12-1-16-3 9 9 22 11 24 5s-12-10-23-7zm-11 86-3-3c-6-1-18 6-23 9l1 1c7 1 20 3 24-1 1-1 2-3 1-5v-1zm38-103c2-2 14-9 15-4 2 6-11 6-15 6 13 3 25-3 23-8-2-6-16-2-23 6zm2-127c5-3 9 10 10 13-1-13-9-23-15-19-4 3 3 16 13 20-2-2-13-10-8-14zm43 43c-5-3-14 9-14 20 1-3 5-16 10-13s-6 12-8 15c11-6 17-18 12-22zM58 892v1c2 7 6 20 12 22l4-1 1-1 1-4c-1-6-13-14-18-17zm13-114c3 12 13 20 17 16 5-4-5-15-16-18 3 2 15 9 11 13-5 4-10-8-12-11zm94-141c-6-1-9 13-6 23 0-3-1-16 5-15s-1 12-3 16c9-9 10-23 4-24zm101-60-1 5 1 1c1 1 1 2 3 2 6 2 18-7 22-10-7-1-21-2-25 2zM69 881h1c5 5 16 13 21 12 2 0 3-2 4-3v-2l-1-3c-4-5-19-5-25-4zm-28 19c-2 7-5 20-2 24 2 2 3 2 5 2h1l3-3c2-6-4-19-7-24v1zm115-175c2-3 9-14 13-10 4 5-8 10-12 12 13-3 22-13 18-17-4-5-15 4-19 15zm125-121 2 4 1 1h4c6-2 12-15 14-21h-1c-7 4-18 10-20 16z" class="sta"/></g><g id="Layer_1"><path d="M515 148c-2 6 0 12 5 15l8-22c-5-2-11 2-13 7z" class="stb"/><path d="m526 129-3-3-3 3-1 1-19 16a4 4 0 0 1-2 7v3h1v2h-1l1 1h1c3 1 4 3 3 5l-1 2 1 1c1-1 2 0 1 1v1l2 2 4-1c2 1 3 3 2 5l2 1 3-5 1-2a18 18 0 0 1 12-34l1-4 1-4h-2l-4 2z" class="stb"/><path d="M505 185c-2 0-5-1-6-4-2-4 2-9 5-12l-1-2-5 6c-3 0-8-1-10-5-2-5 6-10 10-10v-2l-7 2-3-2-1 1 3 3c-3 1-4 4-4 7 0 5 7 8 11 8-1 2-1 5 1 8 1 2 4 3 6 3l5 1 1-2h-5zm28-67 1 2 1-3h-1l-1 1zm-13 11-1 1 1-1z" class="stb"/><path d="M504 168c1-1 0-2-1-1l1 2v-1zm-5-10v-2h-1v2h1zm-36 50c3 2 5 2 6 5l1 4 5 5c4 2 8 2 11 1l7-10c-4 2-7 3-11 2-5-2-8-7-7-12l-1-1c-10 1-16-7-14-17 1-3 8-12 20-14 2 4 8 7 13 8-1 3-1 7 2 10 2 2 6 5 10 5l1-2c-3 1-8-2-10-4-2-3-2-6-2-9v-2c-8-1-16-7-13-14l-3 2 1 4c-3 1-6 1-8 3l-20 16c-2 8 4 18 12 20zm41-35c-1 2 0 4 3 5 2 1 4 0 5-3l-6-4-2 2z" class="stb"/><path d="m510 170-4 1 6 4c1-2 0-4-2-5zm-15-8a4 4 0 0 0 7 4l-3-7c-2 0-3 1-4 3z" class="stb"/><path d="M503 165c1-3 0-5-2-6h-2c0 2 1 5 3 7l1-1zm-5-17-4 4 2 1h2v-5zm0 5 3-3-1-4-2 2v5zm33-26v-1c1-2 0-4-2-5l-6 5 8 1zm-8-1h1-1z" class="stb"/><path d="M524 126h-1l3 3c1 0 4 0 5-2l-7-1zm-35 56a79 79 0 0 0-19 16 79 79 0 0 0 19-16zm-5-3-7 3-6 5 7-3 6-5zm2 15-5 6c3-1 4-3 6-5l4-6-5 5zM62 872c0-11-6-21-15-25h-1l-1 1v1c6 8 7 16 3 21-3 4-8 6-13 4-3-1-11-5-11-20l-1-1-1 1c-4 9-4 20 0 27 9 17 39 15 40-9zm-44 58c10-7 11-34 11-35v-1h-2l-2 2-1 1-12 9v6c3-5 10-11 14-15h1c-1 6-3 20-9 24h-5l-1-2-1 13c3 0 5 0 7-2zm-1-44v-1l-1-1h-2l-1 7 4-5z" class="stb"/><path d="M41 896v-1h-1v1l-1 3-1 1c-3 11-9 28-3 35 2 2 6 3 10 2 4 0 7-3 8-6 4-12-11-34-11-35h-1zm7 27-3 3h-1l-5-2c-3-4 0-17 2-24v-1c3 5 9 18 7 24zm9-34h-1v1h-1l1 3 1 2c2 10 6 28 15 31 3 1 6 0 9-3 4-3 5-6 4-10-2-12-27-23-28-24zm18 24-1 1-4 1c-6-3-10-15-12-22v-1c5 3 17 11 18 17l-1 4zm-8-34h-1v1l2 2 1 1c8 8 21 21 30 19 3-1 5-4 7-8 1-4 0-8-3-10-8-9-35-6-36-5zm28 9-1 2-3 3c-6 1-16-7-22-12v-1c6 0 20 0 25 5l1 3zm5-38c-12-3-33 15-34 15v2l3 1h2c10 2 28 6 35 0 2-2 2-6 1-10s-3-7-7-8zm-6 15c-4 4-17 2-24 1h-1c5-4 17-11 23-10l3 3v1c1 2 1 4-1 5zm-65-8a8 8 0 0 0 16 1c1-4-3-8-7-9-4 0-8 3-9 8zm-1-12c3 1 7-2 7-5 1-4-2-7-6-8-3 0-6 3-7 6 0 4 2 7 6 7zm-8-18 1-6m2 8c2 0 5-2 5-4 0-3-2-5-4-5l-3 1-1 6 3 2zm0-15v-2l-1 4 1-2zm319-242c3-10-1-22-9-27h-1l-1 1c4 9 3 17-2 21-4 3-9 4-14 1-3-2-9-7-5-22l-1-1h-1c-6 8-9 19-7 27 4 18 34 24 41 0zm-38 14v-1h-1l-3 1-1 1c-10 4-27 11-29 20 0 3 1 6 5 9 3 3 7 4 10 2 12-4 19-30 19-32 0 1 0 0 0 0zm-16 23h-4l-1-1-2-4c1-6 13-12 20-16-2 6-7 19-13 21zm7-34v-1l-1-1h-3l-1-1c-11-1-29-4-35 3-2 2-2 6-1 10 2 4 4 6 8 7 12 2 32-16 33-17zm-26 10c-2 0-3-1-3-2l-1-1 1-5c4-4 17-3 25-2-4 3-16 12-22 10z" class="stb"/><path d="M316 590h-2l-1 3-1 1c-6 9-15 25-11 33 1 3 4 4 8 5 5 0 8-1 10-4 7-11-2-36-3-37v-1zm0 29-3 1h-2l-4-2c-2-6 4-18 7-24h1c1 5 4 19 1 25zm17-31h-2v5c0 11 0 29 7 34 3 2 6 2 10 0s6-5 6-9c1-12-20-30-21-30zm14 24-2 3-2 1-4-1c-5-3-6-16-6-24 4 4 14 15 14 21zm-2-32h-1l-1 1h1l1 3 1 1c6 9 15 25 24 25 4 0 6-2 9-6 2-4 2-7 0-11-6-10-33-13-34-13zm25 16-1 1c-1 2-2 3-4 3-6-1-14-11-18-17v-1c5 1 19 5 22 10l1 4zm14-36c-11-5-36 6-37 7v2l3 1 1 1c10 4 26 13 34 8 3-2 4-5 4-9 0-5-2-8-5-10zm-7 9-2 4c-5 3-17-2-24-5h-1c6-2 20-7 25-3l2 2v2zm-63-20a8 8 0 1 0 15 6 8 8 0 0 0-15-6zm-3-19c-1 3 1 7 4 8 3 2 7 0 8-4 2-3 0-7-3-8-4-1-7 1-9 4zm1-15c-1 3 0 5 2 6 3 1 5 0 6-3 1-2 0-4-2-5-3-1-5 0-6 2zm-1-11c-1 2 0 4 2 5s4 0 5-2 0-4-2-5-4 0-5 2zm1-7c1 1 2 0 2-1 1-1 0-2-1-3-1 0-2 0-2 2-1 1 0 2 1 2zm50-14c3-3 3-7 0-10-2-2-7-2-9 0-3 3-3 7 0 10s7 3 9 0zm3 10c2 2 6 2 8 0s2-6 0-8c-3-2-6-1-8 1s-2 5 0 7zm8 10c2 2 4 2 6 0v-6c-2-1-4-1-6 1v5zm3 7v4c2 1 3 1 4-1v-4l-4 1zm4 12v-3h-3v3h3zm0 9v-3h-3v3h3zm24-131c-4-2-8-1-10 3-1 3 0 7 3 9s8 0 9-3c2-3 1-7-2-9zm13 9c-3-1-6 0-7 2-2 3-1 6 2 7 2 2 5 1 7-2 1-2 0-6-2-7zm10 15c1-2 1-4-1-5s-5 0-6 2 0 4 2 5 4 0 5-2zm4 6-4 1c-1 2-1 3 1 4 1 1 3 0 4-1l-1-4zM29 783v-2l-2 6 2-4zm3-11v-3l-2 5 2-2zm397-525c1 1 5 0 10-1l18-6 16-8 6-4-7 3a129 129 0 0 1-34 5l-8-1-4 1-3 4c-1 2 0 3 1 5 1 1 2 2 5 2z" class="stb"/><path d="m438 232 7 2 13-1 16-5h-16l-11-2c-3 0-5-2-5-2h-3l-3 2v3l2 3z" class="stb"/><path d="M452 225a33 33 0 0 0 19 1l3-1h-3a31 31 0 0 1-16-5l-3-3-3-1-2 1-1 3 1 2 5 3zm-75 82 8-2 13-7c5-3 9-6 11-9l5-4-5 3a112 112 0 0 1-26 9h-7l-3 2-2 3 2 4c1 1 2 2 4 1z" class="stb"/><path d="M382 294h6c3 0 7-1 10-3l12-6-13 3h-9l-4-1-2 1-2 1v3l2 2z" class="stb"/><path d="m388 285 4 1h8l7-1 3-2-3 1h-7l-6-2-3-2h-2l-2 1v2l1 2zM600 79c14 0 12-12 12-12l-2-3-3 1 3 1c2 3 0 7-3 9l-1 1c-3-3-4-6-5-9l-2 1c1 4 3 6 6 9-5 2-10 1-14-1l-6-3-1 1c4 4 10 6 16 5zm-6-9v1-1z" class="stb"/><path d="M608 67c0-2-2-1-2-1v-1l-2 1c0 2 5 4 4 1zm-19 5-1 1c2 1 3 0 3-2l-2 1zm5-2v1l2 2h-1v-1l-1-1v-1l-1 2c-1 3 3 3 4 2 2-2 1-3-1-5l-2 1c1 0 1 0 0 0z" class="stb"/><path d="M594 70h-1l1 1v-1zm-2 45zm15-6c-2 0-4 0-4 2-1 2 4 5 4 2 0-2-3-2-3-1 0-1 3-2 4 0 2 4 0 7-3 9l-2 1c-6-7-3-16-7-24-2-6-7-10-13-10s-11 5-11 10c-1 7 3 12 7 17s11 9 18 10c14 1 14-11 14-11l-4-5zm-23-12-4-6c7 1 7 11 8 16l1 5c-3-1-5-3-7-6-2-2-2-5-3-7l-1-7c2 3 2 7 3 11 1 1 3 2 4 0 1-1 0-4-1-6zm4 24c-7-4-15-13-15-22 0-3 1-5 3-7l1 4 1 3v3h-1l-1-1c0-1-2 0-1 1 0 1 2 2 3 1h1v5l-1-1-1 1h3l1-1 1 2 1 2-1 1c-1-1-2 1-1 1 1 1 3 0 3-1v-1l2 1 1 2v2l-1 1c2 1 3 0 3-2v-2l2 2h1v-1c1 0 1 0 0 0v1l2 2-1 1-1-2v-1h-1v1c-1 3 2 4 3 3 5-4-4-6-5-11v1h3l2-1-1-3v2l-1 1h-1l-2-2v-3h3c2-1 2-3 0-4-1-1-1 1-1 1v2h-2v-1l-1-3h1c2 0 2-3 1-4-1 0-2 1-1 2 0 0 1 0 0 0l-1 1-1-2c-2-3-4-4-7-5h3c5-1 9 3 11 7 3 4 2 10 3 15 0 4 2 7 5 11-4 1-10 0-14-2zm-5 41v1-1zm15-3-4 1c-1 2 3 6 4 3 0-2-2-2-2-1-1-2 2-2 3 0 2 4-1 7-4 8l-2 1c-6-8-1-17-4-25-1-5-6-10-11-11-6-1-12 3-13 8-1 7 1 13 5 18 3 6 10 10 16 12 14 3 16-9 16-9 0-2-2-4-4-5zm-26-21c2 3 1 8 2 11 1 2 3 3 4 1v-6l-3-7c6 2 5 12 5 17v5c-2-2-5-4-6-7l-2-7v-7zm7 30c-7-5-14-15-12-24 0-2 2-5 4-6v9l-1 1-1-1h-1c0 2 2 3 3 2h1v1l-1 3-2 1h3l1-1 1 2v2c1 1 0 2-1 1l-1 1c2 1 3 1 4-1v-1l2 2 1 2-1 2c-1-1-2 0-1 1 2 1 3 0 3-2v-2l3 2c1 0 1 0 0 0v1l2 2-1 1-1-2v-2l-1 2c-1 2 1 4 3 3 5-3-3-7-3-11l2 1 2-2v-2l-1 1v1l-1 1-2-3v-3c1 1 2 2 3 1 2-1 2-3 1-5-1 0-2 1-1 2l-1 2-2-1v-4h1c2 0 3-2 1-3-1-1-2 0-1 1v1h-1l-1-3c-1-2-3-4-6-5h3c4 0 8 5 10 9 2 5 1 10 1 15-1 4 0 8 3 11-5 1-9-1-13-3zm8 34c-1-1-3-1-4 1s3 5 4 2c0-2-2-2-3-1 0-2 3-2 4 1s-2 6-5 7l-1 1c-6-8-1-16-3-25-1-5-5-11-10-12-6-1-12 3-13 8-2 6 0 12 3 18 3 5 9 11 16 12 14 4 16-7 16-8s-2-4-4-4zm-24-23 1 11c0 2 2 3 4 1v-6l-3-7c6 3 5 12 4 17l1 6-7-8v-14zm4 30c-7-5-12-15-10-24 0-3 2-5 4-6v9l-1 1-1-1h-1c0 2 1 3 3 2l1 1-1 3h-1l-1 1h3v-1l1 2 1 2-1 1-1 1h3v-1l2 1v4c-1 0-2 1-1 2s2-1 3-2v-2l3 2c1 0 1 0 0 0v1l2 2-2 1v-4l-1 2c-2 2 1 4 3 3 5-3-3-7-3-12v1l2 1c2 0 2-1 3-2l-1-2v2h-2l-2-2 1-3c0 1 2 2 3 1 2-1 2-3 1-5l-1 1-1 3-2-2v-3h1c2 0 3-3 1-4l-1 1v1h-1l-1-2c-1-3-3-5-5-6h2c5 1 8 6 10 10v14c-1 5 0 8 2 12-4 1-9-1-13-4zm5-4v-1 1zm-18 40zm0 0h-1v1l1-1z" class="stb"/><path d="M569 245h-4c-2 2 2 6 3 4 1-3-2-3-2-2 0-2 3-1 3 1 1 4-2 6-5 7h-2c-4-8 2-16 1-25 0-5-3-11-9-13-5-2-12 1-14 6-3 5-1 12 1 18s7 12 14 15c13 6 16-5 16-6 1-1 0-4-2-5zm-21-26v11c0 2 2 3 3 2 2-1 1-5 1-6 0-3 0-5-2-7 6 3 4 12 2 17v5c-3-2-4-5-5-8v-7l1-7zm0 30c-6-6-10-17-7-25 1-3 3-5 6-6l-1 4-1 4v2h-1l-1-1h-1c0 2 1 3 2 3l1-1v2l-1 2-1 1h-1c0 1 1 2 2 1l1-1 1 2v2l-1 1c-1-1-2 0-1 1h3v-1l2 2v2l-1 2c-1-1-2 0-1 1s3 0 3-1l1-2 2 2h1l-1 1 1 3h-1v-4l-1 2c-2 1 1 4 2 3 6-2-2-7-1-11l2 1c1 1 2 0 3-1v-2c-1-1-2 1-1 1l-1 1h-1l-1-3v-3c1 2 2 2 4 2 1-1 2-3 1-5l-1 1-1 2c-1 1-2 0-2-1v-4l2 1c2 0 3-2 2-4l-2 1v1h-1l-1-3c0-2-2-5-4-6h2c5 2 7 7 8 11 1 5-1 10-2 15-1 4-1 8 1 12-5-1-9-3-12-7zm-2 34c-2-1-4-2-5 0-1 1 1 6 3 3 1-2-2-3-2-2 0-2 3-1 3 2 0 4-3 6-6 6h-2c-3-9 4-16 4-24 1-6-1-12-6-15s-12-1-15 4c-4 5-3 12-2 18 2 6 6 13 12 17 12 7 17-3 17-4 1-1 0-4-1-5zm-20-18c0 2 2 3 4 2l2-6-1-7c5 4 1 13-1 18l-1 5c-2-3-4-5-4-9l1-7 2-7c1 4-2 8-2 11zm9 27c-4-1-8-4-11-8-5-7-8-18-3-26 1-2 3-4 6-4l-1 3-1 3-1 3h-1l-1-2-1 1c0 1 1 3 2 2h1l-1 2-1 2h-2c0 1 1 2 3 2l1-1v4h-2l-1 1c1 2 2 2 3 1l1-1 1 1v3l-1 2h-2c2 2 3 1 4 0v-2l2 3h1v-1 4h-1l1-2-1-1-1 1c-2 1 0 4 2 4 6-1-1-8 1-12l2 2h2v-3l-1 1v1h-1l-2-3 2-2c0 1 1 2 3 1 2 0 3-2 2-4-1-1-2 0-2 1 1 1 0 2-1 2l-1-2h-1l1-4 2 1c1 1 3-2 2-3s-2 0-2 1v1l-1-1v-2c0-3-2-6-4-7h3c4 2 6 8 6 12 0 5-2 10-4 14s-2 8-1 12zm-5-11zm-28 33h-1l1 1v-1z" class="stb"/><path d="M513 317c-2 2 0 7 2 4 1-2-1-3-2-2 1-2 4 0 3 2 0 4-4 5-7 6h-1c-3-10 5-16 6-25 1-5-1-12-6-15-4-3-11-1-15 3a28 28 0 0 0 7 35c12 9 18-1 18-1 1-2 0-5-1-6s-3-2-4-1zm-11-16c2-1 3-4 3-6l-1-7c5 5 1 13-2 18l-1 5c-2-3-3-6-3-10-1-2 0-4 1-7l3-6c0 4-3 7-3 11 0 2 2 3 3 2zm-6 16c-5-7-7-18-2-26l7-4-2 4-1 3-1 2h-1v-1h-2c0 1 1 3 2 2h1l-1 2-1 2h-2c-1 1 1 2 2 2l1-1v4h-1c-1-1-2 0-2 1 1 1 3 2 4 1v-1l1 2v3l-1 1h-2c1 2 3 1 4 0v-2l2 3h1c0 1 0 1 0 0v4h-1v-2l1-1-1-1-1 1c-2 2 0 5 1 4 6 0 0-7 2-11l2 2h3v-3l-1 1-1 1h-1l-1-3 1-3 3 2c2 0 3-2 2-4l-1 1c1 1 0 2-1 2l-2-2v-1l1-3 2 1c1 1 3-1 2-3 0-1-2 0-1 1v1h-1l-1-3c0-3-1-6-3-7h3c4 3 5 8 5 13s-3 9-5 13-3 8-2 12c-4-1-8-5-10-9zm-13 37c-1 2 0 7 2 5s-1-4-1-3c0-2 3 0 3 3-1 3-5 4-8 4h-2c-1-9 8-15 10-23 1-6 0-12-4-16-5-4-12-3-16 1-4 5-5 11-5 17 0 7 4 15 9 19 10 10 17 1 17 0v-5c-1-2-3-3-5-2zm-7-30c0 4-3 7-4 10 0 2 1 4 3 3 2 0 3-4 3-5v-7c5 4-1 12-4 16l-2 5-2-9c0-3 2-5 3-7l3-6zm-10 29c-3-8-4-20 2-27 2-2 4-3 7-3l-2 3-1 3-2 2h-1v-1h-1c-1 1 0 3 1 3h1v1l-2 2-1 1v-1h-1c-1 1 1 2 2 2l1-1v2l-1 2-1 1h-1c0 2 2 2 3 1l1-1v5s-1 2-2 1c0-1-2 0-1 1h3l1-2 2 3h1-1v4h-1l1-2v-2l-2 1c-2 1 0 4 1 4 6 0 1-8 3-11l2 2h2c1 0 2-1 1-2s-2 0-1 1h-2l-1-3 2-2c1 1 1 2 3 2s3-2 3-4c-1-1-2 0-2 1l-1 1c-1 0-2-1-1-2h-1l2-4 1 2c2 0 3-2 3-3h-2v1h-1v-3c0-3 0-5-2-7l2 1c4 3 5 8 4 13s-4 9-7 13c-2 3-3 7-3 11-4-1-8-5-10-9z" class="stb"/><path d="M473 350h-1l1 1v-1zm65-237-3 3v2l2 5h-2l-1-3-2 7 1 1-2 3-2 10h1c-1 7-4 12-8 22h-2l-3 8-2 5h-1l-4 9c1-1 2 0 1 1l-2 1-3 5h1v2h-2l-12 19 2-1 1 1v1l-4 6-1 1-1 1-4 1a282 282 0 0 1-15 20h1v1l-4 4v2l-19 13-11 10 3-1h1l-1 1-8 4c-30 24-58 38-75 45-2 1-2 2-2 3 1 2 2 2 4 2 21-9 76-36 120-89 32-37 52-80 62-128l-3 2-1 1z" class="stb"/><path d="m458 255-2 2a129 129 0 0 0 2-2zm64-91c4-11 7-16 8-23h-1l-9 22 2 1zm11-36-1-1-1 4 2-3zm-18 48 2-5-3 5h1zm20-53c0 1 2 1 2-1l-2-4-1 2 1 3zm-24 63c1 0 0-2-1-1l-1 2 2-1zm28-73h-1 1zm-32 81v-2h-1l-1 2h2zm-16 28v-1l1-1 4-6v-1l-1-1-2 2-7 9 4-1h1z" class="stb"/><path d="M443 288v1h1a305 305 0 0 0 106-186l-1 1a304 304 0 0 1-106 184z" class="stb"/><path d="M476 281h2c47-51 74-113 80-185l-2 2a302 302 0 0 1-80 183z" class="stb"/><path d="m439 415 2 3 1 1-2 1c-9-8-12-22-10-34a113 113 0 0 1 19-40l1 1c10-15 23-33 37-50 22-30 46-61 56-85 13-30 25-77 28-127l-4 4c-3 47-14 93-27 121-10 24-34 55-56 85-26 33-50 65-54 85-5 20 1 38 16 46l3-3c-4-2-8-4-10-8zm21-9 1 2 2-1c1-2 3-3 5-2l3-2-2-1c-3-2-7 0-9 4z" class="stb"/><path d="M439 415c-3-5-2-13 0-18 2-8 9-13 14-19 4-5 6-11 5-17 0-5-4-12-8-14-9 13-15 25-17 34-2 11-2 25 6 34z" class="stb"/><path d="M448 348c-8 11-16 24-18 38-3 12 1 26 10 34h1v-2l-2-2c-8-10-9-24-6-35 2-9 8-21 17-34h-1c-1-1-1 0-1 1zm27-66v-1l1-1c-2-3-3-7-7-4l-3 6-2 7-4 9 1 1 14-7c3 0 6-1 7-4 2-4 0-8-4-8l-1 2h-2z" class="stb"/><path d="M476 281v-1l-1 1v1h2l1-1h-2zm-34 9v-2h1c-1-3-2-7-6-4l-4 5c-2 2-2 5-3 7l-6 7 1 2c5-3 10-4 15-4 3-1 6-1 8-4 3-4 1-8-4-8l-1 1h-1z" class="stb"/><path d="M443 289v-1h-1v2h1l1-1h-1zM87 666l4 5c5 2 5-1 6-4l-1-1v-1h1c5 0 7-5 4-9-2-2-5-2-8-2l-10-1-2 4 2 3 4 6zm32-11h1l2 1c4-1 5-5 2-8-2-2-6-2-8-2-6 1-10 1-16-1l-1 2 7 6 4 6c2 2 3 4 5 4 5 2 5-2 5-6l-1-1v-1zm339-348 1-1v-2l-2-2h-2l-1 2v2c1 1 2 2 4 1zm-6 6v-4h-4v4h4zm-19 20v-4l-1-1-3 1v3c1 2 3 2 4 1zm6-7v-4h-3v4h3zm7-6v-4l-1-1-3 1v4h4zm-23 19a3 3 0 1 0 3-4h-3v4zm-3 6v-3l-1-1h-3v4h4zm-7 7 1-1v-2l-2-2h-2l-1 2v2c1 1 2 2 4 1zm8-40 1-1v-3l-2-1h-2l-1 2v2c1 1 2 2 4 1zm-8 5c1-1 2-3 1-4l-2-1h-2c-1 1-2 2-1 4l4 1zm-8 4c1 0 2-2 1-3l-2-2-2 1c-1 0-2 2-1 3 1 2 3 2 4 1zm-7 1-1-1h-3l-1 4c1 1 3 2 4 1s2-2 1-4zm-9 4h-2l-2 2v2c1 1 3 2 4 1l1-1v-3l-1-1zm29-78 1-1v-3l-1-1h-2l-2 2v2c1 1 3 2 4 1zm-11-4c1 1 3 0 4-1l-1-4h-1l-3 1c-1 2 0 3 1 4zm-4-6v-3l-4 4c1 1 3 0 4-1zM176 543c1 1 3 0 3-2 1-1 0-2-1-3h-1l-2 4 1 1zm9 1c2 0 3-1 3-3a3 3 0 0 0-3-2c-2 0-3 1-3 2l3 3zm10-1 1-2v-2l-2-1h-2l-1 1v2c1 2 2 2 4 2zM48 716zm2 4 3-2c1-1 0-3-1-3-2-1-3 0-4 1l2 4zm27 2 2-4-2-1h-1c-2 0-3 1-2 3l3 2zm-9 1c1 0 2-1 2-3 1-1 0-2-1-2l-1-1c-2 0-3 2-3 3 0 2 1 3 3 3zm-9-1 3-2-2-3c-2-1-3 0-3 2-1 1 0 3 2 3zm27-4v-4l-1-1-2 1c-1 0-2 2-1 3 1 2 3 2 4 1zm3-6c1 1 3 0 3-1v-4h-1l-3 1c-1 1 0 3 1 4zm4-8c1 1 3 0 3-2 0-1 0-2-2-3l-3 2c-1 2 0 3 2 3zm2-9 2-1v-2l-2-2h-2l-1 2v2c0 1 2 2 3 1z" class="stb"/><path d="M46 725c14 6 30 6 41-1 7-4 12-11 15-18s2-15-2-22c-2-3-6-6-10-7l-1-1c-5-1-10-1-13 2-2 1-4 3-4 5-1 2-1 5 1 7 1 2 4 3 7 2v-2h-4l-2-1-1-5 4-5c3-2 7-2 11-1 5 2 8 4 10 7 4 7 5 14 2 21-2 7-7 13-14 17-11 6-26 6-39 0h-1l-1 1 1 1z" class="stb"/><path d="M97 667c14 6 21 21 17 39-4 22-20 36-40 37-11 0-22-2-33-8v2c10 6 22 8 33 8 21-1 38-16 42-39 4-19-3-35-18-41h-1v2z" class="stb"/><path d="M97 665h-1l1 2v-2zm-14 95c25-1 48-22 53-50 4-19 5-40-14-54h-1v1c17 13 18 30 13 53-5 26-27 47-51 48-16 0-32-4-45-13v2c13 9 29 13 45 13z" class="stb"/><path d="m122 656-1-1h-2v1l2 1 1-1zm-4 105c23-15 37-35 41-59 3-21-3-41-11-55v1h-1c7 13 13 33 10 54-4 23-17 42-40 58a63 63 0 0 1-63 5l-18-11-1 1c6 5 12 8 19 11 16 7 40 12 64-5zm-24 37c10-11-15-22-27-26v1c2 13 15 40 27 25zm-22-22c11 3 21 14 16 18-4 5-14-4-17-16 2 3 8 15 12 11s-8-11-11-13zm27-4v1c9 10 34 26 37 7 3-14-25-11-37-8zm30 8c-2 6-15 4-24-5 4 2 15 9 16 3 2-5-12-5-15-5 11-3 25 1 23 7zm-3-22 1 1c13 4 42 5 35-13-5-13-27 3-36 12zm7 0c4 0 17 0 15-6-1-5-13 2-15 4 7-8 21-12 23-6 2 5-10 11-23 8zm18-28h1c13-2 41-12 27-26-10-10-23 14-28 26zm6-3c4-2 16-7 12-12-4-4-11 7-13 10 4-11 15-20 19-15s-5 14-18 17zm23-61c-13-7-18 20-19 32l1 1c12-6 35-24 18-33zm-14 28c3-3 13-12 8-15s-9 10-10 13c0-11 9-23 14-19 5 3-1 15-12 21zm-1-64c-14-2-11 25-7 37h1c10-9 25-34 6-37zm-4 31c2-4 8-15 3-16-6-1-5 12-5 15-3-10 0-24 6-23s5 15-4 24z" class="stb"/><path d="M143 641h1l4 7c0-14-8-42-23-30-10 9 10 24 22 30l-4-5v-2zm-12-18c5-4 13 6 14 19-1-3-5-16-10-13s6 12 8 14c-10-4-17-17-12-20z" class="stb"/><path d="M148 648a44 44 0 0 0-4-7h-1v2l4 5v1l1-1zm244-402 1-2m80-4 3-4h-1c-27 17-54 21-76 11l-6-3-1 1 7 4c21 9 47 6 74-9z" class="stb"/><path d="m476 236-4 4 4-2v-2zm-18 19 6-6a77 77 0 0 1-51 15c-11-1-21-4-30-10l-2 2c10 5 20 9 32 10 16 1 31-3 45-11z" class="stb"/><path d="m467 249 1-1 4-3v-2h-1l-7 6-6 6 4-2 5-4zm-18 14 7-6a80 80 0 0 1-82 6l-1 1a80 80 0 0 0 77-1z" class="stb"/><path d="M468 249v-1l-6 5-6 4-7 6c7-3 13-8 19-13v-1zm-1 0zM221 518h1c3 4 8 3 9-3l-4-7-8-13h-2l-1 9-2 7c-1 2-2 5-1 7 2 5 5 3 7 1l1-1zm23 10 1 1v2c4 2 7 0 7-5 0-3-2-5-4-7-4-4-7-7-9-12h-2v10l-2 7v6c3 6 6 2 9 0l-1-1 1-1zm-50 21c7-3 13-9 15-16 1-4 1-9-1-13-3-5-6-8-10-9h-7l-4 9 3 3 1-1v-1c-2 0-3-2-3-4 2-4 6-6 9-5 4 1 7 4 9 8s2 9 1 12c-2 7-7 13-14 16-6 3-14 3-21 1l-1-1-1 2h1c8 3 16 2 23-1z" class="stb"/><path d="M204 560c16-10 23-26 18-42l-2 1c5 14-1 30-17 39-13 8-28 10-40 5l-1 2c13 5 28 3 42-5z" class="stb"/><path d="m222 518-1-1-1 1v1l2-1zm-8 59c18-10 33-23 31-46l-1-1h-1c3 22-10 34-30 46a61 61 0 0 1-58 2l-1 2c18 9 41 9 60-3z" class="stb"/><path d="M245 531v-2l-1-1-1 1v1h1l1 1zm188-254 5-4c-14 7-45 9-72-2l-1 1c24 10 52 10 68 5z" class="stb"/><path d="M442 272h-2l-2 1-5 4 8-4 1-1zm-167 88-1 1h-1v1c6-1 11 0 15 3l-4-1c-4 0-9 0-13 2l-2 3c6-4 17-4 23 0l2 1 2 3c4 6 2 14-2 20-9 12-30 11-38 0l-1 2c1-1 3 0 2 1l-1 1 3 2 4 3v-1c1-1 2 0 2 1l5 2 2-1v1l10-1v-1h2l3-1 4-3c-1 0 0-2 1-1l5-5v-2h1l2-8c-1 0-2-1-1-2h1v-1l-2-7h-1c-1 1-2-1-1-1h1v-1l-9-7-1 1-1-1v-1c-3-2-7-2-11-2z" class="stb"/><path d="M272 393c9 2 18-6 17-15-1-4-4-6-8-6-5 0-7 4-5 6 1 1 2 1 2-1-1-3 11-1 8 6-1 4-5 6-9 7-8 2-13-5-12-12l-3 5c1 4 4 8 10 10z" class="stb"/><path d="m296 353 1-6-2-4c-1 1-2 1-2-1l-1 1 1 1c3 4 1 8-1 12l-3 3c0-4 1-8-2-11l-1 1c3 3 1 10 0 13l2 1c3-4 8-10 12-5 3 4 0 10-3 12l1 2 4-2 3-1c2-1 4 0 5 2s1 7-2 8l-8 1v2c4-1 8-2 11 2 2 1 1 4 0 6l-6 3c-2-1-5-3-8-3v2c4 1 10 3 11 8 1 3-3 5-5 5l-6-2h-1c-1-2-2-5-4-6l-2 1h1c3 2 5 6 5 10 0 2-1 4-3 5-3 1-5-2-8-4l-1-7-2 1c1 3 2 7 0 10-1 2-3 3-5 3-2 1-4-2-6-5 1-2 2-5 1-7h-2v5c-1 3-2 5-4 5-2 1-4-1-4-2v-3l2-7h-1l-3 6c-3 3-10 4-9-3 0-3 3-6 5-8l-1-2-1 2-5 9v3l3 3-1 2c-2 1-5 2-7 1l-1 2 8-1-1 2 1-1v5c1-1 3 0 2 1v1l2 1c2 1 7 1 8-1l2 2v-1l2 2 1 1h1c3 0 5-1 6-3 2 2 4 3 7 3-1-1 1-2 1-1l1 1h1l1-1 3-4 3 2c3 1 5 0 6-1 0-1 1-2 2-1v-1c-1-1 0-3 1-2v1l1-4c3 1 5 1 8-1l1-2v-1l1-1 1-1h-1s0-3 1-2l-1-5c4 1 7 0 9-4h-1l1-2v-1l-1-2h1l-1-1-2-3 1-1c2 0 4-2 5-4v-3h-1v-2h1l-1-1h-1l-1-2-4-2c3-3 4-6 2-9v-1h-1c-1 1-2-1-1-1h1l-1-1-1-1-7-2c2-2 2-5 0-8v-1 1c-1 0-2-1-1-2l-1-1v1c-1 1-3 0-2-1-3-1-7 1-9 3zm-33 69c-2 3-7 2-8 1-4-2-3-7-1-11 2 1 5 0 7-2 0 3 0 5 2 5v7zm6 4c-5-1-5-6-4-10 3 0 4-1 6-3 1 3 2 4 5 5 0 4-3 9-7 8zm8-3v-5l4-1 4-4 2 9c1 5-9 6-10 1zm24-6c-1 4-6 10-10 5-3-2-4-6-5-9l6 2 4-3 5 4v1zm8-3c-4 4-9 0-12-3l1-6c2 1 4 2 7 1l4-2 1 1c3 3 1 7-1 9zm9-20 1 4c0 5-6 6-9 4 0 0 1-4-3-8a9 9 0 0 0 6-4c3 1 5 3 5 4zm5-9-4 4h-6l1-5-4-4 2-2h1l3-1c3-1 7 4 7 8zm-6-19c3 4 0 9-5 10v-6c-1-2-3-4-6-4l-2 1 5-4c3-1 7 2 8 3zm-8-11c1 5-3 8-7 11 2-3 1-7-1-10l-4-2c4-3 10-5 12 1zm-39 48h2-2z" class="stb"/><path d="m255 395 1 2 1-1c1-1-1-2-2-1zm8 6 2 1c0-1-1-2-2-1zm11-40zm8 41h2-2zm9-4 1-1c-1-1-2 0-1 1zm-4-35h1l-2-1 1 1zm13 19v-2 2zm-3-11c-1 0 0 2 1 1l-1-2v1zm0 20 1-1h-1v1zm-45 62-1 1c4 0 7-4 9-6 4-6 7-14 7-21l-2-1c0 5-1 11-4 16-2 4-6 7-10 5-4-1-6-6-5-10l7-13-1-2c-3 5-12 20-9 27h1c0-2 2-1 2 1l-1 2 3 2 1-2c1-2 3-1 3 1z" class="stb"/><path d="m252 422 1 2v-1c1-1-1-2-1-1zm13 4 2 1c0-1-2-3-2-1zm40 24v1l1-7c1-5 0-10-2-15l-3-4-1-2-1 1c3 4 5 9 6 14 0 5-2 10-6 11s-8-2-10-6l-2-16-2 1c1 7 2 28 13 28l-1-2c0-2 2-3 3-1l1 2 2-1v-1c-1-1 1-4 2-3z" class="stb"/><path d="m299 424 1-1c-1-1-2 0-1 1zm-14 4 2-1c-1-1-2 0-2 1zm42 8-1-6c-2-7-8-14-14-18l-1 1c5 4 8 7 11 12 2 4 1 9-2 12-3 2-8 1-11-2l-8-15-1 2 1 3 3 4c4 8 11 18 18 15l-2-2c-1-1 1-3 2-2l2 2c1-1 2-1 2-3l-1-1c-1-1 1-2 2-2z" class="stb"/><path d="m300 422 1-1v-1l-1 2zm11-8 1-2c-1 0-2 1-1 2zm-10 11zm43-9-4-7c-4-6-12-9-19-11v2c5 1 10 3 14 6s5 8 3 12-7 5-11 3l-12-10-1-1-1-1v2l1 1c5 5 20 19 28 12l-4-2c-1 0 0-3 2-2l4 2v-1l1-2h-2c-1-1 0-4 1-3zm-32-5h1v-2c-1-1-1 2-1 2z" class="stb"/><path d="M320 400h1v-2l-1 2zm27-13h1l-3-2c-6-4-14-5-21-4v2c5-1 10 0 15 1 5 2 8 6 7 10s-5 7-9 6l-16-5v2c7 2 26 11 31 2h-3c-2 0-1-3 0-3h4v-1l-1-4h-1l-4-4z" class="stb"/><path d="M324 383v-2c-2 1-2 2 0 2zm-3 14v-2h-1l1 2zm25-36-7-2c-7-1-15 2-21 5l1 2c4-3 9-4 14-5s9 2 10 6-2 8-6 9c-5 2-10 2-15 2h-1l2 2c7-1 25-1 27-11l-1 1c-1 0-2-2-1-3h2v-2l-1-2-2 1c-1 0-2-2-1-3z" class="stb"/><path d="M322 380h1l-2-2 1 2zm-4-14h1l-1-2-1 1c-1 0 0 2 1 1zm13-28h1-6c-7 2-14 7-18 13l1 1c3-4 7-7 12-10 4-2 9-1 12 2 2 4 1 9-2 11l-15 7v1l1 1c6-3 26-11 23-21l-2 2c-1 2-3-1-2-2l3-2-1-1-3-2-1 1c-1 1-5 0-3-1zm-14 26-1-1 1 1z" class="stb"/><path d="m309 352-1-1c-1 1 0 2 1 1zm4-26c4 3 5 8 3 11-3 5-7 8-11 12l2 1c5-5 19-19 13-27l-1 2c-1 1-3 0-2-2l1-2h-1l-1-1-6 5 3 1zm-18 17 1-4-2 3 1 1z" class="stb"/><path d="m307 350-2-1c-1 1 1 2 2 1zm-14-8c0 1 1 2 2 1l-1-1h-1zm-42 79v-3c-3 5-7 12-11 15-2 3-5 3-7 3l-3 5 7-3c6-3 11-10 14-17zm0-3v3-3zm28 39 4-7c3-7 3-15 1-22h-2c1 5 2 10 1 16-1 4-4 8-8 8-5 0-8-4-8-8l2-16h-1c-2 6-6 24 1 29v-1c0-2 3-2 3 0v2l2 1 2-1v-1c1-1 3-2 3 0zm-11-29h2-2zm14 0h2c-1-2-2-1-2 0z" class="stb"/><path d="M267 479c-3 7-9 11-15 9-6-1-10-7-9-13l8-21h-3c-5 11-17 41 2 44 7 1 12-6 15-10 6-9 8-20 7-30l-3-1c1 8 0 15-2 22zm-16-25 1-2c0-1-2-2-3 0l-1 1 1 1h2z" class="stb"/><path d="M269 456v1l3 1v-2c0-2-3-2-3 0zm-41 21c9-6 14-15 17-25l-2-3c-2 8-5 14-10 20s-12 8-17 4l-3-2-5 9 2 2c6 3 14-1 18-5z" class="stb"/><path d="M244 449h-1l2 3 1-2c0-2-2-3-2-1zm76-126c3-6 8-12 14-16 5-5 13-4 17 0 5 4 4 12 0 16l-20 15h4c11-6 38-25 23-38-5-5-13-2-18 0-10 4-17 13-22 21l2 2zm12 15h-1c-2 1 2 2 3 1l1-1h-3z" class="stb"/><path d="m319 325 1-2-2-2-1 2c-1 2 1 3 2 2zm38 8c7-3 14 0 17 5 3 6 0 13-5 15-7 4-15 6-22 8h-1l3 2c11-3 44-12 34-30-3-6-12-5-18-5-10 1-19 6-26 13l1 2c5-4 11-8 17-10z" class="stb"/><path d="M346 361c-1 1 0 3 2 3l1-1-3-2zm-8-16 2-2-1-2-3 2c-1 1 1 3 2 2zm12 24c7-2 15-4 22-3 7 0 13 5 14 11 0 6-5 12-11 12-7 1-19-1-27-2l3 3c11 2 47 7 45-14-1-7-10-10-15-12-10-2-21-1-31 3v2z" class="stb"/><path d="M348 387h-1l4 3v1c0-2-1-3-3-4zm1-17 1-1v-2h-1c-2 1-1 3 0 3zm23 33c6 3 10 10 8 16s-9 9-14 7c-8-2-15-6-22-10l1 3c10 6 39 22 45 3 1-7-5-13-10-17-7-5-17-8-27-9l-1 3c7 0 13 2 20 4zm-28 13c-1-1-2 2-1 3h1v-3z" class="stb"/><path d="M349 399h3l1-3h-4c-1 0-2 3 0 3zm8 36c5 6 6 13 2 18s-12 5-16 1c-6-5-11-12-16-18l-1 3c8 10 29 36 41 20 4-5 0-13-2-18-5-9-13-15-22-20l-1 3c6 3 11 7 15 11z" class="stb"/><path d="M327 436c-1-1-3 1-2 2l1 2 1-4zm11-14 4 2 2-2-4-2c-2-1-3 2-2 2zm-4 39c3 7 1 14-4 17-6 3-13 1-16-4-4-6-7-16-9-23l-2 3c4 11 15 44 32 33 6-4 5-13 4-18-2-10-7-20-15-27l-2 2c5 5 9 11 12 17z" class="stb"/><path d="M305 450c-1-1-3 2-2 3v1l2-3v-1zm16-8 1 2 2-2-2-1c-1-1-3 0-1 1zm-19 35c1 7-4 13-10 14-7 0-12-4-13-10v-24l-3 1c0 12-2 46 17 42 7-1 10-9 11-15 2-10 1-21-3-30l-3 1c3 6 4 13 4 21z" class="stb"/><path d="m297 454 1 2 3-1-2-2c0-2-3-1-2 1zm-18 3c0-2-2-1-3 0v1l3-1z" class="stb"/></g></g><g id="leftLeave"><path d="m1370 197-3-3c1 8-5 17-12 20-3 1-5 1-6 5l-1 3c-1 2-3 4-6 5-3 2-7 2-10 1a282 282 0 0 0 11 13c27 17 54 21 75 12 3-1 5-2 6-4l-5-5c-1 1-3 1-4-1v-3m-43-15-2 2-4 3a33 33 0 0 1-19 2l-4-2 4 1a31 31 0 0 0 16-6l3-3h2l3 1 1 2zm10 10-2 2-8 2-12-1-16-5 16 1 11-2 5-2h3l2 1c1 1 2 2 1 4zm12 15c-1 1-3 3-5 3l-11-2-17-5-16-8-7-5 8 3a129 129 0 0 0 34 5l8-1 4 1 3 4c1 2 0 4-1 5zm9 2c0 1-2 2-3 1l-2-1v-2l2-1h2l1 1v2zm8-2-4-1c-1-2 0-3 1-4 2-1 3 0 4 1s0 3-1 4z" class="stc"/><path d="m1354 254-9-9c26 15 53 19 74 9l7-3 9 9a75 75 0 0 1-81-6zm-40-62 6-4v-8c5 0 11-2 11-8 1-3-1-5-3-7l3-2 6 5c3 7-5 14-13 15l-1 1c1 3 1 7-1 9-3 3-7 5-10 5l-3-5 5-1zm207 161 1 5c-2-2-6-4-10-3l-10-13c-2-3-1-8 2-10l3-2 15 15 1 3-2 5z" class="stc"/><path d="m1380 279-12-10a83 83 0 0 0 77 1l6 6c-26 11-57 9-71 3z" class="stc"/><path d="m1362 263-2-3c13 8 29 12 45 11 11-1 22-4 31-10l8 7a81 81 0 0 1-82-5zm-56-82c1 2 3 3 5 2s3-3 3-5l-2-2 2-2c3 3 7 8 5 12-2 3-4 4-6 4h-5l-5-9 3-1v1zm-85-101c1 1 4 0 4-3l-1-1h3c0 2 1 3 2 3v-2h-1l5 1-6 3c-5 2-10 3-14 1 3-3 5-5 6-9l3 1c-2 2-3 3-1 6zm62 43v-2l1 1-1 1z" class="stc"/><path d="M1222 79v-1l2-2-1 1-1 2zm-10 2-2-1c-2-2-4-5-2-8l3-2 1 1v1c0-1-3-2-3 1 0 2 4 0 5-2l3 2c-1 3-2 6-5 8zm559 647h1l-2-6-2 3c-1 0-3 0-3-2-1-1 0-3 1-3 1-1 3 0 3 1-8-21-19-41-32-59l-2 3-4 7-4 5c-5 2-5-2-6-5-14 6-21 21-17 39 4 22 19 37 40 37 11 1 22-2 32-7l-4-11c-14 7-30 6-42-1-7-4-12-10-14-17-3-8-2-15 2-22 2-3 5-6 9-8h2c5-1 10-1 13 1 2 1 4 3 4 6 1 2 0 4-1 6-1 3-4 3-7 2v-1h4l2-2v-5c0-2-1-3-3-4-3-2-7-2-12-1-4 1-8 4-10 7-3 6-4 13-2 20 3 7 8 13 14 17 12 7 26 7 40 0zm-45-28-4 1-1-2v-2l2-1h2l1 1v3zm-1 10c-2 0-3-1-3-2-1-2 0-3 1-3l1-1 3 2-2 4zm4 7c-1 1-3 1-4-1-1-1 0-2 1-3l1-1c1 0 2 0 3 2 1 1 0 2-1 3zm7 6h-4c-1 0-2-2-1-3l2-1h2c1 1 2 2 1 4zm8 2c0 2-2 3-3 2-2 0-3-2-2-3l1-2h2c2 0 2 2 2 3zm9 1c0 1-1 2-3 2l-3-2c0-2 1-3 2-3h1c2 0 3 1 3 3zm6 1c-1 1-3 0-3-2l2-3c2 0 3 1 3 2 1 2 0 3-2 3zm-412-550-8-2 1-5m-116-95c-1 0-1 0 0 0zm89 124c3 7 7 14 12 20 3 2 7 3 11 1 5-1 8-6 7-11l1-1c9 0 16-8 14-17-1-3-8-13-20-15-2 4-8 7-13 8 1 4 1 7-2 10-2 3-7 5-10 5zm34-7-7-3-7-5 8 4 6 4zm-10 4-8-8a79 79 0 0 1 18 16l-10-8zm-10-2 5 6c2 1 3 3 4 6l-5-5-4-7zm3-21c-2 4-7 6-11 5l-4-5 1-2c1 1 3 2 4 1a4 4 0 0 0-1-8v-1c5 1 13 5 11 10zm187 189c-3 3-3 6-2 9-3-2-7-6-6-11 2-6 8-4 12-1l-4 3zm-206-211c3 10-2 20-11 23l1 3-4-9c6-3 8-9 6-15-2-5-8-8-14-7l-2-9 1 4c9-4 19 1 23 10zm11 7 2-1 6 5-4 2-6-3v-3h2zm-33-32c-2 1-3 4-2 5v1l-2 1-1-7 1-3 4 3zm357 428h1l-4-7-1 1c-2 1-3 0-4-2l2-3h1l-10-18-3 3-1-1v-1c2 0 3-2 2-4-1-4-5-6-8-5-4 2-7 4-9 9-2 4-3 8-1 12 2 7 7 12 13 15 7 3 15 3 22 1zm-19-7c-1 1-3 2-4 1l-1-1v-3l1-1h2l2 2v2zm8 0-2 2c-2 0-3-1-3-2a3 3 0 0 1 3-3c1 0 2 1 2 3zm-58-108-10-15v-3c3 1 5 2 8 1l10 19c-2 1-5 0-8-2z" class="stc"/><path d="m1566 428 1-2c3 7 8 14 14 17 2 2 4 3 7 3l16 31-2 2c-5 3-12 1-17-4-5-6-9-13-11-20 4-8-5-22-8-27zm-44-10 4 2 5-2c0 3-2 8-4 10-4 4-9-2-10-6l5-4zm-4-34v1l-8-1c-4 0-4-6-2-8 1-2 2-3 4-2l4 1 4 2-1 1-1 6z" class="stc"/><path d="m1534 407-2 7c-2 3-5 6-8 4l-2-5c0-4 2-7 5-10l4 3 3 1zm-13-31c-4-3-7-9-4-13 5-5 10 1 12 5-3 2-6 4-8 8zm4 26-4 6-6 2c-3 0-6-2-6-5 2-5 7-7 11-8h1l4 5zm7-35c-1-3-3-10 0-12l11 10-11 2zm-59 24-4 2-26 2c-6-1-11-6-11-13 1-6 6-11 14-11 7 0 15 1 22 4 1 9 20 10 27 10l-1 2c-7-1-15 0-21 4zm32 27c-6 4-11 10-13 17l-1 7c-5 6-10 13-16 18-5 3-12 3-16-2-4-4-4-12 1-17s10-9 16-12c8 7 23-7 28-11l1-1v1zm13 10-2 2 2-2zm-7 21 2 8-9 23c-4 5-10 7-16 4-5-3-7-11-4-17 3-7 7-13 12-18 7 3 14-6 18-14-2 4-3 9-3 14zm47 4c2 3 5 6 9 6l8 21c1 6-3 12-9 14-6 1-12-3-15-10l-3-21c8-5 3-24 2-30h1c0 7 2 15 7 20zm-3-39v3c0 2-2 3-3 3-3-1-4-3-4-6-1-1-2-3-1-5l6-1 2 6zm-43-16c-2 0-4-1-5-3s-2-4-1-6c3-3 8-3 11-2h1l2 8-8 3zm22-28h-4c4-2 9-3 15-3l2 4c-4-1-9-2-13-1z" class="stc"/><path d="m1529 365-4-4h1c-2-4-4-8-1-12l1-1 5 5c-3 3-3 8-2 12zm32 37c2 3 5 5 6 9 0 6-6 6-10 2l-2-6 4-3 2-2zm-37-4c-4-6-6-14-3-20l3-3 2-1c6-4 17-4 23 1l4 8c1 7-5 14-13 12-3 0-7-3-8-7-3-7 9-8 8-5 0 1 1 2 2 1 2-2 0-7-5-7-4 0-7 2-8 7-1 8 8 16 17 14 6-2 9-6 10-10l6 10c-8 12-29 13-38 0z" class="stc"/><path d="M1546 409v7c-2 3-4 6-6 6l-4-4c-3-3-2-7 0-10l10 1zm-12 46 5 7v24c-1 6-7 11-13 10s-11-7-11-14c1-7 2-14 5-21 11 0 12-21 13-28h1c-2 7-2 15 0 22zm-42-111-6-1c-6-4-14-9-19-15-5-4-5-11 0-16 4-4 11-4 17 0 6 5 10 10 14 16-6 8 8 22 13 27l-1 1c-5-6-11-10-18-12zm5 60c-7 1-15 5-19 10l-5 8-21 10c-5 1-12-2-14-8s1-12 8-15c6-3 13-5 20-5 5 9 24 1 30-2h1v2zm50 14c1 2 3 4 5 3h1c1 4 1 9-4 10-4 2-7-3-7-8 2 0 4-2 5-5z" class="stc"/><path d="m1508 366-6 2-15-8c-3-2-4-7-2-10 2-4 7-5 12-2l12 9-1 1c-2 3-1 6 0 8zm55 35v-1l1 2-1-1z" class="stc"/><path d="M1500 370c-6-4-14-6-21-6l-8 3v-1l-22-7c-6-3-8-10-5-16 2-5 10-7 16-5 7 3 13 6 18 11-3 10 16 17 23 20l-1 1zm57 46 7 2c2 3 3 8-2 11-1 0-5 1-7-1l-1-7c2-1 3-3 3-5zm-52-20 1 1 5 3c-4 3-3 7-3 7-4 2-9 1-10-3l2-5 5-3zm-4-14 4 1h1l2 2-4 4v5h-5c-2-1-4-2-4-4 0-3 4-8 6-8zm8 27 4 3 7-2v6c-2 3-7 7-11 4-2-3-4-7-2-10l2-1zm24 9 4 4 3 1 1 5c-1 5-12 5-10-1l2-9z" class="stc"/><path d="m1500 381-4 2-16-1c-4-1-6-5-5-10 1-4 5-6 10-6l14 5-1 1c-1 3 0 7 2 9zm54 49c2 2 7 2 9 1l2-2 7 14c1 4-1 8-5 10-4 1-9-1-11-6-2-4-3-10-3-16l1-1zm-12 0c1 2 4 4 6 3l3 16c0 4-4 8-8 8s-8-3-8-8c-1-5-1-11 1-16 2 1 5-1 6-3zm-16 1 3-2 2 3-2 17c-2 4-6 6-10 5s-6-5-6-10l6-15c2 2 4 2 7 2zm40-12v-2c1 0 2-1 2-3l1-3 5 9c-3 1-5 1-8-1zm-61-9v5h-1l-1 2-12 9c-4 2-9 1-11-3s-1-9 3-11c4-3 9-6 14-7 2 4 5 5 8 5z" class="stc"/><path d="M1514 372h-3c-2 0-4 1-5 3l-1 6c-4 0-8-6-5-9 2-2 6-5 9-4l5 4zm-20 19a8 8 0 0 0 6 5l-2 3-1 1-16 6c-4 0-9-2-9-7-1-4 2-8 6-9 5-2 10-2 15-2l1 3zm14 30c2 2 5 2 7 1l1 4c-2 5-4 11-8 15-2 3-7 4-10 1-4-2-4-7-2-11 3-5 6-9 10-12l2 2zm-284-319c2-3 6-8 11-7h2l-6 5-2 2h-1l1-1c0-1 0-2-1-1-2 0-1 3 0 3h2l-1 3v1l-2 1-1-3v-1c-2 1-2 3 0 5h3v3l-2 1h-2v-2l-1 2 2 2 3-1c-1 4-10 6-5 10 1 1 4 0 3-2l-1-2 3-1v1c0 2 1 3 3 3 1-1 0-2-1-2v-1l1-3 2-1v1c0 2 2 2 3 1l-1-1c-1 1-1 0-1-1l1-2 1-2 1 2c0 1 2 1 3-1h-2v-5l1 1c1 1 3 0 3-2h-1l-1 1-1-1v-2l1-4v-4l4 7c0 10-8 18-15 22-4 2-10 3-14 2 3-3 4-7 5-11 0-5 0-10 3-15zm5 63c0-5-1-10 1-15 2-4 5-8 10-9h3c-3 1-5 3-6 6l-1 2h-2l1-1-1-1c-2 1-1 4 1 4l1-1v4h-1c0 1-1 2-2 1v-2c1-1 0-2-1-1v4h4v3l-2 2h-1v-1c1 0 0-2-1-1l-1 2 3 1 2-1c0 4-8 8-3 11 1 1 4-1 3-3l-1-1 3-2v2c0 1 1 2 3 1l-1-1c-1 1-1-1-1-1l1-3 2-1v1c1 1 2 2 3 1v-2c-1 1-2 0-2-1l1-2 1-2 1 2 3-1-2-1v1l-1-1v-4h1c1 1 2 0 3-1 0-1-1-2-2-1v1h-1l-1-3 1-3v-4c2 2 4 4 4 7 1 9-5 18-12 23-4 3-9 5-13 4l3-12zm30 84c-2-5-4-10-3-15 1-4 4-9 8-11h3c-3 1-4 4-4 7l-2 2h-1v-1l-1-1c-1 2 0 4 2 4l1-1 1 3-1 1-1 2-1-2-1-1c-1 1-1 3 1 4l3-1 1 3-1 2h-2v-1c1 0 0-2-1-1v2c0 1 1 2 2 1l3-1c0 4-7 9-1 11 1 1 4-2 2-3l-1-2 2-2 1 2c0 1 2 2 3 1s-1-2-1-1l-1-2v-2l1-2 1 1h3c1-1 0-2-1-1s-1 0-1-1v-2l1-2v1c2 1 3 0 3-1h-2v-1l-1-2v-2 1c2 0 3-1 3-3h-1l-1 1h-1l-1-2v-4l-1-4c3 1 5 3 6 6 3 8-1 19-7 25-3 3-8 6-12 6 2-3 2-7 1-11zm-19-42v-15c2-4 5-9 10-9h2c-2 1-4 3-5 6l-1 2h-2l1-1-1-1c-2 1-1 4 1 4l1-1v4c0 1-1 2-2 1l-1-2c1-1 0-2-1-1s-1 4 1 5l3-1 1 3-2 2h-1l-1-1v-1l-1 2 3 2 2-2c0 4-8 9-3 11 2 1 5-1 3-3l-1-1 3-2v2c0 1 2 2 3 1l-1-1v-4l2-2v1c1 2 2 2 3 1s0-2-1-1l-1-1 1-2 1-2v1c1 1 3 1 3-1h-2l-1-3 1-2v1c2 1 3-1 3-2l-1-1c0 1 0 2-1 1h-1v-10c2 2 4 4 4 7 2 9-3 18-10 24-4 2-9 5-13 4 2-4 3-8 2-12z" class="stc"/><path d="M1234 169v2h-1l1-3v1zm0-2v1-1zm20 32c-1 3-3 5-6 7v-5c0-5-1-15 5-17l-3 6v7c1 1 3 0 4-1 1-4-1-8 1-12v8l-1 7zm-8 12-1 2-1-1 2-2v1zm0-2c-1 0-1 0 0 0zm-2-52c-2 4-4 6-7 8l1-6c-1-5-1-14 5-16-2 1-3 4-3 6-1 2-2 5-1 6 2 2 4 1 4-1 2-3 0-7 2-11v7l-1 7zm199 413c5-3 19 1 24 3-7 3-19 8-24 5-2 0-2-2-3-4v-1l3-3zm28 18c-4 6-13 17-18 17l-4-2-1-2v-3c3-6 17-9 23-10zm14 8v1c0 7-1 20-6 24h-5l-1-1c-1 0-2-1-2-3 0-6 10-17 14-21zm-259-476c-1 0-1 0 0 0zm10-12 4-11-2 7c0 3 0 5-2 7-2 3-4 5-7 6l1-5c0-5 1-14 8-15l-4 5c-1 2-3 5-1 7 1 1 3 1 3-1zm-11 15h-1l2-2h-1v2z" class="stc"/><path d="M1226 222s47 111 121 186l2-1c3-1 7 0 9 4l-1 2c-1 1-2 0-3-1 0-1-2-2-4-1l19 18c4-2 8-5 10-8 3-5 2-13 0-19-2-7-9-13-14-19-4-5-6-10-5-17 0-5 3-11 8-14l-37-50c-22-30-46-61-56-85-14-30-25-77-28-126l-13-12c-5 4-10 6-16 6-14-1-13-12-13-13l3-3-140-54s-39 104 158 207zm104 139c1-2 3-3 4-1 2 1 1 6-1 4s0-3 1-3c-1-1-3 0-3 3 1 4 5 5 8 5l1-1c2-9-7-14-9-23-1-5 0-12 4-16 4-3 12-2 15 1 5 5 6 12 5 18 0 7-3 14-8 19-10 9-17 0-18 0l1-6zm-29-38c1-1 3-2 4 0 2 1 0 6-2 4s1-3 1-3c0-1-3 0-3 2 0 4 4 6 7 6h2c2-9-6-16-7-24 0-6 1-12 6-16 5-3 12-1 15 3 4 5 4 12 3 18-1 7-4 14-10 18-11 8-17-2-17-2-1-2-1-5 1-6zm-29-35h5c1 2-1 6-3 4-1-2 1-3 2-2 0-2-3-1-3 1-1 4 3 6 6 7h2c3-9-4-16-5-25 0-6 2-12 7-15 5-2 12 0 15 4a28 28 0 0 1-10 35c-12 8-17-3-17-3-1-2 0-5 1-6zm-23-38c1-1 3-1 4 1 1 1-2 6-3 3-1-2 2-3 2-2 0-2-3-1-3 1-1 4 2 6 5 7l2 1c4-9-2-17-1-26 0-5 3-11 9-13 5-2 12 1 14 6 2 6 1 12-1 18s-8 12-14 15c-13 6-17-5-17-6s1-4 3-5zm-22-38c0-2 2-4 3-5 2-1 4-1 5 1 0 2-3 6-4 3-1-2 2-3 2-2 1-2-3-1-3 1-1 4 1 6 4 8h2c5-8 0-16 2-25 2-5 6-11 11-12 6-1 12 3 13 8 2 6 0 13-3 18-4 6-10 11-16 13-14 4-16-7-16-8zm-11-43c0-2 2-4 3-5 2 0 4 0 5 2 0 2-4 5-4 2-1-2 2-2 2-1 1-2-3-2-3 1-2 3 1 6 4 8h1c6-7 2-16 4-25 2-5 6-10 12-11 5-1 11 4 12 9 2 6-1 12-4 17-4 6-10 11-17 12-14 3-15-8-15-9zm-9-50c0-2 2-4 4-4 2-1 4 0 4 2 1 2-4 5-4 2s3-2 3-1c0-2-3-3-4 0-2 3 0 6 3 8l1 1c7-6 4-16 8-24 2-5 7-9 13-10 5 0 11 5 11 11s-3 12-7 16c-4 6-11 9-18 10-14 1-14-10-14-11z" class="stc"/><path d="M1271 238c-1 4-2 6-5 9v-6c-2-4-4-14 1-17l-1 7c-1 2-1 5 1 6 1 1 3 0 3-2v-11l1 7v7zm-6 16h-2l1-3 1 1v2zm51 66c-1 0-1 0 0 0zm30 39h-1v-3 1l1 2zm1-17c1 4 0 7-1 10l-3-5c-3-4-8-12-4-17l1 7c0 2 1 5 3 5 2 1 3 0 3-2-1-4-4-7-4-11l3 6 2 7z" class="stc"/><path d="M1372 431c10 8 20 16 31 22 0 0 23 236 184 451 0 0 115 131 217 113 0 1 3-32 2-80-2 1-5 0-7-1-10-8-10-35-10-36v-1h2l2 2 1 1 11 9v-15l-4-5v-1h3l-6-58-3 2c-3 0-5-1-5-4 0-2 1-4 4-5l3 1-1-4-1-3v-2l-4-25h-1l-1-3v-3l-1-7-2-2v-3l-3-13c-6 4-12 8-19 10-16 7-40 12-64-4a87 87 0 0 1-40-60c-4-21 2-41 10-54 0-13 8-42 23-30 10 9-10 24-22 30-7 13-13 33-10 54 4 23 17 43 40 58 24 16 47 12 63 5l18-11-2-7c-13 9-29 13-45 13-25-1-47-22-53-49-4-20-5-40 14-54-4-2-5-6-2-9 2-2 6-2 8-2 6 1 11 1 16-1l1 2-7 6-4 6-5 5c-5 1-5-3-5-7-18 13-19 31-14 53 5 27 27 47 51 48 16 1 32-4 45-13l-3-8c-10 6-21 9-33 8-21-1-38-16-42-38-3-19 4-35 19-42-5 0-7-4-4-8 2-2 5-3 8-3l10-1c-16-19-34-35-56-46l-15-27c-18 9-41 9-60-2-18-11-33-23-31-47-4 2-7 0-7-5l4-7c4-3 7-7 9-12 1-1 2 0 2 1v9l2 7v7c-3 5-6 1-9-1-2 22 11 34 31 46 18 11 41 12 58 2l-7-13c-13 5-28 3-42-5-17-10-24-26-18-41-3 3-8 2-9-3 0-3 2-6 4-8l8-13h2l1 10 2 7 1 6c-2 5-5 3-8 1-5 15 2 30 18 40 13 8 27 9 40 4l-8-13-1 1c-8 2-16 2-23-1s-12-9-15-16c-1-5 0-9 2-14 2-4 6-8 10-9h6l-17-30-2 1c-5 3-13-1-18-4-8-6-14-16-17-26-1 1-1 2-3 2 5 12 18 41-1 45-7 1-13-6-16-11-5-8-7-19-7-29h-4c1 12 3 46-17 42-6-1-9-10-10-15-3-10-1-21 3-30l-2-2c-4 11-15 44-32 33-6-3-5-12-4-18 1-10 7-19 15-26l-2-3c-8 10-29 36-41 20-4-6 0-14 2-19 5-8 13-15 21-19l-1-2c-10 6-39 22-45 2-1-6 5-12 10-16 7-6 17-9 27-9v-1l1-5c-10 1-46 6-44-14 1-7 9-10 15-12 10-3 21-1 31 2v-1l1-2c-11-3-44-12-34-30 3-6 12-6 18-5 10 1 19 6 26 12h1c0-1 1-2 3-2-11-7-38-25-23-39 4-4 13-2 18 1 9 4 17 12 22 21l1-1h1l-49-49c-24 11-53 11-69 5 30 24 59 39 76 46 2 0 2 2 2 3-1 2-3 2-4 2-21-9-76-36-120-89-32-38-52-80-62-128l-7-6a304 304 0 0 0 106 183c1-3 2-6 6-4l4 5 3 7 5 8-1 1-15-4c-2 0-6-1-7-3-3-4-1-8 3-8a305 305 0 0 1-106-186l-6-6c6 58 26 125 81 183 1-3 3-7 7-4 2 1 2 4 3 6l2 7 4 8c0 1 0 2-1 1l-14-6c-3-1-6-2-7-4-2-4 0-8 4-8-47-50-74-112-81-185l-8-7c3 48 14 93 27 122 10 24 33 54 56 84 26 34 50 65 54 85 5 21-1 38-16 46zm-8-120c-1 2-3 2-4 2l-1-2v-2l1-1h2l2 1v2zm6 8h-4v-4l1-1 3 1v4zm6 6h-4v-4h4v4zm6 7h-4l1-4 1-1 2 1v4zm7 6h-4v-4l1-1 3 1v4zm42-50-1 2-5 1h-7l-7-1-3-2 3 1h7l6-2 3-2h2l2 1v2zm7 9-3 2h-6l-9-2-12-7 13 3 9 1 4-1h2l2 2v2zm7 14-4 2-9-3-13-7-11-9-4-4 5 3a112 112 0 0 0 26 9l7 1 3 1 1 4c1 1 0 2-1 3zm-17 22 1-2 2 1 2 1-1 2c0 1-2 2-3 1l-1-1v-2zm225 302c14-2 10 25 7 37h-2c-9-9-24-34-5-37zm98 143c-3 13-15 40-28 25-9-10 15-22 28-26v1zm38 84a8 8 0 0 1-16 2c-1-5 2-9 7-9 4-1 8 2 9 7zm1-11c-4 0-7-2-7-6-1-3 2-7 5-7 4-1 7 2 7 6 1 3-2 6-5 7zm-34 26c-1-10 6-21 15-24h1v1c-5 8-6 16-2 21 3 4 8 6 13 5 3-1 10-5 10-20l1-1h1c4 10 5 20 1 27-9 17-40 16-40-9zm20 24h2l1 3v1c4 11 9 28 4 35-3 3-6 3-10 3-5-1-7-3-9-7-4-11 12-34 12-35zm-43 18c2-12 27-24 28-24h1v4l-1 1c-2 11-6 29-15 32-3 1-6 0-10-3-3-3-4-7-3-10zm-19-30c9-9 36-5 37-5h1v2l-2 2-2 1c-8 7-21 20-29 18-4-1-6-3-7-8-1-4 0-8 2-10zm-3-26c1-4 3-7 7-7 12-3 33 14 34 15v1h-1l-2 1h-2c-11 3-29 7-35 0-2-2-2-5-1-10zm7-86 1 2c-9 9-34 26-37 7-3-14 24-12 36-9zm-62-26c5-13 27 3 35 13v1c-13 3-42 4-35-14zm-17-41c10-10 23 13 28 25l-1 1c-13-2-41-13-27-26zm-1-39c12-6 18 20 19 33h-1c-12-6-35-24-18-33zm-200-156h3c2 1 2 3 0 4h-4c-1-1-1-3 1-4zm3 21h-3v-3h3v3zm0-9h-3v-3h3v3zm4-24v5c-2 2-4 2-6 0v-5c2-2 4-2 6 0zm8-12c2 2 1 5-1 7s-5 2-7 0-2-5 0-7 6-2 8 0zm12-3c-3 3-7 3-10 0-2-3-2-7 0-9 3-3 7-3 10 0 3 2 3 7 0 9zm29 62a8 8 0 1 1 6 15 8 8 0 0 1-6-15zm4-18c3-2 7 0 8 3 2 4 0 7-4 9-3 1-7-1-8-4s1-7 4-8zm2-14c3-1 5 0 6 3 1 2 0 4-3 5-2 1-4 0-5-2s0-5 2-6zm2-11 5 2-2 5c-2 1-4 0-5-2s0-4 2-5zm4-5c-1 1-2 0-3-1 0-1 0-2 2-2 1-1 2 0 2 1 1 1 0 2-1 2zm17 78v-1h1v-1h4c11-2 29-5 35 2 2 3 2 6 1 10-2 5-4 7-8 7-12 3-32-16-33-17zm-9 12v-2h1l2 1 2 1c10 4 27 12 28 20 1 4-1 7-4 9-4 3-7 4-11 3-11-5-18-31-18-32zm-12 4v-1l1 1 2 2 1 2c5 9 15 24 11 32-1 3-4 5-9 5-4 0-7-1-9-4-7-10 2-36 3-37zm-26-19c-3-10 1-21 9-27h1l1 1c-4 10-3 17 2 21 4 4 9 4 14 1 2-1 9-7 5-22l1-1 1 1c6 8 9 18 7 26-5 18-34 24-41 0zm-12 46c-1-12 20-29 21-30h1v5c1 11 1 30-7 34-2 2-6 2-10 0-3-2-5-5-5-9zm-25-24c6-11 33-14 34-14h1v2l-1 2-1 1c-6 10-16 25-25 25-3 0-6-2-8-6s-2-7 0-10zm-10-24c0-5 2-8 5-9 11-6 36 6 37 6v2l-3 1-1 1c-10 5-27 13-34 8-3-1-4-5-4-9zm-34-234a3 3 0 1 1-4 0l1-1 3 1zm6-25c-1 1-3 2-4 1l-1-1v-2l1-2h2l2 2v2zm1 35h-4v-4l1-1 3 1v4zm15-25c-1 1-3 2-4 1-2-1-2-3-1-4l1-1h3l1 4zm4 6c-2-1-2-3-1-4l1-1h3v4l-3 1zm-7 73c4-1 8 0 9 3 2 3 1 7-2 9-4 2-8 1-9-2-2-4-1-8 2-10zm-5-84c-1 1-3 2-4 1-2-1-2-3-1-4l1-1h3l1 4zm0 35c-1 1-3 2-4 1l-1-1v-2l1-2 2 1 2 1v2zm-8 58c3-1 6 0 7 2 1 3 1 6-2 7-2 2-6 1-7-2-1-2 0-5 2-7zm-11 16c-1-2 0-4 2-6 2-1 4 0 5 2 2 2 1 4-1 5s-4 1-6-1zm-3 6c2-1 3-1 4 1 1 1 0 3-1 4-1 0-3 0-4-2-1-1 0-3 1-3zm-42-80c-1 0-1 0 0 0zm-28-33h-1v-3 1l1 2z" class="stc"/><path d="m1318 300 2 7-3 9-2-5c-2-5-6-13-2-17v7l2 5c2 1 4 0 3-2 0-4-3-7-2-11l2 7zm-40-29c0-4 2-9 6-11l2-1c-2 2-3 4-3 7l-1 3h-1v-1c1-1 0-2-1-1-1 2 0 4 2 3h2v3l-1 2-2-2c1-1 0-1-1-1-1 2 0 4 2 5l3-2 1 3-1 2h-2c1-1 0-2-1-1v2l3 1 2-2v-1c1 4-5 11 1 12 1 0 4-2 2-4l-2-1 2-3 1 2c0 1 2 2 3 1s0-2-1-1l-1-1v-3l1-2v1h4c0-1-1-2-2-1l-1-1v-4l1 1c1 1 3 0 3-2h-2v1l-1-1-1-2v-2l1 1 2-3h-2v1h-1l-1-2-1-3-1-4c2 1 5 2 6 5 4 8 2 18-3 26-3 3-7 7-12 7 2-4 1-7 0-12-2-4-5-9-4-14zm225 328c4 7 10 19 7 24l-3 2-2 1-3-2c-4-5-1-20 1-25zm-239-349z" class="stc"/><path d="M1293 273c0 4-2 7-4 9l-1-5c-2-5-6-13-1-17l-1 7 2 6c2 1 4-1 4-2 0-4-3-8-2-11l2 6 1 7zm17 47c-2-5-5-9-5-14 0-4 1-10 5-12l2-1c-2 1-3 4-2 7l-1 3h-1v-1l-1-1c-1 2 0 4 2 3l1-1 1 4-1 2-2-2c1-1-1-2-1-1-1 2 1 4 2 4 2 0 3 0 3-2l2 3-1 3h-1l-1-1c0 1 0 0 0 0l-1-1v3h3l2-2c1 4-5 11 1 11 2 1 4-2 2-4l-2-1 2-2 1 1c1 1 2 2 3 1s0-2-1-1l-1-1v-5l1 1c1 1 3 1 3-1h-1l-1-1-1-2v-2l1 1c2 0 3-1 3-2h-2v1-1l-2-2v-2 1c2 0 3-2 2-3h-1v1h-1l-2-2-1-3-1-4c2 1 5 2 6 4 5 8 3 19-1 27-2 4-6 7-11 8 2-4 1-7-1-11zm-22-34c-1 0-1 0 0 0zm0 4h-1l1-3v3zm51 66c-3-4-6-8-7-13 0-4 0-10 4-13l2-1c-1 2-2 5-1 8l-1 2-1 1v-1l-1-1c-1 2 1 4 2 3l1-1 2 3-1 3-2-2-1-1c-1 2 1 4 2 4 2 0 3-1 3-2l2 2-1 3h-2c1-1 0-2-1-1l1 2 3 1 1-3c2 4-3 11 3 11 2 0 3-3 1-4h-1l1-3 1 1c1 1 3 2 3 0h-1l-1-2-1-2 1-2v1c2 1 3 0 4-1 0-1-1-2-2-1h-1l-1-2v-2h1c2 1 3 0 3-2h-2v1h-1l-1-2-1-2h1l2-3h-2v2h-1l-1-2-2-3-2-4c3 0 5 2 7 4 6 7 5 18 2 26-2 4-5 8-10 10l-3-12zm465 570-1 1-4-1c-5-3-7-18-8-23h1c4 3 11 9 14 15v7l-2 1zm-92-148c-3 0-17 0-15 5 1 6 12-1 16-2-9 9-23 10-24 4-2-5 12-10 23-7zm11 86 2-2c6-2 19 6 24 9h-1c-7 1-20 3-25-1l-1-4 1-2zm-38-103c-3-2-14-9-16-4-1 6 12 6 16 6-13 3-25-2-23-8s16-2 23 6zm-2-126c-5-4-9 9-11 13 1-13 10-23 15-20 5 4-2 16-12 21 2-2 12-11 8-14zm-43 43c5-3 13 9 14 20-1-4-5-17-10-13-5 3 5 11 8 14-12-6-17-18-12-21zm120 220c-2 7-6 20-12 22l-4-1-1-1c-1-1-2-2-1-3 1-7 13-14 18-17zm-13-115c-3 13-13 21-18 17-4-5 6-15 17-18-3 1-15 8-11 12s10-8 12-11zm-94-141c5-1 9 13 6 24 0-4 1-17-5-16s1 13 2 16c-8-9-9-22-3-24zm-102-59c2 1 2 2 1 4v2l-3 2c-6 1-18-7-23-11h1c7-1 21-1 24 3zm198 303h-1c-5 5-16 13-21 12-2 0-3-1-4-3v-1l1-4c4-4 19-4 25-4zm28 19c2 7 5 20 1 25-1 1-2 2-4 1h-1c-2 0-3-1-3-2-2-6 4-19 7-24zm-115-175c-2-2-9-14-13-9-4 4 8 9 11 11-12-2-21-12-17-17 4-4 15 5 19 15zm-126-121c1 1 0 3-1 4l-1 1h-4c-6-2-12-15-14-21l1 1c7 3 18 9 19 15z" class="stc"/><path d="M1303 154c2 5 0 12-6 14l-8-22c6-1 12 2 14 8z" class="stf"/><path d="m1292 134 2-2 4 2 1 1 19 16a4 4 0 0 0 2 7v3h-1v3h-2c-2 1-3 4-2 6l1 1-1 2-1-1-1 1 1 1-2 2-4-1c-2 1-3 3-2 6l-3 1-2-5-1-3a18 18 0 0 0-12-33l-1-4-2-4 2-1c1 2 3 3 5 2z" class="stf"/><path d="m1313 190 6-3c2-5-2-10-5-13l1-1 4 5c4 1 9-1 11-5 2-5-6-9-11-10l1-2 6 3 4-2 1 1-3 2c2 2 4 4 4 7-1 5-7 8-12 8 1 3 2 6 0 8l-6 4h-5l-1-2h5zm-28-67-1 3-1-3v-1l2 1zm13 12 1 1-1-1z" class="stf"/><path d="m1313 173 1-1 1 1-1 1-1-1zm6-10v-2h1l-1 2zm36 51c-3 1-5 1-6 5l-1 3-5 5c-4 2-8 2-11 1l-7-9c3 2 7 3 11 1 5-1 8-6 7-11l1-1c10 0 16-8 14-17-1-3-8-13-20-15-2 4-8 7-13 8 1 4 1 7-2 10-2 3-6 5-10 5l-1-1c3 0 8-3 10-5s2-6 1-9l1-2c8 0 16-7 13-14l3 2-1 5 8 2 20 17c2 8-5 17-12 20zm-41-36c0 2-1 5-3 5-2 1-5 0-5-2l6-5 2 2z" class="stf"/><path d="m1308 175 4 1-6 5c-1-3 0-5 2-6zm15-8a4 4 0 0 1-7 4l3-7c2 0 3 1 4 3z" class="stf"/><path d="M1315 170c-1-2 0-5 2-6h2l-3 7-1-1zm5-17 4 4-2 1h-2v-5zm0 5-3-2 1-5 2 2v5zm-33-26v-1c-1-2 0-4 1-5l6 5-7 1zm8-1-1 1v-1h1z" class="stf"/><path d="m1294 131 1 1-3 2c-2 1-4 0-5-2l7-1zm35 57a79 79 0 0 1 18 16 79 79 0 0 1-18-16zm4-4 8 4 6 4-7-3-7-5zm-1 16c2 1 3 3 4 6l-5-5-4-7 5 6zm424 677c-1-10 6-21 15-24h1v1c-5 8-6 16-2 21 3 4 8 6 13 5 3-1 10-5 10-20l1-1h1c4 10 5 20 1 27-9 17-40 16-40-9zm43 59c-10-7-10-35-10-36v-1h2l2 2 1 1 11 9 1 7c-3-6-10-12-14-15l-1-1c1 6 3 21 9 24l3 1 1-1 2-1v12c-2 1-4 0-7-1zm2-45v-1h3v6l-3-5zm-25 10c-1 1-16 24-12 35 2 4 4 6 9 7 4 1 7 0 9-3 6-6 1-24-3-34v-2l-1-3h-2zm1 4c2 7 5 20 1 25-1 1-2 2-4 1h-1c-2 0-3-1-3-2-2-6 4-19 7-24z" class="stf"/><path d="M1733 919c-1 3 0 7 4 9 3 3 6 4 9 3 9-3 13-20 15-31l1-2v-4h-1c-1 1-26 13-28 25zm9-4c1-7 13-14 18-17-2 7-6 20-12 22l-4-1-1-1c-1-1-2-2-1-3zm-28-26c-2 2-3 6-2 10s4 7 7 8c8 2 22-11 30-18l1-2 2-1v-2h-1c-1 0-28-4-37 5zm10 1c4-4 19-4 25-4h-1c-5 5-16 14-22 12l-3-3v-1l1-4zm-13-27c-1 5-1 8 1 10 6 7 24 3 35 0h2l2-1h1v-1c-1-1-22-18-34-15-4 0-6 3-7 7zm11 3 1-2 2-2c6-2 19 6 24 9h-1c-7 1-20 3-25-1l-1-4zm67-4a8 8 0 0 1-16 2c-1-5 2-9 7-9 4-1 8 2 9 7zm1-11c-4 0-7-2-7-6-1-3 2-7 5-7 4-1 7 2 7 6 1 3-2 6-5 7zm8-19-1-6m-2 8c-3 0-5-1-5-4-1-2 1-4 4-5l3 1 1 6-3 2zm0-15v-2l1 5-1-3zm-319-242c-3-10 1-21 9-27h1l1 1c-4 10-3 17 2 21 4 4 9 4 14 1 2-1 9-7 5-22l1-1 1 1c6 8 9 18 7 26-5 18-34 24-41 0zm38 15c0 1 7 27 19 32 3 1 6 0 10-2 3-3 5-6 4-9-1-9-18-16-28-21h-2l-2-1h-1v1zm2 2h1c7 3 18 9 19 15 1 2 0 3-1 4l-1 1-4 1c-6-3-12-16-14-21zm7-14c1 1 21 20 33 17 4 0 6-3 8-7 1-4 1-7-1-10-6-7-24-4-35-2h-5v2zm3 0h1c7-1 21-1 24 3 2 1 2 2 1 4v2l-3 2c-6 1-18-7-23-11zm-24 16c-1 1-10 27-3 37 2 3 5 5 9 4 5 0 8-2 9-4 4-9-5-24-11-33l-1-2-2-2v-1h-1v1zm1 3c4 7 10 19 8 24l-4 2-2 1-3-2c-4-5 0-19 1-25zm-39 24c0 4 2 7 6 9s7 2 10 0c7-4 7-23 7-34v-5h-2c-1 1-22 18-21 30zm21-27v1c0 7-1 20-6 24h-5l-1-1c-1 0-2-1-2-3 0-6 10-17 14-21zm-46 3c-2 3-2 6 0 10s5 6 8 6c9 0 19-15 25-24v-2l2-2v-2h-1c-1 0-28 3-34 14zm9-1c3-6 17-9 23-10-4 6-13 17-18 17l-4-2-1-2v-3zm-19-23c0 4 1 7 4 9 7 5 24-3 34-8l1-1 3-1v-2h-1c-1 0-25-12-36-6-3 1-5 4-5 9zm12-2c0-1 0-2 2-3 5-3 19 1 24 3-7 4-19 8-24 5-2 0-2-2-3-4l1-1z" class="stf"/><path d="M1504 555a8 8 0 1 1-10-5c4-2 9 0 10 5zm2-20c2 4 0 7-4 9-3 1-7-1-8-4-1-4 1-7 4-9 3-1 7 1 8 4zm0-14c1 2 0 4-3 5-2 1-4 0-5-2-1-3 0-5 2-6s5 0 6 3zm1-12c0 2-1 4-3 5-1 1-3 0-4-2s0-4 2-5l5 2zm-1-7c-1 1-2 0-3-1 0-1 0-2 2-2 1-1 2 0 2 1 1 1 0 2-1 2zm-51-14c-2-3-2-7 0-9 3-3 7-3 10 0 3 2 2 7 0 9-3 3-7 3-10 0zm-3 10c-2 2-5 2-7 0s-2-5 0-7 6-2 8 0 1 5-1 7zm-7 11c-2 1-5 1-6-1v-5c2-2 4-2 6 0v6zm-4 6c2 1 2 3 0 4h-4c-1-1-1-3 1-4h3zm-3 12v-3h3v3h-3zm0 9v-3h3v3h-3zm-24-131c4-1 8 0 9 3 2 3 1 7-2 9-4 2-8 1-9-2-2-4-1-8 2-10zm-13 9c3-1 6 0 7 2 1 3 1 6-2 7-2 2-6 1-7-2-1-2 0-5 2-7zm-11 16c-1-2 0-4 2-6 2-1 4 0 5 2 2 2 1 4-1 5s-4 1-6-1zm-3 6c2-1 3-1 4 1 1 1 0 3-1 4-1 0-3 0-4-2-1-1 0-3 1-3zm402 353v-3l2 7-1-1-1-3zm-3-12v-3l1 5-1-2zm-397-524-11-1-17-6-16-8-7-4 8 2a129 129 0 0 0 34 5l8-1 4 1 3 4-1 5c-1 2-3 3-5 3z" class="stf"/><path d="m1380 237-8 2-12-1-16-5 16 1 11-2 5-2h3l2 1c1 1 2 2 1 3 0 2-1 3-2 3z" class="stf"/><path d="M1366 230a33 33 0 0 1-19 2l-4-2 4 1a31 31 0 0 0 16-6l3-3h2l3 1 1 2-2 2-4 3zm75 83-9-3-13-7-11-9-4-4 5 3a112 112 0 0 0 26 9l7 1 3 1 1 4c1 1 0 2-1 3l-4 2z" class="stf"/><path d="M1435 299h-5l-10-2-12-7s6 3 13 3l9 1 4-1h2l2 2v2c-1 1-1 2-3 2zm-5-9-4 1h-8l-7-1-3-2 3 1h7l6-2 3-2h2l2 1v2l-1 2zM1218 85c-14-1-13-12-13-13l3-3 3 1-3 2c-2 3 0 6 2 8l2 1c3-2 4-5 5-8h2c-1 4-3 7-6 9 4 2 9 1 14 0l6-3 1 1c-5 3-10 5-16 5zm6-10v1-1z" class="stf"/><path d="M1209 73c0-3 3-2 3-1v-1h2c-1 2-5 4-5 2zm20 4v2l-2-2h2zm-5-2v1l-2 2v1l1-2 1-1 1 1c1 3-3 4-4 2-2-2-1-3 1-4h2c-1 0-1 0 0 0z" class="stf"/><path d="m1224 75 1 1h-1v-1zm2 45-1 1 1-1zm-19-1c0 1 0 12 14 11 7-1 14-4 18-10 4-4 7-10 7-16 0-5-6-11-11-11-6 1-11 5-13 10-4 8-1 18-8 24l-1-1c-3-2-5-5-3-8 1-3 4-2 4 0 0-1-3-2-3 1s5 0 4-2c0-2-2-3-4-2-2 0-4 2-4 4zm25-10c2 1 4 1 4-1l4-10-2 6c0 3 0 5-2 7-2 3-4 5-7 6l1-5c0-5 1-14 8-15l-4 5c-1 2-3 5-2 7zm-16 19c3-3 4-7 5-11 0-5 0-10 3-15 2-3 6-8 11-7h2l-6 5-2 2h-1l1-1c0-1 0-2-1-1-2 0-2 3 0 3h2l-1 3v1l-3 1v-4c-2 1-2 3 0 5h3v3l-3 1h-1v-2c-1 0-2 1-1 2l2 2 3-1c-1 4-10 6-5 10 1 1 4 0 3-2l-1-2v1h-1v2h-1c0-1 0-2 2-2v-2 1l3-1v1c0 2 1 3 3 3 1-1 0-2-1-2v-1l1-3 2-1v1c0 2 2 2 3 1 1 0 0-2-1-1s-1 0-1-1l1-2 1-2 1 1c0 2 2 2 3 0h-2v-5h1c1 2 2 1 3-1h-3v-2l1-4v-4l4 7c0 9-8 18-15 22-5 2-10 3-14 2zm18 40h1-1zm-18 1c0 1 1 12 15 9 7-1 13-6 17-12 3-5 6-11 4-17-1-5-7-10-12-9-6 1-10 6-12 11-2 9 2 18-4 25l-1-1c-3-1-6-4-5-7s5-3 4-1c0-1-3-1-2 1 0 3 4 0 3-2 0-2-2-2-4-2-1 1-3 3-3 5zm29-19-1 8-7 7 1-6c-1-5-1-14 5-16-2 1-3 4-3 6-1 2-2 5-1 6 2 2 4 1 4-1 2-3 0-7 2-11v7zm-19 27 3-12c0-5-1-10 1-15 2-4 5-8 10-9l3 1c-3 0-5 2-6 5l-1 2h-2l1-1-1-1c-2 1-1 4 1 4l1-1v4h-1c0 1-1 2-2 1v-2c1-1 0-2-1-1v4h4v3l-2 2h-1v-1c1 0 0-2-1-1l-1 2 3 1c1 1 2 0 2-1 0 4-8 8-3 11 1 1 4-1 3-3l-1-1h-1v3h-1l1-3v-1 1h1l3-2v2c0 1 1 2 3 1l-1-1c-1 1-1-1-1-1l1-3 2-1v1c1 1 2 2 3 1v-2c-1 1-2 0-2-1l1-2 1-2 1 2 3-1h-2l-1-1v-4l1 1 3-2c0-1-1-2-2-1v1h-1l-1-2 1-4v-4c2 2 4 4 4 7 1 9-5 18-12 23-4 3-9 5-13 4zm1 35s2 12 16 8c7-2 13-7 16-13 3-5 5-12 3-18-1-5-7-9-13-8-5 2-9 7-10 12-3 9 3 18-3 25h-2c-2-1-5-4-4-8 1-2 4-3 3-1 0 0-2 0-2 2 1 3 5-1 4-3s-3-2-5-1c-1 1-3 3-3 5zm28-21-1 8c-1 3-3 5-6 7v-5c0-5-1-15 5-17l-3 6v7c1 1 3 0 4-1 1-4-1-8 1-12v7zm-17 28c2-4 3-8 2-12v-15c2-4 5-9 10-9h2c-2 1-4 3-5 6l-1 2h-2l1-1-1-1c-2 1-1 4 1 4l1-1v4c0 1-1 2-2 1l-1-2c1-1 0-2-1-1s-1 4 1 5l3-1 1 3-2 2h-1l-1-1v-1l-1 2 3 2 2-2c0 4-8 9-3 11 2 1 5-1 3-3l-1-1v3h-2l2-2v-2 1h1l2-2v2c1 1 2 2 3 1 1 0 0-2-1-1v-4l2-2v1c1 2 2 2 3 1v-1c-1 1-2 0-2-1l1-2 1-2v1c1 1 3 1 3-1h-2v-1l-1-2 1-2v1c2 1 3-1 3-2l-1-1c0 1 0 2-1 1h-1v-10c2 2 4 4 4 7 2 8-3 18-10 24-4 2-9 4-13 4z" class="stf"/><path d="m1246 210-1-1h1v1zm18 40zm0 0h1l-1 1v-1z" class="stf"/><path d="M1246 256c1 0 4 11 17 5 7-3 12-9 14-15s3-12 1-18c-2-5-9-8-14-6-6 2-9 8-9 14-1 8 5 16 1 25l-2-1c-3 0-6-3-5-6 0-3 3-4 3-2 0-1-3 0-2 2 1 3 4-1 3-3s-3-2-4-1c-2 1-3 4-3 6zm25-25v7c-1 4-2 6-5 9v-6c-2-5-4-14 1-17l-1 7c-1 2-1 5 1 6 1 1 3 0 3-2v-11l1 7zm-13 30c1-4 2-8 0-12-1-5-3-10-2-15 1-4 4-9 8-11h3c-3 1-4 4-4 7l-2 2h-1v-1l-1-1c-1 2 0 4 2 4l1-1 1 3-1 1-1 2-1-2-1-1c-1 1-1 3 1 4l3-1 1 3-1 2h-2v-1c1 0 0-2-1-1v2c0 1 1 2 2 1l3-1c0 4-7 9-1 11 1 1 4-2 2-3l-1-2-1 1 1 1v2h-2l1-3v-1h1l2-2 1 2c0 1 2 2 3 1s-1-2-1-1l-1-2v-2l1-2 1 1h3c1-1 0-2-1-1s-1 0-1-1v-2l1-2v1c2 1 3 0 3-1h-2v-1l-1-2v-2 1c2 0 3-1 3-3h-1l-1 1h-1l-1-2v-4l-1-4c3 1 5 3 6 6 3 8-1 19-7 25-3 4-8 7-12 7zm13 33s5 11 17 3c6-3 10-10 12-17 1-6 1-12-2-18-3-4-10-6-15-4-5 3-7 9-7 15 1 9 8 16 5 25h-2c-3-1-7-3-7-7 1-2 3-3 4-1-1-1-3 0-2 2 2 2 4-2 3-4h-5c-1 1-2 4-1 6zm19-34 2 6 1 7c-1 4-2 7-4 9l-1-5c-2-4-6-13-1-17l-1 7 2 6c2 1 4 0 4-2 0-4-3-8-2-11zm-8 26c-2-5-5-10-4-15 0-4 2-9 6-11l2-1c-2 2-3 4-3 7l-1 3h-1v-1c1-1 0-2-1-1-1 2 0 4 2 3h1l1 3-2 2-1-2c1-1 0-1-1-1-1 2 0 4 2 5l3-2 1 3-1 2h-2c1-1 0-2-1-1v2l3 1 2-2v-1c1 4-5 11 1 12 1 0 3-2 1-4l-1-1v3h-1l1-2v-1c-1 0-1 0 0 0l2-3 1 2c1 1 2 2 3 1s0-2-1-1l-1-1v-3l1-2v1h4c0-1-1-2-2-1l-1-1v-4l1 1c1 1 3 0 3-2h-2v1l-1-1-1-2v-2h1c1 1 2-1 2-2h-2v1h-1l-1-2-1-4-1-3c2 0 5 2 6 4 4 8 2 19-3 26-3 4-7 8-12 8 2-4 1-7 0-11zm6 0v1-1zm28 34h1l-1 1v-1z" class="stf"/><path d="M1301 323c-2 1-2 4-1 6 0 0 6 10 17 2 6-4 9-11 10-18 1-6 1-13-3-18-3-4-10-6-15-3-5 4-6 10-6 16 1 8 9 15 7 24h-2c-3 0-7-2-7-6 0-2 3-3 3-2 0 0-3 1-1 3 1 2 4-3 2-4-1-2-3-1-4 0zm17-19c0-4-3-7-2-11l2 7 2 7-3 9-2-5c-2-4-6-13-2-17v7l2 6c2 0 4-1 3-3zm-6 28c1-5 0-8-2-12-2-5-5-9-5-14 0-4 1-10 5-12l2-1c-2 1-3 4-2 7l-1 3h-1v-1l-1-1c-1 2 0 4 2 3l1-1 1 4-1 2c-1 0-2-1-1-2 0-1-1-2-2-1l2 4c2 0 3 0 3-2l2 3-1 3h-1l-1-1c0 1 0 0 0 0l-1-1v3h3l2-2c1 4-5 11 1 11 2 1 4-2 2-4l-1-1-1 1v1l1 2h-1v-4c-1 1-1 1 0 0h1l1-2 1 1c1 1 3 2 4 1 0-1-1-2-2-1l-1-1v-3l1-2v1c1 1 3 1 4-1l-2-1h-1l-1-2 1-2 1 1 2-2h-2l-2-2v-2l1 1 2-3h-2v1h-1l-1-2-2-3-1-4c2 1 5 2 6 4 5 8 4 19-1 26-2 5-6 8-10 10zm18 29v5c0 1 7 10 17 0 5-4 8-12 9-18 0-6-1-13-6-18-3-4-11-5-15-1s-5 10-4 16c2 8 11 14 9 23h-1c-3 0-7-1-8-4 0-3 2-5 3-3-1-1-3 1-1 3s3-3 2-5c-2-1-4 0-5 2zm15-26 2 7c1 4 0 7-1 10l-3-5c-3-5-8-12-4-17l1 7c0 1 1 5 3 5 2 1 3-1 3-3-1-3-4-6-4-10l3 6zm-3 33-3-12c-3-4-6-8-7-13 0-4 0-10 4-13l2-1c-1 2-2 5-1 8l-1 2-1 1v-1l-1-1c-1 2 1 4 2 3l1-1 2 3-1 3-2-2-1-1c-1 2 1 4 2 4 2 0 3-1 3-2l2 2-1 3h-2c1-1 0-2-1-1l1 2 3 1 1-3c2 4-3 11 3 11 2 0 3-3 1-4h-2l1 1v2h-1v-3c-1 0-1 0 0 0h1l1-3 1 1c1 1 3 2 3 0h-1l-1-1-1-3 1-2v1c2 1 3 0 4-1 0-1-1-2-2-1h-1l-1-2v-2h1c2 1 3 0 3-2-1-1-2 0-2 1h-1l-1-2-1-2h1c1 0 2-1 2-3h-2v2h-1l-1-2-2-3-2-4c3 1 6 2 7 4 6 7 5 18 2 26-2 4-6 8-10 10zm3-12v-1 1zm-66-237 4 2v2l-2 5h2l1-2 1 7 1 4 3 9h-1c1 7 3 12 8 23l1-1 4 9 2 5v-1l5 9c-1-1-2 1-1 2h2l3 5h-1v2h2l12 20-2-1c-1-1-1 0-1 1v1l4 5v1l1 1h1l4 1 10 13v2l3 2a254 254 0 0 0 2 3h-1v2l4 3v2c6 5 12 10 18 13l12 10-3-1h-1v1l8 4c30 24 59 38 76 45 2 1 2 2 2 4-1 1-3 2-4 1-21-9-76-35-120-89-32-37-52-80-62-128l3 3v1z" class="stf"/><path d="m1360 260 2 3-6-5 4 2zm-64-91c-4-11-7-16-8-23h1l8 22-1 1zm-11-36 1 4-1-4zm18 49-2-5 2 5zm-20-54h-2l2-5 1 3-1 2zm24 64c-1-1 0-2 1-2l1 3-2-1zm-28-74v1-1zm32 81c-2 0-1-2 0-2l2 2h-2zm16 28h-1v-1l-4-6v-1c0-1 0-2 1-1l2 1 7 10-5-2z" class="stf"/><path d="M1375 293v2h-1a305 305 0 0 1-106-186l1 1a304 304 0 0 0 106 183z" class="stf"/><path d="M1342 286h-2c-47-50-75-113-81-185l2 2a302 302 0 0 0 81 183z" class="stf"/><path d="m1379 421-2 3-1 1h2c9-8 12-22 10-34a113 113 0 0 0-19-39h-1l-37-50c-22-30-46-61-57-85-13-30-24-77-27-126l4 3c3 48 14 93 27 122 10 23 33 54 56 84 25 33 50 65 54 85 5 20-2 38-16 46l-3-2c4-2 8-5 10-8zm-21-10-1 2c-1 1-2 0-3-1l-4-2v1l-3-3 2-1c3-1 7 0 9 4z" class="stf"/><path d="M1379 421c3-6 2-14 0-19-2-7-9-13-14-19-4-5-6-10-5-17 0-5 3-11 8-14 8 13 15 25 17 34 2 11 2 25-6 35z" class="stf"/><path d="M1370 353c8 11 15 25 18 38 2 12-1 26-10 34h-2l1-1 2-3c8-10 8-24 6-35-2-9-8-20-17-34h1c1-1 1 0 1 1zm-28-65v-2c1-3 3-8 7-4l3 5 2 8 4 8c0 1 0 2-1 1-5-3-9-5-14-6-3-1-6-2-7-5-2-4 0-7 4-7l1 1 1 1z" class="stf"/><path d="M1342 286v1l-1 1-1-2h2zm34 9-1-1v-1c1-3 2-6 6-4l4 5 3 7 5 8-1 1c-5-3-9-4-15-4-2 0-6-1-7-3-3-4-1-8 3-8h3z" class="stf"/><path d="M1375 295v-2 1l1 1h-1l-1-1 1 1zm356 377-4 5c-5 1-5-2-6-5l1-1-1-1h-1c-4 0-7-4-3-8 2-2 5-3 8-3l9-1 3 4-2 3-4 7zm-32-12h-2l-2 2c-3-2-4-6-1-9 2-2 6-2 8-1l16-1v1l-6 6-5 7-4 4c-6 1-5-3-6-6l1-1 1-2zm-339-347-1-2v-2l1-1h2l2 1v2c-1 2-2 2-4 2zm6 6v-4l1-1 3 1v4h-4zm19 19v-4l1-1 3 1v4h-4zm-6-6v-4l1-1 2 1v3c-1 2-2 2-3 1zm-7-7v-4h4v4h-4zm23 19a3 3 0 1 1-4-3l1-1h3v4zm3 7v-4l1-1 3 1v4h-4zm7 6-1-1v-2l1-2h2l2 2v2c-1 1-3 2-4 1zm-8-40-1-1v-2l1-2h2l2 2v2c-1 1-3 2-4 1zm8 5c-2-1-2-2-1-4l1-1h3v4c0 1-2 2-3 1zm8 5c-2-1-2-3-1-4l1-1h3v4c0 1-2 2-3 1zm7 1 1-1h3v4h-3c-2 0-2-2-1-3zm9 3h2l2 2-1 2c0 1-2 2-3 1l-1-1v-2l1-2zm-29-77-2-2v-2l2-1h2l1 1v2c0 2-2 2-3 2zm11-4-4-1c-1-2 0-3 1-4 2-1 3 0 4 1s0 3-1 4zm4-6v-3l4 3h-4zm227 305-4-2 2-4h1l2 4-1 2zm-9 1c-2 0-3-2-3-3a3 3 0 0 1 3-3c1 0 2 1 2 3l-2 3zm-10-2-1-1v-2l1-2h2l2 2v2c-1 1-3 2-4 1zm146 174v-1 1zm-1 3c-2 0-3 0-4-2l2-3c1-1 3 0 3 1v1c1 1 0 3-1 3zm-27 2c-2 0-3-2-2-3l1-2h2l2 3c0 2-2 3-3 2zm9 1-3-2c0-2 1-3 2-3h1c2 0 3 1 3 2 0 2-1 3-3 3zm9-1c-1 1-3 0-3-2l2-3c2 0 3 1 3 2 1 2 0 3-2 3zm-27-4c-1-1-2-2-1-3l2-1h2c1 1 2 2 1 4h-4zm-3-6c-1 1-3 1-4-1-1-1 0-2 1-3l1-1c1 0 2 0 3 2 1 1 0 2-1 3zm-4-7c-2 0-3-1-3-2-1-2 0-3 1-3l1-1 3 2-2 4zm-2-9-2-2v-2l2-1h2l1 1v2c-1 2-2 2-3 2z" class="stf"/><path d="M1772 730c-14 6-30 6-41-1-7-4-13-10-15-17-3-8-2-16 2-22 2-4 5-6 9-8h2c5-2 10-1 13 1 2 1 4 3 4 5 1 3 0 5-1 7-1 3-4 3-7 2v-1l1-1 3 1 2-2v-5c0-2-1-3-3-4-3-2-7-3-12-1-4 1-8 4-10 7-3 6-4 13-2 20 3 7 8 13 14 17 12 7 26 7 40 0h1v2z" class="stf"/><path d="M1721 672c-14 6-21 21-17 39 4 22 19 37 40 37 11 1 22-2 32-7l1 1c-10 6-22 9-34 8-21-1-37-16-41-38-4-19 3-35 18-42h1v2z" class="stf"/><path d="m1721 670 1 1-1 1v-2h-1 1zm14 95c-25-1-48-22-53-49-4-20-5-40 13-54h2c-17 13-18 31-13 53 5 27 27 47 51 48 16 1 31-4 45-13v2c-13 9-29 14-45 13zm-40-103 2-2h1v1l-1 1h-2z" class="stf"/><path d="M1700 767a87 87 0 0 1-41-59c-3-21 3-42 10-55l1 1 1-1c-7 13-13 34-10 54 4 23 17 43 40 58 23 16 47 12 62 5l19-11 1 2-19 11c-16 7-40 11-64-5zm51 11v-1c-12 4-37 16-28 26 13 15 26-12 28-25zm-16 16c4 4 10-8 12-11-3 13-13 21-18 17-4-5 6-15 17-18-3 1-15 8-11 12zm-53-8c3 19 28 2 37-7l-1-2c-12-3-39-5-36 9zm30-8c-3 0-17 0-15 5 1 6 12-1 16-2-9 9-23 10-24 4-2-5 12-10 23-7zm-56-27c-7 18 22 17 35 14v-1c-8-10-30-26-35-13zm6 4c2-6 16-2 23 6-3-2-14-9-15-4-2 6 11 6 15 6-13 3-25-2-23-8zm-23-45c-14 13 14 24 27 26l1-1c-5-12-18-35-28-25zm4 5c4-4 15 5 19 15-2-2-9-14-13-9-4 4 8 9 11 11-12-2-21-12-17-17zm13-11h1c-1-13-7-39-19-33-17 9 6 27 18 33zm-16-26c5-3 13 9 14 20-1-4-5-17-10-13-5 3 5 11 8 14-12-6-17-18-12-21zm18-6h2c3-12 7-39-7-37-19 3-4 28 5 37zm-5-30c5-1 9 13 6 24 0-4 1-17-5-16s1 13 2 16c-8-9-9-22-3-24zm22 6-4 5c12-5 32-21 21-30-15-12-22 17-23 30a50 50 0 0 1 5-6h1v1zm0 1c2-3 12-11 8-14-5-4-9 9-11 12 1-12 10-22 15-19 5 4-3 16-12 21z" class="stf"/><path d="M1669 653a44 44 0 0 1 5-6h1v1l-4 5-1 1-1-1zm-243-402-2-1m-79-5-3-4 1 1c27 16 54 20 75 11 3-1 5-2 6-4l2 2-7 3c-21 10-47 6-74-9z" class="stf"/><path d="M1342 242v-1l3 4-3-2v-1zm18 18-6-6a75 75 0 0 0 81 6l1 1c-9 6-20 9-31 10-16 1-32-3-45-11zm-9-6h-1l-4-4v-1h1l7 5 6 7-4-3-5-4z" class="stf"/><path d="m1368 269-6-6a80 80 0 0 0 81 5l2 1c-10 6-21 9-32 9-16 1-31-2-45-9z" class="stf"/><path d="m1350 254 6 4 6 5 7 6-19-14v-1zm1 0zm246 269h-1v1c-3 3-8 2-9-3 0-3 2-6 4-8l8-13 2 1 1 9 2 7 1 6c-2 5-5 3-8 1h1l-1-1zm-23 10-1 1-1 2c-3 2-7 0-7-5 0-2 3-5 5-6 3-4 7-8 9-13 1-1 2 0 2 1v9l2 7-1 7c-2 5-5 1-8 0v-3zm50 22c-8-3-13-9-15-17-2-4-1-9 1-13s6-8 10-9h6l5 9-3 3h-2l1-2c2 0 3-2 2-4-1-3-5-5-9-4-3 1-6 4-8 8s-3 8-2 12c2 7 7 12 14 15s15 3 22 1h1l1 1-1 1c-8 2-16 2-23-1z" class="stf"/><path d="M1614 565c-17-10-24-26-18-41v-1l1 1c-5 15 2 30 18 39 13 9 27 10 40 5l1 2c-13 5-28 4-42-5z" class="stf"/><path d="M1596 524v-1h1l1 1h-1l-1-1v1zm8 59c-18-11-34-23-32-47l2-1v1c-2 21 11 34 30 45s42 12 59 3l1 1c-18 9-41 9-60-2z" class="stf"/><path d="M1573 536v-2l1-1 1 1-1 1-1 1zm-189-254-4-3c14 6 45 8 71-3l2 1c-25 11-53 10-69 5z" class="stf"/><path d="M1376 277h1l3 1 4 4-8-4v-1zm167 88 1 1v1h1c-6-1-11 1-15 3h4c4-1 9 0 13 1l2 4c-6-5-17-5-23-1l-2 1-2 3c-4 6-2 15 2 20 9 13 30 12 38 1l1 1v1c-1-1-3 0-2 1l-2 2-4 3v-1c-1-1-2 0-2 1v1l-5 1h-2l-10-1-2-1-3-1-4-2c1-1 0-2-1-2l-5-5v-2h-1l-2-8v-2c0-3 0-5 2-7v-1 1c1 0 3-1 2-2h-1c2-4 5-6 9-8v1h1l1-1v-1l11-2z" class="stf"/><path d="M1546 398c-9 2-19-6-17-14 0-4 3-7 8-7s6 5 4 7c-1 1-1 0-1-1 0-3-11-2-9 5 2 4 5 7 9 8 8 2 14-6 13-13l3 5c-1 4-4 8-10 10z" class="stf"/><path d="M1512 355c1 0 1 0 0 0 1 1 0 2-1 1v-1l-1 1c1 1 0 3-1 2v-1l-1 1c-2 3-1 6 0 8l-6 2-1 1-1 1v2l-1-1-1 1c-1 3 0 6 2 9l-4 2v2h-1l-1 1v2h-1l1 3a8 8 0 0 0 6 5l-2 3-1 1-1 2v1h1v2c1 4 5 5 8 4v8c1 0 2 1 1 2l2 2c2 2 5 2 7 1l1 4 1-1 1 2v1c1-1 2 0 1 1l7 2 3-3 2 4 2 1h1c1-2 2-1 2 0 3 0 5-1 6-3l6 3h2l1-1c0-1 2-3 2-1l1-2c2 3 7 2 9 1l2-1v-1c-1-1 1-2 1-1l1-1-1-1 1-2v-2l8 1-1-2c-2 1-5 0-8-1v-2c1-1 2-1 2-3l1-3-5-9-1-2-2 2c3 2 5 5 6 8 1 7-6 6-10 3l-2-6h-2l3 7v3c-1 2-2 3-4 2-3 0-4-2-4-5l-1-5h1-2c-1 2 0 5 1 7-2 3-4 6-6 5-2 0-4-1-5-3-2-3-1-7 0-10l-2-1-1 7c-3 2-6 6-9 4l-2-5c0-4 2-8 5-10l-1-1-5 6-6 2c-3 0-6-2-5-5 1-5 7-7 11-8l-1-2-8 3c-2-1-4-1-5-3s-2-5 0-6c2-4 7-3 11-2v-2l-8-1c-4-1-3-6-2-8s3-3 4-2l4 1 4 2 1-2c-4-2-6-8-3-12 4-5 9 1 12 5l2-1c-1-3-3-10 0-13l-1-1c-3 3-3 7-2 11l-4-3c-1-4-4-8-1-12l1-1v-1c0 2-2 2-2 1l-2 4 1 6c-2-2-6-4-10-3zm42 66c2-1 3-3 3-5l7 2c2 3 3 8-2 11-1 0-5 1-7-1l-1-7zm-12 2c2 0 4-2 5-5 1 2 3 4 5 4h1c1 3 1 8-4 10-4 1-7-4-7-9zm-11 4 2-9 4 4 3 1 1 5c-1 5-12 5-10-1zm-14-5 4-4 5 2 5-2c0 3-2 8-4 10-4 4-9-2-10-6zm-10-12 1-1 5 3 7-2v6c-2 3-7 7-11 4-2-3-4-7-2-10zm-2-14 1 1 5 3c-4 3-3 7-3 7-4 2-9 1-10-3l2-5 5-3zm-4-14 4 1h1l2 2-4 4v5h-5c-2-1-4-2-4-4 0-3 4-8 6-8zm8-14 4 4h-2c-2 0-4 1-5 3l-1 6c-4 0-8-6-5-9 2-2 6-5 9-4zm12-9-4 3c-3 2-3 6-2 9-3-2-7-6-6-11 2-6 8-3 12-1zm26 50h-2 2z" class="stf"/><path d="M1562 401h1l-2 1c-1-1 1-2 1-1zm-8 5 1 1-2 1v-1c-1-1 1-2 1-1zm-10-40zm-8 41-1 1-1-1h2zm-9-4-2-1h1c1-1 2 1 1 1zm4-34-1-1 2-1-1 2zm-13 18v-2 2zm3-11c1 0 0 2-1 1l1-2v1zm0 21-1-2c1 0 2 1 1 2zm45 61 1 1c-4 0-7-3-9-6-5-5-7-13-7-20l2-2c0 6 1 12 3 16 2 5 7 7 11 6 4-2 6-6 5-10l-7-14 1-1c3 5 12 19 8 27v-1c0-2-3 0-2 1v2c-1 1-1 2-3 2v-2c-1-1-3-1-3 1z" class="stf"/><path d="m1566 428-1 1-1-1h2zm-13 3-2 2v-1l2-1zm-40 24v1l-2-7c0-5 1-10 3-14l2-5 2-2 1 1c-3 5-5 9-6 15 0 4 2 9 6 10s8-1 10-5l2-17 2 1c-1 7-2 28-13 28l1-2c0-1-2-2-3-1l-1 3v-1l-2-1v-1c1-1-1-4-2-3z" class="stf"/><path d="m1519 429-1-1c1-1 2 0 1 1zm14 4-2-1 2 1zm-42 9 1-7c2-7 7-13 13-17v-1l1 2-10 11c-2 5-2 10 2 12 3 3 8 2 10-1l9-15 1 2-2 2-2 5c-4 8-11 17-18 14l1-1c1-1-1-3-2-2l-2 2-2-3 1-1c2-1 0-3-1-2z" class="stf"/><path d="m1518 428-1-2v-1l1 3zm-11-9h-1l-1-1c1-1 2 0 2 1zm9 11zm-42-8c0-3 2-6 4-8 4-5 12-9 19-10v1l-14 7c-4 3-5 8-3 11 2 4 7 5 10 3 5-2 9-6 12-9l2-2 1 2-1 1c-5 4-20 18-28 11l3-1c2-1 1-3-1-3l-4 2-1-2 1-1c2-1 1-3 0-2zm31-5v-3 3z" class="stf"/><path d="M1497 405v-2c1 0 2 2 0 2zm-27-12h-1l4-2c6-4 14-5 21-4l-1 1c-5 0-10 0-14 2-5 1-8 5-7 9 0 5 5 7 9 7l16-6-1 2c-6 3-25 11-30 2h3c2 0 1-3 0-3h-4l1-5h1l3-3z" class="stf"/><path d="m1494 389-1-1 1-1v2zm3 13v-2 2zm-26-35c3-2 6-2 8-2 7-1 15 1 21 5l-1 1-14-5c-5 0-9 2-10 6-2 5 1 9 5 10l16 1-1 2c-7 0-26-1-27-10 2 1 3-2 1-3h-1v-1l1-2h1c2 0 3-2 1-2z" class="stf"/><path d="M1496 385h-1l1-2v2zm4-13-1-1 1-1v2zm-13-28-1-1 6 1c7 2 13 6 18 12l-1 1-12-9c-5-3-10-2-12 2-2 3-1 8 2 10l15 8-1 1c-6-3-26-10-23-20l2 2c1 1 3-1 2-2l-3-3h1c0-1 1-2 3-2h1c1 2 4 1 3 0zm14 25 1-1-1 1z" class="stf"/><path d="m1509 358-1-1 2-1c1 1 0 3-1 2zm-5-26c-4 2-4 7-2 11l10 12h-1c-5-5-19-19-13-26l1 1c1 2 3 0 2-1l-1-2 1-1h1l6 5-4 1zm19 16-1-3 2 2-1 1zm-12 8v-1h1c1 1 0 2-1 1z" class="stf"/><path d="M1525 348h-2l1-1h1v1zm42 78v-3l10 16c3 2 6 3 8 2l3 5c-3 0-5-1-7-3-6-3-11-10-14-17zm0-3v3l-1-1c0-1 0-3 1-2zm-28 39-5-7c-2-7-2-15 0-22h2c-2 6-2 11-1 16 0 5 4 8 8 8 5 0 8-4 8-8l-3-16h2c1 6 6 25-2 30v-2c1-2-2-2-2 0v3h-4l-1-2h-2zm11-29h-2 2z" class="stf"/><path d="M1536 433v1l-2-1h2zm15 51c2 7 9 11 15 10 6-2 10-8 8-14-1-7-4-14-7-21h3c5 11 17 41-2 45-7 1-12-6-16-11-5-8-7-19-6-29l2-1 3 21zm16-25-1-1c0-2 2-2 3-1l1 2h-3z" class="stf"/><path d="M1548 461v2l-2 1v-3c0-2 3-2 2 0zm42 22c-9-6-14-16-18-26l2-2c3 7 6 14 11 20 5 5 12 7 17 4l3-2 5 9-2 1c-6 3-14-1-18-4z" class="stf"/><path d="M1574 454v1l-2 2v-2c-1-1 2-2 2-1zm-76-126c-4-6-8-11-14-16-6-4-13-4-17 0-5 5-5 12 0 16 5 6 13 11 19 15l-4 1c-10-7-37-25-23-39 5-5 14-2 19 1 9 4 17 12 22 21l-2 1z" class="stf"/><path d="m1486 343 1 1c1 1-2 2-3 1l-2-1 4-1zm13-13-1-2 2-1 1 2c1 1-1 3-2 1zm-39 8c-6-2-14 0-16 5-3 6-1 13 5 16l22 7 1 1-3 2c-11-4-44-13-34-30 3-6 12-6 18-6 9 1 19 7 26 13l-1 3c-5-5-11-8-18-11z" class="stf"/><path d="M1471 367c2 0 1 2-1 2h-1l2-2zm9-16-2-2 1-3 3 2c1 2-1 4-2 3zm-12 24c-8-3-15-4-23-4-7 0-12 5-13 11 0 7 5 12 11 13l26-2-3 3c-11 1-46 6-44-15 1-6 9-10 15-11 10-3 21-2 31 2v3z" class="stf"/><path d="M1469 393h1l-3 3h-1l3-3zm0-18h-1v-3h1c2 1 1 4 0 3zm-23 34c-7 3-10 9-8 15s8 9 14 8l22-10-1 3c-10 6-40 22-45 2-1-6 5-13 9-16 8-6 18-9 28-10l1 3c-7 0-14 2-20 5z" class="stf"/><path d="M1474 422v-1c1 0 2 2 1 3l-2 1 1-3zm-5-18h-3l-1-3h3c2 0 3 3 1 3zm-9 37c-5 5-5 13-1 17 4 5 11 5 16 2 6-5 11-12 16-18l1 3c-8 9-29 35-41 19-4-5 0-13 2-18 5-8 13-15 21-19l2 2c-6 3-11 7-16 12z" class="stf"/><path d="M1491 442c1-1 3 1 2 2l-1 1-1-3zm-11-14-4 1-2-2 4-2c2 0 3 2 2 3zm4 39c-3 6-1 14 4 17s12 1 16-5l9-23 2 3c-4 11-15 44-32 33-6-4-5-13-4-18 1-10 7-19 15-26l2 1c-5 5-9 11-12 18z" class="stf"/><path d="M1513 455c1-1 3 2 2 4l-2-2v-2zm-16-7-1 1-3-1 2-2c2-1 4 1 2 2zm18 34c0 7 5 13 11 14s12-4 13-10v-24l2 2c1 11 3 45-17 42-6-2-9-10-10-16-3-9-1-20 3-29h3c-3 7-4 14-5 21zm6-23-1 2h-3l1-3c1-1 3 0 3 1z" class="stf"/><path d="M1539 462h2v2l-2-2z" class="stf"/></g></defs><g class="left"><use href="#rightLeave"/><use href="#leftLeave"/><use href="#rightLeave"/><use href="#leftLeave"/><use href="#rightLeave"/><use href="#leftLeave"/><use href="#rightLeave"/><use href="#leftLeave"/></g></svg>