<?xml version="1.0" encoding="utf-8"?>
<!-- Generator: Adobe Illustrator 23.0.1, SVG Export Plug-In . SVG Version: 6.00 Build 0)  -->
<svg version="1.1" id="Layer_1" xmlns="http://www.w3.org/2000/svg" xmlns:xlink="http://www.w3.org/1999/xlink" x="0px" y="0px"
	 viewBox="0 0 1049 598" style="enable-background:new 0 0 1049 598;" xml:space="preserve">
<style type="text/css">
	.st0{fill:#2E4245;}
	.st1{fill:#3F5A5E;}
	.st2{opacity:0.2;}
	.st3{fill:#507378;}
	.st4{fill:#FFCC8F;}
	.st5{fill:#FFBF75;}
	.st6{fill:#FFDAB0;}
	.st7{opacity:0.3;}
	.st8{opacity:0.3;fill:#FFFFFF;}
	.st9{opacity:0.2;fill:#FFFFFF;}
	.st10{fill:#DE3D31;}
	.st11{opacity:5.000000e-02;fill:#FFFFFF;}
	.st12{opacity:0.1;fill:#FFFFFF;}
	.st13{opacity:0.15;fill:#FFFFFF;}
	.st14{fill:#C48745;}
</style>
<g>
	<g>
		<path class="st0" d="M461,490.9c-2.7-13.8-11.2-335.4-7.2-347.6c4-12.3,27.4-10.9,50.8,9.8c23.4,20.7,33.4,20.7,39.5,46.8
			c6,26.1,38.9,363.9,38.2,375.3c-0.7,11.4-36-29.5-59.3-54.2C499.8,496.3,463.2,501.9,461,490.9z"/>
		<path class="st1" d="M62.2,212.8c5.3-0.3,389.8-58.6,398.7-55.9c8.9,2.7,12.9,337.4,3.6,341.4c-9.4,4-440.2,98.8-449.5,99.7
			c-9.4,0.9-14.3-9.5-15-18.3C-0.4,574.1,51.2,213.3,62.2,212.8z"/>
		<path class="st0" d="M57.8,205.4c5.3-2.9,395.5-64.7,404.5-62c8.9,2.7,14.3,336.9,5,340.9c-9.4,4-449.4,101-458.8,101.9
			c-9.4,0.9-9.4-4.9-7.6-16.1C2.7,558.9,48.1,210.6,57.8,205.4z"/>
		<path class="st1" d="M467.3,484.3c-4.3,1.2-6.7,17.2,0,21.1c12.4,7.4,20.1-7.5,51.5,20.3c30.2,26.7,37.5,54.5,49.6,58
			c18,5.2,26.2-19.4,8.2-19.4c-8.1,0-22.5-22.7-46.4-45.3C508.1,498.2,476.9,481.5,467.3,484.3z"/>
		<path class="st1" d="M580.6,581.1c9.8-0.1,439.5-11,450.3-11c13.8,0,12.4-19.3,10.8-24.6c-4.6-15-92.4-343.8-98.2-349.5
			c-5.8-5.8-402.3,3.6-409.4,8.9C527,210.2,574.5,581.1,580.6,581.1z"/>
		<path class="st0" d="M576.5,564.3c9.8-0.1,446.8-9.1,457.5-10.4c10.7-1.3,8.3-6.3,7.1-10.6c-4.2-15.1-94.5-357.8-100.3-363.6
			c-5.8-5.8-402.3,3.6-409.4,8.9C524.2,194,570.4,564.3,576.5,564.3z"/>
		<path class="st2" d="M67.3,216.7c0,0-19.1,261.8-40.9,352.6c0,0,116-17.8,208.6-44.2c92.6-26.3,205.9-52.3,237.2-50.9
			c18.3,2.6,37.8,11.4,52.7,22.5c14.8,11.1,39.2,41.8,48.6,56.8c9.8,1.2,445.2-5.5,450.4-7.7c5.2-2.2-84.4-348.9-84.4-348.9
			L67.3,216.7z"/>
		<path class="st3" d="M20.4,583.8c-0.1-1.2,421.1-94.9,422-93.4C443.4,492,20.6,586.4,20.4,583.8z"/>
		<path class="st3" d="M699.6,561.8c0.2-0.7,329.5-9.2,329.7-7.7C1029.6,555.7,699.4,562.5,699.6,561.8z"/>
	</g>
	<g>
		<path class="st4" d="M878.1,101.6c0,0,69.9,328.4,70.8,347.8c0.9,19.4-417.9,48.7-422.8,45.5c-4.9-3.2-14.8-339.5-8.7-347.8
			c6.1-8.3,31-69,114.9-57.4C716.1,101.3,875.7,99.9,878.1,101.6z"/>
		<path class="st5" d="M574.4,551.9c0,0-18.6-30.9-48.4-57c0,0,30.1-56.9,140.5-47.5s274.3,1.3,282.3,2c8,0.7,66.2,85,69.6,88.3
			C1021.8,541.1,574.8,554.1,574.4,551.9z"/>
		<path class="st6" d="M937.4,189.9c-1.4-2.1-15.1-23.4-29-44.6l-4-0.2l-2.2-9.1c-12.1-18.3-23-34.3-24.2-34.4
			c-2.8-0.3,66.8,334.4,70.8,347.8c4,13.4,68.2,88.8,69.6,88.3C1022.5,536.4,940.2,194.1,937.4,189.9z"/>
		<path class="st7" d="M576,499.3c0,0,43.3-21.1,97.2-15.3c53.9,5.7,146.9,7.2,146.9,7.2s-82.2,0.4-145.7-1.4
			C611,487.9,576,499.3,576,499.3z"/>
		<path class="st7" d="M703.8,513.2c0,0,153.3-6.2,206.8-3.3C910.6,509.9,723.4,514,703.8,513.2z"/>
		<path class="st7" d="M953.4,373l28.9,122.9c0,0-46.7,0.3-75,0c0,0,69.2,4.1,78.9,4.8L953.4,373z"/>
		<polygon class="st8" points="946.8,322.4 908.4,145.3 908.4,145.3 904.5,145.1 		"/>
		<path class="st7" d="M943.5,256.1c0,0,18.9,101.1,36.6,164C980.1,420.2,947.2,269.4,943.5,256.1z"/>
		<path class="st9" d="M769,471.6c0,0,92.7,3.1,163.8-1.5C932.8,470.1,853.8,480.7,769,471.6z"/>
	</g>
	<path class="st7" d="M899.6,446.4L849,150l-307.6,35.5l-15.3,309.4c0,0,22.1-43.4,106.8-56.8c0.6-0.1,1.1-0.2,1.7-0.3
		c1.3,2.4,2.9,5.9,3.4,8.5c0.8,4.4-2.7,42.9-2.5,63.9c0.2,21,2.6,38.9,3.4,40.9c0.8,2,4.2,9.7,5.7,10.2c1.5,0.6,49.6-27.8,51.9-27.3
		c2.3,0.5,33.3,21.4,37,20.9c3.6-0.5,0.6-101.9,0-109.8c-0.1-1.9-0.5-3.6-1-5.1C775.9,446.2,824.5,454.2,899.6,446.4z"/>
	<g>
		<path class="st10" d="M619.4,407.2c4.7,6.7,22.1,24.8,23.9,39.2s-8,58.1,2.2,121.4c6.9,2.6,45.9-38.5,51.2-37.8
			c4.5,0.6,40.5,32.8,40.5,27.1c0-2.7-2.7-64.6,1-105.9c2-22.5-32.4-61-32.4-61L619.4,407.2z"/>
		<path class="st7" d="M736.2,438.2c-5.5-16.9-20.7-36.4-27.4-44.4h-21.8l-67.7,13.4c3.9,5.6,16.7,19.2,21.9,31.9
			C657.7,437.3,712.6,437.5,736.2,438.2z"/>
		<path class="st8" d="M642.9,444.2c0.2,0.7,0.3,1.4,0.4,2.1c0.5,4.3,0,11.4-0.7,20.8c17.1-4.9,70.1-5.8,94.8-6
			c0.2-3.4,0.5-6.8,0.7-10c0.1-0.9,0.1-1.8,0.1-2.7C712,447.1,655.7,443.6,642.9,444.2z"/>
	</g>
	<g>
		<path class="st6" d="M526.1,494.9c0,0,28.9-56,112.3-66.3c83.4-10.3,177.5,40.6,280.1-14.7c0,0-48.9-291.6-50.8-363.3
			c0,0-36.1,33.2-123.1,37.6c-87,4.4-163.7-58.8-227.2,58.8C511.1,177.9,526.1,494.9,526.1,494.9z"/>
		<path class="st4" d="M810.7,120c-65.5,22.2-136.1,13.6-179.4,5c-43.1-8.5-80.6,6.5-115.5,47.8c-0.7,52.8,3.6,168.2,6.8,245.6
			c64.4-48.7,107.1-59.6,181.2-47.4c94.2,15.5,143.6,6.3,143.6,6.3C829,282.4,810.7,120,810.7,120z"/>
		<path class="st7" d="M579.5,82.7c-21.9,9.2-42.7,28.3-62.2,64.4c-6.3,30.8,8.7,347.8,8.7,347.8s16.7-32.4,61.4-52.4
			C553.3,346.9,559.7,152.3,579.5,82.7z"/>
		<path class="st11" d="M640,76.4c19.2,76.2,4.1,253.1-2.3,352.3c0.2,0,0.4-0.1,0.7-0.1c47.1-5.8,97.5,7.9,151,10.9
			c-24.8-93.3-59.1-266-56-351.1C700.7,88.1,669.5,79.6,640,76.4z"/>
		<path class="st12" d="M905.8,420.2c4.2-1.9,8.5-4,12.7-6.3c0,0-48.9-291.6-50.8-363.3c0,0-14.4,13.2-46.9,24.1
			C838.1,150.4,871.1,325.4,905.8,420.2z"/>
	</g>
	<g>
		<path class="st4" d="M140.1,109.6c-4.1,14.7-10.2,28-17.1,39.8c0,0,0,0,0,0c0.1,3,0.2,6.7,0.1,11H116c0,0,0,0,0,0
			c-6.4,9.4-13.1,17.6-19.5,24.5c0,0,0,0,0,0c0.1,1.2,0.2,2.3,0.2,3.5h-3.5c0,0,0,0,0,0c-14.4,15-26.1,23.1-26.1,23.1
			c3.6,137.1-31.4,353.4-31.4,353.4S95.9,530.4,116,463C161.5,213.1,140.1,109.6,140.1,109.6z"/>
		<path class="st6" d="M542.7,76.3c20.1,86.3,6.2,297,7.5,345.2c1.3,48.3-36-72.8-167.3-23.6C164.8,479.5,116,463,116,463
			s26.5-238.8,24.1-353.4c0,0,113.8,2.5,208.4-58.2C443.1-9.3,521.6-14.6,542.7,76.3z"/>
		<path class="st4" d="M549.3,119.3c-26.1-79-104.7-85.3-175.7-38.8c-80.9,52.9-147.6,58.5-147.6,58.5
			c5.4,127.9-15.5,238.5-15.5,238.5c96-7.8,198.7-77.3,265.1-81.6c49.8-3.2,68,28.9,76,52.5C553.5,280.7,555.9,186,549.3,119.3z"/>
		<path class="st11" d="M516.6,25.4C489.8-0.3,447.7,1.8,398,24.1c7.7,88.5-7,264.2-20.1,375.6c1.7-0.6,3.3-1.2,5-1.9
			c59.8-22.4,100.1-9.5,126.1,6.7C504.3,286,504.9,122.9,516.6,25.4z"/>
		<path class="st5" d="M35.7,564.9c0,0,69.6-68.4,80.3-101.9c0,0,110.4-7,203.4-59.8c83.4-47.4,172.3-81.2,214-31.9
			c41.8,49.3-7.3,123.5-7.3,123.5s-25-18.1-52.6-22.5c0,0,6.2-30.8-39.7-20.5C387.8,462.1,176.2,547.7,35.7,564.9z"/>
		<path class="st7" d="M329.8,434c35.5-7.4,135.1-66.2,168.2-49.2c33.1,17.1,9.7,64.2,9.7,64.2s5.8-48.3-16.1-55.9
			c-21.9-7.6-69.3,10.3-111,25.6C338.9,434.2,329.8,434,329.8,434z"/>
		<path class="st7" d="M85.2,354.3c0,0-2.1,107.5-14.2,173.1c0,0,53.4-4.6,149-36.3c0,0-94.5,27.4-144.5,31.1
			C75.5,522.2,89.2,424,85.2,354.3z"/>
		<g>
			<polygon class="st8" points="93.2,188.4 93.2,188.4 93.2,188.4 			"/>
			<polygon class="st8" points="96.5,184.9 96.5,184.9 96.5,184.9 			"/>
			<path class="st8" d="M93.2,188.4c0,0,7.6,123,6.4,165.9c0,0,4.7-47.7-2.2-155.7c-0.3-4.5-0.7-10.2-0.7-10.2H93.2z"/>
		</g>
		<g>
			<path class="st8" d="M123.1,160.4H116c0,0,0.7,87.4,0,126C116,286.5,122.7,200.1,123.1,160.4z"/>
		</g>
		<path class="st7" d="M166.7,491.1c0,0,87.2-16.6,139.5-37.6L166.7,491.1z"/>
		<path class="st7" d="M422.8,425.1c0,0,44-16.5,59.9-5.5c15.9,11,10.4,32.4,10.4,32.4s-0.7-21.8-16.2-30
			C461.4,413.7,422.8,425.1,422.8,425.1z"/>
		<path class="st7" d="M438.8,362.6c0,0,54.9-18.7,84.8,8.5c29.9,27.2,9.8,91.6,9.8,91.6s15.1-61-11.2-89.4
			C495.8,344.9,438.8,362.6,438.8,362.6z"/>
		<path class="st13" d="M60.8,209.9c1.8-3,9.9-6.1,18.7-8.7c-13.1,2.3-20.9,3.8-21.6,4.1C49.5,209.9,15,466.3,4.1,546.6
			C18.3,459.7,57.3,215.8,60.8,209.9z"/>
		<path class="st9" d="M129.1,478.1c0,0,61.4-5,149.5-37.2C278.6,440.8,215.4,472.2,129.1,478.1z"/>
		<path class="st9" d="M491.7,393.2c-21.9-7.6-69.3,10.3-111,25.6c-14.1,5.2-24.5,8.6-32,10.9c0,0,0,0,0,0s12-2.7,74.2-23.7
			c62.2-21,76.5-11.7,82.3,3.5C502.6,401.9,498.5,395.5,491.7,393.2z"/>
		<path class="st7" d="M380.2,449c-135.8,52.3-234.7,76.5-234.7,76.5S246.2,507.1,380.2,449z"/>
		<path class="st9" d="M162.5,521.9L162.5,521.9c0,0,31.4-4.6,100.4-25.8c69-21.2,115.2-46.1,115.2-46.1s0,0-0.1,0
			C277.7,493.3,196.3,514.2,162.5,521.9z"/>
		<path class="st7" d="M306.2,427.6c48.1-18.5,152-78.5,195-56.5c0,0-22.3-9.7-66.1,5.2c-18.6,6.4-40.6,15.1-59.5,23.1
			C321.3,422.6,306.2,427.6,306.2,427.6z"/>
		<path class="st9" d="M435.1,376.3c-18.6,6.4-40.6,15.1-59.5,23.1c-16.5,7-29.4,12.4-39.3,16.5c0,0,0,0,0,0s43.3-16.3,69.2-26.7
			c25.9-10.4,49.1-19.5,64.6-20.7C460.5,369.3,448.9,371.6,435.1,376.3z"/>
		<path class="st12" d="M162.6,108.8c-14.1,1-22.6,0.8-22.6,0.8c1.5,70.9-8.1,189.4-15.6,269.4C146.6,262.2,159.5,162.4,162.6,108.8
			z"/>
	</g>
</g>
<g>
	<path class="st14" d="M295.7,162c-0.2,0.1-0.5,0.2-0.9,0.3c-0.4,0.1-0.8,0.1-1.2,0.1c-0.4,0-0.9-0.2-1.3-0.5
		c-0.4-0.3-0.7-0.8-1-1.5c-0.2-0.6-0.4-1.3-0.6-2.3c-0.1-1-0.3-2.5-0.5-4.4c-0.1-1.5-0.3-2.9-0.4-4.4c-0.1-1.4-0.3-2.9-0.6-4.4
		c-0.3-1.5-0.8-3-1.4-4.6c-0.4-0.9-0.7-1.7-1.1-2.2c-0.4-0.6-0.8-1-1.2-1.2c-0.4-0.2-0.9-0.2-1.4,0c-0.5,0.2-0.9,0.6-1.2,1
		c-0.3,0.5-0.5,1-0.5,1.6c-0.1,0.6-0.1,1.2,0,1.8c0.1,0.6,0.3,1.2,0.5,1.8c0.4,1,0.9,1.7,1.5,2.2c-1.1,0.4-2,0.5-2.7,0.2
		c-0.7-0.3-1.2-0.8-1.5-1.6c-0.3-0.7-0.4-1.4-0.3-2.3c0-0.8,0.2-1.7,0.6-2.5c0.4-0.8,0.8-1.6,1.5-2.3c0.6-0.7,1.4-1.2,2.3-1.6
		c1.5-0.6,2.9-0.5,4.1,0.3c1.2,0.8,2.3,2.2,3.1,4.3c0.6,1.5,1.1,3.2,1.3,5c0.3,1.8,0.5,3.8,0.6,6.1c0.1,0.8,0.1,1.7,0.2,2.7
		c0,1,0.1,2,0.3,3c0.1,1,0.4,1.9,0.7,2.8c0.2,0.4,0.3,0.7,0.5,0.8c0.2,0.1,0.4,0.1,0.7,0c0.6-0.2,1.1-0.8,1.6-1.5
		c0.5-0.8,0.9-1.8,1.2-2.9c0.3-1.1,0.6-2.4,0.8-3.7s0.3-2.7,0.4-4c0.1-1.3,0.1-2.6,0-3.7c-0.1-1.2-0.2-2.1-0.4-2.9
		c0.8-0.3,1.6-0.4,2.3-0.1c0.7,0.3,1.1,0.6,1.2,1.1c0.1,0.2,0.1,0.6,0.2,1.2s0,1.5,0,2.8c0,1,0,2,0,3.1c0,1.1,0.1,2.2,0.2,3.2
		c0.1,1,0.3,1.9,0.7,2.7c0.2,0.4,0.4,0.7,0.6,0.9c0.2,0.2,0.5,0.2,0.8,0c0.6-0.3,1.2-0.8,1.8-1.8c0.6-0.9,1.1-2.1,1.5-3.5
		c0.4-1.4,0.8-2.9,1.1-4.6c0.3-1.7,0.5-3.3,0.6-5c0.1-1.7,0.1-3.3-0.1-4.8c-0.2-1.5-0.5-2.9-0.9-4c-0.5-1.2-1.1-2-1.7-2.3
		c-0.6-0.3-1.3-0.5-2.1-0.4c0.1-0.8,0.4-1.5,0.7-1.9c0.3-0.5,0.7-0.8,1-0.9c0.5-0.2,1.2-0.1,2,0.3c0.8,0.4,1.5,1.4,2.1,2.8
		c0.5,1.2,0.8,2.6,1,4.3c0.2,1.7,0.2,3.6,0.1,5.5c-0.1,2-0.4,4-0.7,5.9c-0.4,2-0.9,3.8-1.5,5.6c-0.6,1.7-1.4,3.2-2.2,4.4
		c-0.9,1.2-1.8,2-2.8,2.5c-0.6,0.2-1.1,0.3-1.7,0.3c-0.6,0-1-0.2-1.5-0.6s-0.8-0.8-1-1.4c-0.1-0.3-0.2-0.6-0.2-0.9
		c-0.1-0.3-0.1-0.6-0.1-1c-0.5,1.8-1.2,3.4-1.9,4.7C297.8,160.7,296.8,161.5,295.7,162z"/>
	<path class="st14" d="M320.7,149.9c-0.7,0.3-1.5,0.4-2.2,0.2c-0.8-0.2-1.4-0.8-1.8-1.8c-0.4-0.8-0.6-1.7-0.7-2.7
		c-0.1-1.1,0-2.2,0.2-3.3c0.2-1.2,0.5-2.3,0.9-3.4c0.4-1.1,1-2,1.7-2.9c0.7-0.9,1.5-1.5,2.3-1.9c0.9-0.4,1.8-0.6,2.7-0.4
		c0.9,0.2,1.5,0.6,1.9,1.4c0.3,0.6,0.3,1.1,0,1.6c-0.3,0.5-0.7,0.8-1.4,0.9c-0.1-0.2-0.1-0.4-0.2-0.6c-0.1-0.2-0.1-0.4-0.2-0.6
		c-0.2-0.4-0.5-0.8-0.8-1c-0.3-0.3-0.8-0.3-1.4,0c-0.6,0.3-1.1,0.8-1.6,1.5c-0.4,0.7-0.8,1.5-1,2.5c-0.3,0.9-0.4,1.9-0.5,2.9
		c-0.1,1-0.1,2,0,2.8c0.1,0.9,0.3,1.6,0.6,2.2c0.3,0.7,0.7,0.9,1.2,0.7c0.5-0.2,0.9-0.7,1.3-1.5c0.4-0.8,0.7-1.7,1-2.7
		c0.3-1,0.5-2.1,0.7-3.1c0.2-1,0.4-1.9,0.5-2.7c0-0.1,0.1-0.2,0.2-0.3c0.1,0,0.3-0.1,0.6-0.1c0.3,0,0.6,0,0.9,0
		c0.3,0,0.5,0.2,0.6,0.4c0.1,0.2,0.1,0.5,0.1,1c0,0.4-0.1,0.9-0.1,1.4c-0.1,0.5-0.1,1-0.1,1.5c0,0.5,0.1,0.9,0.3,1.3
		c0.1,0.3,0.3,0.5,0.6,0.7c0.3,0.2,0.6,0.2,0.9,0c0.5-0.3,1.1-1,1.6-2.2s0.9-3,1-5.3l0.9,0.3c0,1.4-0.1,2.7-0.4,4
		c-0.3,1.2-0.7,2.3-1.3,3.2c-0.6,0.9-1.2,1.5-2.1,1.9c-0.9,0.4-1.7,0.5-2.4,0.1s-1.2-0.8-1.6-1.5c0,0,0-0.1,0-0.1s0,0,0-0.1
		c-0.4,1.5-0.8,2.7-1.2,3.6C322.1,148.8,321.5,149.5,320.7,149.9z"/>
	<path class="st14" d="M336.2,141.5c-1,0.5-1.9,0.5-2.6,0.1c-0.7-0.5-1.4-1.2-1.8-2.1c-0.5-1-1-2.4-1.3-4c-0.3-1.6-0.6-3.3-0.8-5.2
		c-0.2-1.9-0.3-3.7-0.3-5.6c0-1.9,0.1-3.6,0.2-5.2c0.1-1.6,0.4-2.9,0.6-4c0.3-1.1,0.6-1.7,1-1.9c0.3-0.1,0.6-0.1,0.9,0.1
		c0.3,0.2,0.7,0.4,1,0.8c0.3,0.3,0.6,0.7,0.7,1c0.3,0.6,0.5,1.4,0.7,2.5s0.3,2.3,0.4,3.7c0.1,1.4,0,2.8-0.1,4.4
		c-0.1,1.5-0.3,3-0.6,4.5c-0.3,1.5-0.8,2.9-1.4,4.2c0.2,0.6,0.4,1.1,0.6,1.7s0.4,1.1,0.6,1.5c0.4,0.8,0.8,1.3,1.3,1.5
		c0.4,0.2,0.9,0.2,1.3,0c0.5-0.3,1-0.8,1.3-1.6c0.3-0.8,0.5-1.7,0.6-2.8c0.1-1,0.2-2.1,0.1-3.1l1,0c0.1,2.4-0.2,4.4-0.7,6.1
		C338.3,139.7,337.4,140.9,336.2,141.5z M332.5,132.5c0.3-1.2,0.6-2.4,0.7-3.6c0.2-1.3,0.3-2.5,0.3-3.8c0-1.2,0-2.4,0-3.5
		c-0.1-1.1-0.2-2.1-0.3-2.9c-0.1-0.8-0.3-1.5-0.5-1.9c0,0,0,0,0,0c0,0,0,0,0,0c-0.2,0.1-0.3,0.5-0.4,1.1c-0.1,0.7-0.2,1.6-0.3,2.7
		s-0.1,2.3-0.1,3.7c0,1.3,0.1,2.7,0.2,4.2C332,129.8,332.2,131.1,332.5,132.5z"/>
	<path class="st14" d="M340,121.1c-0.4,0.2-0.8,0.3-1.3,0.3c-0.4,0-0.8-0.2-1-0.7c-0.3-0.5-0.2-1.1,0.1-1.7c0.4-0.7,0.8-1.1,1.4-1.5
		c0.4-0.2,0.7-0.3,1.1-0.3c0.4,0,0.7,0.3,0.9,0.7c0.2,0.4,0.2,1,0,1.7C341,120.3,340.6,120.8,340,121.1z M344.1,137.3
		c-0.9,0.5-1.8,0.6-2.5,0.3c-0.8-0.3-1.4-0.8-1.8-1.6c-0.3-0.5-0.5-1.1-0.8-2c-0.2-0.8-0.4-1.7-0.6-2.7c-0.1-1-0.2-1.9-0.2-2.9
		c0-0.9,0.1-1.8,0.3-2.5c0.2-0.7,0.6-1.2,1-1.4c0.3-0.1,0.5-0.2,0.8-0.1c0.3,0,0.5,0.2,0.7,0.5c0.1,0.3,0.2,0.8,0.2,1.5
		c0,0.7-0.1,1.6-0.1,2.5c0,1,0,1.9,0.1,2.8c0.1,0.9,0.3,1.8,0.7,2.5c0.4,0.7,0.7,1.1,1.1,1.1c0.4,0.1,0.8,0,1.2-0.2
		c0.7-0.4,1.3-1.2,1.7-2.4c0.4-1.2,0.6-2.9,0.6-5.2l0.8,0.2c0.3,2.3,0.1,4.2-0.4,5.9C346.4,135.4,345.4,136.6,344.1,137.3z"/>
	<path class="st14" d="M366.1,124.6c-0.8,0.5-1.5,0.6-2.2,0.4c-0.7-0.2-1.2-0.7-1.6-1.3c-0.3-0.5-0.5-1-0.6-1.5
		c-0.1-0.6-0.3-1.1-0.4-1.7c-0.1-0.5-0.3-1-0.5-1.4c-0.2-0.3-0.4-0.6-0.6-0.6c-0.2-0.1-0.4,0-0.6,0.1c-0.5,0.3-0.8,1-1,2.1
		c-0.2,1.1-0.3,2.6-0.4,4.5c0,0.7,0,1.4,0,2.1c0,0.7,0.1,1.3,0.1,1.8c-0.2,0.1-0.4,0.2-0.8,0.3c-0.3,0.1-0.7,0.2-0.9,0.2
		c-0.3,0-0.5-0.1-0.6-0.2s-0.2-0.6-0.3-1.3c-0.1-0.7-0.3-1.4-0.4-2.3c-0.2-0.9-0.3-1.7-0.6-2.5c-0.2-0.8-0.5-1.5-0.7-1.9
		c-0.2-0.3-0.4-0.5-0.6-0.6c-0.2-0.1-0.4-0.1-0.6,0.1c-0.4,0.3-0.8,0.8-1.1,1.7c-0.3,0.9-0.5,1.9-0.7,3.2c-0.2,1.2-0.2,2.5-0.2,3.9
		c0,1.4,0.2,2.7,0.4,3.9c-0.2,0.1-0.5,0.3-0.9,0.4c-0.4,0.1-0.7,0.2-1.1,0.2s-0.5,0-0.6-0.1c0,0-0.1-0.4-0.3-1
		c-0.2-0.7-0.4-1.5-0.7-2.4c-0.3-1-0.6-2-0.9-3c-0.3-1-0.6-1.9-0.8-2.7c-0.1-0.3,0-0.6,0.3-1c0.3-0.4,0.6-0.7,0.9-0.9
		c0.3-0.2,0.6-0.2,0.9-0.2s0.6,0.2,0.8,0.6c0.1,0.2,0.3,0.5,0.4,1c0.2,0.4,0.3,0.9,0.5,1.5c0.1-0.8,0.2-1.7,0.3-2.5
		c0.1-0.9,0.3-1.7,0.6-2.4c0.3-0.8,0.6-1.4,0.9-2c0.4-0.6,0.8-1,1.3-1.3c0.8-0.5,1.4-0.5,2-0.1c0.6,0.4,1.1,0.9,1.5,1.5
		c0.2,0.3,0.3,0.5,0.4,0.8c0.1,0.3,0.2,0.6,0.3,0.9c0.1,0.3,0.2,0.7,0.3,1.1c0-0.8,0.2-1.6,0.3-2.4c0.2-0.8,0.4-1.4,0.8-2.1
		c0.4-0.6,0.8-1.1,1.4-1.5c0.8-0.5,1.5-0.6,2.1-0.3c0.6,0.3,1.1,0.7,1.4,1.3c0.3,0.5,0.6,1.1,0.7,1.8c0.2,0.7,0.3,1.4,0.5,2
		c0.1,0.6,0.3,1.1,0.5,1.5c0.1,0.2,0.3,0.4,0.5,0.5c0.2,0.1,0.5,0.1,0.8-0.1c0.6-0.3,0.9-0.9,1.1-1.7c0.2-0.8,0.3-1.7,0.3-2.8
		c0-1-0.1-2-0.2-2.8l0.9,0.3c0.2,1,0.3,2.2,0.3,3.3c0,1.2-0.2,2.3-0.5,3.3C367.6,123.3,367,124.1,366.1,124.6z"/>
	<path class="st14" d="M372.5,121.1c-0.7,0.4-1.4,0.6-2.2,0.4c-0.8-0.1-1.5-0.6-2-1.5c-0.4-0.7-0.8-1.6-1-2.6s-0.3-2.1-0.2-3.3
		c0.1-1.2,0.2-2.3,0.6-3.4c0.3-1.1,0.8-2.1,1.3-3.1c0.6-0.9,1.3-1.7,2.1-2.2c0.9-0.6,1.8-0.8,2.6-0.7c0.9,0.1,1.6,0.5,2,1.2
		c0.3,0.5,0.4,1.1,0.2,1.6c-0.2,0.5-0.6,0.8-1.2,1.1c-0.1-0.2-0.2-0.4-0.2-0.6c-0.1-0.2-0.2-0.4-0.3-0.6c-0.3-0.4-0.6-0.7-0.9-0.9
		c-0.4-0.2-0.8-0.2-1.3,0.2c-0.6,0.4-1,0.9-1.4,1.7c-0.3,0.8-0.6,1.6-0.7,2.6c-0.1,1-0.2,1.9-0.2,3c0,1,0.2,1.9,0.4,2.8
		c0.2,0.9,0.5,1.6,0.8,2.1c0.4,0.6,0.8,0.8,1.3,0.5c0.5-0.3,0.8-0.8,1.1-1.7c0.3-0.8,0.5-1.8,0.6-2.8c0.1-1.1,0.3-2.1,0.3-3.2
		c0.1-1.1,0.1-2,0.2-2.7c0-0.1,0-0.2,0.1-0.3c0.1,0,0.3-0.1,0.6-0.2c0.3-0.1,0.6-0.1,0.9-0.1c0.3,0,0.5,0.1,0.7,0.4
		c0.1,0.2,0.2,0.5,0.2,0.9c0,0.4,0,0.9,0,1.4c0,0.5,0,1,0.1,1.5c0.1,0.5,0.2,0.9,0.4,1.2c0.2,0.3,0.4,0.5,0.7,0.6
		c0.3,0.1,0.6,0.1,0.9-0.1c0.5-0.3,0.9-1.1,1.4-2.4c0.4-1.3,0.6-3.1,0.4-5.4l0.9,0.2c0.2,1.4,0.2,2.7,0.1,4
		c-0.1,1.3-0.4,2.4-0.9,3.3c-0.5,1-1.1,1.7-1.8,2.2c-0.8,0.5-1.6,0.7-2.4,0.4s-1.3-0.7-1.7-1.3c0,0,0-0.1-0.1-0.1c0,0,0,0,0-0.1
		c-0.2,1.5-0.5,2.7-0.8,3.7C373.8,119.9,373.3,120.6,372.5,121.1z"/>
	<path class="st14" d="M393.7,108.1c-1,0.5-1.8,0.5-2.5,0s-1.2-1.1-1.5-1.8c-0.3-0.7-0.6-1.5-0.7-2.3c-0.1-0.8-0.2-1.6-0.1-2.5
		c0.1-0.8,0.3-1.5,0.5-2.1c0.3-0.6,0.7-1,1.1-1.2c0.2-0.1,0.3-0.1,0.6-0.2c0.2,0,0.4,0,0.6,0c-0.1,0.4-0.2,1-0.2,1.6
		c0,0.6,0,1.2,0,1.9c0,0.6,0.1,1.3,0.2,1.9s0.3,1.1,0.5,1.6c0.2,0.4,0.5,0.8,0.8,1c0.3,0.2,0.7,0.2,1.1,0c0.4-0.2,0.8-0.7,1.1-1.4
		c0.3-0.7,0.6-1.5,0.9-2.4c-1-0.3-1.8-0.7-2.5-1.3c-0.7-0.6-1.2-1.4-1.8-2.5c-0.2-0.5-0.4-1-0.4-1.7c-0.1-0.7,0.1-1.4,0.4-2.1
		c0.3-0.7,0.9-1.2,1.7-1.6c0.9-0.4,1.7-0.5,2.3-0.2s1.1,0.9,1.5,1.6c0.4,0.8,0.6,1.8,0.7,3c0.1,1.2,0,2.4-0.1,3.5
		c0.3,0,0.7-0.1,1-0.2c0.3-0.2,0.7-0.4,1.1-0.8c0.4-0.4,0.7-0.8,1-1.4c0.3-0.6,0.4-1.2,0.3-1.9l0.8,0.1c0.1,1.3-0.2,2.4-0.7,3.3
		c-0.5,0.9-1.2,1.5-2,1.9c-0.3,0.1-0.6,0.2-0.9,0.3c-0.3,0.1-0.6,0.1-0.9,0.2c-0.3,1.2-0.8,2.4-1.4,3.5
		C395.5,106.8,394.6,107.6,393.7,108.1z M396.4,100.6c0.2-1,0.2-2,0.2-3.1c0-1-0.3-1.9-0.6-2.7c-0.2-0.5-0.5-0.8-0.8-1
		c-0.3-0.2-0.5-0.2-0.8,0c-0.4,0.2-0.7,0.7-0.8,1.5c-0.2,0.8,0,1.6,0.4,2.5c0.2,0.5,0.6,1,1,1.5C395.4,100,395.9,100.4,396.4,100.6z
		"/>
	<path class="st14" d="M406.5,111.8c-0.2,0.1-0.6,0.1-1,0.1c-0.4,0-0.8-0.2-1.3-0.6c-0.4-0.4-0.8-1-1.2-1.9c-0.4-1-0.7-2.3-1-4
		c-0.3-1.7-0.5-3.6-0.7-5.7s-0.3-4.3-0.3-6.6c0-2.3,0-4.5,0.2-6.7c0.1-2.2,0.4-4.2,0.7-6.1s0.8-3.4,1.4-4.6c0.6-1.2,1.3-2,2.2-2.4
		c0.6-0.2,1-0.2,1.3,0.1c0.3,0.3,0.6,0.6,0.7,1.1c0.4,1,0.5,2.1,0.5,3.5c-0.1,1.3-0.3,2.8-0.7,4.3c-0.4,1.5-0.9,3-1.6,4.4
		c-0.7,1.5-1.4,2.8-2.3,4c0,0.3,0,0.5,0,0.8c0,0.3,0,0.5,0,0.8c0.3,0,0.5,0.1,0.8,0.2c0.2,0.2,0.4,0.4,0.5,0.6
		c0.6,0.9,1.1,1.7,1.6,2.3c0.5,0.7,1,1.1,1.5,1.4c0.5,0.3,1.2,0.3,1.8,0c0.8-0.3,1.4-0.9,1.7-1.7c0.4-0.8,0.7-1.9,0.9-3.2l1,0.2
		c-0.1,1.7-0.5,3.1-1.1,4.1c-0.6,1-1.3,1.7-2,2c-0.4,0.2-0.8,0.2-1.3,0.2c-0.5,0-1-0.1-1.5-0.2c0.5,1.4,0.9,2.8,1.2,4.3
		c0.2,1.5,0.3,2.9,0.3,4.1c-0.1,1.3-0.3,2.4-0.7,3.3C407.6,110.9,407.1,111.5,406.5,111.8z M403.4,87.9c0.8-1.8,1.5-3.5,2-5.1
		c0.5-1.6,0.8-2.9,0.9-4.1c0.1-1.1,0.1-1.9,0-2.3c-0.1-0.2-0.2-0.2-0.4-0.2c-0.5,0.2-1,0.9-1.3,2c-0.4,1.1-0.6,2.5-0.8,4.1
		C403.5,84.1,403.4,86,403.4,87.9z M406.6,109.3c0.2-0.1,0.4-0.4,0.5-1c0.1-0.5,0.2-1.2,0.1-2c0-0.8-0.1-1.7-0.2-2.6
		c-0.1-0.9-0.3-1.8-0.5-2.7c-0.2-0.9-0.4-1.6-0.7-2.3c-0.3-0.6-0.6-1.2-0.9-1.6c-0.3-0.4-0.8-0.9-1.4-1.4c0.1,1.7,0.2,3.4,0.4,5
		c0.2,1.6,0.4,3,0.6,4.3c0.2,1.3,0.5,2.3,0.8,3.1C405.8,109.1,406.2,109.5,406.6,109.3z"/>
</g>
<g>
	<path class="st14" d="M336,265.2c-1.8,0.9-3.5,1.4-5.2,1.4c-1.7,0-3.2-0.4-4.6-1.2c-1.3-0.8-2.4-1.9-3.1-3.3
		c-0.7-1.2-1-2.6-1.1-4.1c-0.1-1.5,0.1-3,0.5-4.4c0.4-1.5,1.1-2.9,2-4.3c0.9-1.4,2.1-2.6,3.5-3.6c-1.4-0.4-2.7-1-3.8-1.8
		c-1.1-0.8-1.9-1.8-2.5-2.9c-0.8-1.5-1.2-3.1-1.1-4.8c0-1.7,0.5-3.4,1.5-4.9c0.9-1.6,2.3-2.8,4.1-3.8c1.7-0.9,3.1-1.1,4.4-0.8
		c1.3,0.3,2.3,1.2,3.1,2.7c0.6,1.1,0.9,2.2,1.1,3.4c0.2,1.2,0.2,2.3,0,3.2c-0.2,0.9-0.5,1.5-1.1,1.8c-0.4,0.2-0.8,0.2-1.4,0.1
		c-0.5-0.2-1-0.4-1.5-0.7c0.6-1.4,1-2.7,1.2-4c0.2-1.3,0-2.4-0.5-3.4c-0.4-0.8-1-1.3-1.7-1.5c-0.7-0.3-1.5-0.1-2.5,0.4
		c-1.2,0.7-2.1,1.6-2.6,2.7c-0.5,1.2-0.6,2.5-0.5,3.8c0.2,1.4,0.6,2.8,1.3,4.1c0.3,0.6,0.8,1.3,1.3,2c0.5,0.7,1.2,1.3,2.1,1.9
		c0.9,0.6,1.9,1,3.2,1.2c-1.8,1.4-3.2,3-4.1,4.8c-0.9,1.8-1.4,3.7-1.5,5.5c-0.1,1.8,0.3,3.4,1,4.8c0.4,0.8,1.1,1.6,1.9,2.3
		c0.8,0.7,1.8,1.2,2.9,1.3c1.1,0.2,2.3-0.1,3.6-0.7c1.5-0.8,2.7-1.9,3.7-3.3c1-1.4,1.7-3,2.2-4.8c0.5-1.8,0.7-3.6,0.7-5.4
		c-0.1-1.8-0.4-3.6-1-5.3c-0.5,0.3-1,0.6-1.5,0.9c-0.5,0.3-1,0.7-1.5,1.1c-0.6,0.4-1.3,1-2.2,1.8c-0.7-1.4-0.7-2.6-0.1-3.6
		c0.7-1,1.6-1.8,2.9-2.4c0.9-0.5,1.7-0.8,2.5-1.1c0.8-0.3,1.6-0.5,2.4-0.8s1.7-0.6,2.6-1.1c0,1.1-0.1,1.9-0.3,2.3
		c-0.3,0.4-0.5,0.6-0.9,0.8c-0.5,0.3-0.9,0.5-1.3,0.7c-0.3,0.2-0.7,0.4-1,0.6c0.8,2,1.2,4.1,1.2,6.3c0,2.2-0.3,4.3-0.9,6.4
		c-0.6,2.1-1.6,3.9-2.9,5.6C339.5,262.9,337.9,264.2,336,265.2z"/>
	<path class="st14" d="M375.8,242c-1.5,0.9-2.6,1.3-3.6,1.1c-0.9-0.2-1.7-0.8-2.3-1.6c-0.5-0.8-0.9-1.8-1.3-3
		c-0.4-1.3-0.7-2.5-1-3.7c-0.6-2.3-1.1-4.6-1.6-6.8c-0.5-2.3-0.9-4.5-1.3-6.6c-0.4-2.1-0.7-4.2-1.1-6.1c-0.3-1.9-0.6-3.7-0.9-5.4
		c-1.8,1.2-3.3,2.2-4.6,3.1c-1.3,0.9-2.4,1.8-3.4,2.6c-1,0.8-2,1.7-3.1,2.6c-0.6-1.2-0.6-2.4-0.1-3.6c0.5-1.2,1.5-2.4,2.9-3.6
		c1.4-1.2,3.1-2.5,5-3.7c1-0.7,2-1.3,3-1.8c0.9-0.5,1.8-1,2.7-1.5c0.9-0.5,1.7-0.9,2.6-1.3c1.8-0.9,3.2-1.6,4.2-2.2
		c1-0.6,1.7-1,2.2-1.3c-0.3,1.2-1,2.4-2,3.5c-1,1.1-2.1,2.1-3.4,3c-1.3,0.9-2.5,1.8-3.7,2.5c0.7,3.9,1.6,7.9,2.7,11.9
		c1.1,4,2.2,8,3.4,11.8c0.5,1.5,0.9,2.7,1.2,3.8c0.3,1,0.7,1.9,1,2.7c0.4,0.8,0.8,1.6,1.3,2.4c0.1,0.1,0.2,0.3,0.3,0.4
		C375.4,241.5,375.6,241.7,375.8,242z"/>
	<path class="st14" d="M384.4,234.3c-0.9,0.5-1.9,0.6-2.9,0.4c-1-0.2-1.8-1-2.5-2.2c-0.5-1-0.9-2.1-1-3.5c-0.2-1.4-0.1-2.8,0-4.3
		c0.2-1.5,0.5-3,1.1-4.4c0.5-1.4,1.2-2.7,2-3.9c0.8-1.2,1.8-2,3-2.6c1.2-0.6,2.4-0.9,3.5-0.7c1.2,0.2,2,0.7,2.5,1.7
		c0.4,0.7,0.4,1.4,0.1,2c-0.3,0.6-0.9,1-1.7,1.3c-0.1-0.3-0.2-0.6-0.3-0.8c-0.1-0.3-0.2-0.5-0.4-0.8c-0.3-0.6-0.7-1-1.1-1.3
		c-0.5-0.3-1-0.3-1.8,0.1c-0.8,0.4-1.4,1.1-1.9,2c-0.5,1-0.9,2-1.2,3.3c-0.3,1.2-0.4,2.5-0.5,3.8c0,1.3,0,2.6,0.2,3.7
		c0.2,1.1,0.5,2.1,0.9,2.9c0.5,0.9,1,1.2,1.7,0.8c0.6-0.3,1.2-1,1.6-2.1s0.8-2.2,1.1-3.6c0.3-1.4,0.5-2.7,0.7-4.1
		c0.2-1.4,0.4-2.5,0.5-3.5c0-0.2,0.1-0.3,0.2-0.4c0.1,0,0.4-0.1,0.7-0.2c0.4-0.1,0.7-0.1,1.1,0c0.4,0,0.7,0.2,0.8,0.5
		c0.1,0.3,0.2,0.7,0.2,1.2c0,0.6,0,1.2-0.1,1.9c0,0.7-0.1,1.3,0,2c0,0.6,0.2,1.2,0.4,1.7c0.2,0.4,0.5,0.6,0.8,0.9
		c0.4,0.2,0.8,0.2,1.2,0c0.7-0.4,1.3-1.3,2-3c0.7-1.6,1-3.9,1-7l1.2,0.4c0.1,1.8,0,3.6-0.3,5.2c-0.3,1.6-0.8,3.1-1.5,4.3
		c-0.7,1.2-1.5,2.1-2.6,2.6c-1.1,0.6-2.2,0.7-3.1,0.3s-1.7-1-2.1-1.8c0-0.1-0.1-0.1-0.1-0.1c0,0,0-0.1,0-0.1
		c-0.4,1.9-0.9,3.5-1.4,4.8C386.2,232.9,385.4,233.8,384.4,234.3z"/>
	<path class="st14" d="M413.7,219.2c-1.1,0.5-2.1,0.5-2.9,0.2c-0.8-0.3-1.4-0.9-1.8-1.8c-0.2-0.6-0.4-1.2-0.4-2
		c-0.1-0.7-0.1-1.5-0.2-2.2c-0.1-0.8-0.2-1.4-0.5-2c-0.3-0.6-0.6-1-1-1.2c-0.4-0.1-0.8-0.1-1.2,0.1c-0.9,0.3-1.6,1.1-2.3,2.1
		c-0.6,1.1-1.2,2.3-1.6,3.7c-0.4,1.4-0.8,2.9-1.1,4.3c-0.3,1.5-0.5,2.8-0.7,3.9c-0.6,0.2-1.1,0.3-1.7,0.3c-0.6,0-1.1-0.2-1.7-0.5
		c0-0.2,0-0.7,0-1.5c0-0.9,0-1.9,0-3.1c0-1.2-0.1-2.4-0.3-3.7c-0.2-1.3-0.4-2.3-0.8-3.3c0.1-0.3,0.3-0.7,0.7-1.1
		c0.3-0.4,0.7-0.7,1.2-0.9c1-0.4,1.7-0.2,2,0.7c0.1,0.3,0.3,0.9,0.4,1.6c0.1,0.7,0.3,1.6,0.4,2.6c0.4-1.3,0.8-2.6,1.3-3.9
		c0.5-1.3,1.2-2.4,1.9-3.3c0.8-1,1.6-1.6,2.6-2c1.3-0.5,2.3-0.4,3.3,0.2c0.9,0.6,1.6,1.4,2,2.4c0.3,0.9,0.5,1.7,0.5,2.6
		c0,0.9,0,1.7,0,2.5c0,0.8,0.1,1.5,0.4,2.1c0.2,0.5,0.4,0.8,0.7,0.9c0.3,0.1,0.6,0.1,0.8,0c0.7-0.3,1.3-0.9,1.8-1.9
		c0.5-1,0.9-2.1,1.1-3.4c0.3-1.3,0.5-2.6,0.6-3.8l1,0.3c0,1.7-0.2,3.2-0.5,4.7c-0.3,1.5-0.8,2.8-1.4,3.9
		C415.8,217.9,414.9,218.7,413.7,219.2z"/>
	<path class="st14" d="M416.3,230.8c-0.9,0.3-1.6,0.2-2.3-0.1c-0.7-0.3-1.1-0.9-1.3-1.7c-0.3-1.2-0.1-2.5,0.6-4.1
		c0.7-1.5,1.8-3.1,3.2-4.6c0.4-0.4,0.9-0.8,1.3-1.2c0.4-0.4,0.9-0.8,1.4-1.2c0.2-1.4,0.2-2.9,0.2-4.6c0-1.7-0.1-3.4-0.3-5.3
		c-0.1,0.5-0.3,1-0.4,1.5c-0.2,0.5-0.3,1-0.4,1.5l-1.1-1c0.2-1.2,0.4-2.4,0.5-3.6c0.1-1.2,0.2-2.4,0.3-3.4c0.1-1.1,0.3-2,0.5-2.7
		c0.2-0.7,0.7-1.2,1.2-1.3c0.4-0.1,0.8-0.1,1.2,0.2c0.3,0.2,0.6,0.6,0.7,1.1c0.1,0.3,0.2,1,0.3,1.9c0.1,0.9,0.2,2.1,0.3,3.5
		c0.1,1.4,0.2,2.9,0.2,4.5c0,1.6,0,3.3-0.1,5c0.7-0.7,1.4-1.5,2.1-2.3c0.7-0.8,1.3-1.8,1.8-2.9c0.6-1.1,1.1-2.5,1.5-4.2l1,0.3
		c-0.4,2.2-0.9,4-1.7,5.3c-0.7,1.4-1.6,2.5-2.4,3.4c-0.9,0.9-1.7,1.8-2.4,2.6c-0.1,2-0.4,4-0.9,5.9s-1.1,3.6-1.9,5
		C418.7,229.6,417.6,230.4,416.3,230.8z M415.2,228.8c0.5-0.2,1.2-0.9,1.9-2.4c0.7-1.4,1.3-3.4,1.7-5.9c-1.7,1.6-2.9,3.1-3.6,4.4
		c-0.7,1.3-0.9,2.4-0.7,3.2c0.1,0.3,0.2,0.5,0.3,0.6C414.9,228.8,415,228.8,415.2,228.8z M419.4,195.5c-0.6,0.2-1.1,0.2-1.7,0
		c-0.5-0.1-0.9-0.5-1.1-1.1c-0.1-0.5-0.1-1,0.2-1.5c0.3-0.5,0.7-1,1.2-1.4c0.5-0.4,1-0.7,1.6-0.8c0.5-0.1,1-0.1,1.4,0
		c0.4,0.2,0.7,0.5,0.9,1c0.2,0.8,0.1,1.5-0.4,2.3C421,194.7,420.3,195.2,419.4,195.5z"/>
	<path class="st14" d="M432.4,214.1c-1.3,0.3-2.4,0.1-3.3-0.5c-0.8-0.7-1.4-1.5-1.6-2.7c-0.2-0.7-0.2-1.6-0.2-2.7
		c0-1.1,0.1-2.3,0.3-3.6c0.2-1.3,0.5-2.5,0.8-3.7c0.4-1.2,0.8-2.2,1.3-3c0.5-0.8,1.1-1.3,1.8-1.4c0.4-0.1,0.7,0,1,0.1
		c0.3,0.2,0.5,0.5,0.6,0.9c0.1,0.4,0,1-0.3,1.9c-0.3,0.9-0.7,1.9-1.1,3.1c-0.4,1.2-0.7,2.4-1,3.6c-0.2,1.2-0.2,2.3,0,3.3
		c0.2,1,0.5,1.6,0.9,1.8c0.4,0.2,1,0.3,1.6,0.2c1-0.2,2.1-1,3.1-2.3c1-1.3,1.9-3.4,2.6-6.3l0.8,0.6c-0.5,2.9-1.4,5.3-2.7,7.2
		C435.9,212.6,434.3,213.7,432.4,214.1z M433.3,192.3c-0.6,0.1-1.1,0.1-1.7-0.1c-0.5-0.2-0.9-0.6-1-1.2c-0.2-0.7,0.1-1.4,0.8-2.1
		c0.7-0.7,1.5-1.1,2.3-1.3c0.6-0.1,1-0.1,1.5,0.1c0.4,0.2,0.7,0.6,0.9,1.2c0.1,0.6-0.1,1.3-0.7,2.1
		C434.8,191.6,434.1,192.1,433.3,192.3z"/>
	<path class="st14" d="M443.2,212.1c-1.5,0.2-2.5-0.2-3.2-1.1c-0.7-0.9-1.1-2-1.3-3.4c-0.2-1.5-0.2-3.3,0.1-5.5
		c0.3-2.1,0.7-4.4,1.4-6.7c0.6-2.4,1.3-4.7,2.2-7c0.8-2.3,1.7-4.4,2.6-6.3c0.9-1.9,1.7-3.4,2.5-4.6c0.8-1.2,1.5-1.8,2.1-1.9
		c0.4-0.1,0.8,0.1,1.1,0.5c0.3,0.4,0.6,0.8,0.9,1.4c0.2,0.6,0.4,1.1,0.5,1.6c0.1,0.8,0,2-0.2,3.4s-0.6,3-1.2,4.7
		c-0.5,1.7-1.2,3.5-2,5.3c-0.8,1.8-1.8,3.6-2.8,5.3c-1.1,1.7-2.2,3.2-3.5,4.5c0,0.8,0,1.6,0,2.4c0,0.8,0,1.5,0.1,2.1
		c0.1,1.1,0.4,1.9,0.9,2.4c0.4,0.5,1,0.7,1.5,0.6c0.8-0.1,1.5-0.6,2.3-1.4c0.7-0.8,1.4-1.9,2-3.1c0.6-1.2,1.1-2.5,1.5-3.8l1.2,0.5
		c-1,2.9-2.2,5.3-3.6,7.1C446.6,210.8,445,211.9,443.2,212.1z M442.6,199.3c0.9-1.3,1.7-2.7,2.5-4.1c0.8-1.5,1.5-3,2.1-4.5
		c0.6-1.5,1.1-2.9,1.5-4.3c0.4-1.4,0.7-2.6,0.9-3.7c0.2-1.1,0.3-1.9,0.2-2.6c0,0,0-0.1,0-0.1c0,0,0,0,0-0.1c-0.2,0-0.6,0.4-1,1.2
		c-0.5,0.8-1,1.8-1.6,3.1c-0.6,1.3-1.2,2.8-1.8,4.5c-0.6,1.7-1.1,3.4-1.6,5.2C443.3,195.8,442.9,197.6,442.6,199.3z"/>
	<path class="st14" d="M453,210.9c-1.1,0-1.9-0.5-2.6-1.5s-1-2.1-1-3.4c0-0.9,0.1-1.9,0.4-3.1c0.3-1.2,0.6-2.4,1.1-3.5
		c0.4-1.1,0.9-2.1,1.4-2.8c0.5-0.8,0.9-1.1,1.3-1.1c0.2,0,0.6,0.1,1,0.3c0.5,0.2,0.9,0.5,1.2,0.9c-0.3,0.5-0.8,1.3-1.2,2.3
		c-0.5,1-0.9,2.2-1.3,3.3c-0.4,1.2-0.6,2.3-0.5,3.2c0,0.1,0,0.4,0.1,0.9c0,0.5,0.2,0.9,0.4,1.3c0.2,0.4,0.5,0.6,1,0.6
		c0.5,0,1.1-0.3,1.7-0.9c0.6-0.6,1.2-1.3,1.9-2.3c0.6-0.9,1.3-1.9,1.9-3c0.6-1.1,1.1-2.1,1.6-3.1c0.5-1,0.9-1.9,1.2-2.5
		c0.3,0,0.7,0.1,1.1,0.2c0.5,0.1,0.9,0.3,1.2,0.5c0.3,0.2,0.5,0.5,0.5,0.9c0,0.1-0.1,0.5-0.4,1.2c-0.3,0.7-0.6,1.5-1,2.4
		c-0.4,0.9-0.7,1.9-1,2.9c-0.3,1-0.4,1.9-0.4,2.6c0,0.4,0.1,0.8,0.3,1.1c0.2,0.3,0.5,0.5,1,0.5c0.7,0,1.4-0.3,2.3-0.9
		c0.9-0.6,1.8-1.5,2.8-2.6c1-1.1,1.8-2.5,2.6-4.1l0.7,0.6c-0.7,1.7-1.6,3.2-2.7,4.6c-1.1,1.4-2.3,2.4-3.5,3.2
		c-1.2,0.8-2.5,1.2-3.7,1.2c-0.9,0-1.6-0.2-2-0.6c-0.5-0.4-0.8-1-0.9-1.6c-0.2-0.7-0.3-1.4-0.3-2c0-0.2,0-0.3,0-0.5
		c0-0.2,0-0.3,0-0.4c-0.5,0.8-1.1,1.7-1.7,2.5c-0.6,0.8-1.3,1.5-2,2S453.8,210.9,453,210.9z"/>
	<path class="st14" d="M472.8,211.6c-1.5-0.2-2.4-0.8-2.8-1.9c-0.4-1.1-0.6-2.3-0.4-3.6c0.2-1.5,0.7-3.3,1.6-5.2
		c0.8-2,1.9-4,3.1-6.1c1.2-2.1,2.5-4.2,3.9-6.2c1.4-2,2.8-3.8,4.1-5.4c1.4-1.6,2.6-2.8,3.7-3.7c1.1-0.9,1.9-1.3,2.5-1.2
		c0.4,0.1,0.7,0.3,0.9,0.8c0.2,0.5,0.4,1,0.5,1.6c0.1,0.6,0.1,1.1,0,1.6c-0.1,0.8-0.5,1.9-1.1,3.2c-0.6,1.3-1.4,2.7-2.4,4.2
		c-1,1.5-2.1,3-3.4,4.6c-1.3,1.5-2.6,3-4.1,4.3c-1.5,1.3-3,2.5-4.6,3.4c-0.2,0.8-0.5,1.5-0.7,2.3c-0.2,0.7-0.4,1.4-0.5,2
		c-0.2,1.1-0.1,2,0.2,2.5c0.3,0.6,0.7,0.9,1.3,1c0.8,0.1,1.6-0.1,2.5-0.8c0.9-0.6,1.8-1.4,2.8-2.5c0.9-1,1.7-2.1,2.5-3.2l1,0.8
		c-1.7,2.6-3.5,4.6-5.4,5.9C476.4,211.2,474.6,211.8,472.8,211.6z M475.7,199.1c1.2-1,2.4-2.1,3.5-3.3c1.1-1.2,2.2-2.5,3.2-3.8
		c1-1.3,1.9-2.5,2.6-3.8s1.4-2.3,1.9-3.3c0.5-1,0.8-1.8,0.9-2.4c0,0,0-0.1,0-0.1c0,0,0,0,0-0.1c-0.2,0-0.7,0.3-1.3,0.9
		c-0.6,0.6-1.4,1.5-2.3,2.6c-0.9,1.1-1.9,2.4-2.9,3.8c-1,1.4-2,3-3,4.6C477.3,195.9,476.4,197.5,475.7,199.1z"/>
</g>
<g>
	<path class="st14" d="M291.1,226.2c-1.7,0.6-3.4,0.9-5.2,0.9c-1.8,0-3.3-0.5-4.8-1.3c-1.4-0.9-2.4-2.2-3.1-4
		c-0.6-1.6-0.7-3-0.3-4.1c0.4-1.2,1-2.1,2-2.8c0.9-0.7,1.9-1.3,2.9-1.7c-0.6,1.3-0.9,2.6-1,3.9s0,2.3,0.4,3.3c0.4,1,1,1.8,1.8,2.5
		c0.8,0.7,1.9,1.1,3.1,1.3c1.2,0.2,2.6,0,4.1-0.6c1.3-0.5,2.5-1.2,3.6-2.1c1.1-0.9,1.9-1.9,2.4-3.1s0.5-2.4,0-3.8
		c-0.4-1.2-1.2-2.1-2.2-2.7c-1-0.6-2.2-1.1-3.5-1.4c-1.3-0.3-2.7-0.5-4.2-0.7c-1.4-0.2-2.8-0.5-4.2-0.8c-1.4-0.3-2.6-0.9-3.6-1.6
		c-1-0.7-1.8-1.8-2.3-3.1c-0.4-1.2-0.6-2.6-0.5-4.2c0.1-1.6,0.5-3.2,1.2-4.8c0.7-1.6,1.7-3.1,3-4.4c1.3-1.3,2.9-2.3,4.9-3.1
		c2-0.7,3.6-0.8,4.8-0.3c1.1,0.6,2,1.5,2.5,2.9c0.4,1.1,0.6,2.3,0.7,3.7c0.1,1.4,0,2.7-0.1,4c-0.1,1.3-0.3,2.5-0.5,3.4
		c-0.7,0.1-1.3,0-1.7-0.2c-0.5-0.2-0.8-0.7-1-1.3c-0.2-0.6-0.4-1.4-0.4-2.2c0-0.9,0-1.8,0-2.7c0-0.9,0-1.9,0-2.7
		c0-0.9-0.2-1.6-0.4-2.2c-0.2-0.5-0.5-0.9-0.9-1.1c-0.4-0.2-1.1-0.1-2,0.2c-1.4,0.5-2.6,1.3-3.5,2.3c-1,1-1.7,2.2-2.2,3.5
		c-0.5,1.3-0.8,2.5-0.9,3.7c-0.1,1.2,0,2.3,0.3,3.1c0.4,1.1,1.1,1.8,2,2.3c1,0.5,2.1,0.9,3.4,1.1c1.3,0.2,2.7,0.4,4.1,0.6
		c1.4,0.2,2.8,0.5,4.2,0.8c1.4,0.4,2.6,1,3.6,1.8c1.1,0.8,1.9,2,2.4,3.5c0.6,1.5,0.7,3,0.4,4.4c-0.3,1.4-0.8,2.8-1.7,4
		c-0.9,1.2-2,2.3-3.2,3.3C293.9,225,292.6,225.7,291.1,226.2z"/>
	<path class="st14" d="M308.9,217.4c-0.9,0.4-1.9,0.5-2.9,0.1c-1-0.3-1.7-1.1-2.3-2.4c-0.4-1-0.7-2.2-0.7-3.6
		c-0.1-1.4,0.1-2.8,0.4-4.3c0.3-1.5,0.8-2.9,1.4-4.3c0.6-1.4,1.4-2.6,2.3-3.7c0.9-1.1,2-1.9,3.1-2.4c1.2-0.5,2.4-0.7,3.6-0.4
		c1.1,0.3,1.9,0.9,2.4,1.9c0.3,0.8,0.3,1.5-0.1,2c-0.4,0.6-1,1-1.8,1.2c-0.1-0.3-0.1-0.6-0.2-0.8c-0.1-0.3-0.2-0.6-0.3-0.8
		c-0.3-0.6-0.6-1-1-1.4c-0.4-0.4-1-0.4-1.8,0c-0.8,0.4-1.5,1-2.1,1.9c-0.6,0.9-1.1,2-1.5,3.2c-0.4,1.2-0.6,2.5-0.8,3.8
		c-0.1,1.3-0.2,2.5-0.1,3.7c0.1,1.2,0.3,2.1,0.7,2.9c0.4,0.9,0.9,1.2,1.6,0.9c0.7-0.3,1.2-0.9,1.8-1.9c0.5-1,1-2.2,1.4-3.5
		c0.4-1.3,0.7-2.7,1-4c0.3-1.3,0.6-2.5,0.8-3.5c0-0.2,0.1-0.3,0.2-0.4c0.1,0,0.4-0.1,0.8-0.1c0.4,0,0.7,0,1.1,0
		c0.4,0.1,0.6,0.3,0.8,0.6c0.1,0.3,0.2,0.7,0.1,1.3c0,0.6-0.1,1.2-0.2,1.8c-0.1,0.7-0.2,1.3-0.2,2c0,0.6,0.1,1.2,0.3,1.7
		c0.2,0.4,0.4,0.7,0.8,0.9c0.3,0.2,0.7,0.3,1.2,0.1c0.7-0.3,1.4-1.2,2.2-2.8c0.8-1.6,1.3-3.9,1.5-6.9l1.2,0.5c0,1.9-0.2,3.6-0.7,5.2
		c-0.4,1.6-1,3-1.8,4.1c-0.8,1.1-1.7,2-2.8,2.4c-1.2,0.5-2.2,0.5-3.1,0c-0.9-0.5-1.6-1.2-2-2c0-0.1,0-0.1-0.1-0.1c0,0,0-0.1,0-0.1
		c-0.5,1.9-1.1,3.4-1.7,4.7C310.8,216.1,310,216.9,308.9,217.4z"/>
	<path class="st14" d="M332.2,208.3c-1.6,0.8-3,1-4.4,0.4c-1.3-0.5-2.5-1.7-3.4-3.4c-0.7-1.4-1.4-3.1-1.9-5.2
		c-0.5-2.1-0.9-4.4-1.2-6.8c-0.3-2.4-0.5-4.9-0.6-7.4c-0.1-2.5,0-4.8,0.1-6.9c0.2-2.1,0.4-3.9,0.8-5.3c0.4-1.4,0.9-2.3,1.5-2.6
		c0.6-0.3,1.1-0.2,1.8,0.3c0.6,0.5,1.1,1.1,1.5,1.8c0.4,0.7,0.7,1.8,1,3c0.3,1.3,0.4,2.7,0.4,4.3c0,1.6,0,3.2-0.2,4.8
		c-0.2,1.6-0.4,3.2-0.9,4.7c-0.4,1.5-1,2.8-1.7,3.9c0,0.5,0.1,1.2,0.3,2.3c0.2,1,0.4,2.2,0.8,3.4c0.4,1.2,0.8,2.4,1.4,3.5
		c0.6,1.1,1.2,1.9,2,2.4s1.5,0.5,2.3,0.1c0.7-0.4,1.3-1.1,1.8-2.1c0.5-1,0.8-2.1,0.9-3.2c-1.3,0-2.5-0.4-3.6-1.1
		c-1.1-0.7-1.9-1.6-2.5-2.7c-0.7-1.3-0.9-2.6-0.6-3.8c0.3-1.2,0.9-2.1,2-2.7c0.9-0.5,1.8-0.5,2.7-0.2c0.9,0.4,1.8,1.3,2.6,2.8
		c0.4,0.7,0.7,1.6,1,2.5c0.3,0.9,0.4,2,0.5,3c0.1,0,0.2,0,0.3-0.1c0.1,0,0.1-0.1,0.2-0.1c1.1-0.6,1.9-1.5,2.3-2.6
		c0.5-1.1,0.7-2.4,0.8-3.8c0.1-1.4,0-2.8-0.2-4.2c-0.2-1.4-0.4-2.6-0.5-3.7c-0.2-0.1-0.4-0.2-0.5-0.3c-0.2-0.1-0.3-0.3-0.4-0.5
		c-0.4-0.8-0.6-1.6-0.4-2.5c0.1-0.9,0.4-1.4,0.9-1.7c0.4-0.2,0.7-0.1,1,0.2c0.3,0.3,0.5,0.5,0.5,0.7c0.1,0.2,0.2,0.5,0.2,1
		c0,0.4,0.1,0.7,0.2,0.9c0.1,0.2,0.5,0.4,1.1,0.4c0.6,0,1.3,0.1,2.1,0.2c0.8,0.1,1.6,0.3,2.4,0.7c0.8,0.4,1.4,1,1.9,1.9
		c0.4,0.8,0.7,1.7,0.8,2.8c0.1,1,0.2,2,0.3,2.9c0,0.9,0.2,1.7,0.5,2.2c0.2,0.4,0.4,0.5,0.7,0.6c0.3,0,0.5-0.1,0.8-0.2
		c0.7-0.4,1.2-0.9,1.7-1.7c0.5-0.8,0.9-1.7,1.2-2.7c0.3-1,0.5-2,0.7-3c0.1-1,0.2-1.9,0.1-2.6l1,0.1c0.1,1.5,0,3.1-0.3,4.8
		c-0.3,1.7-0.7,3.2-1.5,4.6c-0.7,1.4-1.7,2.4-3,3.1c-1,0.5-2,0.7-2.9,0.5c-0.9-0.2-1.7-0.8-2.2-1.7c-0.4-0.8-0.7-1.7-0.8-2.8
		c-0.1-1.1-0.2-2.2-0.3-3.3s-0.3-1.9-0.7-2.6c-0.4-0.7-0.9-1.1-1.5-1.3c-0.6-0.2-1.3-0.3-2-0.3c0.2,1.3,0.5,2.7,0.6,4.2
		c0.2,1.5,0.2,3,0.1,4.5c-0.1,1.5-0.5,2.8-1.2,4c-0.7,1.2-1.7,2.2-3.1,2.9c-0.2,0.1-0.3,0.2-0.5,0.3c-0.2,0.1-0.4,0.2-0.6,0.2
		c-0.1,1.7-0.5,3.2-1.2,4.7C334.9,206.3,333.7,207.5,332.2,208.3z M324.6,191c0.3-1,0.6-2.1,0.8-3.2c0.2-1.2,0.3-2.3,0.4-3.5
		c0.1-1.2,0.1-2.4,0.1-3.5c0-1.1-0.1-2.1-0.2-3c-0.1-0.9-0.3-1.6-0.4-2.1c0-0.1-0.1-0.2-0.1-0.3c-0.1-0.1-0.1-0.2-0.2-0.1
		c-0.2,0.2-0.4,0.8-0.6,1.8c-0.2,1-0.3,2.3-0.4,3.8c-0.1,1.5-0.1,3.2,0,4.9C324.1,187.6,324.3,189.3,324.6,191z M334.5,198.7
		c-0.1-0.6-0.2-1.3-0.3-1.9c-0.2-0.6-0.4-1.3-0.8-2c-0.5-0.9-0.9-1.5-1.4-1.9c-0.5-0.4-0.9-0.5-1.3-0.3c-0.4,0.2-0.5,0.6-0.5,1.2
		c0,0.6,0.2,1.3,0.6,2c0.4,0.7,0.9,1.3,1.5,1.9C332.9,198.2,333.7,198.6,334.5,198.7z"/>
	<path class="st14" d="M356.7,168c-0.5,0.3-1,0.5-1.6,0.5c-0.6,0-1-0.3-1.3-0.8c-0.4-0.6-0.4-1.4,0-2.3c0.4-0.9,1-1.5,1.8-2
		c0.5-0.3,1-0.4,1.4-0.4c0.5,0,0.9,0.3,1.2,0.9c0.3,0.6,0.4,1.3,0.1,2.2C357.9,166.9,357.4,167.5,356.7,168z M363,189
		c-1.2,0.7-2.3,0.9-3.3,0.6c-1-0.3-1.8-1-2.4-2c-0.4-0.6-0.7-1.5-1.1-2.5c-0.4-1.1-0.7-2.2-0.9-3.5c-0.2-1.3-0.4-2.5-0.4-3.7
		c0-1.2,0.1-2.3,0.3-3.2c0.2-0.9,0.7-1.6,1.2-1.9c0.3-0.2,0.7-0.3,1-0.2c0.4,0,0.7,0.3,0.9,0.7c0.2,0.3,0.3,1,0.3,1.9
		c0,0.9,0,2,0,3.3c0,1.2,0.1,2.5,0.3,3.7c0.2,1.2,0.5,2.3,1.1,3.2c0.5,0.9,1,1.3,1.5,1.4c0.5,0.1,1,0,1.6-0.4
		c0.9-0.6,1.6-1.6,2.1-3.2c0.5-1.6,0.7-3.8,0.4-6.8l1,0.3c0.5,2.9,0.4,5.5-0.2,7.7C365.8,186.4,364.7,188,363,189z"/>
	<path class="st14" d="M383,175.8c-1,0.7-2,0.9-2.9,0.7c-0.9-0.2-1.6-0.7-2.1-1.4c-0.3-0.5-0.6-1.1-0.8-1.9
		c-0.2-0.7-0.4-1.4-0.6-2.2c-0.2-0.7-0.5-1.4-0.8-1.9c-0.4-0.6-0.8-0.9-1.2-0.9s-0.8,0-1.2,0.3c-0.8,0.5-1.4,1.3-1.8,2.5
		c-0.4,1.2-0.7,2.5-0.9,4c-0.2,1.5-0.2,3-0.3,4.5c0,1.5,0,2.8,0,4c-0.5,0.3-1,0.5-1.6,0.6c-0.6,0.1-1.1,0.1-1.7-0.2
		c-0.1-0.1-0.2-0.6-0.3-1.5c-0.2-0.9-0.4-1.9-0.6-3c-0.3-1.2-0.6-2.3-1-3.5c-0.4-1.2-0.9-2.2-1.4-3.1c0.1-0.3,0.2-0.7,0.5-1.2
		c0.2-0.5,0.6-0.8,1-1.1c0.9-0.6,1.6-0.5,2.1,0.3c0.2,0.3,0.4,0.8,0.7,1.5c0.3,0.7,0.6,1.5,0.9,2.4c0.1-1.4,0.3-2.7,0.6-4.1
		c0.3-1.3,0.7-2.5,1.3-3.6c0.6-1.1,1.3-1.9,2.2-2.5c1.1-0.7,2.2-0.9,3.3-0.4c1,0.4,1.8,1.1,2.4,2c0.5,0.8,0.8,1.6,1,2.5
		c0.2,0.9,0.3,1.7,0.5,2.4c0.1,0.8,0.4,1.4,0.8,2c0.3,0.4,0.6,0.7,0.9,0.7c0.3,0,0.6,0,0.8-0.2c0.6-0.4,1.1-1.1,1.4-2.2
		c0.3-1,0.5-2.2,0.5-3.6c0-1.3,0-2.6-0.2-3.9l1,0.1c0.3,1.6,0.4,3.2,0.4,4.7c0,1.5-0.3,2.9-0.7,4.1
		C384.8,174.2,384.1,175.1,383,175.8z"/>
	<path class="st14" d="M390.6,172.7c-0.9,0.5-1.9,0.6-2.9,0.3c-1-0.3-1.8-1-2.4-2.3c-0.5-1-0.8-2.2-0.9-3.5
		c-0.1-1.4-0.1-2.8,0.1-4.3c0.2-1.5,0.6-3,1.2-4.4c0.6-1.4,1.3-2.7,2.1-3.8c0.9-1.1,1.9-2,3-2.6c1.2-0.6,2.4-0.8,3.5-0.6
		s2,0.8,2.5,1.8c0.4,0.8,0.4,1.4,0,2c-0.4,0.6-0.9,1-1.7,1.2c-0.1-0.3-0.1-0.6-0.2-0.8c-0.1-0.3-0.2-0.5-0.3-0.8
		c-0.3-0.6-0.6-1-1.1-1.3c-0.4-0.3-1-0.3-1.8,0c-0.8,0.4-1.4,1.1-2,2c-0.5,0.9-1,2-1.3,3.3c-0.3,1.2-0.5,2.5-0.6,3.8
		c-0.1,1.3,0,2.6,0.1,3.7c0.2,1.1,0.4,2.1,0.8,2.9c0.5,0.9,1,1.2,1.6,0.9c0.6-0.3,1.2-1,1.7-2s0.9-2.2,1.2-3.6
		c0.3-1.4,0.6-2.7,0.8-4.1c0.2-1.4,0.4-2.5,0.6-3.5c0-0.2,0.1-0.3,0.2-0.4c0.1,0,0.4-0.1,0.7-0.1c0.4-0.1,0.7-0.1,1.1,0
		c0.4,0.1,0.6,0.2,0.8,0.5c0.1,0.3,0.2,0.7,0.2,1.3c0,0.6-0.1,1.2-0.1,1.8c-0.1,0.7-0.1,1.3-0.1,2c0,0.6,0.2,1.2,0.4,1.7
		c0.2,0.4,0.5,0.7,0.8,0.9c0.4,0.2,0.8,0.2,1.2,0c0.7-0.3,1.4-1.3,2.1-2.9c0.7-1.6,1.1-3.9,1.2-6.9l1.2,0.4c0.1,1.8,0,3.6-0.4,5.2
		c-0.4,1.6-0.9,3-1.6,4.2c-0.7,1.2-1.6,2-2.7,2.6c-1.1,0.6-2.2,0.6-3.1,0.2s-1.6-1.1-2.1-1.9c0-0.1,0-0.1-0.1-0.1c0,0,0-0.1,0-0.1
		c-0.4,1.9-0.9,3.5-1.5,4.7C392.5,171.3,391.7,172.2,390.6,172.7z"/>
</g>
</svg>
