<?xml version="1.0" encoding="utf-8"?>
<!-- Generator: Adobe Illustrator 23.0.1, SVG Export Plug-In . SVG Version: 6.00 Build 0)  -->
<svg version="1.1" id="Layer_1" xmlns="http://www.w3.org/2000/svg" xmlns:xlink="http://www.w3.org/1999/xlink" x="0px" y="0px"
	 viewBox="0 0 1049 598" style="enable-background:new 0 0 1049 598;" xml:space="preserve">
<style type="text/css">
	.st0{fill:#7C1F0D;}
	.st1{fill:#9B280D;}
	.st2{opacity:0.2;}
	.st3{fill:#A52911;}
	.st4{fill:#00B4CC;}
	.st5{opacity:0.3;}
	.st6{opacity:0.3;fill:#FFFFFF;}
	.st7{opacity:0.2;fill:#FFFFFF;}
	.st8{fill:#B79711;}
	.st9{fill:#03CCDB;}
	.st10{opacity:5.000000e-02;fill:#FFFFFF;}
	.st11{opacity:0.1;fill:#FFFFFF;}
	.st12{opacity:0.15;fill:#FFFFFF;}
	.st13{fill:#008689;}
</style>
<g>
	<g>
		<path class="st0" d="M464.6,487.5c-2.7-13.8-11.2-335.4-7.2-347.6c4-12.3,27.4-10.9,50.8,9.8c23.4,20.7,33.4,20.7,39.5,46.8
			c6,26.1,38.9,363.9,38.2,375.3c-0.7,11.4-36-29.5-59.3-54.2C503.4,492.9,466.8,498.5,464.6,487.5z"/>
		<path class="st1" d="M65.9,209.4c5.3-0.3,389.8-58.6,398.7-55.9c8.9,2.7,12.9,337.4,3.6,341.4c-9.4,4-440.2,98.8-449.5,99.7
			c-9.4,0.9-14.3-9.5-15-18.3C3.2,570.7,54.9,210,65.9,209.4z"/>
		<path class="st0" d="M61.5,202c5.3-2.9,395.5-64.7,404.5-62c8.9,2.7,14.3,336.9,5,340.9S21.5,581.8,12.1,582.7
			c-9.4,0.9-9.4-4.9-7.6-16.1C6.3,555.5,51.8,207.2,61.5,202z"/>
		<path class="st1" d="M470.9,480.9c-4.3,1.2-6.7,17.2,0,21.1c12.4,7.4,20.1-7.5,51.5,20.3c30.2,26.7,37.5,54.5,49.6,58
			c18,5.2,26.2-19.4,8.2-19.4c-8.1,0-22.5-22.7-46.4-45.3C511.7,494.8,480.5,478.1,470.9,480.9z"/>
		<path class="st1" d="M584.2,577.7c9.8-0.1,439.5-11,450.3-11c13.8,0,12.4-19.3,10.8-24.6c-4.6-15-92.4-343.8-98.2-349.5
			c-5.8-5.8-402.3,3.6-409.4,8.9C530.6,206.8,578.2,577.7,584.2,577.7z"/>
		<path class="st0" d="M580.1,560.9c9.8-0.1,446.8-9.1,457.5-10.4c10.7-1.3,8.3-6.3,7.1-10.6c-4.2-15.1-94.5-357.8-100.3-363.6
			c-5.8-5.8-402.3,3.6-409.4,8.9C527.9,190.6,574,560.9,580.1,560.9z"/>
		<path class="st2" d="M70.9,213.3c0,0-19.1,261.8-40.9,352.6c0,0,116-17.8,208.6-44.2c92.6-26.3,205.9-52.3,237.2-50.9
			c18.3,2.6,37.8,11.4,52.7,22.5c14.8,11.1,39.2,41.8,48.6,56.8c9.8,1.2,445.2-5.5,450.4-7.7c5.2-2.2-84.4-348.9-84.4-348.9
			L70.9,213.3z"/>
		<path class="st3" d="M24,580.4c-0.1-1.2,421.1-94.9,422-93.4C447,488.6,24.3,583,24,580.4z"/>
		<path class="st3" d="M703.2,558.4c0.2-0.7,329.5-9.2,329.7-7.7C1033.3,552.3,703,559.1,703.2,558.4z"/>
	</g>
	<g>
		<path class="st4" d="M881.7,98.2c0,0,69.9,328.4,70.8,347.8c0.9,19.4-417.9,48.7-422.8,45.5s-14.8-339.5-8.7-347.8
			c6.1-8.3,31-69,114.9-57.4C719.7,98,879.3,96.6,881.7,98.2z"/>
		<path class="st4" d="M578,548.5c0,0-18.6-30.9-48.4-57c0,0,30.1-56.9,140.5-47.5s274.3,1.3,282.3,2c8,0.7,66.2,85,69.6,88.3
			C1025.4,537.7,578.5,550.7,578,548.5z"/>
		<path class="st4" d="M941,186.5c-1.4-2.1-15.1-23.4-29-44.6l-4-0.2l-2.2-9.1c-12.1-18.3-23-34.3-24.2-34.4
			c-2.8-0.3,66.8,334.4,70.8,347.8c4,13.4,68.2,88.8,69.6,88.3C1026.1,533,943.8,190.7,941,186.5z"/>
		<path class="st5" d="M579.6,495.9c0,0,43.3-21.1,97.2-15.3c53.9,5.7,146.9,7.2,146.9,7.2s-82.2,0.4-145.7-1.4
			C614.6,484.5,579.6,495.9,579.6,495.9z"/>
		<path class="st5" d="M707.4,509.8c0,0,153.3-6.2,206.8-3.3C914.2,506.5,727.1,510.6,707.4,509.8z"/>
		<path class="st5" d="M957,369.6l28.9,122.9c0,0-46.7,0.3-75,0c0,0,69.2,4.1,78.9,4.8L957,369.6z"/>
		<polygon class="st6" points="950.4,319.1 912,141.9 912,141.9 908.1,141.8 		"/>
		<path class="st5" d="M947.1,252.8c0,0,18.9,101.1,36.6,164C983.7,416.8,950.8,266.1,947.1,252.8z"/>
		<path class="st7" d="M772.7,468.2c0,0,92.7,3.1,163.8-1.5C936.4,466.7,857.5,477.3,772.7,468.2z"/>
	</g>
	<path class="st5" d="M903.2,443l-50.6-296.4L545,182.1l-15.3,309.4c0,0,22.1-43.4,106.8-56.8c0.6-0.1,1.1-0.2,1.7-0.3
		c1.3,2.4,2.9,5.9,3.4,8.5c0.8,4.4-2.7,42.9-2.5,63.9c0.2,21,2.6,38.9,3.4,40.9c0.8,2,4.2,9.7,5.7,10.2c1.5,0.6,49.6-27.8,51.9-27.3
		c2.3,0.5,33.3,21.4,37,20.9c3.6-0.5,0.6-101.9,0-109.8c-0.1-1.9-0.5-3.6-1-5.1C779.5,442.8,828.1,450.8,903.2,443z"/>
	<g>
		<path class="st8" d="M623,403.8c4.7,6.7,22.1,24.8,23.9,39.2s-8,58.1,2.2,121.4c6.9,2.6,45.9-38.5,51.2-37.8
			c4.5,0.6,40.5,32.8,40.5,27.1c0-2.7-2.7-64.6,1-105.9c2-22.5-32.4-61-32.4-61L623,403.8z"/>
		<path class="st5" d="M739.9,434.8c-5.5-16.9-20.7-36.4-27.4-44.4h-21.8L623,403.8c3.9,5.6,16.7,19.2,21.9,31.9
			C661.4,434,716.2,434.1,739.9,434.8z"/>
		<path class="st6" d="M646.5,440.9c0.2,0.7,0.3,1.4,0.4,2.1c0.5,4.3,0,11.4-0.7,20.8c17.1-4.9,70.1-5.8,94.8-6
			c0.2-3.4,0.5-6.8,0.7-10c0.1-0.9,0.1-1.8,0.1-2.7C715.7,443.8,659.3,440.2,646.5,440.9z"/>
	</g>
	<g>
		<path class="st9" d="M529.7,491.5c0,0,28.9-56,112.3-66.3c83.4-10.3,177.5,40.6,280.1-14.7c0,0-48.9-291.6-50.8-363.3
			c0,0-36.1,33.2-123.1,37.6c-87,4.4-163.7-58.8-227.2,58.8C514.7,174.5,529.7,491.5,529.7,491.5z"/>
		<path class="st4" d="M814.4,116.6c-65.5,22.2-136.1,13.6-179.4,5c-43.1-8.5-80.6,6.5-115.5,47.8c-0.7,52.8,3.6,168.2,6.8,245.6
			c64.4-48.7,107.1-59.6,181.2-47.4c94.2,15.5,143.6,6.3,143.6,6.3C832.6,279,814.4,116.6,814.4,116.6z"/>
		<path class="st5" d="M583.1,79.3c-21.9,9.2-42.7,28.3-62.2,64.4c-6.3,30.8,8.7,347.8,8.7,347.8s16.7-32.4,61.4-52.4
			C557,343.5,563.3,148.9,583.1,79.3z"/>
		<path class="st10" d="M643.7,73c19.2,76.2,4.1,253.1-2.3,352.3c0.2,0,0.4-0.1,0.7-0.1c47.1-5.8,97.5,7.9,151,10.9
			c-24.8-93.3-59.1-266-56-351.1C704.3,84.7,673.2,76.2,643.7,73z"/>
		<path class="st11" d="M909.4,416.9c4.2-1.9,8.5-4,12.7-6.3c0,0-48.9-291.6-50.8-363.3c0,0-14.4,13.2-46.9,24.1
			C841.7,147.1,874.7,322,909.4,416.9z"/>
	</g>
	<g>
		<path class="st4" d="M143.7,106.2c-4.1,14.7-10.2,28-17.1,39.8c0,0,0,0,0,0c0.1,3,0.2,6.7,0.1,11h-7.1c0,0,0,0,0,0
			c-6.4,9.4-13.1,17.6-19.5,24.5c0,0,0,0,0,0c0.1,1.2,0.2,2.3,0.2,3.5h-3.5c0,0,0,0,0,0c-14.4,15-26.1,23.1-26.1,23.1
			c3.6,137.1-31.4,353.4-31.4,353.4s60.2-34.5,80.3-101.9C165.1,209.7,143.7,106.2,143.7,106.2z"/>
		<path class="st9" d="M546.3,72.9c20.1,86.3,6.2,297,7.5,345.2c1.3,48.3-36-72.8-167.3-23.6c-218.1,81.6-266.9,65.1-266.9,65.1
			s26.5-238.8,24.1-353.4c0,0,113.8,2.5,208.4-58.2C446.7-12.6,525.2-18,546.3,72.9z"/>
		<path class="st4" d="M552.9,115.9c-26.1-79-104.7-85.3-175.7-38.8c-80.9,52.9-147.6,58.5-147.6,58.5
			c5.4,127.9-15.5,238.5-15.5,238.5c96-7.8,198.7-77.3,265.1-81.6c49.8-3.2,68,28.9,76,52.5C557.2,277.3,559.5,182.6,552.9,115.9z"
			/>
		<path class="st10" d="M520.2,22c-26.9-25.7-68.9-23.6-118.6-1.3c7.7,88.5-7,264.2-20.1,375.6c1.7-0.6,3.3-1.2,5-1.9
			c59.8-22.4,100.1-9.5,126.1,6.7C508,282.6,508.5,119.5,520.2,22z"/>
		<path class="st4" d="M39.3,561.5c0,0,69.6-68.4,80.3-101.9c0,0,110.4-7,203.4-59.8c83.4-47.4,172.3-81.2,214-31.9
			c41.8,49.3-7.3,123.5-7.3,123.5s-25-18.1-52.6-22.5c0,0,6.2-30.8-39.7-20.5C391.4,458.8,179.8,544.3,39.3,561.5z"/>
		<path class="st5" d="M333.4,430.6c35.5-7.4,135.1-66.2,168.2-49.2c33.1,17.1,9.7,64.2,9.7,64.2s5.8-48.3-16.1-55.9
			c-21.9-7.6-69.3,10.3-111,25.6C342.5,430.8,333.4,430.6,333.4,430.6z"/>
		<path class="st5" d="M88.8,350.9c0,0-2.1,107.5-14.2,173.1c0,0,53.4-4.6,149-36.3c0,0-94.5,27.4-144.5,31.1
			C79.2,518.9,92.9,420.7,88.8,350.9z"/>
		<g>
			<polygon class="st6" points="96.9,185 96.9,185 96.9,185 			"/>
			<polygon class="st6" points="100.1,181.5 100.1,181.5 100.1,181.5 			"/>
			<path class="st6" d="M96.9,185c0,0,7.6,123,6.4,165.9c0,0,4.7-47.7-2.2-155.7c-0.3-4.5-0.7-10.2-0.7-10.2H96.9z"/>
		</g>
		<g>
			<path class="st6" d="M126.7,157h-7.1c0,0,0.7,87.4,0,126C119.6,283.1,126.3,196.8,126.7,157z"/>
		</g>
		<path class="st5" d="M170.3,487.7c0,0,87.2-16.6,139.5-37.6L170.3,487.7z"/>
		<path class="st5" d="M426.4,421.7c0,0,44-16.5,59.9-5.5c15.9,11,10.4,32.4,10.4,32.4s-0.7-21.8-16.2-30
			C465,410.3,426.4,421.7,426.4,421.7z"/>
		<path class="st5" d="M442.4,359.2c0,0,54.9-18.7,84.8,8.5c29.9,27.2,9.8,91.6,9.8,91.6s15.1-61-11.2-89.4
			C499.5,341.5,442.4,359.2,442.4,359.2z"/>
		<path class="st12" d="M64.4,206.5c1.8-3,9.9-6.1,18.7-8.7c-13.1,2.3-20.9,3.8-21.6,4.1c-8.3,4.5-42.9,260.9-53.7,341.2
			C21.9,456.4,60.9,212.4,64.4,206.5z"/>
		<path class="st7" d="M132.7,474.7c0,0,61.4-5,149.5-37.2C282.2,437.4,219,468.8,132.7,474.7z"/>
		<path class="st7" d="M495.3,389.8c-21.9-7.6-69.3,10.3-111,25.6c-14.1,5.2-24.5,8.6-32,10.9c0,0,0,0,0,0s12-2.7,74.2-23.7
			c62.2-21,76.5-11.7,82.3,3.5C506.2,398.5,502.1,392.2,495.3,389.8z"/>
		<path class="st5" d="M383.8,445.6c-135.8,52.3-234.7,76.5-234.7,76.5S249.8,503.7,383.8,445.6z"/>
		<path class="st7" d="M166.1,518.5L166.1,518.5c0,0,31.4-4.6,100.4-25.8c69-21.2,115.2-46.1,115.2-46.1s0,0-0.1,0
			C281.3,489.9,199.9,510.9,166.1,518.5z"/>
		<path class="st5" d="M309.8,424.2c48.1-18.5,152-78.5,195-56.5c0,0-22.3-9.7-66.1,5.2c-18.6,6.4-40.6,15.1-59.5,23.1
			C324.9,419.2,309.8,424.2,309.8,424.2z"/>
		<path class="st7" d="M438.7,372.9c-18.6,6.4-40.6,15.1-59.5,23.1c-16.5,7-29.4,12.4-39.3,16.5c0,0,0,0,0,0s43.3-16.3,69.2-26.7
			c25.9-10.4,49.1-19.5,64.6-20.7C464.1,365.9,452.5,368.2,438.7,372.9z"/>
		<path class="st11" d="M166.3,105.4c-14.1,1-22.6,0.8-22.6,0.8c1.5,70.9-8.1,189.4-15.6,269.4C150.3,258.8,163.1,159,166.3,105.4z"
			/>
	</g>
</g>
<g>
	<path class="st13" d="M603.4,176.8c0.4-1.9,1-4.1,1.7-6.5c0.7-2.4,1.5-5.2,2.4-8.5c1-3.3,2.1-7.2,3.3-11.7c1.3-4.5,2.7-9.8,4.4-16
		c0.1-0.2,0.2-0.6,0.2-1.1c0.1-0.5,0.1-1,0.1-1.4c0-0.4-0.1-0.7-0.2-1c-0.1-0.3-0.4-0.4-0.7-0.4c-1,0-1.9,0.4-2.7,1.2
		c-0.8,0.8-1.6,1.7-2.2,2.8c-0.6,1.1-1.1,2.3-1.4,3.5c-0.3,1.2-0.5,2.3-0.5,3.3c0,0.8,0.1,1.5,0.3,2.1c-1.3,0-2.3-0.3-2.8-0.9
		c-0.6-0.6-0.8-1.5-0.9-2.4c0-1.4,0.3-2.7,1.1-4.1c0.8-1.4,1.8-2.6,3-3.8c1.2-1.2,2.5-2.1,3.9-2.8c1.4-0.7,2.6-1.1,3.8-1.1
		c1.2,0,2.2,0.5,3,1.5c0.8,1,1.5,2.4,2,4.2c0.5,1.8,1,3.8,1.3,6c0.4,2.2,0.7,4.5,1,6.9c0.3,2,0.6,4,0.8,6c0.3,2,0.6,3.8,0.8,5.6
		c0.3,1.8,0.5,3.4,0.8,4.9c0.2,1.5,0.4,2.7,0.6,3.6c0.2-1.9,0.6-4,1.1-6.4c0.5-2.4,1-4.9,1.6-7.5c0.6-2.6,1.2-5.1,1.9-7.6
		s1.3-4.7,1.9-6.8c0.6-2.1,1.1-3.8,1.5-5.2c0.4-1.4,0.7-2.3,0.9-2.6c0.2-0.5,0.6-1.2,1.3-1.9c0.7-0.7,1.5-1.1,2.4-1.1
		c-0.6,1.9-1.4,4.1-2.2,6.8c-0.8,2.7-1.6,5.6-2.4,8.7c-0.8,3.1-1.6,6.3-2.4,9.5c-0.8,3.2-1.5,6.4-2.1,9.4s-1.1,5.8-1.4,8.2
		s-0.5,4.5-0.5,6c-1.2,0-2.3-0.3-3.1-1c-0.8-0.7-1.4-2-1.7-3.7c-0.2-1-0.5-2.5-0.8-4.3c-0.3-1.8-0.7-3.8-1.1-6.1
		c-0.4-2.2-0.8-4.6-1.2-7c-0.4-2.4-0.8-4.8-1.2-7.1c-0.4-2.3-0.7-4.4-1.1-6.4c-0.3-1.9-0.6-3.5-0.8-4.8c-1.8,7-3.3,12.8-4.5,17.6
		c-1.3,4.8-2.3,8.7-3.2,11.8c-0.9,3-1.7,5.4-2.3,7c-0.7,1.7-1.3,2.8-2,3.4C604.8,176.5,604.1,176.8,603.4,176.8z"/>
	<path class="st13" d="M639.4,174.2c-1.5-0.3-2.6-0.9-3.2-2s-0.8-2.3-0.5-3.7c0.2-0.9,0.5-2,1.1-3.3c0.6-1.3,1.3-2.7,2.1-4.1
		c0.8-1.4,1.7-2.7,2.7-4c1-1.2,1.9-2.2,2.9-2.9c1-0.7,1.9-1,2.6-0.9c0.4,0.1,0.6,0.2,0.9,0.5c0.2,0.3,0.3,0.6,0.2,1
		c-0.1,0.5-0.5,1.2-1.3,2.1c-0.8,1-1.7,2.1-2.8,3.3c-1.1,1.2-2,2.6-2.9,4c-0.9,1.4-1.4,2.8-1.7,4.2c-0.2,1.4-0.2,2.4,0.2,3
		c0.4,0.6,1.1,0.9,2.1,1.1c1.3,0.2,2.9-0.2,4.6-1.3c1.7-1.1,3.8-3.2,6-6.2l0.4,0.7c-1.7,3.2-3.8,5.5-6.3,7
		C644.2,174.1,641.8,174.6,639.4,174.2z M651.2,148.3c-0.6-0.1-1.2-0.4-1.6-0.8c-0.4-0.4-0.6-0.9-0.5-1.6c0.1-0.8,0.7-1.5,1.8-1.9
		c1.1-0.4,2.1-0.6,3-0.4c0.6,0.1,1,0.3,1.3,0.7c0.3,0.3,0.4,0.8,0.3,1.5c-0.1,0.7-0.7,1.4-1.6,2C653,148.3,652.1,148.5,651.2,148.3z
		"/>
	<path class="st13" d="M664.1,142c-0.2-0.2-0.5-0.5-0.6-0.8c-0.2-0.3-0.2-0.7-0.2-1c0.1-0.5,0.5-1.1,1.2-1.8
		c0.7-0.7,1.4-1.4,2.2-2.2c0.7-0.8,1.3-1.5,1.6-2.1c0.4,0.1,0.7,0.3,0.9,0.7c0.2,0.4,0.3,0.8,0.2,1.2c-0.1,0.5-0.4,1.1-1.1,1.8
		c-0.6,0.7-1.3,1.4-2.1,2.2C665.4,140.7,664.7,141.4,664.1,142z"/>
	<path class="st13" d="M688,187.5c-1.8-0.2-3.4-1-4.9-2.2c-1.4-1.2-2.8-2.5-4-3.9c-1,0.4-2,0.6-3.1,0.8c-1,0.2-2.1,0.2-3.1,0
		c-1.3-0.2-2.4-0.5-3.3-1c-0.8-0.5-1.4-1.1-1.8-1.8c-0.4-0.7-0.6-1.3-0.7-1.9s-0.1-1.1-0.1-1.4c0.1-0.7,0.5-1.3,1.2-1.9
		c0.7-0.6,1.9-0.8,3.5-0.6c1.6,0.2,3.2,0.8,4.6,1.8c1.4,1,2.9,2.1,4.4,3.2c2-1.4,3.8-3.2,5.5-5.5c1.7-2.3,3.2-4.8,4.5-7.5
		c1.3-2.7,2.4-5.4,3.2-8c0.8-2.7,1.4-5,1.7-7.1c0.4-3.3,0.1-6-0.8-8.2c-1-2.2-2.8-3.4-5.6-3.8c-2.3-0.3-4.5,0.1-6.7,1.2
		s-4.2,2.7-6.1,4.8c-1.9,2.1-3.6,4.5-5.1,7.2c-1.5,2.7-2.8,5.5-3.8,8.4c-1,2.9-1.7,5.8-2,8.5c-0.1,0.8-0.2,1.7-0.2,2.5
		c0,0.8,0,1.7,0,2.5c-1.2-0.2-2.1-0.7-2.7-1.5c-0.6-0.9-0.9-2-1-3.2c-0.1-1.3-0.1-2.6,0.1-4.1c0.4-3,1.2-5.9,2.3-8.7
		c1.2-2.9,2.6-5.5,4.4-8c1.8-2.5,3.8-4.6,6-6.4c2.2-1.8,4.6-3.1,7.1-4c2.5-0.9,5.1-1.2,7.6-0.8c3.8,0.5,6.6,2.2,8.4,5
		c1.8,2.9,2.4,6.5,1.8,11c-0.3,2.5-1,5.1-2,7.7c-1,2.6-2.3,5.2-3.8,7.6c-1.5,2.4-3.3,4.7-5.2,6.7c-1.9,2-3.9,3.7-6.1,4.9
		c1.3,0.9,2.6,1.7,4,2.5c1.4,0.7,2.9,1.2,4.5,1.4c0.9,0.1,1.5,0.1,2,0c0.4-0.1,1-0.2,1.6-0.3c-0.6,1.3-1.3,2.3-2,2.9
		c-0.8,0.6-1.6,1-2.3,1.1C689.3,187.5,688.6,187.6,688,187.5z M673.1,180.7c0.8,0.1,1.7,0.1,2.5,0c0.8-0.1,1.6-0.3,2.3-0.6
		c-1.1-1.2-2.2-2.3-3.3-3.3c-1.1-1-2.3-1.5-3.6-1.7c-0.9-0.1-1.5,0-1.9,0.3s-0.5,0.7-0.5,1c0,0.4,0,0.8,0.2,1.5
		c0.2,0.6,0.6,1.2,1.3,1.8C670.8,180.2,671.8,180.5,673.1,180.7z"/>
	<path class="st13" d="M703.4,184.5c-1.2-0.1-2.3-0.5-3.1-1.4c-0.8-0.9-1.2-2.1-1.1-3.8c0.1-1.4,0.5-3,1.2-4.6
		c0.7-1.6,1.7-3.2,2.9-4.8c1.2-1.6,2.5-3,4-4.3c1.5-1.3,3-2.3,4.6-3c1.6-0.7,3.2-1.1,4.8-1s2.8,0.5,3.8,1.4c1,0.9,1.5,2,1.4,3.3
		c0,1-0.3,1.7-0.9,2c-0.6,0.3-1.3,0.5-2.2,0.4c0.1-0.3,0.2-0.7,0.3-1c0.1-0.4,0.1-0.7,0.1-1c0-0.9-0.1-1.7-0.6-2.4s-1.2-1-2.2-1.1
		c-1.1-0.1-2.3,0.3-3.5,1c-1.2,0.7-2.4,1.7-3.5,3c-1.1,1.3-2.2,2.6-3.1,4.1c-0.9,1.5-1.6,2.9-2.2,4.4c-0.5,1.5-0.8,2.8-0.9,3.9
		c-0.1,1.6,0.4,2.4,1.5,2.4c0.9,0,1.9-0.3,3.1-1.2c1.1-0.8,2.3-1.9,3.5-3.1c1.2-1.3,2.4-2.6,3.5-4c1.1-1.4,2.1-2.7,2.9-3.8
		c0.2-0.2,0.3-0.3,0.3-0.3c0.2,0.1,0.5,0.1,0.9,0.3c0.4,0.1,0.7,0.3,1,0.5c0.3,0.2,0.4,0.5,0.4,0.8c0,0.4-0.2,0.8-0.6,1.4
		c-0.4,0.6-0.8,1.3-1.3,2.1c-0.5,0.8-0.9,1.6-1.3,2.4c-0.4,0.8-0.6,1.6-0.6,2.3c0,0.6,0.1,1.2,0.4,1.8c0.3,0.6,0.8,0.9,1.5,0.9
		c1.1,0,2.5-0.7,4.4-2.2c1.8-1.5,3.7-3.8,5.7-6.9l0.6,0.6c-0.9,2.1-2.1,4-3.5,5.5c-1.4,1.6-2.9,2.8-4.4,3.6c-1.5,0.9-3,1.2-4.5,1.2
		c-1.5-0.1-2.5-0.6-3.2-1.5c-0.7-0.9-1-1.9-0.9-2.9c0-0.2,0-0.5,0.1-0.8c0.1-0.3,0.1-0.6,0.2-0.9c-1.8,2.2-3.5,3.9-4.9,5
		C706.4,184.1,704.9,184.6,703.4,184.5z"/>
	<path class="st13" d="M731.8,185c-0.8,0-1.4-0.6-1.9-1.9s-0.8-2.7-0.8-4.3c-0.1-1.9,0.2-4.2,0.7-6.9c0.5-2.7,1.3-5.5,2.2-8.4
		c0.9-3,2-5.9,3.2-8.7c1.2-2.8,2.4-5.4,3.7-7.8c1.3-2.3,2.5-4.2,3.7-5.6c1.2-1.4,2.2-2.1,3-2.1c0.7,0,1.2,0.4,1.6,1.2
		c0.3,0.9,0.5,1.7,0.5,2.5c0,1.1-0.2,2.5-0.6,4.1c-0.4,1.6-1.1,3.3-1.9,5.2c-0.8,1.8-1.8,3.7-2.9,5.5c-1.1,1.8-2.3,3.5-3.6,5
		c-1.3,1.5-2.7,2.7-4,3.6c-0.4,1.2-0.8,2.5-1.1,3.9s-0.5,2.9-0.6,4.3c-0.1,1.4-0.2,2.6-0.1,3.7c0,0.4,0,0.8,0.1,1.1
		c0,0.3,0.1,0.6,0.1,0.9c0.5-1.7,1.1-3.3,1.7-4.8c0.6-1.6,1.3-3,2-4.3c0.7-1.3,1.5-2.5,2.3-3.5c0.8-1,1.7-1.8,2.7-2.4
		c0.9-0.6,2-0.9,3-0.9c1.1,0,2,0.2,2.7,0.7s1.2,1.2,1.5,2c0.3,0.8,0.5,1.7,0.5,2.5c0,1.2-0.1,2.4-0.5,3.6c-0.4,1.2-0.8,2.3-1.2,3.4
		c-0.4,1.1-0.6,2.1-0.6,3.1c0,0.8,0.2,1.4,0.6,1.7c0.4,0.3,0.8,0.5,1.3,0.5c0.9,0,1.9-0.5,3-1.4c1.1-0.9,2.2-2.1,3.3-3.6
		c1.1-1.5,2-3.1,2.7-4.9l0.8,0.7c-0.8,2-1.7,3.8-2.9,5.4c-1.1,1.6-2.4,2.9-3.8,3.9c-1.4,1-2.9,1.5-4.5,1.5c-1.4,0-2.4-0.3-3.1-1
		c-0.7-0.7-1.1-1.6-1.1-2.7c0-0.8,0.1-1.8,0.4-2.8c0.3-1,0.6-2.1,0.8-3.2c0.3-1.1,0.4-2.1,0.3-3.1c0-1-0.3-1.8-0.7-2.2
		c-0.5-0.4-1-0.6-1.6-0.6c-1,0-1.9,0.5-2.7,1.3c-0.8,0.8-1.5,1.9-2.1,3.2s-1.2,2.6-1.7,4.1c-0.5,1.4-1,2.8-1.5,4
		c-0.5,1.3-1,2.3-1.5,3.1C732.9,184.6,732.4,185,731.8,185z M735.6,164.1c1.1-0.9,2.1-2.1,3.2-3.5c1-1.4,2-2.9,2.8-4.4
		c0.9-1.6,1.6-3.1,2.3-4.6c0.7-1.5,1.2-2.9,1.5-4.1c0.4-1.2,0.5-2.1,0.5-2.7c0-0.2,0-0.3-0.1-0.4c0-0.1-0.1-0.1-0.2-0.1
		c-0.3,0-0.8,0.6-1.7,1.7c-0.8,1.1-1.8,2.6-2.8,4.5c-1.1,1.9-2.1,4-3.1,6.3C737.1,159.2,736.2,161.6,735.6,164.1z"/>
</g>
<g>
	<path class="st13" d="M595.1,250.5c-1.7,0.5-3.3,0.7-5,0.5s-3.1-0.7-4.4-1.6c-1.3-0.9-2.2-2.3-2.8-4.2c-0.5-1.6-0.6-2.9-0.2-4
		c0.4-1.1,0.9-1.9,1.7-2.6c0.8-0.6,1.6-1.1,2.4-1.4c-0.6,1.1-0.9,2.3-1,3.5c-0.1,1.2,0,2.3,0.3,3.4c0.3,1.1,0.9,2.1,1.7,2.9
		c0.8,0.8,1.8,1.4,3,1.6c1.2,0.3,2.6,0.2,4.2-0.3c1.4-0.4,2.6-1.1,3.8-2c1.2-0.9,2-2,2.5-3.2c0.5-1.3,0.6-2.6,0.1-4.1
		c-0.4-1.3-1.1-2.3-2.1-3.1c-1-0.7-2.1-1.3-3.4-1.7c-1.3-0.4-2.6-0.8-4-1.1c-1.4-0.3-2.7-0.7-4-1.1c-1.3-0.4-2.4-1-3.4-1.8
		c-1-0.8-1.7-1.8-2.1-3.2c-0.4-1.3-0.5-2.7-0.3-4.3c0.2-1.6,0.6-3.2,1.4-4.8s1.8-3,3.2-4.3c1.4-1.3,3-2.2,5-2.8
		c1.8-0.6,3.2-0.5,4.2,0.2c1,0.7,1.7,1.6,2.1,3c0.3,1.1,0.5,2.3,0.5,3.7c0,1.4-0.1,2.7-0.3,4.1c-0.2,1.3-0.4,2.4-0.7,3.4
		c-0.6,0-1.1-0.1-1.4-0.4c-0.3-0.3-0.6-0.7-0.7-1.2c-0.2-0.6-0.3-1.4-0.3-2.3c0-0.9,0.1-1.9,0.1-2.9c0.1-1,0.1-2,0.1-2.9
		c0-0.9-0.1-1.7-0.3-2.4c-0.2-0.6-0.5-1-1-1.3c-0.5-0.2-1.2-0.2-2.2,0.1c-1.4,0.4-2.7,1.2-3.7,2.2c-1,1-1.8,2.2-2.4,3.6
		c-0.6,1.3-1,2.7-1.1,4c-0.1,1.3-0.1,2.5,0.2,3.4c0.3,1.1,1,2,1.9,2.6c0.9,0.6,2,1.1,3.2,1.4c1.2,0.3,2.6,0.7,3.9,0.9
		c1.4,0.3,2.7,0.7,4,1.2c1.3,0.5,2.4,1.2,3.4,2c1,0.9,1.7,2.1,2.2,3.7c0.5,1.6,0.6,3.1,0.2,4.5s-1,2.7-1.9,3.9
		c-0.9,1.2-2,2.2-3.3,3.1C597.9,249.5,596.5,250.1,595.1,250.5z"/>
	<path class="st13" d="M610.1,244.5c-1,0.1-1.9-0.2-2.6-0.8c-0.7-0.6-1.2-1.6-1.3-2.9c-0.1-1.1,0.1-2.4,0.5-3.8
		c0.4-1.4,1-2.7,1.8-4.1c0.8-1.4,1.7-2.6,2.7-3.8c1-1.2,2.2-2.1,3.4-2.9c1.2-0.7,2.4-1.2,3.7-1.3c1.2-0.1,2.3,0.1,3.2,0.7
		c0.9,0.6,1.4,1.4,1.5,2.5c0.1,0.8-0.1,1.4-0.5,1.7s-1,0.5-1.7,0.6c0-0.3,0.1-0.5,0.1-0.9c0-0.3,0-0.6,0-0.8
		c-0.1-0.7-0.3-1.3-0.7-1.8c-0.4-0.5-1-0.7-1.9-0.6c-0.9,0.1-1.8,0.5-2.7,1.2c-0.9,0.7-1.7,1.6-2.5,2.7c-0.8,1.1-1.4,2.3-2,3.6
		c-0.6,1.3-1,2.5-1.3,3.7c-0.3,1.2-0.4,2.3-0.3,3.2c0.1,1.2,0.6,1.8,1.4,1.8c0.7-0.1,1.5-0.5,2.3-1.2c0.8-0.8,1.6-1.7,2.4-2.8
		c0.8-1.1,1.6-2.3,2.3-3.5c0.7-1.2,1.4-2.3,1.9-3.3c0.1-0.2,0.2-0.3,0.2-0.3c0.2,0,0.4,0.1,0.8,0.1c0.3,0.1,0.6,0.2,0.8,0.3
		c0.2,0.1,0.4,0.3,0.4,0.6c0,0.3-0.1,0.7-0.3,1.2c-0.2,0.5-0.5,1.1-0.8,1.8c-0.3,0.7-0.6,1.3-0.8,2c-0.2,0.7-0.3,1.3-0.3,1.9
		c0,0.5,0.2,0.9,0.5,1.4c0.3,0.4,0.7,0.6,1.3,0.6c0.9-0.1,1.9-0.8,3.2-2.2c1.3-1.4,2.6-3.4,3.8-6l0.5,0.4c-0.5,1.8-1.3,3.4-2.2,4.8
		s-2,2.5-3.1,3.3c-1.1,0.8-2.3,1.3-3.4,1.4c-1.2,0.1-2.1-0.2-2.7-0.8c-0.6-0.7-1-1.4-1-2.2c0-0.2,0-0.4,0-0.6c0-0.2,0-0.5,0-0.7
		c-1.2,2-2.4,3.5-3.4,4.5C612.4,243.9,611.3,244.4,610.1,244.5z"/>
	<path class="st13" d="M630.8,244.2c-1.6-0.2-2.8-0.9-3.5-2.1c-0.7-1.2-0.9-2.7-0.6-4.5c0.2-1.6,0.7-3.4,1.6-5.5
		c0.8-2.1,1.9-4.2,3.1-6.5c1.2-2.2,2.5-4.4,3.9-6.5c1.4-2.1,2.8-4,4.1-5.7c1.4-1.7,2.6-3,3.7-3.9s2-1.4,2.7-1.3
		c0.5,0.1,0.9,0.5,1,1.2c0.1,0.7,0.2,1.4,0.1,2c-0.1,0.9-0.5,1.9-1,3.2s-1.3,2.5-2.2,3.8c-0.9,1.3-1.9,2.7-3,3.9
		c-1.1,1.3-2.3,2.4-3.5,3.4c-1.2,1-2.4,1.8-3.6,2.3c-0.2,0.3-0.6,1-1.1,2c-0.5,1-1,2.3-1.5,3.6c-0.5,1.4-0.8,2.7-1,4.1
		c-0.2,1.3-0.1,2.4,0.2,3.3c0.3,0.9,0.9,1.4,1.8,1.5c0.9,0.1,1.9-0.1,3-0.7c1.1-0.6,2-1.5,2.8-2.5c-1.1-0.8-1.8-1.8-2.3-3
		c-0.4-1.2-0.5-2.4-0.4-3.6c0.2-1.5,0.8-2.7,1.7-3.5c0.9-0.8,1.9-1.1,3-1c0.9,0.1,1.6,0.6,2,1.4c0.4,0.8,0.6,1.9,0.4,3.4
		c-0.1,1-0.4,2.1-0.8,3.1c-0.4,1-0.9,2-1.6,3c0.2,0.1,0.3,0.1,0.5,0.1c0.2,0,0.3,0.1,0.5,0.1c1.3,0.2,2.5-0.1,3.6-0.8
		c1.1-0.7,2.1-1.7,3-2.9c0.9-1.2,1.7-2.5,2.4-3.8c0.7-1.3,1.3-2.5,1.9-3.5c-0.1-0.2-0.2-0.4-0.3-0.5c-0.1-0.2-0.1-0.4,0-0.8
		c0.1-0.8,0.5-1.5,1.1-2.1c0.6-0.6,1.1-0.8,1.4-0.8c0.3,0,0.4,0.2,0.4,0.5c0,0.3,0,0.5,0,0.6c0,0.3-0.2,0.6-0.4,0.9
		c-0.2,0.3-0.4,0.6-0.4,0.9c-0.1,0.4,0.1,0.8,0.6,1.2c0.4,0.4,0.9,0.9,1.5,1.4c0.6,0.5,1.1,1.2,1.5,1.9c0.4,0.8,0.5,1.6,0.4,2.6
		c-0.1,1-0.5,1.9-1,2.8c-0.5,0.9-1.1,1.8-1.6,2.6c-0.5,0.8-0.8,1.6-0.9,2.3c-0.1,0.5,0,0.9,0.3,1.2c0.3,0.2,0.6,0.4,1,0.4
		c0.8,0.1,1.6,0,2.5-0.4c0.9-0.4,1.7-0.9,2.6-1.5c0.9-0.6,1.6-1.3,2.4-2c0.7-0.7,1.3-1.4,1.6-2.1l0.6,0.6c-0.8,1.2-1.8,2.4-3,3.6
		s-2.5,2-3.9,2.7c-1.4,0.6-2.8,0.9-4.1,0.7c-1.1-0.1-1.9-0.5-2.4-1.2c-0.5-0.6-0.7-1.5-0.6-2.4c0.1-0.9,0.5-1.9,1.1-2.8
		c0.6-1,1.2-1.9,1.7-2.9s0.9-1.9,1-2.8c0.1-1-0.1-1.8-0.6-2.3c-0.5-0.6-1.1-1.1-1.6-1.6c-0.5,1.2-1.2,2.4-1.9,3.8
		c-0.7,1.4-1.6,2.7-2.5,3.9c-1,1.2-2.1,2.2-3.3,2.9c-1.2,0.7-2.6,0.9-4.2,0.7c-0.2,0-0.4-0.1-0.7-0.1c-0.2-0.1-0.5-0.1-0.7-0.2
		c-1.1,1.3-2.3,2.4-3.7,3.3C634,244.1,632.5,244.4,630.8,244.2z M634.4,226.2c1-0.6,2-1.3,3-2.3c1-1,1.9-2,2.8-3.1
		c0.9-1.1,1.7-2.2,2.4-3.3c0.7-1.1,1.3-2.1,1.8-3c0.4-0.9,0.7-1.6,0.8-2.1c0-0.2,0-0.3,0-0.3c0-0.1-0.1-0.1-0.1-0.1
		c-0.3,0-0.8,0.4-1.6,1.2c-0.8,0.8-1.8,1.9-2.9,3.3c-1.1,1.4-2.2,2.9-3.3,4.6C636.1,222.7,635.2,224.5,634.4,226.2z M638.3,238.4
		c0.5-0.7,0.8-1.4,1.1-2.2c0.3-0.8,0.5-1.6,0.6-2.5c0.2-1.1,0.1-2-0.1-2.7c-0.2-0.7-0.5-1-1-1.1c-0.5-0.1-0.9,0.2-1.4,0.8
		c-0.5,0.6-0.7,1.4-0.9,2.4c-0.1,0.9-0.1,1.8,0.1,2.8C637.1,236.9,637.6,237.7,638.3,238.4z"/>
	<path class="st13" d="M666.3,246.4c-1.2-0.1-2.1-0.6-2.7-1.4s-0.8-1.8-0.6-2.9c0.1-0.7,0.3-1.6,0.7-2.7c0.4-1.1,0.8-2.2,1.4-3.4
		c0.6-1.2,1.2-2.3,1.9-3.3c0.7-1,1.4-1.9,2.1-2.5c0.7-0.6,1.4-0.9,2.1-0.8c0.3,0,0.5,0.1,0.7,0.3c0.2,0.2,0.3,0.5,0.2,0.8
		c0,0.4-0.3,1-0.9,1.8c-0.6,0.8-1.2,1.8-2,2.8c-0.8,1.1-1.5,2.2-2.1,3.4c-0.6,1.2-1,2.3-1.1,3.4c-0.1,1.1,0,1.9,0.4,2.3
		c0.3,0.4,0.9,0.7,1.7,0.7c1.1,0.1,2.3-0.3,3.6-1.3c1.3-1,2.8-2.7,4.4-5.3l0.4,0.5c-1.2,2.7-2.7,4.6-4.6,5.9
		C670.1,246,668.2,246.6,666.3,246.4z M674,225c-0.5,0-1-0.2-1.3-0.5c-0.4-0.3-0.5-0.7-0.5-1.2c0.1-0.7,0.5-1.2,1.3-1.6
		c0.8-0.4,1.6-0.6,2.4-0.5c0.5,0,0.9,0.2,1.1,0.4s0.4,0.6,0.3,1.2c-0.1,0.6-0.4,1.2-1.1,1.7C675.5,224.9,674.8,225.1,674,225z"/>
	<path class="st13" d="M690.7,247.8c-1.1-0.1-1.9-0.4-2.5-1c-0.5-0.6-0.8-1.4-0.7-2.2c0-0.7,0.2-1.4,0.5-2.1
		c0.3-0.7,0.6-1.5,0.8-2.2c0.3-0.8,0.4-1.5,0.5-2.3c0-0.9-0.1-1.5-0.5-1.9c-0.4-0.4-0.8-0.5-1.3-0.6c-1-0.1-2,0.3-3.1,1.1
		s-2.1,1.7-3.1,3c-1,1.2-2,2.5-2.9,3.8c-0.9,1.3-1.7,2.5-2.4,3.5c-0.5,0-1-0.1-1.4-0.3c-0.5-0.2-0.8-0.5-1-0.8
		c0-0.2,0.2-0.6,0.6-1.5c0.4-0.8,0.8-1.8,1.3-3c0.5-1.2,1-2.4,1.4-3.7c0.4-1.3,0.7-2.4,0.7-3.5c0.2-0.2,0.5-0.4,0.9-0.6
		s0.9-0.3,1.3-0.3c0.9,0,1.3,0.5,1.2,1.3c0,0.5-0.2,1.4-0.6,2.5c-0.4,1.2-0.8,2.4-1.3,3.7c0.9-1.3,2-2.5,3.1-3.8s2.3-2.3,3.6-3.1
		c1.3-0.8,2.5-1.2,3.7-1.1c1.2,0.1,2.1,0.6,2.6,1.5c0.5,0.9,0.7,1.9,0.7,3c-0.1,1-0.3,1.9-0.6,2.7c-0.4,0.8-0.7,1.6-1.1,2.4
		c-0.4,0.8-0.6,1.5-0.6,2.3c0,0.7,0.1,1.1,0.3,1.4c0.3,0.3,0.6,0.4,1,0.5c0.8,0,1.6-0.3,2.5-1c0.8-0.7,1.7-1.6,2.5-2.7
		c0.8-1.1,1.5-2.2,2.2-3.4l0.5,0.7c-0.8,1.5-1.6,2.9-2.5,4.1s-1.9,2.1-2.9,2.7C693.1,247.6,691.9,247.9,690.7,247.8z"/>
	<path class="st13" d="M701,249.5c-1,0-1.8-0.3-2.5-1c-0.7-0.7-1-1.7-1-3c0-1.2,0.3-2.4,0.8-3.7c0.5-1.3,1.2-2.6,2.1-3.9
		c0.9-1.3,1.9-2.5,3-3.6c1.1-1.1,2.3-1.9,3.6-2.6s2.5-1,3.8-1c1.2,0,2.3,0.3,3.1,1s1.2,1.5,1.2,2.6c0,0.8-0.2,1.3-0.6,1.6
		c-0.4,0.3-1,0.4-1.7,0.4c0.1-0.3,0.1-0.5,0.2-0.8s0.1-0.6,0.1-0.8c0-0.7-0.2-1.4-0.5-1.9c-0.4-0.5-1-0.8-1.8-0.8
		c-0.9,0-1.8,0.3-2.7,0.9c-0.9,0.6-1.8,1.5-2.7,2.5c-0.9,1-1.6,2.2-2.3,3.4s-1.2,2.4-1.6,3.6c-0.4,1.2-0.6,2.2-0.6,3.2
		c0,1.2,0.4,1.9,1.3,1.9c0.7,0,1.5-0.3,2.4-1c0.9-0.7,1.8-1.6,2.7-2.6c0.9-1.1,1.8-2.2,2.6-3.3c0.8-1.2,1.6-2.2,2.2-3.2
		c0.1-0.2,0.2-0.3,0.2-0.3c0.2,0,0.4,0.1,0.7,0.2c0.3,0.1,0.6,0.2,0.8,0.4c0.2,0.2,0.3,0.4,0.3,0.6c0,0.3-0.1,0.7-0.4,1.2
		c-0.3,0.5-0.6,1.1-1,1.7c-0.4,0.6-0.7,1.3-1,1.9c-0.3,0.7-0.4,1.3-0.4,1.8c0,0.5,0.1,1,0.4,1.4c0.3,0.5,0.7,0.7,1.2,0.7
		c0.9,0,2-0.6,3.4-1.9c1.4-1.3,2.8-3.2,4.3-5.7l0.5,0.5c-0.7,1.7-1.5,3.2-2.6,4.6c-1.1,1.3-2.2,2.3-3.4,3.1
		c-1.2,0.7-2.4,1.1-3.5,1.1c-1.2,0-2.1-0.4-2.6-1.1c-0.6-0.7-0.8-1.5-0.8-2.3c0-0.2,0-0.4,0-0.6c0-0.2,0.1-0.5,0.1-0.7
		c-1.4,1.9-2.6,3.2-3.8,4.2C703.4,249,702.2,249.5,701,249.5z"/>
	<path class="st13" d="M744,249.9c-1.9,0.2-3.6,0-5.1-0.7c-1.5-0.6-2.7-1.6-3.6-2.8c-0.9-1.2-1.4-2.6-1.6-4.2
		c-0.2-1.5,0-2.9,0.5-4.4c0.5-1.5,1.2-2.8,2.2-4.1c1-1.3,2.2-2.4,3.6-3.3c1.4-0.9,3-1.5,4.7-1.9c-1.4-0.9-2.4-2-3.1-3.2
		c-0.7-1.3-1.2-2.6-1.3-3.9c-0.2-1.7,0.1-3.3,0.8-4.9c0.7-1.6,1.7-3,3.1-4.1c1.4-1.1,3-1.8,4.9-2c1.7-0.2,3.1,0.1,4,0.9
		c1,0.8,1.5,2,1.7,3.6c0.1,1.2,0.1,2.4-0.2,3.5c-0.3,1.2-0.6,2.1-1.1,2.9c-0.5,0.8-1,1.2-1.5,1.3c-0.4,0-0.7-0.1-1.1-0.3
		c-0.4-0.3-0.6-0.6-0.9-1c1-1.1,1.8-2.2,2.5-3.4c0.6-1.1,0.9-2.3,0.7-3.6c-0.1-1-0.5-1.8-1-2.3s-1.4-0.8-2.6-0.7
		c-1.5,0.2-2.7,0.8-3.6,1.8c-0.9,1-1.6,2.3-1.9,3.8c-0.4,1.5-0.5,3.2-0.3,4.9c0.1,0.8,0.2,1.6,0.5,2.4c0.2,0.8,0.6,1.7,1.1,2.4
		c0.5,0.8,1.1,1.5,2,2.1c-2.1,0.6-3.9,1.6-5.3,3c-1.4,1.4-2.5,3.1-3.2,4.9c-0.7,1.8-0.9,3.6-0.8,5.2c0.1,1,0.4,2.1,0.9,3.1
		c0.5,1,1.3,1.8,2.2,2.5c1,0.6,2.2,0.8,3.7,0.7c1.7-0.2,3.3-0.8,4.8-1.8c1.5-1,2.8-2.3,3.9-3.9c1.1-1.6,2-3.3,2.6-5.2
		c0.6-1.9,1-3.8,1-5.7c-0.7,0.1-1.3,0.2-1.8,0.3c-0.5,0.1-1.2,0.3-1.8,0.5s-1.5,0.4-2.5,0.8c-0.1-1.3,0.3-2.3,1.2-2.8
		c0.9-0.5,2-0.9,3.4-1c1-0.1,1.9-0.1,2.7-0.1s1.7,0.1,2.5,0.1c0.8,0,1.5,0,2.2,0c-0.3,0.8-0.6,1.2-0.9,1.4c-0.3,0.2-0.6,0.3-1,0.3
		c-0.5,0.1-1,0.1-1.5,0.2s-0.9,0.1-1.3,0.2c0,2.2-0.4,4.4-1.1,6.5c-0.8,2.1-1.8,4-3.1,5.8c-1.3,1.7-2.9,3.2-4.7,4.3
		C747.9,249,746,249.7,744,249.9z"/>
</g>
<g>
	<path class="st13" d="M694.4,300.8c-1.4-0.1-2.4-0.5-2.9-1.1c-0.5-0.7-0.7-1.5-0.7-2.5c0.1-0.9,0.3-2,0.8-3.3
		c0.5-1.3,0.9-2.5,1.4-3.6c0.6-1.5,1.4-3.3,2.3-5.4c0.9-2.1,1.8-4.2,2.8-6.5c1-2.3,2-4.5,3.1-6.7c1-2.2,2-4.2,3-5.9
		c-2.2-0.1-4.1-0.1-5.5-0.2c-1.5,0-2.8,0-4,0c-1.2,0-2.5,0.2-3.9,0.3c0.2-1.1,0.8-1.9,1.8-2.4c1.1-0.5,2.5-0.9,4.2-1.1
		c1.7-0.2,3.7-0.2,5.9-0.1s4.2,0.3,5.9,0.6c1.7,0.3,3.4,0.5,4.9,0.8c1.5,0.2,3.1,0.4,4.6,0.5c-1.1,0.9-2.4,1.5-3.8,1.7
		c-1.4,0.2-2.9,0.2-4.5,0.1c-0.4,0-0.7,0-1.1-0.1c-0.4,0-0.8-0.1-1.1-0.1c-0.4,0-0.8,0-1.2-0.1c-1.2,2.5-2.5,5.7-4.1,9.5
		c-1.5,3.8-3.1,8.1-4.7,13c-0.5,1.7-1,3.2-1.5,4.5c-0.4,1.3-0.8,2.5-1.1,3.6c-0.3,1.1-0.4,2.2-0.5,3.2c0,0.2,0,0.3,0,0.5
		C694.4,300.4,694.4,300.6,694.4,300.8z"/>
	<path class="st13" d="M708.2,299.6c-1,0-1.8-0.4-2.5-1c-0.7-0.7-1-1.7-1-3c0-1.2,0.3-2.4,0.8-3.7c0.5-1.3,1.3-2.6,2.2-3.9
		c0.9-1.3,1.9-2.5,3.1-3.5s2.4-1.9,3.6-2.5c1.3-0.6,2.5-0.9,3.8-0.9c1.2,0,2.3,0.4,3.1,1c0.8,0.7,1.2,1.5,1.2,2.6
		c0,0.8-0.2,1.3-0.7,1.6c-0.4,0.3-1,0.4-1.7,0.4c0.1-0.3,0.1-0.5,0.2-0.8c0.1-0.3,0.1-0.6,0.1-0.8c0-0.7-0.2-1.4-0.5-1.9
		c-0.3-0.5-0.9-0.8-1.8-0.8c-0.9,0-1.8,0.3-2.7,0.9c-0.9,0.6-1.8,1.4-2.7,2.5c-0.9,1-1.7,2.1-2.3,3.4c-0.7,1.2-1.2,2.4-1.6,3.6
		c-0.4,1.2-0.6,2.2-0.6,3.2c0,1.2,0.4,1.9,1.3,1.9c0.7,0,1.5-0.3,2.4-1c0.9-0.7,1.8-1.5,2.7-2.6c0.9-1.1,1.8-2.2,2.7-3.3
		s1.6-2.2,2.3-3.1c0.1-0.2,0.2-0.3,0.2-0.3c0.2,0,0.4,0.1,0.7,0.2c0.3,0.1,0.6,0.2,0.8,0.4c0.2,0.2,0.3,0.4,0.3,0.6
		c0,0.3-0.2,0.7-0.4,1.2c-0.3,0.5-0.6,1.1-1,1.7c-0.4,0.6-0.7,1.3-1,1.9c-0.3,0.7-0.4,1.3-0.5,1.8c0,0.5,0.1,1,0.4,1.4
		c0.3,0.5,0.7,0.7,1.2,0.7c0.9,0,2-0.6,3.4-1.9c1.4-1.2,2.9-3.1,4.3-5.6l0.5,0.5c-0.7,1.7-1.6,3.2-2.7,4.5c-1.1,1.3-2.2,2.3-3.4,3
		c-1.2,0.7-2.4,1.1-3.5,1.1c-1.2,0-2.1-0.4-2.6-1.1s-0.8-1.5-0.8-2.3c0-0.2,0-0.4,0.1-0.6c0-0.2,0.1-0.5,0.1-0.7
		c-1.4,1.8-2.7,3.2-3.8,4.1C710.6,299.1,709.4,299.6,708.2,299.6z"/>
	<path class="st13" d="M743.6,297.9c-1.1,0-2-0.2-2.6-0.8s-0.9-1.3-0.9-2.2c0-0.7,0.1-1.4,0.3-2.1c0.2-0.7,0.4-1.5,0.6-2.3
		c0.2-0.8,0.3-1.6,0.2-2.3c0-0.9-0.3-1.5-0.6-1.8c-0.4-0.3-0.8-0.5-1.4-0.4c-1,0-2,0.5-3,1.4c-1,0.9-1.9,1.9-2.8,3.2
		c-0.9,1.3-1.7,2.6-2.5,4c-0.8,1.4-1.5,2.6-2.1,3.7c-0.5,0-1,0-1.5-0.2c-0.5-0.2-0.8-0.4-1.1-0.7c0-0.2,0.1-0.7,0.4-1.5
		s0.6-1.9,1-3.1c0.4-1.2,0.7-2.5,1-3.8c0.3-1.3,0.4-2.5,0.4-3.5c0.2-0.2,0.5-0.5,0.9-0.7c0.4-0.2,0.8-0.4,1.3-0.4
		c0.9,0,1.3,0.4,1.3,1.2c0,0.5-0.1,1.4-0.3,2.6c-0.2,1.2-0.5,2.5-0.9,3.8c0.8-1.3,1.7-2.7,2.7-4c1-1.3,2.1-2.5,3.3-3.4
		c1.2-0.9,2.4-1.4,3.6-1.5c1.2-0.1,2.2,0.4,2.8,1.2c0.6,0.9,0.9,1.9,1,2.9c0,1-0.1,1.9-0.4,2.8c-0.3,0.9-0.6,1.7-0.9,2.5
		c-0.3,0.8-0.4,1.6-0.4,2.4c0,0.7,0.2,1.1,0.5,1.4c0.3,0.3,0.6,0.4,1,0.4c0.8,0,1.6-0.4,2.3-1.2c0.8-0.8,1.5-1.8,2.2-3
		c0.7-1.2,1.3-2.4,1.8-3.6l0.6,0.6c-0.6,1.6-1.3,3-2.1,4.3c-0.8,1.3-1.6,2.2-2.6,3C745.9,297.4,744.8,297.8,743.6,297.9z"/>
	<path class="st13" d="M745.9,310.4c-0.8,0.1-1.4-0.1-1.9-0.5c-0.5-0.4-0.7-1-0.8-1.7c-0.1-1.2,0.3-2.5,1.3-4c1-1.5,2.3-2.8,4-4
		c0.4-0.3,0.9-0.6,1.3-0.8c0.5-0.3,1-0.6,1.6-1c0.5-1.6,0.9-3.4,1.3-5.4c0.4-2,0.6-4.2,0.8-6.7c-0.4,0.9-0.8,1.7-1.1,2.4
		c-0.3,0.7-0.6,1.2-0.8,1.6l-0.5-0.7c0.5-1,0.8-2.1,1.2-3.3c0.3-1.2,0.6-2.3,1-3.3c0.3-1.1,0.6-1.9,1-2.6c0.4-0.7,0.8-1,1.3-1.1
		c0.3,0,0.6,0.1,0.9,0.3c0.2,0.3,0.4,0.6,0.4,1c0,0.4,0,1-0.1,2.1c-0.1,1-0.2,2.3-0.4,3.8c-0.2,1.5-0.5,3.1-0.8,4.8
		s-0.7,3.5-1.1,5.3c0.9-0.6,1.7-1.3,2.6-1.9c0.9-0.7,1.7-1.5,2.6-2.5c0.9-1,1.7-2.4,2.4-4.2l0.7,0.3c-0.6,2-1.4,3.5-2.4,4.7
		c-1,1.2-2,2.2-3.1,2.9c-1.1,0.7-2.1,1.4-3,2.1c-0.5,2-1.2,4-2,5.9c-0.8,1.9-1.7,3.4-2.7,4.6C748.4,309.6,747.2,310.3,745.9,310.4z
		 M745.3,308.8c0.6-0.1,1.5-0.8,2.6-2.3c1.1-1.5,2.1-3.7,3.1-6.5c-2.3,1.4-4,2.8-5.1,4.2c-1.1,1.4-1.6,2.6-1.5,3.6
		c0,0.4,0.1,0.7,0.3,0.9C744.9,308.8,745.1,308.9,745.3,308.8z M755.9,275c-0.5,0-1,0-1.4-0.3c-0.4-0.2-0.6-0.6-0.7-1.1
		c0-0.5,0.1-0.9,0.4-1.3c0.3-0.4,0.8-0.8,1.3-1c0.5-0.3,1-0.4,1.5-0.5c0.4,0,0.8,0,1.2,0.2c0.3,0.2,0.5,0.5,0.5,1
		c0.1,0.7-0.2,1.4-0.8,2C757.4,274.5,756.7,274.9,755.9,275z"/>
	<path class="st13" d="M766.1,296.2c-1.2,0.2-2.2-0.1-2.9-0.8c-0.7-0.7-1.1-1.6-1.3-2.7c-0.1-0.7-0.1-1.7,0.1-2.8
		c0.1-1.1,0.3-2.4,0.6-3.6c0.3-1.3,0.7-2.5,1.1-3.6c0.5-1.2,1-2.1,1.5-2.9c0.6-0.8,1.2-1.2,1.8-1.3c0.3,0,0.5,0,0.8,0.2
		c0.2,0.1,0.4,0.4,0.4,0.7c0,0.4-0.1,1-0.5,1.9c-0.4,0.9-0.8,2-1.4,3.2c-0.5,1.2-1,2.4-1.3,3.7c-0.3,1.3-0.4,2.5-0.3,3.6
		c0.1,1.1,0.4,1.9,0.9,2.2c0.4,0.3,1,0.5,1.8,0.4c1.1-0.1,2.2-0.8,3.3-2.1c1.1-1.2,2.1-3.3,3.2-6.2l0.5,0.4
		c-0.6,2.8-1.6,5.1-3.2,6.8C769.7,295,768,296,766.1,296.2z M769.1,273.7c-0.5,0.1-1,0-1.4-0.2c-0.4-0.2-0.7-0.6-0.7-1.1
		c-0.1-0.7,0.2-1.3,1-1.9c0.7-0.6,1.5-0.9,2.2-1c0.5-0.1,0.9,0,1.2,0.2c0.3,0.2,0.5,0.5,0.6,1.1c0.1,0.6-0.2,1.2-0.8,1.9
		C770.5,273.2,769.8,273.6,769.1,273.7z"/>
	<path class="st13" d="M778.9,294.6c-1.4,0.2-2.4-0.1-3.1-0.9s-1.2-1.9-1.4-3.3c-0.2-1.5-0.3-3.4,0-5.5c0.2-2.2,0.6-4.5,1.2-7
		c0.6-2.5,1.2-4.9,1.9-7.3c0.7-2.4,1.5-4.6,2.3-6.5c0.8-2,1.6-3.6,2.3-4.8c0.8-1.2,1.4-1.9,1.9-2c0.3-0.1,0.7,0.1,0.9,0.5
		c0.3,0.4,0.5,0.8,0.8,1.3c0.2,0.5,0.4,1,0.4,1.5c0.1,0.9,0.1,2-0.1,3.4c-0.2,1.4-0.5,3.1-1,4.9c-0.5,1.8-1.1,3.7-1.9,5.6
		c-0.8,1.9-1.7,3.7-2.6,5.5c-1,1.8-2.1,3.4-3.3,4.7c0,0.9-0.1,1.7,0,2.6c0,0.8,0.1,1.6,0.2,2.3c0.2,1.2,0.5,2.1,1,2.7
		c0.4,0.5,1,0.8,1.7,0.6c0.9-0.1,1.6-0.7,2.3-1.6c0.7-0.9,1.3-2,1.9-3.3c0.6-1.3,1-2.6,1.3-3.9l0.8,0.3c-0.8,2.9-1.8,5.2-3.1,7
		C782.1,293.3,780.6,294.4,778.9,294.6z M777.4,283c0.9-1.3,1.8-2.7,2.6-4.3c0.8-1.6,1.5-3.3,2.2-5s1.2-3.3,1.7-4.9
		c0.5-1.6,0.8-3,1-4.2c0.2-1.2,0.2-2.1,0.1-2.8c-0.1-0.3-0.1-0.5-0.2-0.6s-0.2-0.1-0.2-0.1c-0.3,0-0.6,0.5-1.1,1.4
		c-0.5,0.9-1,2.1-1.6,3.6c-0.6,1.5-1.2,3.2-1.7,5.1c-0.6,1.9-1.1,3.8-1.5,5.8C777.9,279.1,777.6,281.1,777.4,283z"/>
	<path class="st13" d="M791,292.6c-1.1,0.2-2,0-2.9-0.9c-0.9-0.8-1.4-1.8-1.7-3.1c-0.2-0.9-0.3-2-0.3-3.2c0-1.3,0.1-2.5,0.3-3.8
		c0.2-1.3,0.4-2.3,0.7-3.2c0.3-0.9,0.6-1.3,1-1.4c0.2,0,0.4,0,0.9,0.1c0.4,0.1,0.8,0.2,1.1,0.5c-0.2,0.6-0.5,1.5-0.7,2.7
		c-0.3,1.2-0.4,2.5-0.5,3.8c-0.1,1.3,0,2.5,0.2,3.6c0.1,0.3,0.2,0.6,0.4,1.1c0.2,0.5,0.4,0.9,0.8,1.3c0.3,0.4,0.8,0.5,1.3,0.4
		c0.6-0.1,1.1-0.6,1.6-1.3c0.5-0.7,0.9-1.7,1.4-2.8c0.4-1.1,0.8-2.3,1.1-3.6c0.3-1.3,0.7-2.5,0.9-3.6c0.3-1.1,0.5-2.1,0.7-2.9
		c0.2,0,0.5,0,0.9,0c0.4,0,0.7,0.1,1.1,0.2c0.3,0.1,0.5,0.3,0.6,0.6c0,0.1,0,0.6-0.2,1.3c-0.2,0.8-0.3,1.7-0.5,2.8
		c-0.2,1.1-0.3,2.2-0.4,3.3c-0.1,1.1,0,2,0.1,2.8c0.1,0.6,0.3,1,0.7,1.3c0.3,0.3,0.7,0.4,1.3,0.2c0.7-0.1,1.4-0.6,2.2-1.4
		c0.8-0.8,1.6-1.9,2.3-3.2c0.7-1.4,1.3-2.9,1.7-4.7l0.7,0.3c-0.3,1.8-0.8,3.5-1.6,5.1c-0.8,1.5-1.7,2.8-2.7,3.8
		c-1,1-2.1,1.6-3.2,1.9c-0.8,0.2-1.5,0.2-2,0c-0.6-0.2-1-0.5-1.3-1c-0.3-0.5-0.6-1-0.7-1.7c-0.1-0.4-0.1-0.8-0.2-1.2
		c0-0.4,0-0.8,0-1.2c-0.3,1.2-0.7,2.3-1.2,3.3c-0.5,1-1,1.9-1.6,2.6C792.4,292,791.8,292.4,791,292.6z"/>
	<path class="st13" d="M813.1,287.1c-1.3,0.4-2.4,0.2-3.2-0.5c-0.8-0.7-1.4-1.8-1.8-3.1c-0.4-1.5-0.7-3.3-0.7-5.5
		c0-2.2,0.1-4.5,0.3-7c0.3-2.5,0.6-5,1.1-7.4c0.5-2.4,1-4.7,1.5-6.8c0.6-2.1,1.1-3.8,1.7-5.1c0.6-1.3,1.2-2,1.7-2.2
		c0.3-0.1,0.7,0,1,0.3c0.3,0.3,0.6,0.7,0.9,1.2c0.3,0.5,0.5,1,0.6,1.4c0.2,0.8,0.4,2,0.3,3.4c0,1.5-0.2,3.1-0.4,5
		c-0.3,1.9-0.7,3.8-1.2,5.8c-0.5,2-1.2,3.9-2,5.8c-0.8,1.9-1.7,3.6-2.7,5.1c0.1,0.9,0.1,1.7,0.3,2.5c0.1,0.8,0.3,1.6,0.5,2.3
		c0.4,1.2,0.8,2,1.3,2.5c0.5,0.5,1.1,0.6,1.8,0.4c0.8-0.2,1.5-0.9,2.1-1.8c0.6-1,1.1-2.1,1.5-3.5c0.4-1.3,0.7-2.7,0.8-4l0.8,0.2
		c-0.5,3-1.2,5.4-2.2,7.4S814.8,286.6,813.1,287.1z M810.2,275.8c0.8-1.4,1.4-2.9,2-4.6c0.6-1.7,1.1-3.4,1.6-5.2
		c0.4-1.8,0.8-3.4,1-5.1c0.3-1.6,0.4-3,0.5-4.3c0-1.2,0-2.2-0.2-2.8c-0.1-0.3-0.2-0.5-0.3-0.6c-0.1-0.1-0.2-0.1-0.2-0.1
		c-0.2,0.1-0.6,0.6-0.9,1.5c-0.4,1-0.8,2.2-1.2,3.8c-0.4,1.6-0.8,3.3-1.1,5.2c-0.3,1.9-0.6,3.9-0.8,6S810.2,273.9,810.2,275.8z"/>
</g>
</svg>
