<?xml version="1.0" encoding="utf-8"?>
<!-- Generator: Adobe Illustrator 23.0.1, SVG Export Plug-In . SVG Version: 6.00 Build 0)  -->
<svg version="1.1" id="Layer_1" xmlns="http://www.w3.org/2000/svg" xmlns:xlink="http://www.w3.org/1999/xlink" x="0px" y="0px"
	 viewBox="0 0 236 641" style="enable-background:new 0 0 236 641;" xml:space="preserve">
<style type="text/css">
	.st0{fill:#BB0001;}
	.st1{opacity:0.2;}
	.st2{fill:#FFFFFF;}
	.st3{opacity:0.2;fill:#FFFFFF;}
	.st4{fill:#F9AF7D;}
	.st5{fill:#990001;}
</style>
<g>
	<path class="st0" d="M90.9,356.7l75.2-4.7c0,0,0,0,0,0l-75.2-6.1l76.7-1.4c1.3-7,2.5-14.4,3.5-22.1l-52.6-3.1l53.6-4.9
		c0.6-5.7,1.2-11.5,1.7-17.6c3.1-39,2.8-75.1,4.9-111.2l-40,0l40.4-7.2c0.9-12.4,2-24.7,3.8-37.3l-31.5,0l31.3-3.4l-28.7-1.7
		l30.6-5.4c6.7-40.1,19.7-82.1,46.7-129.8c0,0-52.6,7.3-111.2,85.8l26.9,3.2l-29.3,0c-21,28.7-42.6,66.5-62.8,116.5l36,8.8L53,210.7
		c-9,22.7-17.7,47.8-26,75.6l45.1,7.7l-48,2.4c0,0,0,0,0,0l33,9.3l-36,1.4c-3.5,12.7-6.9,25.9-10.1,39.7L51.6,357l-44.8,8.5
		c-3.7,23.9-4.2,93.7,47,100.5c46.4,6.2,90.5-19.8,110.6-106.5L90.9,356.7z"/>
	<g class="st1">
		<path class="st2" d="M74.7,161.6l42,17.1l62.5-3.4c0.4-5.4,0.9-10.8,1.4-16.2l-58.4,5.9l-40.8-16.5
			C79.2,152.7,77,157.1,74.7,161.6z"/>
		<path class="st2" d="M178.1,195.1l-67.5,0.9L65,182.3c-3.4,7.7-6.8,15.6-10.2,23.9l36,8.8L53,210.7c-1.4,3.6-2.9,7.4-4.3,11.1
			l48.8,14l79.1-1.5C177.1,221.1,177.5,208.1,178.1,195.1z"/>
	</g>
	<path class="st3" d="M84.9,281.4l-50.1-20.1c-2.6,8.1-5.2,16.4-7.8,24.9l45.1,7.7l-48,2.4c0,0,0,0,0,0l33,9.3l-36,1.4
		c-3.3,12-6.5,24.6-9.6,37.5l58.8,15.8l92.3,6.5c0.6-2.4,1.2-4.8,1.8-7.3l-73.6-2.9l75.2-4.7c0,0,0,0,0,0l-75.2-6.1l76.7-1.4
		c1.3-7,2.5-14.4,3.5-22.1l-52.6-3.1l53.6-4.9c0.6-5.7,1.2-11.5,1.7-17.6c0.4-5.2,0.8-10.3,1.1-15.4L84.9,281.4z"/>
	<path class="st3" d="M128.9,75l31,13l12.8-20.8l-24.9-13.6C141.7,60,135.4,67.1,128.9,75z"/>
	<path class="st4" d="M46.8,613.2c-0.7,9.1-7.9,29-10.4,28.1c-3.5-1.2-0.8-130.8,29.1-283.3S145.2,75,225.8,5.2
		c0,0-83,67.7-128.2,248.7C57,416.9,49.9,568.9,46.8,613.2z"/>
	<path class="st5" d="M72.8,358c-5.6,38.3-10.4,75-14.5,108.5c44.8,4,86.7-23.1,106.1-106.9l-73.6-2.9l75.2-4.7c0,0,0,0,0,0
		l-75.2-6.1l76.7-1.4c1.3-7,2.5-14.4,3.5-22.1l-52.6-3.1l53.6-4.9c0.6-5.7,1.2-11.5,1.7-17.6c3.1-39,2.8-75.1,4.9-111.2l-40,0
		l40.4-7.2c0.9-12.4,2-24.7,3.8-37.3l-31.5,0l31.3-3.4l-28.7-1.7l30.6-5.4c6.7-40.1,19.7-82.1,46.7-129.8
		C144.1,72.5,91.1,232.3,72.8,358z"/>
	<g class="st1">
		<path class="st2" d="M179.3,175.4c0.4-5.4,0.9-10.8,1.4-16.2l-56.8,5.7c-1.8,4.6-3.6,9.2-5.3,13.8L179.3,175.4z"/>
		<path class="st2" d="M178.1,195.1l-65.8,0.8c-4.6,13.1-8.8,26.4-12.7,39.8l77.1-1.5C177.1,221.1,177.5,208.1,178.1,195.1z"/>
	</g>
	<path class="st3" d="M87.5,281.4c-6.2,26.2-11.1,52-14.7,76.6c-0.1,0.8-0.2,1.7-0.4,2.5l90.2,6.3c0.6-2.4,1.2-4.8,1.8-7.3
		l-73.6-2.9l75.2-4.7c0,0,0,0,0,0l-75.2-6.1l76.7-1.4c1.3-7,2.5-14.4,3.5-22.1l-52.6-3.1l53.6-4.9c0.6-5.7,1.2-11.5,1.7-17.6
		c0.4-5.2,0.8-10.3,1.1-15.4L87.5,281.4z"/>
</g>
</svg>
