<?xml version="1.0" encoding="utf-8"?>
<!-- Generator: Adobe Illustrator 23.0.1, SVG Export Plug-In . SVG Version: 6.00 Build 0)  -->
<svg version="1.1" id="Layer_1" xmlns="http://www.w3.org/2000/svg" xmlns:xlink="http://www.w3.org/1999/xlink" x="0px" y="0px"
	 viewBox="0 0 22.1 20" style="enable-background:new 0 0 22.1 20;" xml:space="preserve">
<style type="text/css">
	.st0{fill:#4A270B;}
	.st1{fill:url(#SVGID_1_);}
	.st2{fill:url(#SVGID_2_);}
	.st3{fill:url(#SVGID_3_);}
	.st4{fill:url(#SVGID_4_);}
	.st5{fill:url(#SVGID_5_);}
	.st6{fill:url(#SVGID_6_);}
	.st7{fill:url(#SVGID_7_);}
	.st8{fill:url(#SVGID_8_);}
	.st9{fill:url(#SVGID_9_);}
	.st10{fill:url(#SVGID_10_);}
	.st11{fill:url(#SVGID_11_);}
	.st12{fill:url(#SVGID_12_);}
	.st13{fill:url(#SVGID_13_);}
	.st14{fill:url(#SVGID_14_);}
	.st15{fill:url(#SVGID_15_);}
	.st16{fill:url(#SVGID_16_);}
	.st17{fill:url(#SVGID_17_);}
	.st18{fill:url(#SVGID_18_);}
	.st19{fill:url(#SVGID_19_);}
	.st20{fill:url(#SVGID_20_);}
	.st21{fill:url(#SVGID_21_);}
	.st22{opacity:0.5;}
	.st23{fill:#0B4D04;}
	.st24{fill:url(#SVGID_22_);}
	.st25{opacity:0.5;fill:#0B4D04;}
	.st26{fill:url(#SVGID_23_);}
	.st27{opacity:0.58;}
	.st28{fill:url(#SVGID_24_);}
	.st29{fill:url(#SVGID_25_);}
	.st30{fill:url(#SVGID_26_);}
	.st31{fill:url(#SVGID_27_);}
	.st32{fill:url(#SVGID_28_);}
	.st33{fill:url(#SVGID_29_);}
	.st34{fill:url(#SVGID_30_);}
	.st35{fill:url(#SVGID_31_);}
	.st36{fill:url(#SVGID_32_);}
	.st37{fill:url(#SVGID_33_);}
	.st38{fill:url(#SVGID_34_);}
	.st39{fill:url(#SVGID_35_);}
	.st40{fill:url(#SVGID_36_);}
	.st41{fill:url(#SVGID_37_);}
	.st42{fill:url(#SVGID_38_);}
	.st43{fill:url(#SVGID_39_);}
	.st44{fill:url(#SVGID_40_);}
	.st45{fill:url(#SVGID_41_);}
	.st46{fill:url(#SVGID_42_);}
	.st47{fill:url(#SVGID_43_);}
	.st48{fill:url(#SVGID_44_);}
	.st49{fill:url(#SVGID_45_);}
	.st50{fill:url(#SVGID_46_);}
</style>
<g>
	<g>
		<g>
			<g>
				<path class="st0" d="M5.8,12.8c0.3-0.1,0.6-0.1,0.9-0.2c0.3-0.1,0.6-0.1,0.9-0.1c0.3,0,0.6-0.1,0.9-0.1c0.3,0,0.6,0,0.9,0l0,0
					c0.1,0,0.1,0,0.1-0.1c0-0.1,0-0.1-0.1-0.1c0,0,0,0,0,0c-0.3,0-0.6,0-0.9,0.1c-0.3,0-0.6,0.1-0.9,0.1c-0.3,0.1-0.6,0.1-0.9,0.2
					C6.4,12.6,6.1,12.7,5.8,12.8z"/>
				<g>
					<path class="st0" d="M14.6,8.2C14.6,8.2,14.6,8.2,14.6,8.2c-0.1-0.1-0.1,0-0.2,0c-1,1.6-3.5,3-3.6,3c-0.1,0-0.1,0.1,0,0.1
						c0,0.1,0.1,0.1,0.1,0c0.1-0.1,2.6-1.5,3.6-3.1C14.6,8.3,14.6,8.2,14.6,8.2z"/>
				</g>
				<path class="st0" d="M4.8,14.6c0.1-0.1,0.3-0.3,0.4-0.4c0.1-0.1,0.3-0.3,0.4-0.4c0.1-0.1,0.3-0.2,0.5-0.3
					c0.2-0.1,0.3-0.2,0.5-0.2c-0.2,0-0.4,0.1-0.5,0.2c-0.2,0.1-0.3,0.2-0.5,0.3c-0.2,0.1-0.3,0.2-0.5,0.3c-0.1,0.1-0.3,0.2-0.4,0.4
					c0,0,0,0.1,0,0.2C4.7,14.6,4.8,14.6,4.8,14.6C4.8,14.6,4.8,14.6,4.8,14.6L4.8,14.6z"/>
				<path class="st0" d="M3.1,15.2c0.1-0.1,0.3-0.2,0.5-0.3c0.2-0.1,0.3-0.2,0.5-0.3c0.2-0.1,0.3-0.2,0.5-0.2
					c0.2-0.1,0.4-0.1,0.5-0.1c-0.2,0-0.4,0-0.6,0.1c-0.2,0.1-0.4,0.1-0.5,0.2c-0.2,0.1-0.3,0.2-0.5,0.2C3.3,14.8,3.1,14.9,3,15
					c-0.1,0-0.1,0.1,0,0.1C3,15.2,3,15.2,3.1,15.2C3.1,15.2,3.1,15.2,3.1,15.2L3.1,15.2z"/>
				<path class="st0" d="M3.3,14.2c-0.1,0.1-0.3,0.3-0.4,0.4c-0.1,0.1-0.3,0.3-0.4,0.4c-0.1,0.1-0.3,0.2-0.5,0.3
					c-0.2,0.1-0.3,0.2-0.5,0.2c0.2,0,0.4-0.1,0.5-0.2c0.2-0.1,0.3-0.2,0.5-0.3C2.7,15,2.9,14.9,3,14.7c0.1-0.1,0.3-0.2,0.4-0.4
					c0,0,0-0.1,0-0.2C3.4,14.2,3.4,14.2,3.3,14.2C3.3,14.2,3.3,14.2,3.3,14.2L3.3,14.2z"/>
				<path class="st0" d="M14.8,6.5c0.1-0.1,0.2-0.1,0.3-0.2c0.1-0.1,0.2-0.1,0.3-0.1c0.1,0,0.2-0.1,0.3-0.1c0,0,0.1,0,0.1,0
					c0,0,0.1,0,0.1,0c0.1,0,0.1,0,0.2-0.1l0,0c0,0,0,0,0,0c0,0,0,0,0,0c0,0-0.1,0-0.1,0c0,0-0.1,0-0.1,0c0,0-0.1,0-0.1,0
					c0,0-0.1,0-0.1,0c-0.1,0-0.1,0-0.2,0.1C15.4,6,15.4,6,15.3,6c-0.1,0-0.1,0.1-0.2,0.1l-0.1,0.1c0,0,0,0-0.1,0.1
					C14.9,6.3,14.8,6.4,14.8,6.5C14.8,6.5,14.8,6.5,14.8,6.5C14.8,6.5,14.8,6.5,14.8,6.5L14.8,6.5z"/>
				<path class="st0" d="M15.8,6c0.1,0,0.2,0,0.4,0c0,0,0.1,0,0.1,0l0.1,0c0.1,0,0.1,0,0.2,0c0.1,0,0.1,0,0.2-0.1
					c0.1,0,0.1-0.1,0.2-0.1c0,0,0,0,0.1-0.1c0,0,0,0,0.1-0.1c0,0,0,0,0.1-0.1c0,0,0-0.1,0-0.1c0,0,0,0,0,0c0,0,0,0,0,0l0,0
					c-0.1,0-0.1,0-0.2,0.1c0,0-0.1,0-0.1,0c0,0-0.1,0-0.1,0c-0.1,0-0.2,0.1-0.3,0.2c-0.1,0-0.2,0.1-0.3,0.1C16,5.9,15.9,5.9,15.8,6
					L15.8,6C15.8,6,15.7,6,15.8,6C15.7,6,15.8,6,15.8,6z"/>
				<path class="st0" d="M13,3.2c0.1,0,0.2,0.1,0.4,0.2c0.1,0,0.1,0.1,0.2,0.1l0.1,0.1c0,0,0,0,0.1,0.1c0,0,0,0,0.1,0.1
					c0,0,0,0,0.1,0.1c0,0,0,0.1,0.1,0.1c0,0,0,0,0.1,0.1C14,3.9,14,4,14,4c0,0,0.1,0.1,0.1,0.2l0,0c0,0,0,0,0,0c0,0,0,0,0,0
					c0-0.1-0.1-0.3-0.1-0.4c-0.1-0.1-0.2-0.2-0.3-0.3c-0.1-0.1-0.2-0.2-0.4-0.2C13.3,3.2,13.1,3.2,13,3.2C13,3.2,13,3.2,13,3.2
					C13,3.2,13,3.2,13,3.2L13,3.2z"/>
				<path class="st0" d="M18.4,3.9c0,0,1.8-1.4,2.6-2.6l1-0.3C21.9,1,19.6,4,18.4,3.9z"/>
				<path class="st0" d="M21.8,1.1c-0.3,0.3-0.5,0.6-0.8,0.9c-0.3,0.3-0.6,0.6-0.8,0.8C20,2.9,19.8,3,19.7,3.1
					c-0.2,0.1-0.3,0.2-0.5,0.3c0,0,0,0-0.1,0c0,0,0,0-0.1,0c0,0-0.1,0-0.1,0.1c-0.1,0-0.2,0.1-0.3,0.1c-0.2,0.1-0.3,0.2-0.5,0.3
					c-0.6,0.5-1.2,1-1.8,1.5c-0.1,0.1-0.3,0.3-0.4,0.4c-0.1,0.1-0.3,0.3-0.4,0.4c-0.1,0.1-0.1,0.2-0.2,0.2c0,0-0.1,0.1-0.1,0.1
					c0,0,0,0.1-0.1,0.1c-0.1,0.2-0.2,0.4-0.2,0.5c-0.2,0.3-0.4,0.7-0.6,1c-0.2,0.3-0.5,0.6-0.7,0.9c-0.3,0.3-0.5,0.6-0.8,0.8
					c-0.3,0.3-0.6,0.5-0.9,0.7c-0.2,0.1-0.3,0.2-0.5,0.2c-0.2,0.1-0.4,0.1-0.6,0.2c-0.1,0-0.2,0.1-0.3,0.1c-0.1,0-0.2,0.1-0.3,0.2
					c-0.2,0.1-0.3,0.2-0.5,0.4c-0.6,0.5-1.1,1.1-1.6,1.7c0,0,0,0,0,0c0,0,0,0,0,0c0.3-0.3,0.6-0.6,0.8-0.8l0.2-0.2
					c0.1-0.1,0.1-0.1,0.2-0.2c0.1-0.1,0.3-0.3,0.4-0.4c0.3-0.2,0.6-0.5,1-0.6c0.2-0.1,0.4-0.1,0.6-0.2c0.2-0.1,0.4-0.2,0.5-0.2
					c0.4-0.2,0.7-0.4,1-0.7c0.3-0.3,0.6-0.6,0.8-0.8c0.3-0.3,0.5-0.6,0.7-0.9c0.2-0.3,0.4-0.7,0.6-1c0.1-0.2,0.2-0.4,0.2-0.5
					c0,0,0-0.1,0.1-0.1c0,0,0-0.1,0.1-0.1c0-0.1,0.1-0.2,0.2-0.2c0.2-0.3,0.5-0.6,0.8-0.8c0.3-0.3,0.6-0.5,0.9-0.8
					c0.3-0.3,0.6-0.5,0.9-0.7c0.2-0.1,0.3-0.2,0.5-0.3c0.1-0.1,0.2-0.1,0.2-0.1c0,0,0.1,0,0.1-0.1c0,0,0,0,0.1,0c0,0,0,0,0.1,0
					c0.2-0.1,0.4-0.2,0.5-0.3c0.2-0.1,0.3-0.3,0.4-0.4C20.8,2.3,21.3,1.7,21.8,1.1C21.8,1.1,21.8,1.1,21.8,1.1
					C21.8,1.1,21.8,1.1,21.8,1.1z"/>
				
					<linearGradient id="SVGID_1_" gradientUnits="userSpaceOnUse" x1="-6440.7974" y1="-3457.833" x2="-6442.3384" y2="-3451.4717" gradientTransform="matrix(0.5325 0.8464 0.8464 -0.5325 6360.7925 3627.666)">
					<stop  offset="0" style="stop-color:#B6D33D"/>
					<stop  offset="0.2784" style="stop-color:#5CA605"/>
					<stop  offset="1" style="stop-color:#265502"/>
				</linearGradient>
				<path class="st1" d="M5.1,17.4c0,0-0.4-4.9,3.1-4.7c0,0,0.5,0,0.7,0.1C9,13,9.3,15.3,7.7,16.1C6.2,17,5.7,17,5.1,17.4z"/>
				
					<linearGradient id="SVGID_2_" gradientUnits="userSpaceOnUse" x1="-6443.4917" y1="-3460.4392" x2="-6443.4263" y2="-3457.1277" gradientTransform="matrix(0.5325 0.8464 0.8464 -0.5325 6360.7925 3627.666)">
					<stop  offset="0" style="stop-color:#B6D33D"/>
					<stop  offset="0.2784" style="stop-color:#5CA605"/>
					<stop  offset="1" style="stop-color:#265502"/>
				</linearGradient>
				<path class="st2" d="M1.1,16.2c0,0,0.6-0.2,1-0.7C2.6,15,3,14.9,3.2,15C3.5,15,2.1,16.5,1.1,16.2z"/>
				
					<linearGradient id="SVGID_3_" gradientUnits="userSpaceOnUse" x1="-6444.4321" y1="-3461.0361" x2="-6443.6284" y2="-3458.3145" gradientTransform="matrix(0.5325 0.8464 0.8464 -0.5325 6360.7925 3627.666)">
					<stop  offset="0" style="stop-color:#B6D33D"/>
					<stop  offset="0.2784" style="stop-color:#5CA605"/>
					<stop  offset="1" style="stop-color:#265502"/>
				</linearGradient>
				<path class="st3" d="M0.3,15.9c0,0,1-0.7,1.9-0.7C2.2,15.3,1.5,16.1,0.3,15.9z"/>
				
					<linearGradient id="SVGID_4_" gradientUnits="userSpaceOnUse" x1="-6444.9126" y1="-3459.4751" x2="-6443.3877" y2="-3455.6221" gradientTransform="matrix(0.5325 0.8464 0.8464 -0.5325 6360.7925 3627.666)">
					<stop  offset="0" style="stop-color:#B6D33D"/>
					<stop  offset="0.2784" style="stop-color:#5CA605"/>
					<stop  offset="1" style="stop-color:#265502"/>
				</linearGradient>
				<path class="st4" d="M1.5,14.9c0,0,2.3-0.2,2.9-0.6c0.6-0.4,0,0,0,0S3.4,14,3,14.2C2.5,14.3,2.1,14.5,1.5,14.9z"/>
				
					<linearGradient id="SVGID_5_" gradientUnits="userSpaceOnUse" x1="-6443.001" y1="-3458.2734" x2="-6443.165" y2="-3455.1418" gradientTransform="matrix(0.5325 0.8464 0.8464 -0.5325 6360.7925 3627.666)">
					<stop  offset="0" style="stop-color:#B6D33D"/>
					<stop  offset="0.2784" style="stop-color:#5CA605"/>
					<stop  offset="1" style="stop-color:#265502"/>
				</linearGradient>
				<path class="st5" d="M3.3,15.3c0,0,1.2-1.5,1.7-1.1C5.6,14.6,3.8,15.7,3.3,15.3z"/>
				
					<linearGradient id="SVGID_6_" gradientUnits="userSpaceOnUse" x1="-6439.5352" y1="-3453.1943" x2="-6442.355" y2="-3448.374" gradientTransform="matrix(0.5325 0.8464 0.8464 -0.5325 6360.7925 3627.666)">
					<stop  offset="0" style="stop-color:#B6D33D"/>
					<stop  offset="0.2784" style="stop-color:#5CA605"/>
					<stop  offset="1" style="stop-color:#265502"/>
				</linearGradient>
				<path class="st6" d="M11.3,11.2c0,0-0.4,0.4-0.7,0.5c-0.3,0.2-1.2,0.8-1,2.3c0,0,0.3,0.9,0.2,1c-0.2,0.1,2-0.5,1.3-3.1
					C11.1,11.9,10.9,11.8,11.3,11.2z"/>
				
					<linearGradient id="SVGID_7_" gradientUnits="userSpaceOnUse" x1="-6442.0576" y1="-3447.0664" x2="-6439.1479" y2="-3447.0664" gradientTransform="matrix(0.5325 0.8464 0.8464 -0.5325 6360.7925 3627.666)">
					<stop  offset="0" style="stop-color:#B6D33D"/>
					<stop  offset="0.2784" style="stop-color:#5CA605"/>
					<stop  offset="1" style="stop-color:#265502"/>
				</linearGradient>
				<path class="st7" d="M12.9,10.6c0,0-0.6,1,0.5,1.8c1.1,0.8,1.4,0.4,1.4,0.4s-0.3-0.2-0.6-0.3C13.9,12.4,13.9,11,12.9,10.6z"/>
				
					<linearGradient id="SVGID_8_" gradientUnits="userSpaceOnUse" x1="-7082.9634" y1="-6068.4595" x2="-7081.4248" y2="-6068.4595" gradientTransform="matrix(0.6205 0.7842 0.7842 -0.6205 9167.0234 1795.2498)">
					<stop  offset="0" style="stop-color:#B6D33D"/>
					<stop  offset="0.2784" style="stop-color:#5CA605"/>
					<stop  offset="1" style="stop-color:#265502"/>
				</linearGradient>
				<path class="st8" d="M11.9,7.2c0,0,0.4,0.1,1-0.6c0.6-0.7,2.1-0.5,2.1-0.5S14.4,8.6,11.9,7.2z"/>
				
					<linearGradient id="SVGID_9_" gradientUnits="userSpaceOnUse" x1="-7438.8447" y1="-5654.6216" x2="-7434.6533" y2="-5654.6216" gradientTransform="matrix(0.6664 0.7456 0.7456 -0.6664 9183.7715 1781.6842)">
					<stop  offset="0" style="stop-color:#B6D33D"/>
					<stop  offset="0.2784" style="stop-color:#5CA605"/>
					<stop  offset="1" style="stop-color:#265502"/>
				</linearGradient>
				<path class="st9" d="M14.8,5.2c0,0-0.1-0.1-0.6,0.3c-0.4,0.4-1.2,1.9-3.8,0.4c0,0-1-0.7-1.5-0.8C8.5,4.9,9.1,5,9.6,4.6
					C10.2,4.1,12.7,2,14.5,5C14.5,5,14.6,5.2,14.8,5.2z"/>
				
					<linearGradient id="SVGID_10_" gradientUnits="userSpaceOnUse" x1="-7089.0586" y1="-6066.4731" x2="-7085.0815" y2="-6066.4731" gradientTransform="matrix(0.6205 0.7842 0.7842 -0.6205 9167.0234 1795.2498)">
					<stop  offset="0" style="stop-color:#B6D33D"/>
					<stop  offset="0.2784" style="stop-color:#5CA605"/>
					<stop  offset="1" style="stop-color:#265502"/>
				</linearGradient>
				<path class="st10" d="M11.1,0.1c0,0-0.2,3.2,2.3,3.3c0,0,0.3-2.2-1.6-2.8C11.8,0.6,11.4,0.5,11.1,0.1z"/>
				
					<linearGradient id="SVGID_11_" gradientUnits="userSpaceOnUse" x1="-7086.7241" y1="-6064.9731" x2="-7081.4292" y2="-6064.9731" gradientTransform="matrix(0.6205 0.7842 0.7842 -0.6205 9167.0234 1795.2498)">
					<stop  offset="0" style="stop-color:#B6D33D"/>
					<stop  offset="0.2784" style="stop-color:#5CA605"/>
					<stop  offset="1" style="stop-color:#265502"/>
				</linearGradient>
				<path class="st11" d="M16.1,5.9c0,0-2.1-0.5-2.2-2.6c-0.2-2,1-3.2,1-3.2s-0.3,0.6,0.6,1.4C16.4,2.3,17.2,3.9,16.1,5.9z"/>
				
					<linearGradient id="SVGID_12_" gradientUnits="userSpaceOnUse" x1="-6436.7759" y1="-3446.677" x2="-6444.4487" y2="-3443.0044" gradientTransform="matrix(0.5325 0.8464 0.8464 -0.5325 6360.7925 3627.666)">
					<stop  offset="0" style="stop-color:#B6D33D"/>
					<stop  offset="0.2784" style="stop-color:#5CA605"/>
					<stop  offset="1" style="stop-color:#265502"/>
				</linearGradient>
				<path class="st12" d="M15.2,7.1c0,0-3,3,0.5,5.5c0,0,0.4,0.3,0.4,0.5c0,0.2,0,0.1,0.2-0.6c0.2-0.7,0.8-1.4,0.5-2.7
					C16.4,8.6,15.2,7.1,15.2,7.1z"/>
				
					<linearGradient id="SVGID_13_" gradientUnits="userSpaceOnUse" x1="-6437.9316" y1="-3447.7268" x2="-6442.4785" y2="-3448.9509" gradientTransform="matrix(0.5325 0.8464 0.8464 -0.5325 6360.7925 3627.666)">
					<stop  offset="0" style="stop-color:#B6D33D"/>
					<stop  offset="0.2784" style="stop-color:#5CA605"/>
					<stop  offset="1" style="stop-color:#265502"/>
				</linearGradient>
				<path class="st13" d="M11.5,11.2c0,0-0.6,0.7,0.1,1.7s2.1,0.9,2.2,0.6c0,0,0.1-0.1-0.2-0.1c-0.3,0-0.4-0.9-0.8-1.4
					C12.3,11.4,11.8,11.3,11.5,11.2z"/>
				
					<linearGradient id="SVGID_14_" gradientUnits="userSpaceOnUse" x1="-7078.9868" y1="-6073.3965" x2="-7076.5659" y2="-6073.3965" gradientTransform="matrix(0.6205 0.7842 0.7842 -0.6205 9167.0234 1795.2498)">
					<stop  offset="0" style="stop-color:#B6D33D"/>
					<stop  offset="0.2784" style="stop-color:#5CA605"/>
					<stop  offset="1" style="stop-color:#265502"/>
				</linearGradient>
				<path class="st14" d="M11.4,13c0.1,0.2,0.3,0.4,0.4,0.5c0.1,0.1,0.2,0.2,0.3,0.2c0.1,0.1,0.2,0.1,0.3,0.2
					c0.1,0.1,0.2,0.1,0.3,0.2c0.1,0,0.2,0.1,0.3,0.1c0.1,0,0.2,0,0.4-0.1c0.1,0,0.2-0.1,0.3-0.2c0,0,0,0,0,0c0,0,0,0,0,0l0,0
					c-0.1,0-0.2,0-0.3,0c-0.1,0-0.2,0-0.3,0c-0.1,0-0.2,0-0.3-0.1c-0.1,0-0.2,0-0.3-0.1c-0.1,0-0.2-0.1-0.3-0.1
					c-0.1,0-0.2-0.1-0.3-0.2C11.7,13.2,11.6,13.1,11.4,13L11.4,13C11.4,12.9,11.4,12.9,11.4,13C11.4,13,11.4,13,11.4,13z"/>
				
					<linearGradient id="SVGID_15_" gradientUnits="userSpaceOnUse" x1="-7078.9434" y1="-6074.1372" x2="-7076.5659" y2="-6074.1372" gradientTransform="matrix(0.6205 0.7842 0.7842 -0.6205 9167.0234 1795.2498)">
					<stop  offset="0" style="stop-color:#B6D33D"/>
					<stop  offset="0.2784" style="stop-color:#5CA605"/>
					<stop  offset="1" style="stop-color:#265502"/>
				</linearGradient>
				<path class="st15" d="M11.4,13c0,0.2,0.1,0.4,0.2,0.5c0,0.1,0.1,0.2,0.1,0.3c0,0.1,0.1,0.2,0.1,0.2c0.1,0.1,0.1,0.2,0.2,0.2
					c0.1,0.1,0.1,0.1,0.2,0.2c0.1,0.1,0.2,0.1,0.3,0.1c0.1,0,0.2,0,0.3,0c0,0,0,0,0,0c0,0,0,0,0,0l0,0c-0.2-0.1-0.3-0.2-0.4-0.3
					c-0.1-0.1-0.1-0.1-0.2-0.2c-0.1,0-0.1-0.1-0.2-0.2c-0.1-0.1-0.1-0.1-0.2-0.2c-0.1-0.1-0.1-0.1-0.2-0.2
					C11.6,13.3,11.5,13.2,11.4,13L11.4,13C11.4,13,11.4,13,11.4,13C11.4,13,11.4,13,11.4,13z"/>
				
					<linearGradient id="SVGID_16_" gradientUnits="userSpaceOnUse" x1="-7082.0127" y1="-6073.4868" x2="-7080.1948" y2="-6073.4868" gradientTransform="matrix(0.6205 0.7842 0.7842 -0.6205 9167.0234 1795.2498)">
					<stop  offset="0" style="stop-color:#B6D33D"/>
					<stop  offset="0.2784" style="stop-color:#5CA605"/>
					<stop  offset="1" style="stop-color:#265502"/>
				</linearGradient>
				<path class="st16" d="M9.2,10.9c0.1,0.1,0.2,0.1,0.3,0.2c0.1,0,0.2,0.1,0.3,0.1c0.1,0,0.2,0,0.3,0c0.1,0,0.2,0,0.3,0
					c0.1,0,0.2,0,0.3,0c0.1,0,0.2,0,0.3-0.1c0.1,0,0.2-0.1,0.3-0.1c0.1,0,0.2-0.1,0.3-0.2c0,0,0,0,0,0c0,0,0,0,0,0l0,0
					c-0.1,0-0.2,0.1-0.3,0.1c-0.1,0-0.2,0-0.3,0c-0.1,0-0.2,0-0.3,0c-0.1,0-0.2,0-0.3,0c-0.1,0-0.2,0-0.3,0c-0.1,0-0.2,0-0.3,0
					c-0.1,0-0.2,0-0.3,0C9.4,10.8,9.3,10.8,9.2,10.9L9.2,10.9C9.2,10.9,9.1,10.9,9.2,10.9C9.1,10.9,9.2,10.9,9.2,10.9z"/>
				
					<linearGradient id="SVGID_17_" gradientUnits="userSpaceOnUse" x1="-7083.9814" y1="-6074.2354" x2="-7081.7466" y2="-6074.2354" gradientTransform="matrix(0.6205 0.7842 0.7842 -0.6205 9167.0234 1795.2498)">
					<stop  offset="0" style="stop-color:#B6D33D"/>
					<stop  offset="0.2784" style="stop-color:#5CA605"/>
					<stop  offset="1" style="stop-color:#265502"/>
				</linearGradient>
				<path class="st17" d="M7.7,9.6c0.1,0.1,0.1,0.1,0.2,0.2C8,9.8,8.1,9.9,8.1,9.9c0.1,0,0.2,0.1,0.3,0.1c0.1,0,0.2,0,0.3,0.1
					c0.1,0,0.2,0,0.3,0.1c0.1,0,0.2,0,0.3,0.1l0.1,0c0,0,0.1,0,0.1,0c0.1,0,0.2,0.1,0.2,0.1l0,0c0,0,0,0,0,0c0,0,0,0,0,0
					c-0.1-0.1-0.3-0.2-0.4-0.3C9.2,9.9,9.1,9.9,9,9.9c-0.1,0-0.2-0.1-0.2-0.1c-0.1,0-0.2-0.1-0.2-0.1c-0.1,0-0.2-0.1-0.3-0.1
					c-0.1,0-0.2,0-0.3,0C7.9,9.5,7.8,9.5,7.7,9.6C7.7,9.5,7.7,9.5,7.7,9.6C7.7,9.6,7.7,9.6,7.7,9.6z"/>
				<path class="st0" d="M16.5,5.7c0.3-0.1,0.6-0.3,0.9-0.4C17.7,5.1,18,5,18.2,4.8c0.3-0.2,0.5-0.4,0.8-0.6
					c0.1-0.1,0.2-0.2,0.3-0.4c0.1-0.1,0.2-0.3,0.2-0.5c0,0,0-0.1-0.1-0.1c0,0-0.1,0-0.1,0.1c0,0,0,0,0,0l0,0c0,0.1,0,0.3-0.1,0.4
					C19.1,3.9,19,4,18.9,4.1c-0.2,0.2-0.5,0.4-0.7,0.6c-0.3,0.2-0.5,0.4-0.8,0.5C17.1,5.4,16.8,5.6,16.5,5.7z"/>
				<path class="st0" d="M16.1,6.9C16.1,6.9,16.1,6.9,16.1,6.9C16.1,6.9,16.1,6.9,16.1,6.9C16.1,6.9,16.1,6.9,16.1,6.9
					C16.1,6.9,16.1,6.9,16.1,6.9c0.1-0.1,0.1-0.1,0.1-0.1c0,0,0.1-0.1,0.1-0.1c0.1-0.1,0.2-0.2,0.3-0.2c0.2-0.2,0.3-0.3,0.5-0.4
					c0.4-0.3,0.7-0.6,1.1-0.9c0.2-0.1,0.4-0.3,0.5-0.4c0.1-0.1,0.2-0.1,0.3-0.2c0.1-0.1,0.2-0.2,0.2-0.3c0.1-0.1,0.1-0.2,0.2-0.3
					c0.1-0.1,0.1-0.2,0.2-0.3c0.1-0.2,0.1-0.5,0.1-0.7c0,0,0,0,0,0c0,0,0,0,0,0c-0.1,0.2-0.1,0.4-0.2,0.6C19.3,3.8,19.2,4,19,4.1
					c-0.1,0.1-0.2,0.2-0.2,0.2l-0.3,0.2L18,5c-0.3,0.3-0.7,0.6-1,0.9c-0.2,0.2-0.3,0.3-0.5,0.5c-0.1,0.1-0.2,0.2-0.2,0.2
					c0,0-0.1,0.1-0.1,0.1C16.1,6.8,16.1,6.8,16.1,6.9C16.1,6.9,16.1,6.9,16.1,6.9C16,6.9,16,6.9,16.1,6.9C16,6.9,16,6.9,16.1,6.9
					C16,6.9,16,6.9,16.1,6.9C16.1,6.9,16.1,6.9,16.1,6.9L16.1,6.9C16.1,6.9,16.1,6.9,16.1,6.9C16.1,6.9,16.1,6.9,16.1,6.9
					C16.1,6.9,16.1,6.9,16.1,6.9z"/>
				<path class="st0" d="M12,9c0.1,0,0.1,0,0.2-0.1c0.1,0,0.1-0.1,0.2-0.1c0.1-0.1,0.3-0.1,0.4-0.2c0.2-0.1,0.5-0.3,0.7-0.4
					c0.1-0.1,0.2-0.1,0.3-0.2L14,7.9l0.2-0.1l0.7-0.5c0.2-0.2,0.4-0.3,0.7-0.5c0.2-0.2,0.4-0.3,0.7-0.5c0.2-0.2,0.4-0.3,0.7-0.4
					c0.1-0.1,0.2-0.1,0.3-0.2c0.1,0,0.1-0.1,0.2-0.1l0.2-0.1l0,0c0,0,0,0,0,0c0,0,0,0,0,0c-0.2,0.1-0.5,0.2-0.7,0.4
					c-0.2,0.1-0.5,0.3-0.7,0.4c-0.5,0.3-0.9,0.6-1.3,0.9l-0.6,0.5c-0.2,0.2-0.4,0.3-0.7,0.5c-0.2,0.1-0.5,0.3-0.7,0.4
					C12.5,8.7,12.3,8.9,12,9C12,9,12,9,12,9C12,9,12,9,12,9L12,9z"/>
				<path class="st0" d="M12.8,9.3c0.2,0,0.4-0.1,0.6-0.1c0.1,0,0.2-0.1,0.3-0.1C13.7,9,13.8,9,13.9,8.9C14,8.8,14,8.8,14.1,8.7
					c0.1-0.1,0.1-0.2,0.1-0.3c0-0.1,0-0.1,0-0.2c0-0.1,0-0.1-0.1-0.2C14.1,8,14,8,14,8c0,0-0.1,0-0.1,0c0,0,0,0-0.1,0l0,0
					c0,0,0,0,0,0c0,0,0,0,0,0c0,0,0.1,0,0.1,0c0,0,0.1,0,0.1,0.1c0,0,0,0.1,0.1,0.1c0,0,0,0.1,0,0.1c0,0.1-0.1,0.2-0.1,0.2
					c-0.1,0.1-0.1,0.1-0.2,0.2c-0.1,0.1-0.3,0.2-0.5,0.3C13.2,9.2,13,9.3,12.8,9.3C12.8,9.3,12.8,9.3,12.8,9.3
					C12.8,9.3,12.8,9.3,12.8,9.3L12.8,9.3z"/>
				<path class="st0" d="M12.2,8.2c0.1,0.1,0.2,0.2,0.4,0.2c0.1,0,0.3,0.1,0.4,0c0.1,0,0.3-0.1,0.4-0.1c0.1,0,0.1-0.1,0.2-0.1
					c0,0,0.1,0,0.1-0.1c0,0,0.1-0.1,0.1-0.1l0,0c0,0,0,0,0,0c0,0,0,0,0,0c-0.1,0.1-0.2,0.1-0.4,0.2c-0.1,0-0.3,0.1-0.4,0.1
					c-0.1,0-0.3,0-0.4,0C12.5,8.3,12.4,8.2,12.2,8.2C12.2,8.2,12.2,8.2,12.2,8.2C12.2,8.2,12.2,8.2,12.2,8.2L12.2,8.2z"/>
				<path class="st0" d="M17.6,4.5C17.7,4.3,17.9,4.1,18,4c0.1-0.1,0.2-0.3,0.4-0.4l0,0c0,0,0,0,0,0c0,0,0.1,0,0.1-0.1
					c0.1,0,0.1-0.1,0.2-0.1c0.2-0.1,0.3-0.1,0.6-0.1l0,0c0,0,0,0,0,0c0,0,0,0,0,0c0,0-0.1,0-0.1-0.1c-0.1,0-0.1,0-0.2,0
					c-0.1,0-0.2,0-0.3,0c-0.2,0-0.4,0.1-0.6,0.2c-0.2,0.1-0.3,0.3-0.4,0.5c0,0.1-0.1,0.2-0.1,0.3C17.6,4.3,17.6,4.4,17.6,4.5
					C17.6,4.5,17.6,4.5,17.6,4.5C17.6,4.5,17.6,4.5,17.6,4.5L17.6,4.5z"/>
				<path class="st0" d="M8.5,10.8c0.2,0,0.3-0.1,0.5-0.1c0.2,0,0.3-0.1,0.5-0.1c0.2-0.1,0.3-0.1,0.4-0.2c0.1,0,0.1-0.1,0.2-0.1
					c0.1,0,0.1-0.1,0.2-0.2c0,0,0,0,0,0c0,0,0,0,0,0l0,0c-0.2,0.1-0.3,0.1-0.4,0.2c-0.1,0-0.1,0.1-0.2,0.1c-0.1,0-0.1,0.1-0.2,0.1
					c-0.1,0.1-0.3,0.1-0.4,0.2C8.8,10.7,8.7,10.8,8.5,10.8C8.5,10.8,8.5,10.8,8.5,10.8C8.5,10.8,8.5,10.8,8.5,10.8z"/>
				<path class="st0" d="M8.3,10.5c0.1,0,0.2,0,0.3,0c0.1,0,0.2,0,0.3,0c0.1,0,0.2,0,0.3,0c0.1,0,0.2,0,0.3-0.1c0,0,0,0,0,0
					c0,0,0,0,0,0c-0.1,0-0.2,0-0.3,0c-0.1,0-0.2,0-0.3,0c-0.1,0-0.2,0-0.3,0C8.5,10.4,8.4,10.4,8.3,10.5C8.3,10.5,8.3,10.5,8.3,10.5
					C8.3,10.5,8.3,10.5,8.3,10.5z"/>
				<g>
					<path class="st0" d="M7,11.4C7,11.4,7,11.4,7,11.4C7,11.4,7,11.4,7,11.4c-0.2,0.3-1.6,0.8-1.6,0.8c0,0,0,0,0,0c0,0,0,0,0,0
						C5.5,12.2,6.9,11.8,7,11.4C7,11.4,7,11.4,7,11.4z"/>
				</g>
				<g>
					<path class="st0" d="M6.8,11.6C6.8,11.6,6.8,11.6,6.8,11.6c-0.5,0.1-1.9,0-1.9,0c0,0,0,0,0,0c0,0,0,0,0,0
						C5,11.7,6.3,11.8,6.8,11.6C6.8,11.7,6.9,11.7,6.8,11.6C6.8,11.6,6.8,11.6,6.8,11.6z"/>
				</g>
				
					<linearGradient id="SVGID_18_" gradientUnits="userSpaceOnUse" x1="-6446.6743" y1="-3451.6018" x2="-6442.5811" y2="-3451.6018" gradientTransform="matrix(0.5325 0.8464 0.8464 -0.5325 6360.7925 3627.666)">
					<stop  offset="0" style="stop-color:#B6D33D"/>
					<stop  offset="0.2784" style="stop-color:#5CA605"/>
					<stop  offset="1" style="stop-color:#265502"/>
				</linearGradient>
				<path class="st18" d="M9.2,12.3c0,0-3.4,0.4-2.9-2.6c0,0,0-0.6,0.3-0.6c0,0-0.1,0.3,0.2,0.3C7.1,9.5,9.5,10.6,9.2,12.3z"/>
				
					<linearGradient id="SVGID_19_" gradientUnits="userSpaceOnUse" x1="-7085.2427" y1="-6078.8452" x2="-7083.2876" y2="-6078.8452" gradientTransform="matrix(0.6205 0.7842 0.7842 -0.6205 9167.0234 1795.2498)">
					<stop  offset="0" style="stop-color:#B6D33D"/>
					<stop  offset="0.2784" style="stop-color:#5CA605"/>
					<stop  offset="1" style="stop-color:#265502"/>
				</linearGradient>
				<path class="st19" d="M3.1,11.7l1.1,0.1c0.1,0,0.2,0,0.3,0c0.1,0,0.2,0,0.3,0c0.1,0,0.2,0,0.3-0.1c0.1,0,0.2-0.1,0.3-0.1l0,0
					c0,0,0,0,0,0c0,0,0,0,0,0c-0.1-0.1-0.2-0.2-0.3-0.2c-0.1-0.1-0.2-0.1-0.3-0.1c-0.1,0-0.2,0-0.3,0c-0.1,0-0.2,0-0.3,0.1
					c-0.2,0-0.4,0.1-0.6,0.1C3.4,11.5,3.3,11.6,3.1,11.7C3.1,11.7,3.1,11.7,3.1,11.7C3.1,11.7,3.1,11.7,3.1,11.7z"/>
				
					<linearGradient id="SVGID_20_" gradientUnits="userSpaceOnUse" x1="-6445.5859" y1="-3458.2378" x2="-6443.8154" y2="-3453.3684" gradientTransform="matrix(0.5325 0.8464 0.8464 -0.5325 6360.7925 3627.666)">
					<stop  offset="0" style="stop-color:#B6D33D"/>
					<stop  offset="0.2784" style="stop-color:#5CA605"/>
					<stop  offset="1" style="stop-color:#265502"/>
				</linearGradient>
				<path class="st20" d="M2,13.8c0,0,2.1-3.4,4.3-1.2c0,0-0.7,1.5-2.2,1.3C2.7,13.8,2.2,13.6,2,13.8z"/>
				
					<linearGradient id="SVGID_21_" gradientUnits="userSpaceOnUse" x1="-6445.6963" y1="-3447.6357" x2="-6442.8149" y2="-3447.6357" gradientTransform="matrix(0.5325 0.8464 0.8464 -0.5325 6360.7925 3627.666)">
					<stop  offset="0" style="stop-color:#B6D33D"/>
					<stop  offset="0.2784" style="stop-color:#5CA605"/>
					<stop  offset="1" style="stop-color:#265502"/>
				</linearGradient>
				<path class="st21" d="M8.4,9.2c0,0,2.4-1.9,4.2,0.1c0,0,0.8,0.1,1.1-0.3c0.3-0.4,0.3,0.2-1,0.7c0,0-1.1,2.1-3.7-0.2
					C8.9,9.5,8.7,9.2,8.4,9.2z"/>
				<g class="st22">
					<path class="st23" d="M11.3,0.5c0.1,0.3,0.2,0.5,0.3,0.8C11.7,1.5,11.8,1.7,12,2c0.1,0.2,0.3,0.5,0.5,0.7
						C12.6,2.8,12.8,3,13,3.2c0,0,0,0,0,0c0,0,0,0,0,0c-0.2-0.2-0.4-0.4-0.6-0.6c-0.2-0.2-0.3-0.4-0.5-0.7c-0.1-0.2-0.3-0.5-0.4-0.7
						C11.5,1,11.4,0.7,11.3,0.5C11.3,0.5,11.3,0.5,11.3,0.5C11.3,0.5,11.3,0.5,11.3,0.5z"/>
					<path class="st23" d="M11.4,1.7c0.1,0.1,0.2,0.2,0.3,0.3c0.1,0,0.1,0.1,0.2,0.1c0,0,0.1,0,0.1,0c0,0,0.1,0,0.1,0c0,0,0,0,0,0
						c0,0,0,0,0,0c-0.1,0-0.1,0-0.2-0.1c-0.1,0-0.1-0.1-0.2-0.1c-0.1,0-0.1-0.1-0.2-0.1C11.5,1.8,11.5,1.7,11.4,1.7
						C11.4,1.7,11.4,1.7,11.4,1.7C11.4,1.7,11.4,1.7,11.4,1.7z"/>
					<path class="st23" d="M11.8,2.6c0.1,0.1,0.3,0.1,0.4,0.2c0.1,0,0.1,0.1,0.2,0.1c0,0,0.1,0,0.1,0c0,0,0,0,0.1,0c0,0,0,0,0.1,0
						c0,0,0,0,0,0c0,0,0,0,0,0c0,0-0.1,0-0.1,0c0,0-0.1,0-0.1,0c-0.1,0-0.1,0-0.2-0.1C12.1,2.7,12,2.6,11.8,2.6
						C11.8,2.6,11.8,2.6,11.8,2.6C11.8,2.6,11.8,2.6,11.8,2.6z"/>
					<path class="st23" d="M12.3,2.4c0-0.1,0.1-0.2,0.1-0.3c0-0.1,0-0.2,0-0.3c0-0.1-0.1-0.2-0.1-0.3c0,0,0,0,0-0.1c0,0,0,0-0.1-0.1
						c0,0,0,0,0,0l0,0c0,0,0,0-0.1-0.1c0,0,0,0,0,0c0,0,0,0,0,0l0,0c0,0,0,0,0.1,0.1l0,0c0,0,0,0,0,0c0,0,0,0,0,0.1c0,0,0,0,0,0.1
						c0.1,0.1,0.1,0.2,0.1,0.3c0,0.1,0,0.2,0,0.3C12.4,2.2,12.4,2.3,12.3,2.4C12.3,2.4,12.3,2.4,12.3,2.4
						C12.3,2.4,12.3,2.4,12.3,2.4z"/>
					<path class="st23" d="M11.2,0.9c0,0.1,0.1,0.1,0.1,0.2c0,0,0.1,0.1,0.1,0.1c0,0,0.1,0,0.1,0c0,0,0,0,0,0c0,0,0,0,0,0
						c0,0-0.1,0-0.1-0.1c0,0-0.1,0-0.1-0.1C11.3,1.1,11.3,1.1,11.2,0.9C11.3,1,11.2,1,11.2,0.9C11.2,0.9,11.2,0.9,11.2,0.9
						C11.2,0.9,11.2,0.9,11.2,0.9z"/>
				</g>
				<g class="st22">
					<path class="st23" d="M9.6,4.9C10,5,10.4,5.1,10.8,5.1c0.2,0,0.4,0,0.6,0c0.2,0,0.4,0,0.6,0c0.2,0,0.4-0.1,0.6-0.2l0.1-0.1
						l0.1,0l0.1,0c0.1,0,0.2-0.1,0.3-0.1c0.2,0,0.4,0,0.6,0.1c0.1,0,0.2,0.1,0.3,0.1c0.1,0,0.2,0.1,0.3,0.2c0,0,0,0,0,0c0,0,0,0,0,0
						c-0.2-0.1-0.4-0.2-0.6-0.3c-0.2-0.1-0.4-0.1-0.6-0.1c-0.1,0-0.2,0-0.3,0.1l-0.1,0l-0.1,0l-0.1,0.1C12.5,5,12.3,5,12.1,5
						c-0.2,0-0.4,0-0.6,0c-0.2,0-0.4,0-0.6,0C10.4,5,10,5,9.6,4.9C9.6,4.9,9.6,4.9,9.6,4.9C9.6,4.9,9.6,4.9,9.6,4.9z"/>
					<path class="st23" d="M11.5,6.1c0.3-0.2,0.5-0.3,0.7-0.5c0.1-0.1,0.2-0.2,0.3-0.3c0.1-0.1,0.1-0.1,0.1-0.2
						c0-0.1,0.1-0.1,0.1-0.2c0,0,0,0,0,0c0,0,0,0,0,0l0,0c0,0,0,0.1,0,0.1c0,0,0,0,0,0l0,0c0,0.1-0.1,0.1-0.1,0.2
						c-0.1,0.1-0.2,0.2-0.3,0.3c-0.1,0.1-0.2,0.2-0.4,0.3C11.7,5.9,11.6,6,11.5,6.1C11.5,6.1,11.5,6.1,11.5,6.1
						C11.5,6.1,11.5,6.1,11.5,6.1z"/>
					<path class="st23" d="M10.4,4.4c0.1,0,0.3,0.1,0.4,0.1c0.1,0,0.3,0.1,0.4,0.1c0.1,0,0.3,0.1,0.4,0.2c0.1,0,0.1,0.1,0.2,0.1
						c0.1,0,0.1,0.1,0.1,0.2c0,0,0,0,0,0c0,0,0,0,0,0c0-0.1-0.1-0.1-0.1-0.2c-0.1,0-0.1-0.1-0.2-0.1c-0.1-0.1-0.3-0.1-0.4-0.2
						C11,4.5,10.7,4.4,10.4,4.4C10.4,4.4,10.4,4.4,10.4,4.4C10.4,4.4,10.4,4.4,10.4,4.4z"/>
					<path class="st23" d="M10.2,5.4c0.2,0,0.4,0,0.7-0.1c0.1,0,0.2,0,0.3-0.1c0.1,0,0.2-0.1,0.3-0.2c0,0,0,0,0,0c0,0,0,0,0,0
						c-0.1,0-0.2,0.1-0.3,0.1c-0.1,0-0.2,0.1-0.3,0.1c-0.1,0-0.2,0-0.3,0.1C10.4,5.4,10.3,5.4,10.2,5.4C10.2,5.4,10.2,5.4,10.2,5.4
						C10.2,5.4,10.2,5.4,10.2,5.4z"/>
					<path class="st23" d="M12.6,4.2c0.1,0,0.2,0.1,0.3,0.1c0.1,0,0.2,0.1,0.3,0.1c0.1,0,0.2,0.1,0.3,0.1c0,0,0.1,0.1,0.1,0.1
						c0,0,0.1,0.1,0.1,0.1c0,0,0,0,0,0c0,0,0,0,0,0c0,0-0.1-0.1-0.1-0.1c0,0-0.1-0.1-0.1-0.1c-0.1-0.1-0.2-0.1-0.3-0.1
						C13,4.3,12.8,4.2,12.6,4.2C12.6,4.2,12.6,4.2,12.6,4.2C12.6,4.2,12.6,4.2,12.6,4.2z"/>
					<path class="st23" d="M12.6,6c0.3-0.1,0.6-0.3,0.9-0.4c0.1-0.1,0.3-0.2,0.4-0.3C13.9,5.2,14,5.2,14,5.1C14.1,5,14.1,5,14.2,4.9
						c0,0,0,0,0,0c0,0,0,0,0,0l0,0c0,0,0,0.1-0.1,0.1c0,0,0,0,0,0l0,0c-0.1,0.1-0.1,0.1-0.2,0.2c-0.1,0.1-0.3,0.2-0.4,0.3
						c-0.1,0.1-0.3,0.2-0.4,0.2C12.9,5.8,12.7,5.9,12.6,6C12.6,6,12.6,6,12.6,6C12.6,6,12.6,6,12.6,6z"/>
				</g>
				<g class="st22">
					<path class="st23" d="M15.1,7.4C15,7.8,15,8.2,15,8.6C15,9,15,9.4,15,9.8c0,0.2,0.1,0.4,0.1,0.6c0,0.2,0.1,0.4,0.2,0.6
						c0.1,0.2,0.2,0.4,0.2,0.5c0.1,0.2,0.2,0.3,0.3,0.5c0,0,0,0,0,0c0,0,0,0,0,0c-0.1-0.2-0.2-0.3-0.3-0.5c-0.1-0.2-0.2-0.4-0.2-0.5
						c-0.1-0.4-0.2-0.8-0.3-1.2C15,9.4,15,9,15,8.6C15,8.2,15,7.8,15.1,7.4C15.1,7.4,15.1,7.4,15.1,7.4C15.1,7.4,15.1,7.4,15.1,7.4z
						"/>
					<path class="st23" d="M14.8,11.6c0-0.1,0-0.2,0-0.3c0-0.1,0-0.2,0.1-0.3c0-0.1,0.1-0.2,0.1-0.2c0-0.1,0.1-0.1,0.2-0.2
						c0,0,0,0,0,0c0,0,0,0,0,0c-0.1,0-0.1,0.1-0.2,0.2C15,10.9,14.9,11,14.9,11c0,0.1,0,0.2-0.1,0.3C14.8,11.4,14.8,11.5,14.8,11.6
						C14.8,11.6,14.8,11.6,14.8,11.6C14.8,11.6,14.8,11.6,14.8,11.6z"/>
					<path class="st23" d="M15,9.4c0.1,0,0.2,0,0.3,0.1c0.1,0,0.2,0.1,0.3,0.2c0,0,0.1,0.1,0.1,0.1c0,0,0.1,0.1,0.1,0.1
						c0,0.1,0.1,0.2,0.1,0.3c0,0,0,0,0,0c0,0,0,0,0,0c0-0.1,0-0.2-0.1-0.3c0-0.1-0.1-0.1-0.1-0.2c0,0-0.1-0.1-0.1-0.1
						c-0.1-0.1-0.2-0.1-0.3-0.2C15.2,9.4,15.1,9.4,15,9.4C15,9.4,15,9.4,15,9.4C15,9.4,15,9.4,15,9.4z"/>
					<path class="st23" d="M14.3,9.5c0-0.1,0-0.2,0.1-0.3c0-0.1,0.1-0.2,0.1-0.3c0.1-0.1,0.1-0.2,0.2-0.3c0.1-0.1,0.2-0.2,0.3-0.2
						c0,0,0,0,0,0c0,0,0,0,0,0c-0.1,0-0.2,0.1-0.3,0.2c-0.1,0.1-0.1,0.2-0.2,0.3c-0.1,0.1-0.1,0.2-0.1,0.3
						C14.3,9.3,14.3,9.4,14.3,9.5C14.3,9.5,14.3,9.5,14.3,9.5C14.3,9.5,14.3,9.5,14.3,9.5z"/>
				</g>
				<g>
					
						<linearGradient id="SVGID_22_" gradientUnits="userSpaceOnUse" x1="-6438.3853" y1="-3442.6917" x2="-6445.9268" y2="-3439.6421" gradientTransform="matrix(0.5325 0.8464 0.8464 -0.5325 6360.7925 3627.666)">
						<stop  offset="0" style="stop-color:#B6D33D"/>
						<stop  offset="0.2784" style="stop-color:#5CA605"/>
						<stop  offset="1" style="stop-color:#265502"/>
					</linearGradient>
					<path class="st24" d="M18.5,10.6c0-0.2-0.4-0.5-0.4-0.5C16.9,9.5,16.5,8,16.5,8c-0.5-2,1-3.4,1-3.4c1.3,1.4,1.5,2.6,1.5,2.6
						c0.3,2.3-0.5,2.5-0.5,3C18.6,10.8,18.5,10.8,18.5,10.6z"/>
					<g class="st22">
						<path class="st23" d="M15.7,5.6c-0.1-0.4-0.3-0.7-0.4-1.1c-0.1-0.4-0.2-0.8-0.3-1.1c-0.1-0.2-0.1-0.4-0.1-0.6
							c0-0.2-0.1-0.4-0.1-0.6c0-0.2-0.1-0.4-0.1-0.6c0-0.1,0-0.2,0-0.3c0,0,0-0.1,0-0.1c0,0,0-0.1,0-0.1l0,0
							c-0.1,0.2-0.1,0.4-0.1,0.6c0,0.2,0,0.4,0,0.6c0,0.2,0.1,0.4,0.1,0.6c0,0.2,0.1,0.4,0.1,0.6c0.1,0.4,0.2,0.8,0.4,1.1
							C15.4,4.8,15.6,5.2,15.7,5.6L15.7,5.6z"/>
						<path class="st23" d="M14.2,3.5c0.2,0.3,0.3,0.5,0.5,0.8c0.1,0.1,0.2,0.2,0.3,0.3c0.1,0.1,0.3,0.2,0.4,0.2l0,0
							c-0.1-0.1-0.3-0.1-0.4-0.2c-0.1-0.1-0.2-0.2-0.3-0.3c-0.1-0.1-0.2-0.2-0.3-0.4C14.3,3.8,14.2,3.6,14.2,3.5L14.2,3.5z"/>
						<path class="st23" d="M15.3,4.5c0.1-0.1,0.1-0.3,0.2-0.4c0.1-0.1,0.1-0.3,0.2-0.5c0-0.2,0.1-0.3,0.1-0.5c0-0.1,0-0.2,0-0.2
							c0-0.1-0.1-0.1-0.1-0.2l0,0c0.1,0.1,0.2,0.3,0.2,0.4c0,0.2,0,0.3-0.1,0.5c0,0.2-0.1,0.3-0.1,0.5C15.4,4.2,15.4,4.3,15.3,4.5
							L15.3,4.5z"/>
						<path class="st23" d="M14.2,1.8c0,0.1,0.1,0.2,0.1,0.3c0,0.1,0.1,0.2,0.1,0.3c0,0.1,0.1,0.2,0.2,0.3c0.1,0.1,0.2,0.2,0.3,0.2
							l0,0c-0.1-0.1-0.2-0.1-0.2-0.2c-0.1-0.1-0.1-0.2-0.2-0.3c-0.1-0.1-0.1-0.2-0.1-0.3S14.2,1.9,14.2,1.8L14.2,1.8z"/>
						<path class="st23" d="M14.7,2.3c0.1,0,0.1-0.1,0.2-0.1C15,2.1,15,2.1,15.1,2c0-0.1,0.1-0.1,0.1-0.2c0-0.1,0-0.2,0-0.2l0,0
							c0,0,0,0.1,0,0.1c0,0,0,0.1,0,0.1c0,0.1-0.1,0.1-0.1,0.2c0,0.1-0.1,0.1-0.2,0.2C14.9,2.2,14.8,2.3,14.7,2.3L14.7,2.3z"/>
					</g>
					<path class="st25" d="M17.5,5c0,0.4,0,0.9,0,1.3c0,0.4,0,0.9,0.1,1.3c0,0.2,0.1,0.4,0.1,0.6c0,0.2,0.1,0.4,0.1,0.6
						C17.9,9.1,18,9.3,18,9.5c0.1,0.2,0.2,0.4,0.4,0.5l0,0l-0.1-0.1c0,0,0,0,0-0.1l0-0.1l0,0l0,0c-0.1-0.1-0.1-0.2-0.1-0.3
						c-0.1-0.2-0.1-0.4-0.2-0.6c-0.1-0.4-0.2-0.8-0.2-1.3c0-0.4-0.1-0.8-0.1-1.3C17.5,5.9,17.5,5.5,17.5,5L17.5,5z"/>
					<path class="st25" d="M17.1,8.8c0-0.1,0-0.2,0.1-0.3c0-0.1,0.1-0.2,0.1-0.3c0-0.1,0.1-0.2,0.1-0.3c0.1-0.1,0.1-0.2,0.2-0.3l0,0
						c-0.1,0.1-0.2,0.1-0.2,0.2c-0.1,0.1-0.1,0.2-0.1,0.3C17.2,8.3,17.1,8.5,17.1,8.8L17.1,8.8z"/>
					<path class="st25" d="M17.6,6.6c0.1,0.1,0.2,0.2,0.3,0.3C17.9,7,18,7.1,18.1,7.2c0.1,0.1,0.1,0.2,0.2,0.4
						c0,0.1,0.1,0.3,0.1,0.4l0,0c0-0.1,0-0.3,0-0.4c0-0.1-0.1-0.3-0.2-0.4C18,7.1,17.9,7,17.9,6.9C17.8,6.8,17.7,6.7,17.6,6.6
						L17.6,6.6z"/>
					<path class="st25" d="M16.8,6.6c0-0.1,0.1-0.2,0.1-0.3c0-0.1,0.1-0.2,0.2-0.2C17.2,6,17.2,6,17.3,5.9c0.1-0.1,0.1-0.1,0.2-0.2
						l0,0c-0.1,0-0.2,0.1-0.3,0.1c-0.1,0.1-0.1,0.1-0.2,0.2C17,6.2,16.9,6.4,16.8,6.6L16.8,6.6z"/>
					<path class="st25" d="M17.5,5.3c0.1,0,0.1,0.1,0.2,0.1c0.1,0,0.1,0.1,0.1,0.2c0,0.1,0,0.1,0.1,0.2l0,0.1C18,6,18,6,18,6l0,0
						c0,0,0-0.1,0-0.1c0,0,0-0.1,0-0.1c0-0.1,0-0.2-0.1-0.2c0-0.1-0.1-0.1-0.2-0.2C17.7,5.3,17.6,5.3,17.5,5.3L17.5,5.3z"/>
					<path class="st25" d="M17.8,8.6c0.1,0,0.2,0.1,0.2,0.1c0.1,0,0.1,0.1,0.2,0.2c0,0,0,0.1,0.1,0.1l0,0.1c0,0,0,0,0,0.1
						c0,0,0,0,0,0.1c0,0,0,0,0,0.1c0,0,0,0,0,0.1c0,0,0,0,0,0.1l0,0c0-0.1,0-0.2,0-0.3c0,0,0-0.1-0.1-0.1c0,0,0-0.1-0.1-0.1
						c-0.1-0.1-0.1-0.1-0.2-0.2C17.9,8.7,17.8,8.6,17.8,8.6L17.8,8.6z"/>
				</g>
				<g class="st22">
					<path class="st23" d="M12.6,7.3c0.4-0.1,0.7-0.2,1-0.3c0.2-0.1,0.3-0.1,0.5-0.2c0.1,0,0.2-0.1,0.2-0.1c0.1-0.1,0.1-0.1,0.2-0.2
						c0,0,0,0,0,0c0,0,0,0,0,0c-0.1,0.1-0.1,0.1-0.2,0.2c-0.1,0-0.2,0.1-0.2,0.1c-0.2,0.1-0.3,0.2-0.5,0.2c-0.2,0.1-0.3,0.1-0.5,0.2
						C12.9,7.2,12.8,7.2,12.6,7.3C12.6,7.3,12.6,7.3,12.6,7.3C12.6,7.3,12.6,7.3,12.6,7.3z"/>
					<path class="st23" d="M13,7.4c0.1,0,0.2-0.1,0.3-0.1c0,0,0.1-0.1,0.1-0.1c0,0,0,0,0.1-0.1c0,0,0-0.1,0-0.1c0,0,0,0,0,0
						c0,0,0,0,0,0v0c0,0.1-0.1,0.1-0.1,0.1c0,0-0.1,0.1-0.1,0.1C13.2,7.3,13.1,7.3,13,7.4C13,7.4,13,7.4,13,7.4
						C13,7.4,13,7.4,13,7.4z"/>
					<path class="st23" d="M13.6,7.5c0.2-0.1,0.4-0.2,0.5-0.3c0.1-0.1,0.2-0.1,0.2-0.2c0,0,0.1-0.1,0.1-0.1c0-0.1,0-0.1,0-0.2
						c0,0,0,0,0,0c0,0,0,0,0,0c0,0,0,0.1,0,0.1c0,0,0,0.1-0.1,0.1c-0.1,0.1-0.1,0.2-0.2,0.2c-0.1,0.1-0.2,0.1-0.2,0.2
						C13.7,7.4,13.6,7.4,13.6,7.5C13.6,7.5,13.6,7.5,13.6,7.5C13.6,7.5,13.6,7.5,13.6,7.5z"/>
					<path class="st23" d="M13.3,6.7c0.1,0,0.1,0,0.2,0c0.1,0,0.1,0,0.2,0c0.1,0,0.1,0,0.2,0c0.1,0,0.1,0,0.2,0.1c0,0,0,0,0,0
						c0,0,0,0,0,0c0-0.1-0.1-0.1-0.1-0.1c-0.1,0-0.1,0-0.2,0C13.5,6.6,13.4,6.7,13.3,6.7C13.3,6.7,13.3,6.7,13.3,6.7
						C13.3,6.7,13.3,6.7,13.3,6.7z"/>
					<path class="st23" d="M12.6,7.2c0,0,0.1,0,0.1,0c0,0,0.1,0,0.1,0c0,0,0.1,0,0.1,0c0,0,0.1,0,0.1,0c0,0,0,0,0,0c0,0,0,0,0,0
						c0,0,0,0,0-0.1c0,0,0,0-0.1,0c0,0-0.1,0-0.1,0C12.8,7.1,12.7,7.1,12.6,7.2C12.6,7.2,12.6,7.2,12.6,7.2
						C12.6,7.2,12.6,7.2,12.6,7.2z"/>
				</g>
				<g class="st22">
					<path class="st23" d="M8.9,9.1c0.3,0.1,0.6,0.2,0.9,0.3c0.3,0.1,0.6,0.1,0.9,0.2c0.2,0,0.3,0,0.5,0.1c0.2,0,0.3,0,0.5,0
						c0.2,0,0.3,0,0.5,0c0.2,0,0.3-0.1,0.4-0.1c0,0,0,0,0,0c0,0,0,0,0,0c-0.1,0-0.3,0.1-0.4,0.1c-0.2,0-0.3,0-0.5,0
						c-0.2,0-0.3,0-0.5,0c-0.2,0-0.3,0-0.5,0c-0.3,0-0.6-0.1-0.9-0.2C9.4,9.3,9.2,9.2,8.9,9.1C8.9,9.1,8.9,9.1,8.9,9.1
						C8.9,9.1,8.9,9.1,8.9,9.1z"/>
					<path class="st23" d="M9.5,9.7c0.1,0,0.2,0.1,0.3,0.1c0.1,0,0.2,0,0.3,0c0.1,0,0.2,0,0.3-0.1c0.1,0,0.2-0.1,0.2-0.2
						c0,0,0,0,0,0c0,0,0,0,0,0c-0.1,0.1-0.1,0.1-0.2,0.2c-0.1,0-0.2,0.1-0.3,0.1c-0.1,0-0.2,0-0.3,0C9.7,9.8,9.6,9.8,9.5,9.7
						C9.5,9.7,9.5,9.7,9.5,9.7C9.5,9.7,9.5,9.7,9.5,9.7z"/>
					<path class="st23" d="M10.6,10.2c0.2,0,0.4-0.1,0.6-0.1c0.1,0,0.2-0.1,0.3-0.1c0.1-0.1,0.1-0.1,0.2-0.2c0,0,0,0,0,0
						c0,0,0,0,0,0c0,0.1-0.1,0.2-0.2,0.2c-0.1,0.1-0.2,0.1-0.3,0.1c-0.1,0-0.2,0.1-0.3,0.1C10.8,10.1,10.7,10.1,10.6,10.2
						C10.6,10.2,10.6,10.2,10.6,10.2C10.6,10.2,10.6,10.2,10.6,10.2z"/>
					<path class="st23" d="M10,8.9c0.1,0,0.2,0.1,0.3,0.1c0.1,0,0.2,0.1,0.3,0.1c0.1,0.1,0.2,0.1,0.3,0.2c0.1,0.1,0.1,0.2,0.1,0.3
						c0,0,0,0,0,0c0,0,0,0,0,0c0-0.1,0-0.1,0-0.2C11,9.4,11,9.3,11,9.3c-0.1-0.1-0.2-0.2-0.3-0.2C10.6,9,10.5,9,10.3,9
						C10.2,8.9,10.1,8.9,10,8.9C10,8.9,10,8.9,10,8.9C10,8.9,10,8.9,10,8.9z"/>
				</g>
				
					<linearGradient id="SVGID_23_" gradientUnits="userSpaceOnUse" x1="-4142.3379" y1="-5323.877" x2="-4140.5547" y2="-5323.877" gradientTransform="matrix(0.1841 0.9829 0.9829 -0.1841 6006.9443 3098.3374)">
					<stop  offset="0" style="stop-color:#B6D33D"/>
					<stop  offset="0.2784" style="stop-color:#5CA605"/>
					<stop  offset="1" style="stop-color:#265502"/>
				</linearGradient>
				<path class="st26" d="M10.1,7.2c0,0,1.8-0.5,2.4,1c0,0,0.4,0.2,0.7,0.1c0.3-0.1,0.1,0.2-0.8,0.2c0,0-1.1,1-2.1-0.9
					C10.3,7.5,10.3,7.3,10.1,7.2z"/>
				<g class="st22">
					<path class="st23" d="M10.4,7.3c0.1,0.1,0.3,0.3,0.4,0.4c0.2,0.1,0.3,0.2,0.5,0.3c0.1,0,0.2,0.1,0.2,0.1c0.1,0,0.2,0.1,0.3,0.1
						c0.1,0,0.2,0.1,0.3,0.1c0.1,0,0.2,0,0.3,0c0,0,0,0,0,0c0,0,0,0,0,0c-0.1,0-0.2,0-0.3-0.1c-0.1,0-0.2-0.1-0.3-0.1
						c-0.1,0-0.2-0.1-0.3-0.1c-0.1,0-0.2-0.1-0.2-0.1c-0.2-0.1-0.3-0.2-0.5-0.3C10.6,7.6,10.5,7.4,10.4,7.3
						C10.4,7.3,10.4,7.3,10.4,7.3C10.4,7.3,10.4,7.3,10.4,7.3z"/>
					<path class="st23" d="M10.6,7.8c0,0,0.1,0.1,0.1,0.1c0.1,0,0.1,0.1,0.2,0.1C10.9,8,11,8,11,8c0.1,0,0.1,0,0.2-0.1c0,0,0,0,0,0
						c0,0,0,0,0,0c-0.1,0-0.1,0-0.2,0c-0.1,0-0.1,0-0.2,0c-0.1,0-0.1,0-0.2-0.1C10.7,7.9,10.6,7.8,10.6,7.8
						C10.6,7.8,10.6,7.8,10.6,7.8C10.6,7.8,10.6,7.8,10.6,7.8z"/>
					<path class="st23" d="M11.1,8.3c0.1,0,0.2,0.1,0.4,0.1c0.1,0,0.1,0,0.2,0c0.1,0,0.1,0,0.2-0.1c0,0,0,0,0,0c0,0,0,0,0,0
						c0,0-0.1,0.1-0.2,0.1c-0.1,0-0.1,0-0.2,0c-0.1,0-0.1,0-0.2,0C11.3,8.3,11.2,8.3,11.1,8.3C11.1,8.3,11.1,8.3,11.1,8.3
						C11.1,8.3,11.1,8.3,11.1,8.3z"/>
					<path class="st23" d="M11.1,7.5c0.1,0,0.1,0.1,0.2,0.1c0.1,0,0.1,0.1,0.2,0.2c0,0.1,0.1,0.1,0.1,0.2c0,0.1,0,0.1,0,0.2
						c0,0,0,0,0,0c0,0,0,0,0,0c0,0,0-0.1,0-0.1c0,0,0-0.1,0-0.1c0-0.1-0.1-0.1-0.1-0.2c0-0.1-0.1-0.1-0.2-0.1
						C11.2,7.5,11.1,7.5,11.1,7.5C11.1,7.4,11.1,7.4,11.1,7.5C11.1,7.4,11.1,7.4,11.1,7.5z"/>
				</g>
				<g class="st22">
					<path class="st23" d="M11.6,11.4c0,0.2,0,0.5,0.1,0.7c0.1,0.2,0.2,0.4,0.4,0.6c0.1,0.2,0.3,0.3,0.5,0.5
						c0.2,0.1,0.4,0.2,0.6,0.3c0,0,0,0,0,0c0,0,0,0,0,0c-0.2-0.1-0.4-0.2-0.6-0.4c-0.2-0.1-0.4-0.3-0.5-0.5
						c-0.1-0.2-0.3-0.4-0.4-0.6C11.7,11.9,11.6,11.6,11.6,11.4L11.6,11.4C11.6,11.4,11.6,11.4,11.6,11.4
						C11.6,11.4,11.6,11.4,11.6,11.4z"/>
					<path class="st23" d="M12.1,12.6c0.1,0,0.1,0,0.2,0c0.1,0,0.1,0,0.2,0.1c0.1,0,0.1,0.1,0.2,0.1c0.1,0,0.1,0.1,0.1,0.2
						c0,0,0,0,0,0c0,0,0,0,0,0c0-0.1-0.1-0.1-0.1-0.2c-0.1-0.1-0.1-0.1-0.2-0.1c-0.1,0-0.1,0-0.2-0.1C12.3,12.6,12.2,12.6,12.1,12.6
						C12.1,12.6,12.1,12.6,12.1,12.6C12.1,12.6,12.1,12.6,12.1,12.6z"/>
					<path class="st23" d="M11.8,12.1c0,0.1,0,0.3,0,0.4c0,0.1,0.1,0.1,0.1,0.2c0,0,0,0.1,0.1,0.1c0,0,0.1,0,0.1,0.1c0,0,0,0,0,0
						c0,0,0,0,0,0c0,0,0-0.1-0.1-0.1c0,0,0-0.1-0.1-0.1c0-0.1-0.1-0.1-0.1-0.2c0-0.1,0-0.1-0.1-0.2C11.8,12.3,11.8,12.2,11.8,12.1
						L11.8,12.1C11.8,12.1,11.8,12.1,11.8,12.1C11.8,12.1,11.8,12.1,11.8,12.1z"/>
					<path class="st23" d="M11.6,11.7C11.6,11.7,11.7,11.7,11.6,11.7L11.6,11.7L11.6,11.7c0.1,0,0.2,0,0.2,0c0.1,0,0.1,0,0.2,0.1
						c0.1,0,0.1,0.1,0.1,0.1c0,0,0.1,0.1,0.1,0.2c0,0,0,0,0,0c0,0,0,0,0,0c0-0.1,0-0.1-0.1-0.2c0-0.1-0.1-0.1-0.2-0.1
						c-0.1,0-0.1-0.1-0.2-0.1C11.8,11.7,11.8,11.7,11.6,11.7L11.6,11.7C11.7,11.7,11.7,11.7,11.6,11.7L11.6,11.7
						C11.6,11.7,11.6,11.7,11.6,11.7C11.6,11.7,11.6,11.7,11.6,11.7z"/>
				</g>
				<g class="st22">
					<path class="st23" d="M10.8,11.9c0,0.2-0.1,0.4-0.1,0.7c0,0.2-0.1,0.4-0.2,0.7c0,0.1-0.1,0.2-0.1,0.3l-0.1,0.2l0,0.1l0,0.1
						c-0.1,0.2-0.2,0.4-0.3,0.6c0,0,0,0,0,0c0,0,0,0,0,0c0.1-0.2,0.2-0.4,0.3-0.6c0-0.1,0.1-0.2,0.1-0.3c0-0.1,0.1-0.2,0.1-0.3
						c0.1-0.2,0.1-0.4,0.1-0.7C10.7,12.4,10.8,12.2,10.8,11.9C10.8,11.9,10.8,11.9,10.8,11.9C10.8,11.9,10.8,11.9,10.8,11.9z"/>
					<path class="st23" d="M9.8,14.1c0-0.1,0.1-0.2,0.1-0.2c0-0.1,0.1-0.1,0.2-0.2c0.1-0.1,0.1-0.1,0.2-0.2c0.1-0.1,0.1-0.1,0.2-0.1
						c0,0,0,0,0,0c0,0,0,0,0,0c-0.1,0-0.2,0.1-0.2,0.1c-0.1,0.1-0.1,0.1-0.2,0.2C10,13.7,9.9,13.9,9.8,14.1
						C9.8,14.1,9.8,14.1,9.8,14.1C9.8,14.1,9.8,14.1,9.8,14.1z"/>
					<path class="st23" d="M10.7,12.7c0.1,0.1,0.1,0.1,0.2,0.2c0,0.1,0.1,0.2,0.1,0.3c0,0,0,0,0,0.1c0,0,0,0,0,0l0,0c0,0,0,0,0,0.1
						l0,0.1c0,0,0,0,0,0.1c0,0,0,0,0,0.1c0,0,0,0.1-0.1,0.1v0c0,0,0,0,0,0c0,0,0,0,0,0c0,0,0.1-0.1,0.1-0.1c0,0,0,0,0-0.1
						c0,0,0,0,0-0.1l0-0.1c0,0,0,0,0-0.1l0,0c0,0,0,0,0,0c0,0,0,0,0-0.1c0-0.1,0-0.2-0.1-0.3C10.8,12.8,10.8,12.7,10.7,12.7
						C10.7,12.7,10.7,12.7,10.7,12.7C10.7,12.7,10.7,12.7,10.7,12.7z"/>
				</g>
				<g class="st22">
					<path class="st23" d="M6.6,9.3c0.1,0.3,0.2,0.6,0.3,0.9C7,10.5,7.2,10.8,7.4,11c0.1,0.1,0.2,0.2,0.3,0.4
						c0.1,0.1,0.2,0.2,0.4,0.3c0.1,0.1,0.3,0.2,0.4,0.2C8.6,12,8.7,12,8.9,12c0,0,0,0,0,0c0,0,0,0,0,0c-0.2,0-0.3-0.1-0.4-0.1
						c-0.1-0.1-0.3-0.1-0.4-0.2L8,11.6l-0.1-0.1c0,0-0.1-0.1-0.1-0.1c0,0-0.1-0.1-0.1-0.1c-0.1-0.1-0.2-0.2-0.3-0.3
						c-0.2-0.2-0.3-0.5-0.5-0.8C6.8,9.9,6.7,9.6,6.6,9.3C6.6,9.3,6.6,9.3,6.6,9.3C6.6,9.3,6.6,9.3,6.6,9.3z"/>
				</g>
				<g class="st22">
					<path class="st23" d="M7.2,11.5c0.1,0.1,0.3,0.2,0.5,0.2c0.1,0,0.2,0,0.3,0.1c0.1,0,0.2,0,0.2-0.1c0,0,0,0,0,0c0,0,0,0,0,0
						c-0.1,0-0.2,0-0.2,0c-0.1,0-0.2,0-0.2,0c-0.1,0-0.2,0-0.2-0.1C7.4,11.6,7.3,11.6,7.2,11.5C7.2,11.5,7.2,11.5,7.2,11.5
						C7.2,11.5,7.2,11.5,7.2,11.5z"/>
				</g>
				<g class="st22">
					<path class="st23" d="M7.2,10.2c0.1,0.1,0.1,0.1,0.2,0.2c0.1,0.1,0.1,0.1,0.1,0.2c0,0.1,0.1,0.2,0.1,0.2c0,0.1,0,0.2,0.1,0.3
						c0,0,0,0,0,0c0,0,0,0,0,0c0-0.1,0-0.2,0-0.3c0-0.1-0.1-0.2-0.1-0.3C7.5,10.4,7.4,10.3,7.2,10.2C7.3,10.2,7.2,10.2,7.2,10.2
						C7.2,10.2,7.2,10.2,7.2,10.2z"/>
				</g>
				<g class="st22">
					<path class="st23" d="M6.6,10c0,0.1,0.1,0.3,0.1,0.4c0.1,0.1,0.1,0.3,0.2,0.4C7,10.9,7.2,11,7.3,11.1c0.1,0,0.1,0.1,0.2,0.1
						c0.1,0,0.1,0.1,0.2,0.1c0,0,0,0,0,0c0,0,0,0,0,0l0,0c0,0-0.1,0-0.1-0.1c0,0-0.1,0-0.1-0.1c-0.1,0-0.1-0.1-0.2-0.1
						c-0.1-0.1-0.2-0.2-0.3-0.3c-0.1-0.1-0.2-0.2-0.2-0.4C6.7,10.2,6.6,10.1,6.6,10C6.6,10,6.6,10,6.6,10C6.6,10,6.6,10,6.6,10z"/>
				</g>
				<g class="st22">
					<path class="st23" d="M2.5,13.5c0.3-0.1,0.6-0.2,0.8-0.3c0.3-0.1,0.6-0.2,0.9-0.3c0.3-0.1,0.6-0.2,0.9-0.2c0.1,0,0.3,0,0.4,0
						c0.1,0,0.1,0,0.2,0c0.1,0,0.1,0.1,0.2,0.1c0,0,0,0,0,0c0,0,0,0,0,0c0-0.1-0.1-0.1-0.2-0.1c-0.1,0-0.1,0-0.2-0.1
						c-0.2,0-0.3,0-0.5,0c-0.3,0-0.6,0.1-0.9,0.2c-0.3,0.1-0.6,0.2-0.9,0.3C3.1,13.2,2.8,13.4,2.5,13.5C2.5,13.5,2.5,13.5,2.5,13.5
						C2.5,13.5,2.5,13.5,2.5,13.5z"/>
					<path class="st23" d="M3.1,13.6c0.1-0.1,0.2-0.2,0.3-0.2c0,0,0.1-0.1,0.1-0.1c0,0,0.1-0.1,0.1-0.2c0,0,0,0,0,0c0,0,0,0,0,0
						c0,0-0.1,0.1-0.1,0.1c0,0-0.1,0.1-0.1,0.1C3.3,13.4,3.2,13.5,3.1,13.6C3.1,13.6,3.1,13.6,3.1,13.6C3.1,13.6,3.1,13.6,3.1,13.6z
						"/>
					<path class="st23" d="M3.2,12.7c0.1,0,0.2,0,0.3,0c0.1,0,0.2,0,0.3,0c0.1,0,0.2,0,0.3,0c0.1,0,0.2,0.1,0.2,0.1c0,0,0,0,0,0
						c0,0,0,0,0,0c0,0,0-0.1-0.1-0.1c0,0-0.1,0-0.1-0.1c-0.1,0-0.2,0-0.3,0C3.6,12.6,3.4,12.7,3.2,12.7C3.2,12.7,3.2,12.7,3.2,12.7
						C3.2,12.7,3.2,12.7,3.2,12.7z"/>
					<path class="st23" d="M4,13.6c0.2-0.1,0.4-0.2,0.6-0.4c0.1-0.1,0.2-0.1,0.3-0.2c0,0,0.1-0.1,0.1-0.2c0-0.1,0-0.1,0-0.2
						c0,0,0,0,0,0c0,0,0,0,0,0c0,0.1,0,0.1-0.1,0.2c0,0-0.1,0.1-0.1,0.1c-0.1,0.1-0.2,0.2-0.3,0.2c-0.1,0.1-0.2,0.1-0.3,0.2
						C4.2,13.5,4.1,13.5,4,13.6C4,13.6,4,13.6,4,13.6C4,13.6,4,13.6,4,13.6z"/>
					<path class="st23" d="M4.4,12.3c0.1,0,0.2,0,0.3,0c0.1,0,0.2,0,0.3,0c0.1,0,0.2,0.1,0.3,0.1c0.1,0,0.2,0.1,0.2,0.2c0,0,0,0,0,0
						c0,0,0,0,0,0c0,0,0-0.1-0.1-0.1c0,0-0.1-0.1-0.1-0.1c-0.1-0.1-0.2-0.1-0.3-0.1C4.8,12.3,4.6,12.3,4.4,12.3
						C4.4,12.3,4.4,12.3,4.4,12.3C4.4,12.3,4.4,12.3,4.4,12.3z"/>
				</g>
				<g class="st27">
					<path class="st23" d="M5.4,16.8c0.2-0.3,0.4-0.7,0.7-1c0.2-0.3,0.5-0.7,0.7-1c0.1-0.2,0.3-0.3,0.4-0.5c0.1-0.2,0.3-0.3,0.4-0.4
						c0.1-0.1,0.3-0.3,0.4-0.4c0.1-0.1,0.2-0.1,0.2-0.2c0,0,0.1-0.1,0.1-0.1c0,0,0.1,0,0.1-0.1c0,0,0,0,0,0c0,0,0,0,0,0
						c-0.2,0.1-0.4,0.2-0.5,0.3c-0.2,0.1-0.3,0.3-0.5,0.4c-0.3,0.3-0.5,0.6-0.8,0.9c-0.2,0.3-0.5,0.6-0.7,1
						C5.8,16.2,5.6,16.5,5.4,16.8C5.4,16.8,5.4,16.8,5.4,16.8C5.4,16.8,5.4,16.8,5.4,16.8z"/>
					<path class="st23" d="M5.2,16.3c0.1-0.1,0.2-0.2,0.2-0.2c0.1-0.1,0.2-0.2,0.3-0.2c0.1-0.1,0.2-0.1,0.3-0.2c0,0,0.1-0.1,0.2-0.1
						c0.1,0,0.1,0,0.2,0c0,0,0,0,0,0c0,0,0,0,0,0c0,0-0.1,0-0.1,0c0,0-0.1,0-0.1,0c-0.1,0-0.1,0-0.2,0.1c-0.1,0.1-0.2,0.1-0.3,0.2
						C5.5,16,5.3,16.1,5.2,16.3C5.1,16.3,5.1,16.3,5.2,16.3C5.2,16.3,5.2,16.3,5.2,16.3z"/>
					<path class="st23" d="M5.9,16.1C6,16.1,6,16.2,6,16.3c0,0.1,0,0.1,0,0.2c0,0.1,0,0.1-0.1,0.2c0,0,0,0.1-0.1,0.1c0,0,0,0,0,0
						c0,0,0,0,0,0l0,0c0,0,0,0,0,0c0,0,0,0,0,0c0,0,0.1,0,0.1-0.1c0,0,0-0.1,0.1-0.1c0-0.1,0.1-0.1,0.1-0.2c0-0.1,0-0.1,0-0.2
						C6,16.2,6,16.1,5.9,16.1C5.9,16.1,5.9,16.1,5.9,16.1C5.9,16.1,5.9,16.1,5.9,16.1z"/>
					<path class="st23" d="M5.6,14.9c0.1-0.1,0.2-0.1,0.4-0.2c0.1-0.1,0.2-0.1,0.4-0.2c0.1,0,0.3-0.1,0.4-0.1c0.1,0,0.3,0,0.4,0
						c0,0,0,0,0,0c0,0,0,0,0,0c-0.1,0-0.3,0-0.4,0c-0.1,0-0.3,0.1-0.4,0.1c-0.1,0-0.2,0.1-0.4,0.2C5.8,14.8,5.7,14.8,5.6,14.9
						C5.6,14.9,5.6,14.9,5.6,14.9C5.6,14.9,5.6,14.9,5.6,14.9z"/>
					<path class="st23" d="M6.8,14.9C6.9,15,7,15.1,7,15.2C7,15.3,7,15.4,7,15.5c0,0.1,0,0.1,0,0.2c0,0,0,0.1,0,0.1c0,0,0,0.1,0,0.1
						C7,15.9,7,16,7,16c0,0.1,0,0.1,0,0.2c0,0,0,0,0,0c0,0,0,0,0,0c0-0.1,0-0.1,0.1-0.2C7,16,7,15.9,7,15.9c0-0.1,0-0.1,0-0.2
						c0-0.1,0-0.1,0-0.2c0-0.1,0-0.2-0.1-0.3C7,15.1,6.9,15,6.8,14.9C6.8,14.9,6.8,14.9,6.8,14.9C6.8,14.9,6.8,14.9,6.8,14.9
						L6.8,14.9z"/>
					<path class="st23" d="M6.6,13.7c0.1-0.1,0.2-0.1,0.3-0.2c0.1,0,0.2-0.1,0.3-0.1c0.1,0,0.2,0,0.3,0c0.1,0,0.2,0,0.3,0.1
						c0,0,0,0,0,0c0,0,0,0,0,0c0,0-0.1-0.1-0.1-0.1c0,0-0.1,0-0.2,0c-0.1,0-0.2,0-0.3,0.1c-0.1,0-0.2,0.1-0.3,0.1
						C6.8,13.6,6.7,13.6,6.6,13.7C6.6,13.7,6.6,13.7,6.6,13.7C6.6,13.7,6.6,13.7,6.6,13.7z"/>
					<path class="st23" d="M7.7,13.8c0.1,0.1,0.1,0.2,0.1,0.3c0,0.1,0,0.2,0,0.3c0,0.1-0.1,0.2-0.1,0.3c0,0.1-0.1,0.2-0.2,0.3
						c0,0,0,0,0,0c0,0,0,0,0,0c0.1-0.1,0.1-0.2,0.2-0.3c0.1-0.1,0.1-0.2,0.1-0.3c0-0.1,0-0.2,0-0.3C7.9,14,7.8,13.9,7.7,13.8
						C7.7,13.8,7.7,13.8,7.7,13.8C7.7,13.8,7.7,13.8,7.7,13.8z"/>
					<path class="st23" d="M7.9,15.3C7.9,15.1,8,15,8,14.9c0-0.1,0-0.1,0-0.2c0-0.1-0.1-0.1-0.1-0.1c0,0,0,0,0,0c0,0,0,0,0,0
						c0,0,0,0,0.1,0.1c0,0,0,0.1,0,0.1c0,0.1,0,0.1,0,0.2c0,0.1,0,0.1,0,0.2C7.9,15.1,7.9,15.2,7.9,15.3C7.9,15.3,7.9,15.3,7.9,15.3
						C7.9,15.3,7.9,15.3,7.9,15.3z"/>
					<path class="st23" d="M7.1,15.3c0.1,0,0.1,0.1,0.2,0.1c0.1,0,0.1,0.1,0.2,0.1c0,0,0.1,0.1,0.1,0.2c0,0.1,0,0.1,0,0.2
						c0,0,0,0,0,0c0,0,0,0,0,0c0-0.1,0-0.1,0-0.2c0-0.1-0.1-0.1-0.1-0.2c-0.1,0-0.1-0.1-0.2-0.1C7.2,15.3,7.1,15.3,7.1,15.3
						C7.1,15.3,7.1,15.3,7.1,15.3C7.1,15.3,7.1,15.3,7.1,15.3z"/>
					<path class="st23" d="M6.7,13.9c0.2-0.1,0.5-0.2,0.7-0.3c0.1,0,0.3-0.1,0.4-0.1c0.1,0,0.3-0.1,0.4-0.1c0,0,0,0,0,0c0,0,0,0,0,0
						c-0.1,0-0.3,0-0.4,0.1c-0.1,0-0.3,0.1-0.4,0.1C7.2,13.7,7,13.8,6.7,13.9C6.7,13.9,6.7,13.9,6.7,13.9
						C6.7,13.9,6.7,13.9,6.7,13.9z"/>
				</g>
				<g class="st22">
					<path class="st23" d="M3.6,15.1c0.2-0.1,0.5-0.1,0.7-0.2c0.1,0,0.2-0.1,0.3-0.2c0,0,0.1-0.1,0.1-0.1c0,0,0.1-0.1,0.1-0.2
						c0,0,0,0,0,0c0,0,0,0,0,0c0,0.1-0.1,0.2-0.2,0.3c-0.1,0.1-0.2,0.1-0.3,0.2C4.2,14.9,4.1,15,4,15C3.9,15.1,3.7,15.1,3.6,15.1
						C3.6,15.1,3.6,15.1,3.6,15.1C3.6,15.1,3.6,15.1,3.6,15.1z"/>
				</g>
				<g class="st22">
					<path class="st23" d="M2.1,14.7c0.1-0.1,0.3-0.1,0.4-0.1c0.1,0,0.3-0.1,0.4-0.1c0.1,0,0.3-0.1,0.4-0.1c0.1,0,0.1,0,0.2,0
						c0.1,0,0.1,0,0.2,0.1c0,0,0,0,0,0c0,0,0,0,0,0c-0.1-0.1-0.1-0.1-0.2-0.1c-0.1,0-0.2,0-0.2,0c-0.2,0-0.3,0-0.4,0.1
						C2.6,14.5,2.3,14.6,2.1,14.7C2.1,14.7,2.1,14.7,2.1,14.7C2.1,14.7,2.1,14.7,2.1,14.7z"/>
				</g>
				<g class="st22">
					<path class="st23" d="M1.6,16.1C1.8,16,2,15.9,2.2,15.8c0.1-0.1,0.2-0.1,0.3-0.2c0,0,0.1-0.1,0.1-0.1c0,0,0.1-0.1,0.1-0.2
						c0,0,0,0,0,0c0,0,0,0,0,0l0,0c0,0.1-0.1,0.1-0.1,0.1c0,0-0.1,0.1-0.1,0.1c-0.1,0.1-0.2,0.1-0.3,0.2C2.1,15.8,2,15.9,1.9,16
						C1.8,16,1.7,16.1,1.6,16.1C1.6,16.1,1.6,16.1,1.6,16.1C1.6,16.1,1.6,16.1,1.6,16.1z"/>
				</g>
				<g class="st22">
					<path class="st23" d="M3.7,11.6c0.1,0,0.2,0,0.3,0c0.1,0,0.2,0,0.3,0c0.1,0,0.2,0,0.3,0c0,0,0.1,0,0.1,0c0,0,0.1,0,0.1,0.1l0,0
						c0,0,0,0,0,0c0,0,0,0,0,0c0,0-0.1-0.1-0.1-0.1c0,0-0.1,0-0.2,0c-0.1,0-0.2,0-0.3,0C4.1,11.5,3.9,11.6,3.7,11.6
						C3.7,11.6,3.7,11.6,3.7,11.6C3.7,11.6,3.7,11.6,3.7,11.6z"/>
				</g>
				<g>
					<path class="st23" d="M13,10.9c0,0.2,0,0.3,0.1,0.5c0,0.2,0.1,0.3,0.2,0.4c0.1,0.1,0.2,0.3,0.3,0.4c0.1,0.1,0.1,0.1,0.2,0.1
						c0.1,0,0.1,0.1,0.2,0.1c0,0,0,0,0,0c0,0,0,0,0,0c-0.1,0-0.1-0.1-0.2-0.1c-0.1,0-0.1-0.1-0.2-0.2c-0.1-0.1-0.2-0.2-0.3-0.4
						c-0.1-0.1-0.1-0.3-0.2-0.4C13,11.2,13,11,13,10.9C13,10.9,13,10.9,13,10.9C13,10.9,13,10.9,13,10.9z"/>
				</g>
			</g>
			<g>
				<path class="st0" d="M13.2,16.1c0.2-0.1,0.4-0.2,0.5-0.4c0.2-0.1,0.4-0.2,0.6-0.3c0.2-0.1,0.4-0.2,0.6-0.3
					c0.2-0.1,0.4-0.2,0.6-0.3l0,0c0,0,0.1-0.1,0-0.1c0,0-0.1-0.1-0.1,0c0,0,0,0,0,0c-0.2,0.1-0.4,0.2-0.6,0.3
					c-0.2,0.1-0.4,0.2-0.6,0.3c-0.2,0.1-0.4,0.2-0.5,0.4C13.5,15.8,13.4,15.9,13.2,16.1z"/>
				<g>
					<path class="st0" d="M17.7,10.6C17.7,10.6,17.7,10.6,17.7,10.6c-0.1,0-0.1,0-0.1,0.1c-0.2,1.3-1.5,3-1.5,3c0,0,0,0.1,0,0.1
						c0,0,0.1,0,0.1,0C16.3,13.7,17.5,12.1,17.7,10.6C17.8,10.7,17.7,10.6,17.7,10.6z"/>
				</g>
				<path class="st0" d="M13,17.6c0-0.1,0.1-0.2,0.1-0.4c0.1-0.1,0.1-0.2,0.2-0.4c0.1-0.1,0.1-0.2,0.2-0.3c0.1-0.1,0.2-0.2,0.3-0.3
					c-0.1,0.1-0.2,0.2-0.3,0.3c-0.1,0.1-0.2,0.2-0.2,0.3c-0.1,0.1-0.1,0.2-0.2,0.4c-0.1,0.1-0.1,0.2-0.2,0.4c0,0,0,0.1,0,0.1
					C13,17.6,13,17.6,13,17.6C13,17.6,13,17.6,13,17.6L13,17.6z"/>
				<path class="st0" d="M12.1,18.4c0.1-0.1,0.1-0.2,0.2-0.3c0.1-0.1,0.2-0.2,0.2-0.3c0.1-0.1,0.2-0.2,0.3-0.3
					c0.1-0.1,0.2-0.2,0.3-0.2c-0.1,0-0.2,0.1-0.4,0.2c-0.1,0.1-0.2,0.2-0.3,0.3c-0.1,0.1-0.2,0.2-0.3,0.3c-0.1,0.1-0.2,0.2-0.2,0.3
					c0,0,0,0.1,0,0.1C12,18.5,12,18.5,12.1,18.4C12.1,18.4,12.1,18.4,12.1,18.4L12.1,18.4z"/>
				<path class="st0" d="M12,17.7c0,0.1-0.1,0.2-0.1,0.4c-0.1,0.1-0.1,0.2-0.2,0.4c-0.1,0.1-0.1,0.2-0.2,0.3
					c-0.1,0.1-0.2,0.2-0.3,0.3c0.1-0.1,0.2-0.2,0.3-0.3c0.1-0.1,0.2-0.2,0.2-0.3c0.1-0.1,0.1-0.2,0.2-0.4c0.1-0.1,0.1-0.2,0.2-0.4
					c0,0,0-0.1,0-0.1C12,17.7,12,17.7,12,17.7C12,17.7,12,17.7,12,17.7L12,17.7z"/>
				<path class="st0" d="M17.3,9.4c0-0.1,0.1-0.1,0.1-0.2c0-0.1,0.1-0.1,0.2-0.2C17.7,9,17.8,9,17.8,8.9c0,0,0,0,0,0c0,0,0,0,0,0
					c0,0,0.1-0.1,0.1-0.1l0,0c0,0,0,0,0,0c0,0,0,0,0,0c0,0,0,0-0.1,0c0,0,0,0-0.1,0c0,0,0,0-0.1,0c0,0,0,0-0.1,0
					c0,0-0.1,0.1-0.1,0.1c0,0-0.1,0.1-0.1,0.1c0,0-0.1,0.1-0.1,0.1l0,0.1c0,0,0,0,0,0.1C17.4,9.3,17.3,9.4,17.3,9.4
					C17.3,9.4,17.3,9.5,17.3,9.4C17.3,9.5,17.3,9.5,17.3,9.4L17.3,9.4z"/>
				<path class="st0" d="M17.8,8.8c0.1,0,0.2-0.1,0.2-0.1c0,0,0,0,0.1,0l0.1,0c0,0,0.1-0.1,0.1-0.1c0,0,0.1-0.1,0.1-0.1
					c0,0,0.1-0.1,0.1-0.1c0,0,0,0,0-0.1c0,0,0,0,0-0.1c0,0,0,0,0-0.1c0,0,0,0,0-0.1c0,0,0,0,0,0c0,0,0,0,0,0l0,0
					c0,0-0.1,0.1-0.1,0.1c0,0,0,0,0,0c0,0,0,0,0,0c-0.1,0.1-0.1,0.1-0.1,0.2c-0.1,0.1-0.1,0.1-0.2,0.2C18,8.7,17.9,8.8,17.8,8.8
					L17.8,8.8C17.8,8.8,17.8,8.8,17.8,8.8C17.8,8.8,17.8,8.8,17.8,8.8z"/>
				<path class="st0" d="M15.3,7.8c0.1,0,0.2,0,0.3,0c0,0,0.1,0,0.1,0l0.1,0c0,0,0,0,0.1,0c0,0,0,0,0.1,0c0,0,0,0,0.1,0
					c0,0,0,0,0.1,0c0,0,0,0,0.1,0c0,0,0.1,0,0.1,0.1c0,0,0.1,0,0.1,0.1l0,0c0,0,0,0,0,0c0,0,0,0,0,0c0-0.1-0.1-0.2-0.2-0.2
					c-0.1-0.1-0.2-0.1-0.3-0.1c-0.1,0-0.2,0-0.3,0C15.4,7.7,15.3,7.7,15.3,7.8C15.2,7.8,15.2,7.8,15.3,7.8
					C15.2,7.8,15.2,7.8,15.3,7.8L15.3,7.8z"/>
				<path class="st0" d="M19,6.8c0,0,0.8-1.4,1-2.4l0.6-0.5C20.5,3.8,19.8,6.4,19,6.8z"/>
				<path class="st0" d="M20.5,3.9c-0.1,0.3-0.2,0.5-0.3,0.8c-0.1,0.3-0.2,0.5-0.3,0.8c-0.1,0.1-0.1,0.2-0.2,0.4
					c-0.1,0.1-0.1,0.2-0.2,0.3c0,0,0,0,0,0c0,0,0,0,0,0c0,0-0.1,0.1-0.1,0.1c0,0.1-0.1,0.1-0.1,0.2C19,6.6,19,6.8,18.9,6.9
					c-0.3,0.5-0.5,1-0.8,1.5C18,8.5,18,8.6,17.9,8.8c-0.1,0.1-0.1,0.3-0.1,0.4c0,0.1,0,0.1-0.1,0.2c0,0,0,0.1,0,0.1c0,0,0,0.1,0,0.1
					c0,0.1,0,0.3,0,0.4c0,0.3-0.1,0.6-0.1,0.8c-0.1,0.3-0.1,0.5-0.2,0.8c-0.1,0.3-0.2,0.5-0.3,0.8c-0.1,0.2-0.3,0.5-0.4,0.7
					c-0.1,0.1-0.2,0.2-0.3,0.3c-0.1,0.1-0.2,0.2-0.3,0.3c0,0.1-0.1,0.1-0.1,0.2c0,0.1-0.1,0.1-0.1,0.2c-0.1,0.1-0.1,0.2-0.2,0.4
					c-0.3,0.5-0.4,1-0.6,1.6c0,0,0,0,0,0c0,0,0,0,0,0c0.1-0.3,0.2-0.5,0.3-0.8l0.1-0.2c0-0.1,0.1-0.1,0.1-0.2
					c0.1-0.1,0.1-0.3,0.2-0.4c0.1-0.2,0.3-0.5,0.5-0.7c0.1-0.1,0.2-0.2,0.3-0.3c0.1-0.1,0.2-0.2,0.3-0.3c0.2-0.2,0.3-0.5,0.5-0.7
					c0.1-0.3,0.2-0.5,0.3-0.8c0.1-0.3,0.2-0.5,0.2-0.8c0.1-0.3,0.1-0.6,0.1-0.8c0-0.1,0-0.3,0-0.4c0,0,0-0.1,0-0.1c0,0,0-0.1,0-0.1
					c0-0.1,0-0.1,0-0.2c0.1-0.3,0.2-0.5,0.3-0.8c0.1-0.3,0.2-0.5,0.4-0.8c0.1-0.2,0.3-0.5,0.4-0.7c0.1-0.1,0.1-0.2,0.2-0.4
					c0-0.1,0.1-0.1,0.1-0.2c0,0,0-0.1,0.1-0.1c0,0,0,0,0,0c0,0,0,0,0,0c0.1-0.1,0.2-0.2,0.2-0.4c0.1-0.1,0.1-0.3,0.2-0.4
					C20.1,5,20.3,4.5,20.5,3.9C20.5,3.9,20.5,3.9,20.5,3.9C20.5,3.9,20.5,3.9,20.5,3.9z"/>
				
					<linearGradient id="SVGID_24_" gradientUnits="userSpaceOnUse" x1="-7379.4023" y1="-2660.5603" x2="-7380.5049" y2="-2656.0076" gradientTransform="matrix(0.8204 0.5718 0.5718 -0.8204 7588.9126 2056.4155)">
					<stop  offset="0" style="stop-color:#B6D33D"/>
					<stop  offset="0.2784" style="stop-color:#5CA605"/>
					<stop  offset="1" style="stop-color:#265502"/>
				</linearGradient>
				<path class="st28" d="M14,19.4c0,0-1.7-3.1,0.7-4c0,0,0.3-0.2,0.5-0.1c0.2,0.1,0.9,1.5,0.2,2.5C14.6,18.8,14.3,18.9,14,19.4z"/>
				
					<linearGradient id="SVGID_25_" gradientUnits="userSpaceOnUse" x1="-7381.3306" y1="-2662.4258" x2="-7381.2837" y2="-2660.0554" gradientTransform="matrix(0.8204 0.5718 0.5718 -0.8204 7588.9126 2056.4155)">
					<stop  offset="0" style="stop-color:#B6D33D"/>
					<stop  offset="0.2784" style="stop-color:#5CA605"/>
					<stop  offset="1" style="stop-color:#265502"/>
				</linearGradient>
				<path class="st29" d="M11.1,19.7c0,0,0.4-0.3,0.5-0.8c0.1-0.4,0.4-0.7,0.5-0.7C12.3,18.3,11.8,19.6,11.1,19.7z"/>
				
					<linearGradient id="SVGID_26_" gradientUnits="userSpaceOnUse" x1="-7382.0034" y1="-2662.853" x2="-7381.4282" y2="-2660.905" gradientTransform="matrix(0.8204 0.5718 0.5718 -0.8204 7588.9126 2056.4155)">
					<stop  offset="0" style="stop-color:#B6D33D"/>
					<stop  offset="0.2784" style="stop-color:#5CA605"/>
					<stop  offset="1" style="stop-color:#265502"/>
				</linearGradient>
				<path class="st30" d="M10.4,19.7c0,0,0.5-0.7,1.1-1C11.5,18.7,11.3,19.5,10.4,19.7z"/>
				
					<linearGradient id="SVGID_27_" gradientUnits="userSpaceOnUse" x1="-7382.3477" y1="-2661.7356" x2="-7381.2563" y2="-2658.978" gradientTransform="matrix(0.8204 0.5718 0.5718 -0.8204 7588.9126 2056.4155)">
					<stop  offset="0" style="stop-color:#B6D33D"/>
					<stop  offset="0.2784" style="stop-color:#5CA605"/>
					<stop  offset="1" style="stop-color:#265502"/>
				</linearGradient>
				<path class="st31" d="M11,18.7c0,0,1.5-0.8,1.8-1.2c0.3-0.4,0,0,0,0s-0.8,0.2-1,0.4C11.5,18,11.2,18.3,11,18.7z"/>
				
					<linearGradient id="SVGID_28_" gradientUnits="userSpaceOnUse" x1="-7380.979" y1="-2660.8755" x2="-7381.0967" y2="-2658.6343" gradientTransform="matrix(0.8204 0.5718 0.5718 -0.8204 7588.9126 2056.4155)">
					<stop  offset="0" style="stop-color:#B6D33D"/>
					<stop  offset="0.2784" style="stop-color:#5CA605"/>
					<stop  offset="1" style="stop-color:#265502"/>
				</linearGradient>
				<path class="st32" d="M12.2,18.5c0,0,0.4-1.3,0.8-1.2C13.6,17.4,12.7,18.5,12.2,18.5z"/>
				
					<linearGradient id="SVGID_29_" gradientUnits="userSpaceOnUse" x1="-7378.4985" y1="-2657.2402" x2="-7380.5171" y2="-2653.7905" gradientTransform="matrix(0.8204 0.5718 0.5718 -0.8204 7588.9126 2056.4155)">
					<stop  offset="0" style="stop-color:#B6D33D"/>
					<stop  offset="0.2784" style="stop-color:#5CA605"/>
					<stop  offset="1" style="stop-color:#265502"/>
				</linearGradient>
				<path class="st33" d="M16.4,13.5c0,0-0.2,0.3-0.3,0.5c-0.1,0.2-0.6,0.8,0,1.8c0,0,0.5,0.5,0.4,0.6c-0.1,0.1,1.2-0.9,0-2.4
					C16.4,14.1,16.3,14.1,16.4,13.5z"/>
				
					<linearGradient id="SVGID_30_" gradientUnits="userSpaceOnUse" x1="-7380.3042" y1="-2652.8545" x2="-7378.2217" y2="-2652.8545" gradientTransform="matrix(0.8204 0.5718 0.5718 -0.8204 7588.9126 2056.4155)">
					<stop  offset="0" style="stop-color:#B6D33D"/>
					<stop  offset="0.2784" style="stop-color:#5CA605"/>
					<stop  offset="1" style="stop-color:#265502"/>
				</linearGradient>
				<path class="st34" d="M17.3,12.7c0,0-0.1,0.8,0.8,1c0.9,0.2,1.1-0.1,1.1-0.1s-0.3,0-0.5,0C18.4,13.6,18,12.7,17.3,12.7z"/>
				
					<linearGradient id="SVGID_31_" gradientUnits="userSpaceOnUse" x1="-7929.2222" y1="-5178.7603" x2="-7928.1206" y2="-5178.7603" gradientTransform="matrix(0.8772 0.4802 0.4802 -0.8772 9458.5713 -725.4385)">
					<stop  offset="0" style="stop-color:#B6D33D"/>
					<stop  offset="0.2784" style="stop-color:#5CA605"/>
					<stop  offset="1" style="stop-color:#265502"/>
				</linearGradient>
				<path class="st35" d="M15.7,10.7c0,0,0.3,0,0.5-0.6c0.2-0.6,1.3-0.9,1.3-0.9S17.7,11,15.7,10.7z"/>
				
					<linearGradient id="SVGID_32_" gradientUnits="userSpaceOnUse" x1="-8228.9814" y1="-4715.6338" x2="-8225.9814" y2="-4715.6338" gradientTransform="matrix(0.9044 0.4267 0.4267 -0.9044 9468.1094 -744.807)">
					<stop  offset="0" style="stop-color:#B6D33D"/>
					<stop  offset="0.2784" style="stop-color:#5CA605"/>
					<stop  offset="1" style="stop-color:#265502"/>
				</linearGradient>
				<path class="st36" d="M17,8.6c0,0-0.1,0-0.3,0.4c-0.2,0.4-0.3,1.6-2.4,1.3c0,0-0.8-0.2-1.2-0.2c-0.4,0,0.1,0,0.3-0.5
					c0.2-0.4,1.3-2.5,3.3-1.1C16.8,8.5,16.8,8.6,17,8.6z"/>
				
					<linearGradient id="SVGID_33_" gradientUnits="userSpaceOnUse" x1="-7933.584" y1="-5177.3389" x2="-7930.7378" y2="-5177.3389" gradientTransform="matrix(0.8772 0.4802 0.4802 -0.8772 9458.5713 -725.4385)">
					<stop  offset="0" style="stop-color:#B6D33D"/>
					<stop  offset="0.2784" style="stop-color:#5CA605"/>
					<stop  offset="1" style="stop-color:#265502"/>
				</linearGradient>
				<path class="st37" d="M13.1,6.3c0,0,0.8,2.2,2.4,1.5c0,0-0.4-1.5-1.8-1.4C13.7,6.4,13.4,6.4,13.1,6.3z"/>
				
					<linearGradient id="SVGID_34_" gradientUnits="userSpaceOnUse" x1="-7931.9136" y1="-5176.2656" x2="-7928.1235" y2="-5176.2656" gradientTransform="matrix(0.8772 0.4802 0.4802 -0.8772 9458.5713 -725.4385)">
					<stop  offset="0" style="stop-color:#B6D33D"/>
					<stop  offset="0.2784" style="stop-color:#5CA605"/>
					<stop  offset="1" style="stop-color:#265502"/>
				</linearGradient>
				<path class="st38" d="M18,8.7c0,0-1.5,0.2-2.2-1.1c-0.7-1.3-0.2-2.4-0.2-2.4s0,0.5,0.8,0.7S18.2,7.1,18,8.7z"/>
				
					<linearGradient id="SVGID_35_" gradientUnits="userSpaceOnUse" x1="-7376.5244" y1="-2652.5759" x2="-7382.0156" y2="-2649.9475" gradientTransform="matrix(0.8204 0.5718 0.5718 -0.8204 7588.9126 2056.4155)">
					<stop  offset="0" style="stop-color:#B6D33D"/>
					<stop  offset="0.2784" style="stop-color:#5CA605"/>
					<stop  offset="1" style="stop-color:#265502"/>
				</linearGradient>
				<path class="st39" d="M17.8,9.7c0,0-1.1,2.8,1.9,3.5c0,0,0.3,0.1,0.4,0.2c0,0.2,0,0.1,0-0.5c-0.1-0.5,0.1-1.1-0.4-1.9
					C19,10.4,17.8,9.7,17.8,9.7z"/>
				
					<linearGradient id="SVGID_36_" gradientUnits="userSpaceOnUse" x1="-7377.3511" y1="-2653.3271" x2="-7380.6055" y2="-2654.2034" gradientTransform="matrix(0.8204 0.5718 0.5718 -0.8204 7588.9126 2056.4155)">
					<stop  offset="0" style="stop-color:#B6D33D"/>
					<stop  offset="0.2784" style="stop-color:#5CA605"/>
					<stop  offset="1" style="stop-color:#265502"/>
				</linearGradient>
				<path class="st40" d="M16.5,13.4c0,0-0.2,0.6,0.5,1.1c0.7,0.5,1.6,0,1.6-0.2c0,0,0-0.1-0.2,0c-0.2,0.1-0.5-0.5-0.9-0.7
					C17.1,13.4,16.7,13.4,16.5,13.4z"/>
				
					<linearGradient id="SVGID_37_" gradientUnits="userSpaceOnUse" x1="-7926.3755" y1="-5182.2939" x2="-7924.6431" y2="-5182.2939" gradientTransform="matrix(0.8772 0.4802 0.4802 -0.8772 9458.5713 -725.4385)">
					<stop  offset="0" style="stop-color:#B6D33D"/>
					<stop  offset="0.2784" style="stop-color:#5CA605"/>
					<stop  offset="1" style="stop-color:#265502"/>
				</linearGradient>
				<path class="st41" d="M16.9,14.7c0.1,0.1,0.3,0.2,0.4,0.2c0.1,0,0.1,0.1,0.2,0.1c0.1,0,0.2,0,0.2,0c0.1,0,0.2,0,0.2,0
					c0.1,0,0.2,0,0.2-0.1c0.1,0,0.2-0.1,0.2-0.1c0.1-0.1,0.1-0.1,0.1-0.2c0,0,0,0,0,0c0,0,0,0,0,0l0,0c-0.1,0-0.1,0.1-0.2,0.1
					c-0.1,0-0.1,0-0.2,0.1c-0.1,0-0.1,0-0.2,0c-0.1,0-0.1,0-0.2,0c-0.1,0-0.1,0-0.2,0c-0.1,0-0.1,0-0.2,0
					C17.2,14.7,17.1,14.7,16.9,14.7L16.9,14.7C16.9,14.6,16.9,14.6,16.9,14.7C16.9,14.7,16.9,14.7,16.9,14.7z"/>
				
					<linearGradient id="SVGID_38_" gradientUnits="userSpaceOnUse" x1="-7926.3447" y1="-5182.8242" x2="-7924.6431" y2="-5182.8242" gradientTransform="matrix(0.8772 0.4802 0.4802 -0.8772 9458.5713 -725.4385)">
					<stop  offset="0" style="stop-color:#B6D33D"/>
					<stop  offset="0.2784" style="stop-color:#5CA605"/>
					<stop  offset="1" style="stop-color:#265502"/>
				</linearGradient>
				<path class="st42" d="M16.9,14.7c0.1,0.1,0.2,0.2,0.2,0.3c0,0,0.1,0.1,0.1,0.1c0.1,0,0.1,0.1,0.2,0.1c0.1,0,0.1,0.1,0.2,0.1
					c0.1,0,0.1,0.1,0.2,0.1c0.1,0,0.1,0,0.2,0c0.1,0,0.1-0.1,0.2-0.1c0,0,0,0,0,0c0,0,0,0,0,0l0,0c-0.1,0-0.2,0-0.3-0.1
					c-0.1,0-0.1,0-0.2-0.1c-0.1,0-0.1,0-0.2-0.1c-0.1,0-0.1-0.1-0.2-0.1c-0.1,0-0.1-0.1-0.2-0.1C17.1,14.8,17,14.8,16.9,14.7
					L16.9,14.7C16.9,14.7,16.9,14.7,16.9,14.7C16.9,14.7,16.9,14.7,16.9,14.7z"/>
				
					<linearGradient id="SVGID_39_" gradientUnits="userSpaceOnUse" x1="-7928.5415" y1="-5182.3584" x2="-7927.2402" y2="-5182.3584" gradientTransform="matrix(0.8772 0.4802 0.4802 -0.8772 9458.5713 -725.4385)">
					<stop  offset="0" style="stop-color:#B6D33D"/>
					<stop  offset="0.2784" style="stop-color:#5CA605"/>
					<stop  offset="1" style="stop-color:#265502"/>
				</linearGradient>
				<path class="st43" d="M14.9,13.9c0.1,0,0.2,0,0.2,0c0.1,0,0.2,0,0.2,0c0.1,0,0.2,0,0.2-0.1c0.1,0,0.1-0.1,0.2-0.1
					c0.1,0,0.1-0.1,0.2-0.1c0.1,0,0.1-0.1,0.2-0.1c0.1-0.1,0.1-0.1,0.2-0.2c0-0.1,0.1-0.1,0.1-0.2c0,0,0,0,0,0c0,0,0,0,0,0l0,0
					c-0.1,0.1-0.1,0.1-0.2,0.1c-0.1,0-0.1,0.1-0.2,0.1c-0.1,0-0.1,0.1-0.2,0.1c-0.1,0-0.1,0.1-0.2,0.1c-0.1,0-0.1,0-0.2,0
					c-0.1,0-0.1,0-0.2,0.1c-0.1,0-0.1,0.1-0.2,0.1C15,13.8,14.9,13.9,14.9,13.9L14.9,13.9C14.9,13.9,14.9,13.9,14.9,13.9
					C14.9,13.9,14.9,13.9,14.9,13.9z"/>
				
					<linearGradient id="SVGID_40_" gradientUnits="userSpaceOnUse" x1="-7929.9502" y1="-5182.894" x2="-7928.3506" y2="-5182.894" gradientTransform="matrix(0.8772 0.4802 0.4802 -0.8772 9458.5713 -725.4385)">
					<stop  offset="0" style="stop-color:#B6D33D"/>
					<stop  offset="0.2784" style="stop-color:#5CA605"/>
					<stop  offset="1" style="stop-color:#265502"/>
				</linearGradient>
				<path class="st44" d="M13.5,13.5c0.1,0,0.1,0.1,0.2,0.1c0.1,0,0.1,0,0.2,0c0.1,0,0.1,0,0.2,0c0.1,0,0.1,0,0.2,0
					c0.1,0,0.1,0,0.2,0c0.1,0,0.1,0,0.2,0l0.1,0c0,0,0.1,0,0.1,0c0.1,0,0.1,0,0.2,0l0,0c0,0,0,0,0,0c0,0,0,0,0,0
					c-0.1,0-0.3-0.1-0.4-0.1c-0.1,0-0.1,0-0.2,0c-0.1,0-0.1,0-0.2,0c-0.1,0-0.1,0-0.2,0c-0.1,0-0.1,0-0.2,0c-0.1,0-0.1,0-0.2,0.1
					C13.6,13.4,13.6,13.4,13.5,13.5C13.5,13.4,13.5,13.4,13.5,13.5C13.5,13.5,13.5,13.5,13.5,13.5z"/>
				<path class="st0" d="M18.3,8.5c0.2-0.2,0.3-0.3,0.5-0.5c0.2-0.2,0.3-0.4,0.4-0.6c0.1-0.2,0.3-0.4,0.4-0.6c0-0.1,0.1-0.2,0.1-0.3
					c0-0.1,0-0.3,0-0.4c0,0,0,0-0.1,0c0,0,0,0,0,0.1c0,0,0,0,0,0l0,0c0,0.1,0,0.2,0,0.3c0,0.1,0,0.2-0.1,0.3
					c-0.1,0.2-0.2,0.4-0.3,0.6c-0.1,0.2-0.3,0.4-0.4,0.6C18.6,8.1,18.4,8.3,18.3,8.5z"/>
				<path class="st0" d="M18.3,9.4C18.3,9.4,18.3,9.4,18.3,9.4C18.3,9.4,18.3,9.4,18.3,9.4C18.3,9.4,18.3,9.4,18.3,9.4
					C18.3,9.4,18.3,9.4,18.3,9.4c0-0.1,0-0.1,0-0.1c0,0,0-0.1,0-0.1c0-0.1,0.1-0.1,0.1-0.2c0.1-0.1,0.1-0.3,0.2-0.4
					c0.1-0.3,0.3-0.6,0.5-0.9c0.1-0.1,0.2-0.3,0.2-0.4c0-0.1,0.1-0.1,0.1-0.2c0-0.1,0.1-0.2,0.1-0.2c0-0.1,0-0.2,0.1-0.2
					c0-0.1,0-0.2,0-0.3c0-0.2,0-0.3-0.1-0.5c0,0,0,0,0,0c0,0,0,0,0,0c0,0.2,0,0.3,0,0.5c0,0.2,0,0.3-0.1,0.5c0,0.1-0.1,0.1-0.1,0.2
					l-0.1,0.2l-0.2,0.4c-0.1,0.3-0.3,0.6-0.4,0.9c-0.1,0.1-0.1,0.3-0.2,0.5c0,0.1-0.1,0.2-0.1,0.2c0,0,0,0.1,0,0.1
					C18.3,9.3,18.3,9.3,18.3,9.4C18.3,9.3,18.3,9.4,18.3,9.4C18.3,9.4,18.3,9.4,18.3,9.4C18.3,9.4,18.3,9.4,18.3,9.4
					C18.3,9.4,18.3,9.4,18.3,9.4C18.3,9.4,18.3,9.4,18.3,9.4L18.3,9.4C18.3,9.4,18.3,9.4,18.3,9.4C18.3,9.4,18.3,9.4,18.3,9.4
					C18.3,9.4,18.3,9.4,18.3,9.4z"/>
				<path class="st0" d="M16.2,11.9c0,0,0.1-0.1,0.1-0.1c0,0,0.1-0.1,0.1-0.1c0.1-0.1,0.1-0.1,0.2-0.2c0.1-0.1,0.2-0.3,0.4-0.5
					c0.1-0.1,0.1-0.2,0.2-0.2l0.1-0.1l0.1-0.1l0.3-0.5c0.1-0.2,0.2-0.3,0.3-0.5C18,9.3,18.1,9.2,18.2,9c0.1-0.2,0.2-0.3,0.3-0.5
					c0.1-0.1,0.1-0.2,0.2-0.2c0,0,0.1-0.1,0.1-0.1L18.9,8l0,0c0,0,0,0,0,0c0,0,0,0,0,0c-0.1,0.1-0.3,0.3-0.4,0.5
					c-0.1,0.2-0.2,0.3-0.3,0.5c-0.2,0.3-0.4,0.7-0.6,1l-0.3,0.5c-0.1,0.2-0.2,0.3-0.3,0.5c-0.1,0.2-0.2,0.3-0.3,0.5
					C16.5,11.6,16.4,11.7,16.2,11.9C16.2,11.9,16.2,11.9,16.2,11.9C16.2,11.9,16.2,11.9,16.2,11.9L16.2,11.9z"/>
				<path class="st0" d="M16.9,11.9c0.1-0.1,0.2-0.1,0.3-0.2c0,0,0.1-0.1,0.1-0.2c0-0.1,0.1-0.1,0.1-0.2c0-0.1,0.1-0.1,0.1-0.2
					c0-0.1,0-0.1,0-0.2c0,0,0-0.1-0.1-0.1c0,0-0.1-0.1-0.1-0.1c0,0-0.1,0-0.1,0c0,0,0,0-0.1,0c0,0,0,0,0,0l0,0c0,0,0,0,0,0
					c0,0,0,0,0,0c0,0,0.1,0,0.1,0c0,0,0.1,0,0.1,0c0,0,0.1,0,0.1,0.1c0,0,0,0.1,0,0.1c0,0.1,0,0.1,0,0.2c0,0.1,0,0.1-0.1,0.2
					c-0.1,0.1-0.1,0.2-0.2,0.3C17.1,11.7,17,11.8,16.9,11.9C16.9,11.9,16.9,11.9,16.9,11.9C16.9,11.9,16.9,11.9,16.9,11.9L16.9,11.9
					z"/>
				<path class="st0" d="M16.1,11.3c0.1,0,0.2,0,0.3,0c0.1,0,0.2,0,0.3-0.1c0.1-0.1,0.2-0.1,0.2-0.2c0,0,0.1-0.1,0.1-0.1
					c0,0,0,0,0-0.1c0,0,0,0,0-0.1l0,0c0,0,0,0,0,0c0,0,0,0,0,0c-0.1,0.1-0.1,0.1-0.2,0.2c-0.1,0.1-0.2,0.1-0.2,0.2
					c-0.1,0-0.2,0.1-0.3,0.1C16.3,11.3,16.2,11.3,16.1,11.3C16.1,11.3,16.1,11.3,16.1,11.3C16.1,11.3,16.1,11.3,16.1,11.3L16.1,11.3
					z"/>
				<path class="st0" d="M18.6,7.3c0-0.2,0.1-0.3,0.1-0.4c0-0.1,0.1-0.2,0.1-0.3l0,0c0,0,0,0,0,0c0,0,0,0,0-0.1c0,0,0.1-0.1,0.1-0.1
					c0.1-0.1,0.2-0.1,0.4-0.2l0,0c0,0,0,0,0,0c0,0,0,0,0,0c0,0-0.1,0-0.1,0c0,0-0.1,0-0.1,0c-0.1,0-0.1,0-0.2,0.1
					c-0.1,0.1-0.2,0.2-0.3,0.3c-0.1,0.1-0.1,0.3-0.1,0.4c0,0.1,0,0.1,0,0.2C18.6,7.2,18.6,7.3,18.6,7.3C18.6,7.3,18.6,7.3,18.6,7.3
					C18.6,7.3,18.6,7.3,18.6,7.3L18.6,7.3z"/>
				<path class="st0" d="M14.4,14c0.1-0.1,0.2-0.1,0.3-0.2c0.1-0.1,0.2-0.1,0.3-0.2c0.1-0.1,0.2-0.2,0.2-0.3c0,0,0.1-0.1,0.1-0.1
					c0-0.1,0.1-0.1,0.1-0.2c0,0,0,0,0,0c0,0,0,0,0,0l0,0c-0.1,0.1-0.2,0.2-0.2,0.3c0,0-0.1,0.1-0.1,0.1c0,0-0.1,0.1-0.1,0.1
					c-0.1,0.1-0.2,0.2-0.2,0.2C14.6,13.9,14.5,14,14.4,14C14.4,14,14.4,14,14.4,14C14.4,14,14.4,14,14.4,14z"/>
				<path class="st0" d="M14.2,13.9c0.1,0,0.1-0.1,0.2-0.1c0.1,0,0.1-0.1,0.2-0.1c0.1,0,0.1-0.1,0.2-0.1c0.1,0,0.1-0.1,0.2-0.1
					c0,0,0,0,0,0c0,0,0,0,0,0c-0.1,0-0.2,0-0.2,0.1c-0.1,0-0.1,0.1-0.2,0.1c-0.1,0-0.1,0.1-0.2,0.1C14.3,13.8,14.2,13.8,14.2,13.9
					C14.2,13.9,14.2,13.9,14.2,13.9C14.2,13.9,14.2,13.9,14.2,13.9z"/>
				<g>
					<path class="st0" d="M13.6,14.9C13.6,14.9,13.6,14.9,13.6,14.9C13.6,14.9,13.6,14.9,13.6,14.9c0,0.3-0.8,0.9-0.8,1c0,0,0,0,0,0
						c0,0,0,0,0,0C12.8,15.8,13.6,15.1,13.6,14.9C13.6,14.9,13.6,14.9,13.6,14.9z"/>
				</g>
				<g>
					<path class="st0" d="M13.6,15.1C13.6,15.1,13.5,15.1,13.6,15.1c-0.3,0.2-1.2,0.5-1.3,0.5c0,0,0,0,0,0c0,0,0,0,0,0
						C12.3,15.6,13.3,15.3,13.6,15.1C13.6,15.1,13.6,15.1,13.6,15.1C13.6,15.1,13.6,15.1,13.6,15.1z"/>
				</g>
				
					<linearGradient id="SVGID_41_" gradientUnits="userSpaceOnUse" x1="-7383.6084" y1="-2656.1006" x2="-7380.6792" y2="-2656.1006" gradientTransform="matrix(0.8204 0.5718 0.5718 -0.8204 7588.9126 2056.4155)">
					<stop  offset="0" style="stop-color:#B6D33D"/>
					<stop  offset="0.2784" style="stop-color:#5CA605"/>
					<stop  offset="1" style="stop-color:#265502"/>
				</linearGradient>
				<path class="st45" d="M15.3,14.8c0,0-2.1,1.2-2.6-0.9c0,0-0.2-0.4,0-0.5c0,0,0,0.2,0.2,0.2C13.2,13.6,15,13.6,15.3,14.8z"/>
				
					<linearGradient id="SVGID_42_" gradientUnits="userSpaceOnUse" x1="-7930.853" y1="-5186.1938" x2="-7929.4541" y2="-5186.1938" gradientTransform="matrix(0.8772 0.4802 0.4802 -0.8772 9458.5713 -725.4385)">
					<stop  offset="0" style="stop-color:#B6D33D"/>
					<stop  offset="0.2784" style="stop-color:#5CA605"/>
					<stop  offset="1" style="stop-color:#265502"/>
				</linearGradient>
				<path class="st46" d="M11.1,16.2l0.8-0.3c0.1,0,0.1,0,0.2,0c0.1,0,0.1,0,0.2-0.1c0.1,0,0.1-0.1,0.2-0.1c0.1,0,0.1-0.1,0.2-0.1
					l0,0c0,0,0,0,0,0c0,0,0,0,0,0c-0.1-0.1-0.2-0.1-0.2-0.1c-0.1,0-0.2,0-0.2,0c-0.1,0-0.1,0-0.2,0.1c-0.1,0-0.1,0.1-0.2,0.1
					c-0.1,0.1-0.2,0.2-0.3,0.2C11.3,15.9,11.2,16,11.1,16.2C11.1,16.1,11.1,16.2,11.1,16.2C11.1,16.2,11.1,16.2,11.1,16.2z"/>
				
					<linearGradient id="SVGID_43_" gradientUnits="userSpaceOnUse" x1="-7382.8296" y1="-2660.8501" x2="-7381.5625" y2="-2657.3652" gradientTransform="matrix(0.8204 0.5718 0.5718 -0.8204 7588.9126 2056.4155)">
					<stop  offset="0" style="stop-color:#B6D33D"/>
					<stop  offset="0.2784" style="stop-color:#5CA605"/>
					<stop  offset="1" style="stop-color:#265502"/>
				</linearGradient>
				<path class="st47" d="M11,17.8c0,0,0.4-2.8,2.5-2c0,0-0.1,1.2-1,1.5C11.5,17.6,11.1,17.7,11,17.8z"/>
				
					<linearGradient id="SVGID_44_" gradientUnits="userSpaceOnUse" x1="-7382.9087" y1="-2653.262" x2="-7380.8462" y2="-2653.262" gradientTransform="matrix(0.8204 0.5718 0.5718 -0.8204 7588.9126 2056.4155)">
					<stop  offset="0" style="stop-color:#B6D33D"/>
					<stop  offset="0.2784" style="stop-color:#5CA605"/>
					<stop  offset="1" style="stop-color:#265502"/>
				</linearGradient>
				<path class="st48" d="M13.9,13c0,0,1-1.9,2.8-1.1c0,0,0.5-0.2,0.6-0.5c0.1-0.3,0.2,0-0.5,0.8c0,0-0.1,1.7-2.5,0.9
					C14.3,13.1,14.1,12.9,13.9,13z"/>
				<g class="st22">
					<path class="st23" d="M13.4,6.5c0.1,0.1,0.3,0.3,0.4,0.4c0.1,0.1,0.3,0.3,0.4,0.4c0.2,0.1,0.3,0.2,0.5,0.3
						c0.2,0.1,0.4,0.2,0.5,0.2c0,0,0,0,0,0c0,0,0,0,0,0c-0.2-0.1-0.4-0.1-0.5-0.2c-0.2-0.1-0.3-0.2-0.5-0.3
						c-0.2-0.1-0.3-0.2-0.4-0.4C13.7,6.7,13.5,6.6,13.4,6.5C13.4,6.5,13.4,6.5,13.4,6.5C13.4,6.5,13.4,6.5,13.4,6.5z"/>
					<path class="st23" d="M13.8,7.2c0.1,0,0.2,0.1,0.3,0.1c0.1,0,0.1,0,0.2,0c0,0,0.1,0,0.1,0c0,0,0.1,0,0.1,0c0,0,0,0,0,0
						c0,0,0,0,0,0c-0.1,0-0.1,0-0.2,0c-0.1,0-0.1,0-0.2,0c-0.1,0-0.1,0-0.2,0C13.9,7.3,13.8,7.3,13.8,7.2
						C13.8,7.2,13.8,7.2,13.8,7.2C13.8,7.2,13.8,7.2,13.8,7.2z"/>
					<path class="st23" d="M14.3,7.7c0.1,0,0.2,0,0.3,0c0.1,0,0.1,0,0.2,0c0,0,0.1,0,0.1,0c0,0,0,0,0,0c0,0,0,0,0,0c0,0,0,0,0,0
						c0,0,0,0,0,0c0,0,0,0-0.1,0c0,0,0,0-0.1,0c-0.1,0-0.1,0-0.2,0C14.5,7.7,14.4,7.7,14.3,7.7C14.3,7.7,14.3,7.7,14.3,7.7
						C14.3,7.7,14.3,7.7,14.3,7.7z"/>
					<path class="st23" d="M14.6,7.5c0-0.1,0-0.2,0-0.2c0-0.1-0.1-0.2-0.1-0.2c0-0.1-0.1-0.1-0.2-0.2c0,0,0,0-0.1,0c0,0,0,0-0.1,0
						c0,0,0,0,0,0l0,0c0,0,0,0-0.1,0c0,0,0,0,0,0c0,0,0,0,0,0l0,0c0,0,0,0,0.1,0l0,0c0,0,0,0,0,0c0,0,0,0,0.1,0c0,0,0,0,0,0
						c0.1,0.1,0.1,0.1,0.2,0.2c0,0.1,0.1,0.1,0.1,0.2C14.6,7.3,14.6,7.4,14.6,7.5C14.6,7.5,14.6,7.5,14.6,7.5
						C14.6,7.5,14.6,7.5,14.6,7.5z"/>
					<path class="st23" d="M13.5,6.8c0,0,0.1,0.1,0.1,0.1c0,0,0,0,0.1,0c0,0,0.1,0,0.1,0c0,0,0,0,0,0c0,0,0,0,0,0c0,0,0,0-0.1,0
						c0,0,0,0-0.1,0C13.6,6.9,13.5,6.8,13.5,6.8C13.5,6.8,13.5,6.8,13.5,6.8C13.5,6.8,13.5,6.8,13.5,6.8C13.5,6.8,13.5,6.8,13.5,6.8
						z"/>
				</g>
				<g class="st22">
					<path class="st23" d="M13.5,9.9c0.3-0.1,0.6-0.2,0.9-0.3c0.1,0,0.3-0.1,0.4-0.2c0.1-0.1,0.3-0.1,0.4-0.2
						c0.1-0.1,0.3-0.2,0.4-0.3l0.1-0.1l0,0l0,0c0.1,0,0.1-0.1,0.2-0.1c0.1-0.1,0.3-0.1,0.4-0.1c0.1,0,0.2,0,0.2,0c0.1,0,0.2,0,0.2,0
						c0,0,0,0,0,0c0,0,0,0,0,0c-0.1,0-0.3-0.1-0.5-0.1c-0.2,0-0.3,0-0.4,0.1c-0.1,0-0.1,0.1-0.2,0.1l0,0l0,0L15.5,9
						c-0.1,0.1-0.2,0.2-0.4,0.3c-0.1,0.1-0.3,0.1-0.4,0.2c-0.1,0.1-0.3,0.1-0.4,0.2C14.1,9.7,13.8,9.8,13.5,9.9
						C13.5,9.9,13.5,9.9,13.5,9.9C13.5,9.9,13.5,9.9,13.5,9.9z"/>
					<path class="st23" d="M15.1,10.1c0.1-0.2,0.2-0.4,0.3-0.5c0.1-0.1,0.1-0.2,0.1-0.3c0-0.1,0-0.1,0-0.2c0-0.1,0-0.1,0-0.2
						c0,0,0,0,0,0c0,0,0,0,0,0l0,0c0,0,0,0.1,0,0.1c0,0,0,0,0,0l0,0c0,0.1,0,0.1-0.1,0.2c0,0.1-0.1,0.2-0.1,0.3
						c0,0.1-0.1,0.2-0.2,0.3C15.2,9.9,15.1,10,15.1,10.1C15.1,10.1,15.1,10.1,15.1,10.1C15.1,10.1,15.1,10.1,15.1,10.1z"/>
					<path class="st23" d="M13.9,9.3c0.1,0,0.2,0,0.3-0.1c0.1,0,0.2,0,0.3,0c0.1,0,0.2,0,0.3,0c0.1,0,0.1,0,0.2,0c0,0,0.1,0,0.1,0.1
						c0,0,0,0,0,0c0,0,0,0,0,0c0,0-0.1-0.1-0.1-0.1c-0.1,0-0.1,0-0.2,0c-0.1,0-0.2,0-0.3,0C14.3,9.2,14.1,9.2,13.9,9.3
						C13.9,9.3,13.9,9.3,13.9,9.3C13.9,9.3,13.9,9.3,13.9,9.3z"/>
					<path class="st23" d="M14,10c0.1-0.1,0.3-0.1,0.4-0.2c0.1,0,0.1-0.1,0.2-0.1c0.1-0.1,0.1-0.1,0.1-0.2c0,0,0,0,0,0c0,0,0,0,0,0
						c-0.1,0.1-0.1,0.1-0.2,0.2c-0.1,0.1-0.1,0.1-0.2,0.2c-0.1,0-0.1,0.1-0.2,0.1C14.2,9.9,14.1,10,14,10C14,10,14,10,14,10
						C14,10,14,10,14,10z"/>
					<path class="st23" d="M15.3,8.5c0.1,0,0.1,0,0.2,0c0.1,0,0.1,0,0.2,0c0.1,0,0.1,0,0.2,0c0,0,0.1,0,0.1,0c0,0,0.1,0,0.1,0
						c0,0,0,0,0,0c0,0,0,0,0,0c0,0-0.1,0-0.1-0.1c0,0-0.1,0-0.1,0c-0.1,0-0.2,0-0.2,0C15.6,8.5,15.4,8.5,15.3,8.5
						C15.3,8.5,15.3,8.5,15.3,8.5C15.3,8.5,15.3,8.5,15.3,8.5z"/>
					<path class="st23" d="M15.8,9.7c0.2-0.2,0.3-0.3,0.4-0.5c0.1-0.1,0.1-0.2,0.2-0.3c0-0.1,0.1-0.1,0.1-0.2c0-0.1,0-0.1,0-0.2
						c0,0,0,0,0,0c0,0,0,0,0,0v0c0,0,0,0.1,0,0.1c0,0,0,0,0,0l0,0c0,0.1,0,0.1-0.1,0.2c-0.1,0.1-0.1,0.2-0.2,0.3
						C16.1,9.3,16,9.4,16,9.4C15.9,9.5,15.8,9.6,15.8,9.7C15.8,9.7,15.8,9.7,15.8,9.7C15.8,9.7,15.8,9.7,15.8,9.7z"/>
				</g>
				<g class="st22">
					<path class="st23" d="M17.8,10c0.1,0.3,0.2,0.5,0.3,0.8c0.1,0.3,0.2,0.5,0.4,0.8c0.1,0.1,0.1,0.2,0.2,0.4
						c0.1,0.1,0.2,0.2,0.3,0.3c0.1,0.1,0.2,0.2,0.3,0.3c0.1,0.1,0.2,0.2,0.4,0.2c0,0,0,0,0,0c0,0,0,0,0,0c-0.1-0.1-0.2-0.2-0.4-0.2
						c-0.1-0.1-0.2-0.2-0.3-0.3c-0.2-0.2-0.4-0.4-0.5-0.7c-0.1-0.2-0.3-0.5-0.4-0.8C18,10.5,17.9,10.2,17.8,10
						C17.8,10,17.8,10,17.8,10C17.8,10,17.8,10,17.8,10z"/>
					<path class="st23" d="M18.8,12.8c0-0.1,0-0.1-0.1-0.2c0-0.1,0-0.1,0-0.2c0-0.1,0-0.1,0-0.2c0-0.1,0-0.1,0.1-0.2c0,0,0,0,0,0
						c0,0,0,0,0,0c0,0.1-0.1,0.1-0.1,0.2c0,0.1,0,0.1,0,0.2c0,0.1,0,0.1,0,0.2C18.8,12.7,18.8,12.7,18.8,12.8
						C18.8,12.8,18.8,12.8,18.8,12.8C18.8,12.8,18.8,12.8,18.8,12.8z"/>
					<path class="st23" d="M18.3,11.3c0.1,0,0.2,0,0.2,0c0.1,0,0.2,0,0.2,0c0,0,0.1,0,0.1,0.1c0,0,0.1,0,0.1,0.1
						c0.1,0.1,0.1,0.1,0.2,0.2c0,0,0,0,0,0c0,0,0,0,0,0c0-0.1-0.1-0.2-0.1-0.2c0,0-0.1-0.1-0.1-0.1c0,0-0.1,0-0.1-0.1
						c-0.1,0-0.2,0-0.3,0C18.5,11.2,18.4,11.3,18.3,11.3C18.3,11.3,18.3,11.3,18.3,11.3C18.3,11.3,18.3,11.3,18.3,11.3z"/>
					<path class="st23" d="M17.9,11.6c0-0.1,0-0.2,0-0.3c0-0.1,0-0.2,0-0.3c0-0.1,0-0.2,0-0.2c0-0.1,0.1-0.2,0.1-0.2c0,0,0,0,0,0
						c0,0,0,0,0,0c-0.1,0-0.1,0.1-0.2,0.2c0,0.1,0,0.2,0,0.3c0,0.1,0,0.2,0,0.3C17.8,11.4,17.8,11.5,17.9,11.6
						C17.9,11.6,17.9,11.6,17.9,11.6C17.9,11.6,17.9,11.6,17.9,11.6z"/>
				</g>
				<g>
					
						<linearGradient id="SVGID_45_" gradientUnits="userSpaceOnUse" x1="-7377.6758" y1="-2649.7234" x2="-7383.0737" y2="-2647.541" gradientTransform="matrix(0.8204 0.5718 0.5718 -0.8204 7588.9126 2056.4155)">
						<stop  offset="0" style="stop-color:#B6D33D"/>
						<stop  offset="0.2784" style="stop-color:#5CA605"/>
						<stop  offset="1" style="stop-color:#265502"/>
					</linearGradient>
					<path class="st49" d="M20.9,11.1c-0.1-0.1-0.4-0.2-0.4-0.2c-0.9,0-1.6-0.9-1.6-0.9c-0.9-1.2-0.3-2.5-0.3-2.5
						c1.3,0.6,1.8,1.3,1.8,1.3c0.9,1.5,0.3,1.8,0.5,2.2C21.1,11.3,21,11.3,20.9,11.1z"/>
					<g class="st22">
						<path class="st23" d="M17.7,8.6c-0.2-0.2-0.4-0.4-0.6-0.6c-0.2-0.2-0.4-0.4-0.5-0.6c-0.1-0.1-0.2-0.2-0.3-0.3
							c-0.1-0.1-0.2-0.2-0.2-0.4C16,6.5,16,6.4,15.9,6.3c0-0.1-0.1-0.1-0.1-0.2c0,0,0-0.1,0-0.1c0,0,0-0.1,0-0.1l0,0
							c0,0.1,0.1,0.3,0.1,0.4c0.1,0.1,0.1,0.3,0.2,0.4c0.1,0.1,0.2,0.2,0.2,0.4c0.1,0.1,0.2,0.2,0.3,0.3c0.2,0.2,0.4,0.4,0.6,0.6
							C17.3,8.2,17.5,8.4,17.7,8.6L17.7,8.6z"/>
						<path class="st23" d="M16.1,7.7c0.2,0.1,0.4,0.3,0.6,0.4c0.1,0.1,0.2,0.1,0.3,0.1c0.1,0,0.2,0,0.3,0l0,0c-0.1,0-0.2,0-0.3-0.1
							c-0.1,0-0.2-0.1-0.3-0.1c-0.1,0-0.2-0.1-0.3-0.2C16.3,7.8,16.2,7.7,16.1,7.7L16.1,7.7z"/>
						<path class="st23" d="M17.1,8c0-0.1,0-0.2,0-0.3c0-0.1,0-0.2,0-0.3c0-0.1,0-0.2-0.1-0.3c0-0.1-0.1-0.1-0.1-0.1
							c0,0-0.1-0.1-0.1-0.1l0,0C16.9,6.8,17,6.9,17,7c0,0.1,0.1,0.2,0.1,0.3c0,0.1,0,0.2,0,0.3C17.1,7.7,17.1,7.9,17.1,8L17.1,8z"/>
						<path class="st23" d="M15.7,6.5c0,0.1,0.1,0.1,0.1,0.2c0.1,0.1,0.1,0.1,0.2,0.2C16,6.9,16.1,7,16.2,7c0.1,0,0.1,0.1,0.2,0.1
							l0,0C16.3,7,16.2,7,16.2,7c-0.1,0-0.1-0.1-0.2-0.1c-0.1,0-0.1-0.1-0.2-0.2C15.8,6.6,15.7,6.6,15.7,6.5L15.7,6.5z"/>
						<path class="st23" d="M16.2,6.7c0,0,0.1-0.1,0.1-0.1c0-0.1,0-0.1,0.1-0.2c0-0.1,0-0.1,0-0.2c0-0.1,0-0.1-0.1-0.1l0,0
							c0,0,0,0,0,0.1c0,0,0,0.1,0,0.1c0,0.1,0,0.1,0,0.2c0,0.1,0,0.1-0.1,0.2C16.2,6.6,16.2,6.7,16.2,6.7L16.2,6.7z"/>
					</g>
					<path class="st25" d="M18.8,7.7C18.9,8,19,8.3,19.1,8.6c0.1,0.3,0.3,0.6,0.4,0.8c0.1,0.1,0.2,0.3,0.2,0.4
						c0.1,0.1,0.2,0.3,0.3,0.4c0.1,0.1,0.2,0.2,0.3,0.3c0.1,0.1,0.2,0.2,0.4,0.3l0,0l-0.1,0c0,0,0,0,0,0l0,0l0,0l0,0
						c-0.1,0-0.1-0.1-0.2-0.1c-0.1-0.1-0.2-0.2-0.3-0.3c-0.2-0.2-0.3-0.5-0.5-0.8c-0.2-0.3-0.3-0.5-0.4-0.8C19,8.3,18.9,8,18.8,7.7
						L18.8,7.7z"/>
					<path class="st25" d="M19.5,10.3c0-0.1,0-0.2-0.1-0.2c0-0.1,0-0.2,0-0.2c0-0.1,0-0.2,0-0.2c0-0.1,0-0.2,0.1-0.2l0,0
						c-0.1,0.1-0.1,0.1-0.1,0.2c0,0.1,0,0.2,0,0.2C19.4,10,19.5,10.1,19.5,10.3L19.5,10.3z"/>
					<path class="st25" d="M19.2,8.7c0.1,0,0.2,0.1,0.3,0.1c0.1,0,0.2,0.1,0.2,0.2c0.1,0.1,0.1,0.1,0.2,0.2C20,9.3,20,9.4,20.1,9.4
						l0,0c0-0.1-0.1-0.2-0.1-0.3C19.9,9.1,19.8,9,19.7,9c-0.1-0.1-0.2-0.1-0.3-0.1C19.4,8.8,19.3,8.8,19.2,8.7L19.2,8.7z"/>
					<path class="st25" d="M18.7,9c0-0.1,0-0.1,0-0.2c0-0.1,0-0.1,0-0.2c0-0.1,0-0.1,0.1-0.2c0-0.1,0.1-0.1,0.1-0.2l0,0
						c-0.1,0-0.1,0.1-0.1,0.2c0,0.1-0.1,0.1-0.1,0.2C18.7,8.7,18.7,8.8,18.7,9L18.7,9z"/>
					<path class="st25" d="M18.8,7.9c0.1,0,0.1,0,0.2,0c0.1,0,0.1,0,0.1,0.1c0,0,0.1,0.1,0.1,0.1l0,0.1c0,0,0,0,0,0.1l0,0
						c0,0,0-0.1,0-0.1c0,0,0-0.1,0-0.1c0,0-0.1-0.1-0.1-0.1c0,0-0.1-0.1-0.2-0.1C18.9,7.9,18.9,7.9,18.8,7.9L18.8,7.9z"/>
					<path class="st25" d="M19.9,10c0.1,0,0.1,0,0.2,0c0.1,0,0.1,0,0.2,0.1c0,0,0.1,0,0.1,0l0,0c0,0,0,0,0,0c0,0,0,0,0,0
						c0,0,0,0,0,0c0,0,0,0,0,0c0,0,0,0,0,0l0,0c0-0.1,0-0.1-0.1-0.2c0,0,0,0-0.1-0.1c0,0-0.1,0-0.1,0c-0.1,0-0.1,0-0.2-0.1
						C20,10,20,10,19.9,10L19.9,10z"/>
				</g>
				<g class="st22">
					<path class="st23" d="M16.1,10.6c0.2-0.2,0.4-0.3,0.6-0.5c0.1-0.1,0.2-0.2,0.3-0.3c0-0.1,0.1-0.1,0.1-0.2
						c0-0.1,0.1-0.1,0.1-0.2c0,0,0,0,0,0c0,0,0,0,0,0c0,0.1-0.1,0.1-0.1,0.2c0,0.1-0.1,0.1-0.1,0.1c-0.1,0.1-0.2,0.2-0.3,0.3
						c-0.1,0.1-0.2,0.2-0.3,0.3C16.3,10.4,16.2,10.5,16.1,10.6C16.1,10.6,16.1,10.6,16.1,10.6C16.1,10.6,16.1,10.6,16.1,10.6z"/>
					<path class="st23" d="M16.4,10.5c0.1-0.1,0.1-0.1,0.2-0.2c0,0,0-0.1,0.1-0.1c0,0,0,0,0-0.1c0,0,0,0,0-0.1c0,0,0,0,0,0
						c0,0,0,0,0,0l0,0c0,0,0,0.1,0,0.1c0,0,0,0.1-0.1,0.1C16.5,10.4,16.5,10.5,16.4,10.5C16.4,10.5,16.4,10.5,16.4,10.5
						C16.4,10.5,16.4,10.5,16.4,10.5z"/>
					<path class="st23" d="M16.8,10.4c0.1-0.1,0.2-0.2,0.3-0.4c0-0.1,0.1-0.1,0.1-0.2c0,0,0-0.1,0-0.1c0,0,0-0.1-0.1-0.1
						c0,0,0,0,0,0c0,0,0,0,0,0c0,0,0,0.1,0,0.1c0,0,0,0.1,0,0.1c0,0.1,0,0.1-0.1,0.2c0,0.1-0.1,0.1-0.1,0.2
						C16.9,10.3,16.9,10.4,16.8,10.4C16.8,10.4,16.8,10.4,16.8,10.4C16.8,10.4,16.8,10.4,16.8,10.4z"/>
					<path class="st23" d="M16.4,10c0,0,0.1-0.1,0.1-0.1c0,0,0.1,0,0.1-0.1c0,0,0.1,0,0.1,0c0,0,0.1,0,0.1,0c0,0,0,0,0,0
						c0,0,0,0,0,0c0,0-0.1,0-0.1,0c0,0-0.1,0-0.1,0C16.6,9.9,16.5,9.9,16.4,10C16.4,10,16.4,10,16.4,10C16.4,10,16.4,10,16.4,10z"/>
					<path class="st23" d="M16.1,10.5C16.1,10.5,16.1,10.5,16.1,10.5c0.1-0.1,0.1-0.1,0.2-0.1c0,0,0.1,0,0.1,0c0,0,0.1,0,0.1,0
						c0,0,0,0,0,0c0,0,0,0,0,0c0,0,0,0,0,0c0,0,0,0-0.1,0c0,0-0.1,0-0.1,0C16.2,10.4,16.1,10.4,16.1,10.5
						C16.1,10.5,16.1,10.5,16.1,10.5C16.1,10.5,16.1,10.5,16.1,10.5z"/>
				</g>
				<g class="st22">
					<path class="st23" d="M14.2,12.8c0.2,0,0.4,0,0.7,0c0.2,0,0.4-0.1,0.6-0.1c0.1,0,0.2-0.1,0.3-0.1c0.1,0,0.2-0.1,0.3-0.1
						c0.1,0,0.2-0.1,0.3-0.2c0.1-0.1,0.2-0.1,0.3-0.2c0,0,0,0,0,0c0,0,0,0,0,0c-0.1,0.1-0.2,0.1-0.3,0.2c-0.1,0.1-0.2,0.1-0.3,0.1
						c-0.1,0-0.2,0.1-0.3,0.1c-0.1,0-0.2,0.1-0.3,0.1c-0.2,0.1-0.4,0.1-0.6,0.1C14.6,12.8,14.4,12.8,14.2,12.8
						C14.2,12.8,14.2,12.8,14.2,12.8C14.2,12.8,14.2,12.8,14.2,12.8z"/>
					<path class="st23" d="M14.8,13.1c0.1,0,0.1,0,0.2,0c0.1,0,0.1,0,0.2-0.1c0.1,0,0.1-0.1,0.2-0.1c0-0.1,0.1-0.1,0.1-0.2
						c0,0,0,0,0,0c0,0,0,0,0,0c0,0.1-0.1,0.1-0.1,0.2c0,0-0.1,0.1-0.2,0.1C15.1,13,15,13,15,13C14.9,13,14.8,13.1,14.8,13.1
						C14.8,13.1,14.8,13.1,14.8,13.1C14.8,13.1,14.8,13.1,14.8,13.1z"/>
					<path class="st23" d="M15.6,13c0.1-0.1,0.2-0.1,0.3-0.2c0.1,0,0.1-0.1,0.1-0.2c0-0.1,0.1-0.1,0-0.2c0,0,0,0,0,0c0,0,0,0,0,0
						c0,0.1,0,0.1-0.1,0.2c0,0.1-0.1,0.1-0.1,0.2c0,0-0.1,0.1-0.2,0.1C15.8,12.9,15.7,13,15.6,13C15.6,13,15.6,13,15.6,13
						C15.6,13,15.6,13,15.6,13z"/>
					<path class="st23" d="M14.9,12.4c0.1,0,0.2,0,0.2,0c0.1,0,0.2,0,0.2,0c0.1,0,0.2,0,0.2,0.1c0.1,0,0.1,0.1,0.2,0.2c0,0,0,0,0,0
						c0,0,0,0,0,0c0,0,0-0.1-0.1-0.1c0,0-0.1-0.1-0.1-0.1c-0.1,0-0.2,0-0.2-0.1c-0.1,0-0.2,0-0.3,0C15,12.3,14.9,12.3,14.9,12.4
						C14.9,12.4,14.9,12.4,14.9,12.4C14.9,12.4,14.9,12.4,14.9,12.4z"/>
				</g>
				
					<linearGradient id="SVGID_46_" gradientUnits="userSpaceOnUse" x1="-5305.563" y1="-4929.7998" x2="-5304.2871" y2="-4929.7998" gradientTransform="matrix(0.5528 0.8333 0.8333 -0.5528 7056.2339 1706.608)">
					<stop  offset="0" style="stop-color:#B6D33D"/>
					<stop  offset="0.2784" style="stop-color:#5CA605"/>
					<stop  offset="1" style="stop-color:#265502"/>
				</linearGradient>
				<path class="st50" d="M14.4,11.3c0,0,1-0.9,1.8,0c0,0,0.3,0,0.5-0.1c0.1-0.2,0.1,0.1-0.5,0.3c0,0-0.5,1-1.6,0
					C14.7,11.4,14.6,11.3,14.4,11.3z"/>
				<g class="st22">
					<path class="st23" d="M14.7,11.2c0.1,0,0.3,0.1,0.4,0.1c0.1,0,0.3,0.1,0.4,0.1c0.1,0,0.1,0,0.2,0c0.1,0,0.1,0,0.2,0
						c0.1,0,0.1,0,0.2,0c0.1,0,0.1,0,0.2,0c0,0,0,0,0,0c0,0,0,0,0,0c-0.1,0-0.1,0-0.2,0c-0.1,0-0.1,0-0.2,0c-0.1,0-0.1,0-0.2,0
						c-0.1,0-0.1,0-0.2,0c-0.1,0-0.3,0-0.4-0.1C14.9,11.3,14.8,11.3,14.7,11.2C14.7,11.2,14.7,11.2,14.7,11.2
						C14.7,11.2,14.7,11.2,14.7,11.2z"/>
					<path class="st23" d="M14.9,11.5c0,0,0.1,0,0.1,0c0,0,0.1,0,0.1,0c0,0,0.1,0,0.1,0c0,0,0.1-0.1,0.1-0.1c0,0,0,0,0,0
						c0,0,0,0,0,0c0,0-0.1,0.1-0.1,0.1c0,0-0.1,0-0.1,0c0,0-0.1,0-0.1,0C15,11.5,15,11.5,14.9,11.5C14.9,11.5,14.9,11.5,14.9,11.5
						C14.9,11.5,14.9,11.5,14.9,11.5z"/>
					<path class="st23" d="M15.5,11.7c0.1,0,0.2,0,0.3-0.1c0,0,0.1,0,0.1-0.1c0,0,0.1-0.1,0.1-0.1c0,0,0,0,0,0c0,0,0,0,0,0
						c0,0-0.1,0.1-0.1,0.1c0,0-0.1,0-0.1,0.1c0,0-0.1,0-0.1,0C15.5,11.7,15.5,11.7,15.5,11.7C15.5,11.7,15.5,11.7,15.5,11.7
						C15.5,11.7,15.5,11.7,15.5,11.7z"/>
					<path class="st23" d="M15.2,11.1c0.1,0,0.1,0,0.1,0c0,0,0.1,0,0.1,0.1c0,0,0.1,0.1,0.1,0.1c0,0,0.1,0.1,0.1,0.1c0,0,0,0,0,0
						c0,0,0,0,0,0c0,0,0-0.1,0-0.1c0,0,0,0,0-0.1c0,0-0.1-0.1-0.1-0.1c0,0-0.1,0-0.1-0.1C15.3,11.1,15.2,11.1,15.2,11.1
						C15.2,11.1,15.2,11.1,15.2,11.1C15.2,11.1,15.2,11.1,15.2,11.1z"/>
				</g>
				<g class="st22">
					<path class="st23" d="M16.6,13.6c0.1,0.2,0.2,0.3,0.3,0.4c0.1,0.1,0.3,0.2,0.4,0.3c0.1,0.1,0.3,0.1,0.5,0.2c0.2,0,0.3,0,0.5,0
						c0,0,0,0,0,0c0,0,0,0,0,0c-0.2,0-0.3,0-0.5-0.1c-0.2,0-0.3-0.1-0.5-0.2c-0.1-0.1-0.3-0.2-0.4-0.3
						C16.8,13.9,16.7,13.7,16.6,13.6L16.6,13.6C16.6,13.6,16.6,13.6,16.6,13.6C16.6,13.6,16.6,13.6,16.6,13.6z"/>
					<path class="st23" d="M17.3,14.2c0,0,0.1,0,0.2,0c0.1,0,0.1,0,0.2,0c0.1,0,0.1,0,0.2,0c0,0,0.1,0,0.1,0.1c0,0,0,0,0,0
						c0,0,0,0,0,0c0,0-0.1-0.1-0.1-0.1c-0.1,0-0.1,0-0.2,0c-0.1,0-0.1,0-0.2,0C17.4,14.2,17.3,14.2,17.3,14.2
						C17.3,14.2,17.3,14.2,17.3,14.2C17.3,14.2,17.3,14.2,17.3,14.2z"/>
					<path class="st23" d="M17,14c0,0.1,0.1,0.2,0.1,0.3c0,0,0.1,0.1,0.1,0.1c0,0,0,0,0.1,0c0,0,0,0,0.1,0c0,0,0,0,0,0c0,0,0,0,0,0
						c0,0,0,0-0.1,0c0,0,0,0-0.1,0c0,0-0.1-0.1-0.1-0.1c0,0-0.1-0.1-0.1-0.1C17,14.1,17,14.1,17,14L17,14C17,14,17,14,17,14
						C17,14,17,14,17,14z"/>
					<path class="st23" d="M16.7,13.7C16.7,13.7,16.7,13.7,16.7,13.7L16.7,13.7L16.7,13.7c0.1,0,0.1,0,0.1,0c0,0,0.1,0,0.1,0
						c0,0,0.1,0,0.1,0c0,0,0.1,0,0.1,0.1c0,0,0,0,0,0c0,0,0,0,0,0c0,0-0.1-0.1-0.1-0.1c0,0-0.1,0-0.1,0c0,0-0.1,0-0.1,0
						C16.8,13.7,16.8,13.7,16.7,13.7L16.7,13.7C16.7,13.7,16.7,13.7,16.7,13.7L16.7,13.7C16.7,13.7,16.7,13.7,16.7,13.7
						C16.7,13.7,16.7,13.7,16.7,13.7z"/>
				</g>
				<g class="st22">
					<path class="st23" d="M16.2,14.2c0.1,0.2,0.1,0.3,0.1,0.5c0,0.2,0.1,0.3,0.1,0.5c0,0.1,0,0.2,0,0.2l0,0.1l0,0.1l0,0.1
						c0,0.2,0,0.3,0,0.5c0,0,0,0,0,0c0,0,0,0,0,0c0-0.2,0-0.3,0-0.5c0-0.1,0-0.2,0-0.2c0-0.1,0-0.2,0-0.2c0-0.2-0.1-0.3-0.1-0.5
						C16.3,14.5,16.3,14.3,16.2,14.2C16.2,14.2,16.2,14.2,16.2,14.2C16.2,14.2,16.2,14.2,16.2,14.2z"/>
					<path class="st23" d="M16.2,15.8c0-0.1,0-0.1,0-0.2c0-0.1,0-0.1,0-0.2c0-0.1,0-0.1,0.1-0.2c0-0.1,0.1-0.1,0.1-0.1c0,0,0,0,0,0
						c0,0,0,0,0,0c-0.1,0-0.1,0.1-0.1,0.1c0,0.1-0.1,0.1-0.1,0.2C16.2,15.6,16.2,15.7,16.2,15.8C16.2,15.8,16.2,15.8,16.2,15.8
						C16.2,15.8,16.2,15.8,16.2,15.8z"/>
					<path class="st23" d="M16.4,14.7c0.1,0,0.1,0,0.2,0.1c0.1,0,0.1,0.1,0.1,0.2c0,0,0,0,0,0c0,0,0,0,0,0l0,0c0,0,0,0,0,0l0,0
						c0,0,0,0,0,0c0,0,0,0,0,0.1c0,0,0,0.1,0,0.1v0c0,0,0,0,0,0c0,0,0,0,0,0c0,0,0-0.1,0-0.1c0,0,0,0,0-0.1c0,0,0,0,0-0.1l0-0.1
						c0,0,0,0,0-0.1l0,0c0,0,0,0,0,0c0,0,0,0,0,0c0-0.1-0.1-0.1-0.1-0.2C16.5,14.7,16.4,14.7,16.4,14.7
						C16.4,14.7,16.4,14.7,16.4,14.7C16.4,14.7,16.4,14.7,16.4,14.7z"/>
				</g>
				<g class="st22">
					<path class="st23" d="M12.7,13.6c0.1,0.2,0.3,0.3,0.5,0.5c0.2,0.1,0.3,0.3,0.5,0.4c0.1,0.1,0.2,0.1,0.3,0.2
						c0.1,0,0.2,0.1,0.3,0.1c0.1,0,0.2,0,0.3,0c0.1,0,0.2,0,0.3,0c0,0,0,0,0,0c0,0,0,0,0,0c-0.1,0-0.2,0-0.3,0c-0.1,0-0.2,0-0.3,0
						l-0.1,0l-0.1,0c0,0-0.1,0-0.1,0c0,0-0.1,0-0.1,0c-0.1,0-0.2-0.1-0.3-0.1c-0.2-0.1-0.4-0.2-0.5-0.4C13,13.9,12.9,13.8,12.7,13.6
						C12.7,13.6,12.7,13.6,12.7,13.6C12.7,13.6,12.7,13.6,12.7,13.6z"/>
				</g>
				<g class="st22">
					<path class="st23" d="M13.8,14.9c0.1,0,0.2,0,0.4,0c0.1,0,0.1,0,0.2,0c0.1,0,0.1-0.1,0.1-0.1c0,0,0,0,0,0c0,0,0,0,0,0
						c0,0-0.1,0.1-0.2,0.1c-0.1,0-0.1,0-0.2,0c-0.1,0-0.1,0-0.2,0C13.9,14.9,13.8,14.9,13.8,14.9C13.8,14.9,13.8,14.9,13.8,14.9
						C13.8,14.9,13.8,14.9,13.8,14.9z"/>
				</g>
				<g class="st22">
					<path class="st23" d="M13.4,14c0.1,0,0.1,0.1,0.2,0.1c0.1,0,0.1,0.1,0.2,0.1c0,0,0.1,0.1,0.1,0.1c0,0,0.1,0.1,0.1,0.2
						c0,0,0,0,0,0c0,0,0,0,0,0c0-0.1,0-0.1-0.1-0.2c0-0.1-0.1-0.1-0.1-0.1C13.7,14.1,13.5,14,13.4,14C13.4,14,13.4,14,13.4,14
						C13.4,14,13.4,14,13.4,14z"/>
				</g>
				<g class="st22">
					<path class="st23" d="M12.9,14c0.1,0.1,0.1,0.2,0.2,0.2c0.1,0.1,0.2,0.1,0.3,0.2c0.1,0.1,0.2,0.1,0.3,0.1c0.1,0,0.1,0,0.2,0
						c0.1,0,0.1,0,0.2,0c0,0,0,0,0,0c0,0,0,0,0,0l0,0c0,0-0.1,0-0.1,0c0,0-0.1,0-0.1,0c-0.1,0-0.1,0-0.2,0c-0.1,0-0.2-0.1-0.3-0.1
						c-0.1,0-0.2-0.1-0.3-0.2C13,14.2,13,14.1,12.9,14C12.9,14,12.9,14,12.9,14C12.9,14,12.9,14,12.9,14z"/>
				</g>
				<g class="st22">
					<path class="st23" d="M11.2,17.5c0.1-0.2,0.3-0.3,0.5-0.5c0.2-0.1,0.3-0.3,0.5-0.4c0.2-0.1,0.3-0.3,0.5-0.4
						c0.1-0.1,0.2-0.1,0.3-0.1c0.1,0,0.1,0,0.2,0c0.1,0,0.1,0,0.2,0c0,0,0,0,0,0c0,0,0,0,0,0c0,0-0.1,0-0.2,0c-0.1,0-0.1,0-0.2,0
						c-0.1,0-0.2,0.1-0.3,0.1c-0.2,0.1-0.4,0.2-0.5,0.4c-0.2,0.1-0.3,0.3-0.5,0.4C11.5,17.2,11.4,17.3,11.2,17.5
						C11.2,17.5,11.2,17.5,11.2,17.5C11.2,17.5,11.2,17.5,11.2,17.5z"/>
					<path class="st23" d="M11.6,17.4c0-0.1,0.1-0.2,0.1-0.2c0,0,0-0.1,0.1-0.1c0,0,0-0.1,0-0.1c0,0,0,0,0,0c0,0,0,0,0,0
						c0,0,0,0.1-0.1,0.1c0,0,0,0.1,0,0.1C11.7,17.2,11.7,17.3,11.6,17.4C11.6,17.4,11.6,17.4,11.6,17.4
						C11.6,17.4,11.6,17.4,11.6,17.4z"/>
					<path class="st23" d="M11.5,16.8c0.1,0,0.1-0.1,0.2-0.1c0.1,0,0.1-0.1,0.2-0.1c0.1,0,0.1,0,0.2-0.1c0.1,0,0.1,0,0.2,0
						c0,0,0,0,0,0c0,0,0,0,0,0c0,0-0.1,0-0.1-0.1c0,0-0.1,0-0.1,0c-0.1,0-0.1,0-0.2,0.1C11.7,16.6,11.6,16.7,11.5,16.8
						C11.5,16.8,11.5,16.8,11.5,16.8C11.5,16.8,11.5,16.8,11.5,16.8z"/>
					<path class="st23" d="M12.2,17.1c0.1-0.1,0.2-0.3,0.3-0.4c0-0.1,0.1-0.2,0.1-0.2c0,0,0-0.1,0-0.1c0,0,0-0.1,0-0.1c0,0,0,0,0,0
						c0,0,0,0,0,0c0,0,0,0.1,0,0.1c0,0,0,0.1,0,0.1c0,0.1-0.1,0.2-0.1,0.2c0,0.1-0.1,0.1-0.1,0.2C12.4,17,12.3,17.1,12.2,17.1
						C12.2,17.1,12.2,17.1,12.2,17.1C12.2,17.1,12.2,17.1,12.2,17.1z"/>
					<path class="st23" d="M12.1,16.2c0.1,0,0.1-0.1,0.2-0.1c0.1,0,0.1,0,0.2-0.1c0.1,0,0.1,0,0.2,0c0.1,0,0.1,0,0.2,0.1
						c0,0,0,0,0,0c0,0,0,0,0,0c0,0,0-0.1-0.1-0.1c0,0-0.1,0-0.1,0c-0.1,0-0.1,0-0.2,0C12.4,16,12.3,16.1,12.1,16.2
						C12.1,16.2,12.1,16.2,12.1,16.2C12.1,16.2,12.1,16.2,12.1,16.2z"/>
				</g>
				<g class="st27">
					<path class="st23" d="M14.1,18.9c0-0.3,0.1-0.6,0.2-0.8c0.1-0.3,0.1-0.6,0.2-0.8c0-0.1,0.1-0.3,0.1-0.4c0-0.1,0.1-0.3,0.1-0.4
						c0.1-0.1,0.1-0.3,0.2-0.4c0-0.1,0.1-0.1,0.1-0.2c0,0,0-0.1,0.1-0.1c0,0,0-0.1,0.1-0.1c0,0,0,0,0,0c0,0,0,0,0,0
						c-0.1,0.1-0.2,0.2-0.3,0.3c-0.1,0.1-0.1,0.3-0.2,0.4c-0.1,0.3-0.2,0.5-0.3,0.8c-0.1,0.3-0.1,0.6-0.2,0.8
						C14.2,18.3,14.1,18.6,14.1,18.9C14.1,18.9,14.1,18.9,14.1,18.9C14.1,18.9,14.1,18.9,14.1,18.9z"/>
					<path class="st23" d="M13.7,18.6c0-0.1,0.1-0.2,0.1-0.2c0-0.1,0.1-0.1,0.1-0.2c0-0.1,0.1-0.1,0.1-0.2c0,0,0.1-0.1,0.1-0.1
						c0,0,0.1,0,0.1,0c0,0,0,0,0,0c0,0,0,0,0,0c0,0,0,0-0.1,0c0,0,0,0-0.1,0c0,0-0.1,0.1-0.1,0.1C14,18,14,18.1,13.9,18.2
						C13.9,18.3,13.8,18.5,13.7,18.6C13.7,18.6,13.7,18.6,13.7,18.6C13.7,18.6,13.7,18.6,13.7,18.6z"/>
					<path class="st23" d="M14.2,18.2c0,0,0.1,0.1,0.1,0.1c0,0,0.1,0.1,0.1,0.1c0,0,0,0.1,0,0.1c0,0,0,0,0,0.1c0,0,0,0,0,0
						c0,0,0,0,0,0v0c0,0,0,0,0,0c0,0,0,0,0,0c0,0,0,0,0-0.1c0,0,0-0.1,0-0.1c0-0.1,0-0.1,0-0.2c0-0.1,0-0.1-0.1-0.1
						C14.3,18.3,14.2,18.3,14.2,18.2C14.2,18.2,14.2,18.2,14.2,18.2C14.2,18.2,14.2,18.2,14.2,18.2z"/>
					<path class="st23" d="M13.7,17.6c0.1-0.1,0.1-0.2,0.2-0.2c0.1-0.1,0.1-0.1,0.2-0.2c0.1-0.1,0.1-0.1,0.2-0.2
						c0.1-0.1,0.2-0.1,0.3-0.1c0,0,0,0,0,0c0,0,0,0,0,0c-0.1,0-0.2,0.1-0.3,0.1c-0.1,0.1-0.2,0.1-0.2,0.2c-0.1,0.1-0.1,0.1-0.2,0.2
						C13.8,17.4,13.7,17.5,13.7,17.6C13.7,17.6,13.7,17.6,13.7,17.6C13.7,17.6,13.7,17.6,13.7,17.6z"/>
					<path class="st23" d="M14.4,17.3c0.1,0,0.1,0.1,0.2,0.1c0.1,0.1,0.1,0.1,0.1,0.2c0,0,0,0.1,0,0.1c0,0,0,0,0,0.1c0,0,0,0,0,0.1
						c0,0,0,0.1,0,0.1c0,0,0,0.1,0,0.1c0,0,0,0,0,0c0,0,0,0,0,0c0,0,0-0.1,0-0.1c0,0,0-0.1,0-0.1c0,0,0-0.1,0-0.1c0,0,0-0.1,0-0.1
						c0-0.1-0.1-0.1-0.1-0.2C14.6,17.3,14.5,17.3,14.4,17.3C14.4,17.2,14.4,17.3,14.4,17.3C14.4,17.3,14.4,17.3,14.4,17.3L14.4,17.3
						z"/>
					<path class="st23" d="M14,16.5c0-0.1,0.1-0.1,0.1-0.2c0-0.1,0.1-0.1,0.2-0.2c0.1,0,0.1-0.1,0.2-0.1c0.1,0,0.1,0,0.2,0
						c0,0,0,0,0,0c0,0,0,0,0,0c0,0-0.1,0-0.1,0c0,0-0.1,0-0.1,0c-0.1,0-0.1,0.1-0.2,0.1c-0.1,0.1-0.1,0.1-0.1,0.2
						C14,16.3,14,16.4,14,16.5C14,16.5,14,16.5,14,16.5C14,16.5,14,16.5,14,16.5z"/>
					<path class="st23" d="M14.7,16.3c0.1,0,0.1,0.1,0.2,0.1c0,0.1,0.1,0.1,0.1,0.2c0,0.1,0,0.1,0,0.2c0,0.1,0,0.1,0,0.2
						c0,0,0,0,0,0c0,0,0,0,0,0c0-0.1,0-0.1,0.1-0.2c0-0.1,0-0.2,0-0.2c0-0.1-0.1-0.1-0.1-0.2C14.9,16.3,14.8,16.3,14.7,16.3
						C14.7,16.3,14.7,16.3,14.7,16.3C14.7,16.3,14.7,16.3,14.7,16.3z"/>
					<path class="st23" d="M15.2,17.2c0-0.1,0-0.2,0-0.3c0,0,0-0.1-0.1-0.1c0,0-0.1-0.1-0.1-0.1c0,0,0,0,0,0c0,0,0,0,0,0
						c0,0,0,0,0.1,0c0,0,0,0,0,0c0,0,0,0.1,0.1,0.1c0,0,0,0.1,0,0.1C15.2,17.1,15.2,17.1,15.2,17.2C15.2,17.2,15.2,17.2,15.2,17.2
						C15.2,17.2,15.2,17.2,15.2,17.2z"/>
					<path class="st23" d="M14.7,17.4c0,0,0.1,0,0.1,0c0,0,0.1,0,0.1,0c0,0,0.1,0,0.1,0.1c0,0,0.1,0.1,0.1,0.1c0,0,0,0,0,0
						c0,0,0,0,0,0c0,0,0-0.1-0.1-0.1c0,0-0.1-0.1-0.1-0.1c0,0-0.1,0-0.1,0C14.8,17.4,14.8,17.4,14.7,17.4
						C14.7,17.4,14.7,17.4,14.7,17.4C14.7,17.4,14.7,17.4,14.7,17.4z"/>
					<path class="st23" d="M14.1,16.6c0.1-0.1,0.3-0.3,0.4-0.4c0.1-0.1,0.1-0.1,0.2-0.2c0.1-0.1,0.1-0.1,0.2-0.2c0,0,0,0,0,0
						c0,0,0,0,0,0c-0.1,0-0.2,0.1-0.2,0.2c-0.1,0.1-0.1,0.1-0.2,0.2C14.4,16.3,14.2,16.4,14.1,16.6C14.1,16.6,14.1,16.6,14.1,16.6
						C14.1,16.6,14.1,16.6,14.1,16.6z"/>
				</g>
				<g class="st22">
					<path class="st23" d="M12.4,18.3c0.1-0.1,0.3-0.2,0.4-0.3c0.1-0.1,0.1-0.1,0.2-0.2c0,0,0-0.1,0-0.1c0,0,0-0.1,0-0.1
						c0,0,0,0,0,0c0,0,0,0,0,0c0,0.1,0,0.2-0.1,0.2c0,0.1-0.1,0.1-0.2,0.2c-0.1,0.1-0.1,0.1-0.2,0.2C12.5,18.1,12.5,18.2,12.4,18.3
						C12.4,18.3,12.4,18.3,12.4,18.3C12.4,18.3,12.4,18.3,12.4,18.3z"/>
				</g>
				<g class="st22">
					<path class="st23" d="M11.3,18.4c0.1-0.1,0.2-0.1,0.2-0.2c0.1-0.1,0.2-0.1,0.2-0.2c0.1-0.1,0.2-0.1,0.3-0.2c0,0,0.1,0,0.1-0.1
						c0,0,0.1,0,0.2,0c0,0,0,0,0,0c0,0,0,0,0,0c-0.1,0-0.1,0-0.2,0c-0.1,0-0.1,0-0.2,0.1c-0.1,0-0.2,0.1-0.3,0.2
						C11.6,18.1,11.4,18.2,11.3,18.4C11.2,18.4,11.2,18.4,11.3,18.4C11.2,18.4,11.3,18.4,11.3,18.4z"/>
				</g>
				<g class="st22">
					<path class="st23" d="M11.3,19.5c0.1-0.1,0.2-0.3,0.3-0.4c0.1-0.1,0.1-0.1,0.1-0.2c0,0,0-0.1,0.1-0.1c0,0,0-0.1,0-0.1
						c0,0,0,0,0,0c0,0,0,0,0,0l0,0c0,0,0,0.1,0,0.1c0,0,0,0.1-0.1,0.1c0,0.1-0.1,0.2-0.1,0.2c0,0.1-0.1,0.1-0.2,0.2
						C11.4,19.4,11.4,19.4,11.3,19.5C11.3,19.5,11.3,19.5,11.3,19.5C11.3,19.5,11.3,19.5,11.3,19.5z"/>
				</g>
				<g class="st22">
					<path class="st23" d="M11.5,15.9c0.1,0,0.1-0.1,0.2-0.1c0.1,0,0.1-0.1,0.2-0.1c0.1,0,0.1-0.1,0.2-0.1c0,0,0.1,0,0.1,0
						c0,0,0.1,0,0.1,0l0,0c0,0,0,0,0,0c0,0,0,0,0,0c0,0-0.1,0-0.1,0c0,0-0.1,0-0.1,0c-0.1,0-0.1,0.1-0.2,0.1
						C11.7,15.8,11.6,15.8,11.5,15.9C11.5,15.9,11.5,15.9,11.5,15.9C11.5,15.9,11.5,15.9,11.5,15.9z"/>
				</g>
				<g>
					<path class="st23" d="M17.4,12.8c0.1,0.1,0.1,0.2,0.2,0.3c0.1,0.1,0.1,0.2,0.2,0.2c0.1,0.1,0.2,0.1,0.3,0.2c0.1,0,0.1,0,0.2,0
						c0.1,0,0.1,0,0.2,0c0,0,0,0,0,0c0,0,0,0,0,0c-0.1,0-0.1,0-0.2,0c-0.1,0-0.1,0-0.2-0.1c-0.1,0-0.2-0.1-0.3-0.2
						c-0.1-0.1-0.2-0.1-0.2-0.2C17.5,13,17.4,12.9,17.4,12.8C17.4,12.8,17.4,12.8,17.4,12.8C17.4,12.8,17.4,12.8,17.4,12.8z"/>
				</g>
			</g>
		</g>
	</g>
</g>
</svg>
