<?xml version="1.0" encoding="utf-8"?>
<!-- Generator: Adobe Illustrator 23.0.1, SVG Export Plug-In . SVG Version: 6.00 Build 0)  -->
<svg version="1.1" id="Layer_1" xmlns="http://www.w3.org/2000/svg" xmlns:xlink="http://www.w3.org/1999/xlink" x="0px" y="0px"
	 viewBox="0 0 1500 423" style="enable-background:new 0 0 1500 423;" xml:space="preserve">
<g>
	<path d="M103.8,423.4c-3.7,0-8.1-0.6-13-1.8c-4.9-1.2-9.8-3.2-14.5-6.1c-4.8-2.9-8.7-7-11.7-12.2c-3.1-5.3-4.6-12.2-4.6-20.7
		c0-11.9,2.9-27.6,8.7-47.2c5.8-19.6,12.4-41.2,19.9-65c5.8-18.4,11.4-37.4,16.8-57.1c5.4-19.7,9.9-39.4,13.5-59.2
		c3.6-19.7,5.4-38.6,5.4-56.6c0-12.6-0.4-24.3-1.3-35.2c-0.9-10.9-3.4-19.6-7.7-26.3C111,29.4,103.8,26,93.6,26
		c-9.5,0-17.6,2.8-24.2,8.4S57.3,47.3,53,56.1c-4.3,8.8-7.3,18.2-9.2,28.1C42,94.1,41,103.2,41,111.7c0,11.2,1.5,20.4,4.6,27.5
		c-13.3,0-22.6-3.7-28.1-11c-5.4-7.3-8.2-15.9-8.2-25.8c0-10.5,2.5-21.1,7.4-31.6c4.9-10.5,11.7-20.3,20.4-29.3
		c8.7-9,18.6-16.2,29.8-21.7c11.2-5.4,23.1-8.2,35.7-8.2c21.1,0,36.8,8.2,47.2,24.7c10.4,16.5,15.6,38.5,15.6,66.1
		c0,24.8-3.5,51.1-10.5,78.8c-7,27.7-14.7,54.7-23.2,80.9c-5.4,17-10.6,33.2-15.6,48.7c-4.9,15.5-8.9,29.7-12,42.6
		c-3.1,12.9-4.6,24.3-4.6,34.2c0,6.5,1,11.4,3.1,14.8c2,3.4,6.1,5.1,12.2,5.1c8.5,0,17.9-4,28.3-12c10.4-8,20.9-18.8,31.6-32.4
		c10.7-13.6,21.1-28.6,31.1-45.1c10-16.5,19.2-33.4,27.5-50.8c8.3-17.3,15.3-33.8,20.9-49.5c5.6-15.6,9.1-29.1,10.5-40.3
		c11.2,0,19.1,2.9,23.7,8.7c4.6,5.8,6.9,11.2,6.9,16.3c0,5.4-2.2,13.8-6.6,25c-4.4,11.2-9.7,23.8-15.8,37.8
		c-5.1,12.2-10.3,25.3-15.6,39.3c-5.3,13.9-9.7,27.9-13.3,41.8c-3.6,13.9-5.4,27.2-5.4,39.8c0,6.5,0.8,11.6,2.6,15.6
		c1.7,3.9,5.6,5.9,11.7,5.9c9.5,0,20.6-4.8,33.2-14.5c12.6-9.7,25.6-23,39-39.8c13.4-16.8,26.5-35.8,39.3-56.9
		c12.8-21.1,24.2-43.1,34.4-66.1c10.2-23,18.4-45.5,24.5-67.6c6.1-22.1,9.2-42.5,9.2-61.2c0-17-2.6-29.5-7.7-37.5
		c-5.1-8-11.9-13.2-20.4-15.6c4.8-8.2,9.8-14.1,15-17.9c5.3-3.7,10.1-5.6,14.5-5.6c7.1,0,14.1,4.6,20.9,13.8
		c6.8,9.2,10.2,23.5,10.2,42.9c0,18.7-3.5,40-10.5,63.8c-7,23.8-16.4,48.6-28.3,74.2c-11.9,25.7-25.5,50.6-40.8,74.7
		c-15.3,24.2-31.3,45.9-48,65.3c-16.7,19.4-33.2,34.9-49.5,46.4c-16.3,11.6-31.5,17.3-45.4,17.3c-6.5,0-13.1-1.4-19.9-4.1
		c-6.8-2.7-12.5-6.9-17.1-12.5s-6.9-12.8-6.9-21.7c0-5.1,0.9-11.6,2.8-19.6c1.9-8,4.3-16.7,7.4-26.3c-17.3,24.5-35.1,44.6-53.3,60.5
		C137.9,415.5,120.5,423.4,103.8,423.4z"/>
	<path d="M468,403c-10.5,0-19.5-3.5-26.8-10.5c-7.3-7-11-17.6-11-31.9c0-12.2,2.7-25.4,8.2-39.5c5.4-14.1,12.9-28.1,22.4-41.8
		c9.5-13.8,20.3-26.4,32.4-37.7c12.1-11.4,24.8-20.5,38.3-27.3c13.4-6.8,26.8-10.2,40-10.2c13.3,0,24.3,3.5,33.2,10.5
		c8.8,7,13.3,16.2,13.3,27.8c0,8.5-2.3,14.3-6.9,17.3c-4.6,3.1-10.6,4.6-18.1,4.6c0.7-2.7,1.3-5.7,1.8-8.9c0.5-3.2,0.8-6.2,0.8-8.9
		c0-7.8-1.9-14.5-5.6-20.2c-3.7-5.6-10.2-8.4-19.4-8.4c-9.5,0-19.2,3.3-29.1,9.9c-9.9,6.6-19.4,15.5-28.6,26.5
		c-9.2,11.1-17.3,23-24.5,36c-7.1,12.9-12.8,25.7-16.8,38.3c-4.1,12.6-6.1,23.8-6.1,33.7c0,13.3,4.6,19.9,13.8,19.9
		c7.8,0,16.3-3.7,25.5-11c9.2-7.3,18.6-16.7,28.3-28.1c9.7-11.4,19-23.2,27.8-35.5c8.8-12.2,16.7-23.5,23.5-33.7
		c1.4-2,2.2-3.1,2.6-3.1c2,0.3,4.7,1,7.9,2c3.2,1,6,2.4,8.4,4.1c2.4,1.7,3.6,3.9,3.6,6.6c0,3.1-1.5,7.2-4.6,12.5
		c-3.1,5.3-6.5,11.3-10.2,18.1c-3.7,6.8-7.1,13.7-10.2,20.7c-3.1,7-4.6,13.5-4.6,19.6c0,5.1,1.4,10.1,4.1,15
		c2.7,4.9,7.1,7.4,13.3,7.4c9.2,0,21.3-6.7,36.2-20.2c15-13.4,30.1-33.6,45.4-60.5l5.1,5.1c-7.1,18.4-16.3,34.5-27.5,48.5
		c-11.2,13.9-23.2,24.8-36,32.6c-12.8,7.8-25.3,11.7-37.5,11.7c-12.6,0-21.9-3.7-27.8-11.2c-6-7.5-8.9-15.6-8.9-24.5
		c0-2,0.2-4.3,0.5-6.9c0.3-2.6,0.7-5.2,1-7.9c-14.6,19.7-28,34.5-40,44.4C492.9,398.1,480.6,403,468,403z"/>
	<path d="M708.3,394.4c-14.6,0-25.1-5-31.4-15c-6.3-10-9.4-22.5-9.4-37.5c0-16.3,3.1-35.7,9.2-58.2s14.2-46.1,24.2-70.9
		c10-24.8,21-49.1,32.9-72.7c11.9-23.6,23.8-45.1,35.7-64.5c11.9-19.4,22.9-34.9,32.9-46.4c10-11.6,17.9-17.3,23.7-17.3
		c3.7,0,6.8,2.1,9.2,6.4c2.4,4.3,4.2,9.4,5.6,15.3c1.4,6,2,11.3,2,16.1c0,9.2-2.3,21.2-6.9,36c-4.6,14.8-11.1,31.3-19.4,49.5
		c-8.3,18.2-18.2,36.6-29.6,55.1c-11.4,18.5-23.8,36.3-37.2,53.3c-13.4,17-27.6,31.6-42.6,43.9c-2,9.2-3.7,18.1-4.8,26.8
		c-1.2,8.7-1.8,16.9-1.8,24.7c0,13.3,1.9,23.1,5.6,29.6c3.7,6.5,9.4,9.7,16.8,9.7c9.2,0,18.3-4.1,27.3-12.2
		c9-8.2,17.5-18.4,25.5-30.9c8-12.4,14.9-25.3,20.7-38.5l7.7,4.1c-13.6,28.9-28.4,51.8-44.4,68.6
		C743.8,385.9,726.7,394.4,708.3,394.4z M711.9,269.9c11.9-11.9,23.5-25.6,34.7-41.1c11.2-15.5,21.7-31.5,31.4-48.2
		c9.7-16.7,18.3-32.8,25.8-48.5c7.5-15.6,13.3-29.7,17.3-42.1c4.1-12.4,6.1-22,6.1-28.8c0-3.4-0.4-5.6-1.3-6.6
		c-0.9-1-1.6-1.5-2.3-1.5c-2.7,0-7.4,4.3-14,13c-6.6,8.7-14.4,20.3-23.2,34.9c-8.8,14.6-17.9,31.3-27,50
		c-9.2,18.7-17.9,38.3-26.3,58.7C724.7,230.1,717.6,250.2,711.9,269.9z"/>
	<path d="M823.1,392.3c-13.3,0-23.1-4.2-29.6-12.5c-6.5-8.3-9.7-18.4-9.7-30.4c0-7.8,1.5-17.7,4.3-29.6c2.9-11.9,6.7-24.4,11.5-37.5
		c4.8-13.1,10.3-25.4,16.6-37c6.3-11.6,13-21,20.2-28.3c7.1-7.3,14.1-11,20.9-11c3.1,0,5.7,0.9,7.9,2.8c2.2,1.9,3.3,4.7,3.3,8.4
		c0,4.1-2.6,10.7-7.9,19.9c-5.3,9.2-11.5,19.7-18.6,31.6c-7.1,11.9-13.4,24.4-18.6,37.5c-5.3,13.1-7.9,25.6-7.9,37.5
		c0,12.2,2,20.4,6.1,24.5s10.4,6.1,18.9,6.1c11.6,0,23.9-5.8,37-17.3c13.1-11.6,26.9-31.8,41.6-60.7l4.6,5.1
		c-9.9,29.3-24.1,51.7-42.6,67.3C862.4,384.5,843.1,392.3,823.1,392.3z M884.3,158.7c-5.4,0-10.3-1.4-14.5-4.1
		c-4.3-2.7-6.4-7-6.4-12.8c0-7.1,4.2-13.3,12.5-18.6c8.3-5.3,16.6-7.9,24.7-7.9c5.1,0,9.2,1.2,12.2,3.6c3.1,2.4,4.6,6.5,4.6,12.2
		c0,6.5-3.5,12.7-10.5,18.6C900,155.7,892.4,158.7,884.3,158.7z"/>
	<path d="M1166.4,394.9c-11.9,0-20.6-3.7-26-11c-5.4-7.3-8.2-16.1-8.2-26.3c0-8.5,1.3-17,3.8-25.5c2.6-8.5,5.1-16.8,7.7-25
		s3.8-15.5,3.8-21.9c0-6.8-1.5-11.6-4.6-14.3c-3.1-2.7-6.5-4.1-10.2-4.1c-8.5,0-17.8,6.6-27.8,19.9c-10,13.3-23,32-39,56.1
		c-5.4,8.2-10,16.4-13.8,24.7c-3.7,8.3-7.3,15.9-10.7,22.7c-2.7,0-6.1-0.3-10.2-1c-4.1-0.7-7.7-1.8-11-3.3c-3.2-1.5-4.8-3.5-4.8-5.9
		c0-2.4,1.6-8.1,4.8-17.1c3.2-9,7-19.6,11.2-31.6c4.2-12.1,8-24.3,11.2-36.7c3.2-12.4,4.8-23,4.8-31.9c0-5.8-0.9-10.5-2.8-14
		c-1.9-3.6-5.2-5.4-9.9-5.4c-7.5,0-16.5,4.5-27,13.5c-10.5,9-21.4,20.8-32.6,35.5c-11.2,14.6-21.9,30.7-31.9,48.2
		c-10,17.5-18.1,34.9-24.2,52.3c-3.1,0-6.8-0.5-11.2-1.5c-4.4-1-8.2-2.4-11.5-4.1c-3.2-1.7-4.8-3.4-4.8-5.1c0-2,1.8-8.1,5.4-18.1
		c3.6-10,7.7-22.1,12.2-36.2c4.6-14.1,8.7-28.5,12.2-43.1c3.6-14.6,5.4-27.5,5.4-38.8c2-2.4,5.3-4.8,9.7-7.1c4.4-2.4,9-3.6,13.8-3.6
		c4.8,0,8.2,1.2,10.5,3.6c2.2,2.4,3.3,5.6,3.3,9.7c0,4.4-1.3,12-3.8,22.7c-2.6,10.7-5.7,22.5-9.4,35.5c6.8-10.9,14.5-22,23.2-33.4
		c8.7-11.4,17.8-21.8,27.3-31.4c9.5-9.5,19.1-17.3,28.8-23.2c9.7-5.9,19.1-8.9,28.3-8.9c10.5,0,17.8,3.8,21.7,11.5
		c3.9,7.7,5.9,16.8,5.9,27.3c0,8.5-0.9,17.4-2.8,26.8c-1.9,9.4-4,18-6.4,26c-2.4,8-4.6,14.4-6.6,19.1c7.1-12.9,15-25.4,23.7-37.5
		c8.7-12.1,18.1-21.9,28.3-29.6s21.1-11.5,32.6-11.5c10.9,0,18.4,3.2,22.7,9.7c4.2,6.5,6.4,14.1,6.4,23c0,8.8-1.5,18.5-4.6,29.1
		c-3.1,10.5-6.2,20.7-9.4,30.6c-3.2,9.9-4.8,18.4-4.8,25.5c0,4.4,1.1,8.4,3.3,12c2.2,3.6,6.2,5.4,12,5.4c9.5,0,18.4-4.3,26.8-13
		c8.3-8.7,16.1-19.2,23.2-31.6c7.1-12.4,13.3-24.4,18.4-36l6.1,7.1c-5.4,14.3-12.4,28.5-20.9,42.6c-8.5,14.1-18.5,25.8-29.8,34.9
		C1192.5,390.3,1180,394.9,1166.4,394.9z"/>
	<path d="M1263.3,403c-10.5,0-19.5-3.5-26.8-10.5c-7.3-7-11-17.6-11-31.9c0-12.2,2.7-25.4,8.2-39.5c5.4-14.1,12.9-28.1,22.4-41.8
		c9.5-13.8,20.3-26.4,32.4-37.7c12.1-11.4,24.8-20.5,38.3-27.3c13.4-6.8,26.8-10.2,40-10.2s24.3,3.5,33.2,10.5
		c8.8,7,13.3,16.2,13.3,27.8c0,8.5-2.3,14.3-6.9,17.3c-4.6,3.1-10.6,4.6-18.1,4.6c0.7-2.7,1.3-5.7,1.8-8.9c0.5-3.2,0.8-6.2,0.8-8.9
		c0-7.8-1.9-14.5-5.6-20.2c-3.7-5.6-10.2-8.4-19.4-8.4c-9.5,0-19.2,3.3-29.1,9.9c-9.9,6.6-19.4,15.5-28.6,26.5
		c-9.2,11.1-17.3,23-24.5,36c-7.1,12.9-12.8,25.7-16.8,38.3c-4.1,12.6-6.1,23.8-6.1,33.7c0,13.3,4.6,19.9,13.8,19.9
		c7.8,0,16.3-3.7,25.5-11c9.2-7.3,18.6-16.7,28.3-28.1c9.7-11.4,19-23.2,27.8-35.5c8.8-12.2,16.7-23.5,23.5-33.7
		c1.4-2,2.2-3.1,2.5-3.1c2,0.3,4.7,1,7.9,2c3.2,1,6,2.4,8.4,4.1c2.4,1.7,3.6,3.9,3.6,6.6c0,3.1-1.5,7.2-4.6,12.5
		c-3.1,5.3-6.5,11.3-10.2,18.1c-3.7,6.8-7.1,13.7-10.2,20.7c-3.1,7-4.6,13.5-4.6,19.6c0,5.1,1.4,10.1,4.1,15
		c2.7,4.9,7.1,7.4,13.3,7.4c9.2,0,21.3-6.7,36.2-20.2c15-13.4,30.1-33.6,45.4-60.5l5.1,5.1c-7.1,18.4-16.3,34.5-27.5,48.5
		c-11.2,13.9-23.2,24.8-36,32.6s-25.3,11.7-37.5,11.7c-12.6,0-21.9-3.7-27.8-11.2c-6-7.5-8.9-15.6-8.9-24.5c0-2,0.2-4.3,0.5-6.9
		c0.3-2.6,0.7-5.2,1-7.9c-14.6,19.7-28,34.5-40,44.4C1288.2,398.1,1275.9,403,1263.3,403z"/>
</g>
</svg>
